<svg xmlns="http://www.w3.org/2000/svg" xmlns:xlink="http://www.w3.org/1999/xlink" width="295" height="184" viewBox="0 0 295 184">
  <defs>
    <clipPath id="clip-path">
      <rect id="Rectángulo_417688" data-name="Rectángulo 417688" width="295" height="184" transform="translate(1020 3623)" fill="#fff" stroke="#707070" stroke-width="1"/>
    </clipPath>
  </defs>
  <g id="Enmascarar_grupo_1098913" data-name="Enmascarar grupo 1098913" transform="translate(-1020 -3623)" clip-path="url(#clip-path)">
    <g id="Grupo_1206858" data-name="Grupo 1206858">
      <g id="Grupo_1206570" data-name="Grupo 1206570" transform="translate(1065.808 3632.946)">
        <path id="Trazado_1048423" data-name="Trazado 1048423" d="M263,126.89a94.433,94.433,0,1,0,94.434-94.432A94.432,94.432,0,0,0,263,126.89Z" transform="translate(-262.997 -12.708)" fill="#e9f7ff"/>
        <path id="Trazado_1048424" data-name="Trazado 1048424" d="M339.181,190.556s17.517-39.994,16.056-42.622S324,145.6,322.834,149.1,336.554,190.848,339.181,190.556Z" transform="translate(-222.994 -58.591)" fill="#8fc6ff"/>
        <g id="Grupo_1206566" data-name="Grupo 1206566" transform="translate(86.406 0)">
          <path id="Trazado_1048425" data-name="Trazado 1048425" d="M345.854,124.266s.094,7.873.094,9.036-14.012,21.019-14.012,21.019-5.68-18.927-5.68-19.425V123.933Z" transform="translate(-303.321 -57.386)" fill="#8e3c29"/>
          <path id="Trazado_1048426" data-name="Trazado 1048426" d="M297.978,89.387c.224-1.463,3.378-9.8,8.56-7.1s2.815,19.261-3.379,20.612-7.1-4.956-7.1-4.956Z" transform="translate(-238.195 -55.103)" fill="#8e3c29"/>
          <path id="Trazado_1048427" data-name="Trazado 1048427" d="M369.114,89.387c-.185-1.463-2.785-9.8-7.056-7.1s-2.322,19.261,2.787,20.612,5.847-4.956,5.847-4.956Z" transform="translate(-359.715 -55.103)" fill="#8e3c29"/>
          <path id="Trazado_1048428" data-name="Trazado 1048428" d="M309.653,71.331c2.305-6.926,6.707-12.915,14.642-15.839a34.119,34.119,0,0,1,11.864-1.914h.029c10.357,0,19.165,7.72,22.442,18.5A31.942,31.942,0,0,1,360,81.369V93.411c0,15.349-10.661,27.433-23.81,27.433h-.029c-23.718,0-28.742-17.6-28.742-32.948V86.883A49.791,49.791,0,0,1,309.653,71.331Zm14.914-14.888a.161.161,0,0,0,.009.026A.161.161,0,0,1,324.567,56.443Z" transform="translate(-299.555 -53.578)" fill="#a65c39"/>
          <path id="Trazado_1048429" data-name="Trazado 1048429" d="M311.75,95.673a7.59,7.59,0,1,0,7.591-7.59A7.591,7.591,0,0,0,311.75,95.673Z" transform="translate(-270.585 -55.446)" fill="#f73737" opacity="0.25"/>
          <path id="Trazado_1048430" data-name="Trazado 1048430" d="M345.777,95.673c0,4.192,2.861,7.591,6.391,7.591s6.392-3.4,6.392-7.591-2.861-7.59-6.392-7.59S345.777,91.482,345.777,95.673Z" transform="translate(-334.4 -55.446)" fill="#f73737" opacity="0.25"/>
          <path id="Trazado_1048431" data-name="Trazado 1048431" d="M308.416,84.731c-1.37,2.351-3.285,5.258-4.85,7.785,2.812,1.8.428,6.529-2.466,4.216" transform="translate(-241.997 -55.264)" fill="none" stroke="#000" stroke-linecap="round" stroke-linejoin="round" stroke-miterlimit="10" stroke-width="0.463"/>
          <path id="Trazado_1048432" data-name="Trazado 1048432" d="M360.792,84.731c1.128,2.351,2.708,5.258,4,7.785-2.317,1.8-.353,6.529,2.033,4.216" transform="translate(-356.864 -55.264)" fill="none" stroke="#000" stroke-linecap="round" stroke-linejoin="round" stroke-miterlimit="10" stroke-width="0.463"/>
          <path id="Trazado_1048433" data-name="Trazado 1048433" d="M360.724,88.725c-.352-.735-11.734,12.694-12.651,12.521s-13.18-.848-17-.848-15.091-.7-15.7-.7-6.418-9.253-7.182-8.392-1.833,28.941.764,31.7,46.456,4.134,48.442,1.034S361.3,89.936,360.724,88.725Z" transform="translate(-300.28 -55.479)" fill="#670500"/>
          <path id="Trazado_1048434" data-name="Trazado 1048434" d="M314.615,113.423c16.1,9.515,32.2,2.512,46.262-6.179-.655,8.105-1.61,16.279-2.58,17.794-1.986,3.1-45.845,1.723-48.442-1.034-1.253-1.329-1.651-8.552-1.644-15.769A25.054,25.054,0,0,0,314.615,113.423Z" transform="translate(-301.182 -56.483)" fill="#510200"/>
          <path id="Trazado_1048435" data-name="Trazado 1048435" d="M332.039,86.316c-.993.091-1.494,3.9-.166,3.986S332.952,86.233,332.039,86.316Z" transform="translate(-294.723 -55.35)"/>
          <line id="Línea_3589" data-name="Línea 3589" x1="2.325" y2="1.329" transform="translate(30.838 42.177)" fill="none" stroke="#000" stroke-linecap="round" stroke-linejoin="round" stroke-miterlimit="10" stroke-width="0.463"/>
          <line id="Línea_3590" data-name="Línea 3590" x1="11.642" y2="3.271" transform="translate(31.385 47.022)" fill="none" stroke="#000" stroke-linecap="round" stroke-linejoin="round" stroke-miterlimit="10" stroke-width="0.463"/>
          <line id="Línea_3591" data-name="Línea 3591" x1="12.132" y1="3.916" transform="translate(17.102 46.256)" fill="none" stroke="#000" stroke-linecap="round" stroke-linejoin="round" stroke-miterlimit="10" stroke-width="0.463"/>
          <line id="Línea_3592" data-name="Línea 3592" x1="2.158" y1="1.495" transform="translate(27.433 42.011)" fill="none" stroke="#000" stroke-linecap="round" stroke-linejoin="round" stroke-miterlimit="10" stroke-width="0.463"/>
          <path id="Trazado_1048436" data-name="Trazado 1048436" d="M332.877,84.522a1.453,1.453,0,0,0-2.325-.166" transform="translate(-294.315 -55.217)" fill="none" stroke="#000" stroke-linecap="round" stroke-linejoin="round" stroke-miterlimit="10" stroke-width="0.463"/>
          <path id="Trazado_1048437" data-name="Trazado 1048437" d="M343.1,86.316c.992.091,1.494,3.9.166,3.986S342.188,86.233,343.1,86.316Z" transform="translate(-316.662 -55.35)"/>
          <path id="Trazado_1048438" data-name="Trazado 1048438" d="M342.227,84.522a1.454,1.454,0,0,1,2.326-.166" transform="translate(-317.034 -55.217)" fill="none" stroke="#000" stroke-linecap="round" stroke-linejoin="round" stroke-miterlimit="10" stroke-width="0.463"/>
          <path id="Trazado_1048439" data-name="Trazado 1048439" d="M341.353,107.9a6.976,6.976,0,0,1-5.283-.2" transform="translate(-308.011 -56.507)" fill="none" stroke="#000" stroke-linecap="round" stroke-linejoin="round" stroke-miterlimit="10" stroke-width="0.463"/>
          <path id="Trazado_1048440" data-name="Trazado 1048440" d="M335.576,81.311c.159.529-4.624-1.868-6.2-1.868s-4.4.124-4.511-.375,2.932-4.609,5.076-4.484S335.35,80.564,335.576,81.311Z" transform="translate(-291.633 -54.715)" fill="#510200"/>
          <path id="Trazado_1048441" data-name="Trazado 1048441" d="M340.369,81.311c-.151.529,4.4-1.868,5.906-1.868s4.187.124,4.3-.375-2.792-4.609-4.832-4.484S340.584,80.564,340.369,81.311Z" transform="translate(-321.293 -54.715)" fill="#510200"/>
          <path id="Trazado_1048442" data-name="Trazado 1048442" d="M308.625,96.859a87.187,87.187,0,0,0,.656-20.58" transform="translate(-250.309 -54.807)" fill="none" stroke="#000" stroke-linecap="round" stroke-linejoin="round" stroke-miterlimit="10" stroke-width="0.463"/>
          <path id="Trazado_1048443" data-name="Trazado 1048443" d="M324.265,125.454a47.589,47.589,0,0,1-11.807.639" transform="translate(-268.589 -57.468)" fill="none" stroke="#000" stroke-linecap="round" stroke-linejoin="round" stroke-miterlimit="10" stroke-width="0.463"/>
          <path id="Trazado_1048444" data-name="Trazado 1048444" d="M354.14,56.526a19.841,19.841,0,0,0-8.9,7.444" transform="translate(-329.468 -53.738)" fill="none" stroke="#fff" stroke-linecap="round" stroke-linejoin="round" stroke-miterlimit="10" stroke-width="0.926"/>
          <path id="Trazado_1048445" data-name="Trazado 1048445" d="M341.025,96.339c-1.163,1.127-2.48,1.177-3.5,0" transform="translate(-309.055 -55.893)" fill="none" stroke="#fff" stroke-linecap="round" stroke-linejoin="round" stroke-miterlimit="10" stroke-width="0.926"/>
        </g>
        <g id="Grupo_1206567" data-name="Grupo 1206567" transform="translate(11.139 157.027)">
          <path id="Trazado_1048446" data-name="Trazado 1048446" d="M381.917,234.574H446.86s.664-13.122,0-14.286-64-.664-64.661,0S381.917,234.574,381.917,234.574Z" transform="translate(-381.807 -219.591)" fill="#f4e9b3"/>
          <line id="Línea_3593" data-name="Línea 3593" x1="42.604" transform="translate(12.068 4.102)" fill="none" stroke="#000" stroke-linecap="round" stroke-linejoin="round" stroke-miterlimit="10" stroke-width="0.463"/>
          <line id="Línea_3594" data-name="Línea 3594" x1="56.556" transform="translate(5.092 7.092)" fill="none" stroke="#000" stroke-linecap="round" stroke-linejoin="round" stroke-miterlimit="10" stroke-width="0.463"/>
          <line id="Línea_3595" data-name="Línea 3595" x1="13.704" transform="translate(27.016 11.327)" fill="none" stroke="#000" stroke-linecap="round" stroke-linejoin="round" stroke-miterlimit="10" stroke-width="0.463"/>
        </g>
        <g id="Grupo_1206568" data-name="Grupo 1206568" transform="translate(73.782 71.688)">
          <path id="Trazado_1048447" data-name="Trazado 1048447" d="M341.151,157.362c-.83-1.661-31.725-17.107-33.053-17.274s-9.966,11.627-9.966,11.627-12.457,31.89-12.29,33.717-1.985,44.679-1.985,44.679h54.3Z" transform="translate(-245.799 -129.949)" fill="#246eda"/>
          <path id="Trazado_1048448" data-name="Trazado 1048448" d="M341.208,183.8l-2,48.676H284.9s.883-17.59,1.475-30.712C305.136,197.255,323.929,192.092,341.208,183.8Z" transform="translate(-246.845 -132.315)" fill="#1665c4"/>
          <path id="Trazado_1048449" data-name="Trazado 1048449" d="M341.67,154.538c.607-1.661,23.251-14.283,24.227-14.449s7.3,11.627,7.3,11.627,9.26,31.89,9.139,33.717-.5,44.679-.5,44.679H343.861Z" transform="translate(-341.67 -129.949)" fill="#246eda"/>
          <path id="Trazado_1048450" data-name="Trazado 1048450" d="M299.914,158.318c-1.752-3.194-11.628,7.308-16.776,25.08s-6.478,47.5-6.478,47.5h29.9S308.384,173.765,299.914,158.318Z" transform="translate(-204.561 -130.905)" fill="#024dc0"/>
          <path id="Trazado_1048451" data-name="Trazado 1048451" d="M306.719,218.51c.031,8.716-.163,14.788-.163,14.788h-29.9s.709-15.831,3.093-31.294C288.742,207.505,297.99,212.576,306.719,218.51Z" transform="translate(-204.561 -133.3)" fill="#0050a0"/>
          <path id="Trazado_1048452" data-name="Trazado 1048452" d="M336.177,141.642c.658,1.507,5.979,25.578,4.318,28.9s-26.243,35.545-26.243,33.552-.665-17.44-.166-19.6,11.128-32.389,11.959-34.215S335.015,138.984,336.177,141.642Z" transform="translate(-273.878 -130.007)" fill="#3184e8"/>
          <path id="Trazado_1048453" data-name="Trazado 1048453" d="M345.194,141.642c-.483,1.507-4.38,25.578-3.164,28.9S361.26,206.088,361.26,204.1s.487-17.44.122-19.6-8.155-32.389-8.764-34.215S346.045,138.984,345.194,141.642Z" transform="translate(-320.967 -130.007)" fill="#3184e8"/>
          <path id="Trazado_1048454" data-name="Trazado 1048454" d="M346.234,129.377c.785-.333,10.46,9.615,10.591,10.944s3.268,14.469,2.614,15.3-4.314-10.289-4.838-9.792-3.137,13.768-3.137,13.768l-10.59-19.424S345.45,129.709,346.234,129.377Z" transform="translate(-318.105 -129.368)" fill="#a9d6ff"/>
          <path id="Trazado_1048455" data-name="Trazado 1048455" d="M332.708,129.377c-1-.333-13.287,9.615-13.453,10.944s-4.152,14.469-3.323,15.3,5.481-10.289,6.146-9.792,3.986,13.768,3.986,13.768l13.454-19.424S333.705,129.709,332.708,129.377Z" transform="translate(-274.395 -129.368)" fill="#a9d6ff"/>
          <path id="Trazado_1048456" data-name="Trazado 1048456" d="M336.751,232.332H305.866s-11.627-22.256-11.46-22.921,11.128-25.745,12.789-25.246S325.89,204.58,336.751,232.332Z" transform="translate(-251.373 -132.334)" fill="#024dc0"/>
          <line id="Línea_3596" data-name="Línea 3596" x1="12.185" y2="22.069" transform="translate(46.676 55.957)" fill="none" stroke="#000" stroke-linecap="round" stroke-linejoin="round" stroke-miterlimit="10" stroke-width="0.463"/>
          <line id="Línea_3597" data-name="Línea 3597" x1="12.844" y1="6.422" transform="translate(79.48 88.303)" fill="none" stroke="#000" stroke-linecap="round" stroke-linejoin="round" stroke-miterlimit="10" stroke-width="0.463"/>
        </g>
        <g id="Grupo_1206569" data-name="Grupo 1206569" transform="translate(50.531 95.569)">
          <path id="Trazado_1048457" data-name="Trazado 1048457" d="M408.423,182.152s-6.288-8.3-9.017-7.474-6.527,5.813-5.1,15.447S408.423,182.152,408.423,182.152Z" transform="translate(-393.993 -155.699)" fill="#8e3c29"/>
          <path id="Trazado_1048458" data-name="Trazado 1048458" d="M392.233,155.657c-.767-1.205-51.989-1.5-52.986-.166s3.82,72.75,4.817,73.746,51.325-.333,51.824-1.329S393.4,157.484,392.233,155.657Z" transform="translate(-329.605 -154.616)" fill="#fef8d4"/>
          <path id="Trazado_1048459" data-name="Trazado 1048459" d="M393.184,191.892c.878,18.368,1.559,37.322,1.3,37.839-.5,1-50.826,2.325-51.824,1.329-.553-.553-2.287-22.853-3.547-42.788C355.4,196.7,375.343,197.681,393.184,191.892Z" transform="translate(-328.201 -156.438)" fill="#f4e9b3"/>
          <path id="Trazado_1048460" data-name="Trazado 1048460" d="M388.3,185.646c1.426-2.4,16.851-6.311,18.155-4.152s1.543,22.091-.119,23.586-13.527,4.318-16.018,1.827S387.11,187.639,388.3,185.646Z" transform="translate(-387.156 -156.037)" fill="#a65c39"/>
          <path id="Trazado_1048461" data-name="Trazado 1048461" d="M388.686,189.635c4.517-.612,9.91-1.11,14.6-1.993" transform="translate(-383.833 -156.404)" fill="none" stroke="#000" stroke-linecap="round" stroke-linejoin="round" stroke-miterlimit="10" stroke-width="0.463"/>
          <path id="Trazado_1048462" data-name="Trazado 1048462" d="M388.185,195.947c5.221-.5,9.578-1.384,14.476-2.158" transform="translate(-382.737 -156.737)" fill="none" stroke="#000" stroke-linecap="round" stroke-linejoin="round" stroke-miterlimit="10" stroke-width="0.463"/>
          <path id="Trazado_1048463" data-name="Trazado 1048463" d="M388.059,202.25a96.193,96.193,0,0,0,14-2.491" transform="translate(-382.018 -157.06)" fill="none" stroke="#000" stroke-linecap="round" stroke-linejoin="round" stroke-miterlimit="10" stroke-width="0.463"/>
          <path id="Trazado_1048464" data-name="Trazado 1048464" d="M328,182.152s8.8-8.3,12.624-7.474,9.134,5.813,7.141,15.447S328,182.152,328,182.152Z" transform="translate(-271.353 -155.699)" fill="#8e3c29"/>
          <path id="Trazado_1048465" data-name="Trazado 1048465" d="M355.75,185.646c-2-2.4-23.585-6.311-25.413-4.152s-2.159,22.091.166,23.586,18.934,4.318,22.423,1.827S357.41,187.639,355.75,185.646Z" transform="translate(-280.497 -156.037)" fill="#a65c39"/>
          <path id="Trazado_1048466" data-name="Trazado 1048466" d="M355.616,189.635c-6.32-.612-13.869-1.11-20.43-1.993" transform="translate(-285.562 -156.404)" fill="none" stroke="#000" stroke-linecap="round" stroke-linejoin="round" stroke-miterlimit="10" stroke-width="0.463"/>
          <path id="Trazado_1048467" data-name="Trazado 1048467" d="M356.327,195.947c-7.309-.5-13.408-1.384-20.263-2.158" transform="translate(-287.104 -156.737)" fill="none" stroke="#000" stroke-linecap="round" stroke-linejoin="round" stroke-miterlimit="10" stroke-width="0.463"/>
          <path id="Trazado_1048468" data-name="Trazado 1048468" d="M356.541,202.25a183.941,183.941,0,0,1-19.6-2.491" transform="translate(-288.148 -157.06)" fill="none" stroke="#000" stroke-linecap="round" stroke-linejoin="round" stroke-miterlimit="10" stroke-width="0.463"/>
        </g>
      </g>
      <g id="_x34_3" transform="translate(1043.67 3612.524)">
        <g id="Grupo_1206795" data-name="Grupo 1206795" transform="translate(3.634 54.641)">
          <g id="Grupo_1206794" data-name="Grupo 1206794">
            <g id="Grupo_1206793" data-name="Grupo 1206793">
              <g id="Grupo_1206792" data-name="Grupo 1206792">
                <g id="Grupo_1206787" data-name="Grupo 1206787">
                  <g id="Grupo_1206780" data-name="Grupo 1206780" transform="translate(0.747)">
                    <g id="Grupo_1206735" data-name="Grupo 1206735" transform="translate(6.544 0.649)">
                      <g id="Grupo_1206734" data-name="Grupo 1206734">
                        <path id="Trazado_1048658" data-name="Trazado 1048658" d="M61.252,64.082a27.952,27.952,0,0,1-1.433,5.936c-3.889,11.054-14.125,19.242-26.2,19.038C18.469,88.647,6.6,75.137,7.005,58.965S19.9,29.9,34.845,30.1C52.041,30.511,63.914,47.5,61.252,64.082Z" transform="translate(-6.995 -30.099)" fill="#ffdc00"/>
                      </g>
                    </g>
                    <g id="Grupo_1206738" data-name="Grupo 1206738" transform="translate(42.174 6.997)">
                      <g id="Grupo_1206737" data-name="Grupo 1206737">
                        <g id="Grupo_1206736" data-name="Grupo 1206736">
                          <path id="Trazado_1048659" data-name="Trazado 1048659" d="M34.84,34.838l-10.44-.2V33.2l9.007.2A4.783,4.783,0,0,0,34.84,34.838Z" transform="translate(-24.4 -33.2)" fill="#f4cb00"/>
                        </g>
                      </g>
                    </g>
                    <g id="Grupo_1206741" data-name="Grupo 1206741" transform="translate(37.465 2.903)">
                      <g id="Grupo_1206740" data-name="Grupo 1206740">
                        <g id="Grupo_1206739" data-name="Grupo 1206739">
                          <path id="Trazado_1048660" data-name="Trazado 1048660" d="M31.721,32.838l-9.621-.2V31.2l6.755.2a12.506,12.506,0,0,1,2.866,1.433Z" transform="translate(-22.1 -31.2)" fill="#f4cb00"/>
                        </g>
                      </g>
                    </g>
                    <g id="Grupo_1206744" data-name="Grupo 1206744" transform="translate(44.425 12.524)">
                      <g id="Grupo_1206743" data-name="Grupo 1206743">
                        <g id="Grupo_1206742" data-name="Grupo 1206742">
                          <path id="Trazado_1048661" data-name="Trazado 1048661" d="M37.782,37.538l-12.282-.2V35.9l11.259.2A3.672,3.672,0,0,1,37.782,37.538Z" transform="translate(-25.5 -35.9)" fill="#f4cb00"/>
                        </g>
                      </g>
                    </g>
                    <g id="Grupo_1206747" data-name="Grupo 1206747" transform="translate(45.858 19.689)">
                      <g id="Grupo_1206746" data-name="Grupo 1206746">
                        <g id="Grupo_1206745" data-name="Grupo 1206745">
                          <path id="Trazado_1048662" data-name="Trazado 1048662" d="M40.325,41.038l-14.125-.2V39.4l13.715.2A2.959,2.959,0,0,0,40.325,41.038Z" transform="translate(-26.2 -39.4)" fill="#f4cb00"/>
                        </g>
                      </g>
                    </g>
                    <g id="Grupo_1206750" data-name="Grupo 1206750" transform="translate(46.472 26.853)">
                      <g id="Grupo_1206749" data-name="Grupo 1206749">
                        <g id="Grupo_1206748" data-name="Grupo 1206748">
                          <path id="Trazado_1048663" data-name="Trazado 1048663" d="M41.034,44.538l-14.534-.2V42.9l14.534.2Z" transform="translate(-26.5 -42.9)" fill="#f4cb00"/>
                        </g>
                      </g>
                    </g>
                    <g id="Grupo_1206753" data-name="Grupo 1206753" transform="translate(44.63 32.79)">
                      <g id="Grupo_1206752" data-name="Grupo 1206752">
                        <g id="Grupo_1206751" data-name="Grupo 1206751">
                          <path id="Trazado_1048664" data-name="Trazado 1048664" d="M41.976,46.209a3.484,3.484,0,0,1-.2,1.433L25.6,47.233V45.8Z" transform="translate(-25.6 -45.8)" fill="#f4cb00"/>
                        </g>
                      </g>
                    </g>
                    <g id="Grupo_1206756" data-name="Grupo 1206756" transform="translate(44.63 38.931)">
                      <g id="Grupo_1206755" data-name="Grupo 1206755">
                        <g id="Grupo_1206754" data-name="Grupo 1206754">
                          <path id="Trazado_1048665" data-name="Trazado 1048665" d="M40.748,49c-.2.409-.2,1.024-.409,1.433l-14.739-.2V48.8Z" transform="translate(-25.6 -48.8)" fill="#f4cb00"/>
                        </g>
                      </g>
                    </g>
                    <g id="Grupo_1206759" data-name="Grupo 1206759" transform="translate(40.536 44.867)">
                      <g id="Grupo_1206758" data-name="Grupo 1206758">
                        <g id="Grupo_1206757" data-name="Grupo 1206757">
                          <path id="Trazado_1048666" data-name="Trazado 1048666" d="M40.181,52.109a8.9,8.9,0,0,0-.819,1.433L23.6,53.133V51.7Z" transform="translate(-23.6 -51.7)" fill="#f4cb00"/>
                        </g>
                      </g>
                    </g>
                    <g id="Grupo_1206762" data-name="Grupo 1206762" transform="translate(38.489 49.78)">
                      <g id="Grupo_1206761" data-name="Grupo 1206761">
                        <g id="Grupo_1206760" data-name="Grupo 1206760">
                          <path id="Trazado_1048667" data-name="Trazado 1048667" d="M37.953,54.3a8.9,8.9,0,0,0-1.228,1.433l-14.125-.2V54.1Z" transform="translate(-22.6 -54.1)" fill="#f4cb00"/>
                        </g>
                      </g>
                    </g>
                    <g id="Grupo_1206765" data-name="Grupo 1206765" transform="translate(33.371 54.284)">
                      <g id="Grupo_1206764" data-name="Grupo 1206764">
                        <g id="Grupo_1206763" data-name="Grupo 1206763">
                          <path id="Trazado_1048668" data-name="Trazado 1048668" d="M35.453,56.5c-.614.409-1.433,1.024-2.047,1.433l-13.306-.2V56.3Z" transform="translate(-20.1 -56.3)" fill="#f4cb00"/>
                        </g>
                      </g>
                    </g>
                    <g id="Grupo_1206767" data-name="Grupo 1206767" transform="translate(26.32 6.178)">
                      <g id="Grupo_1206766" data-name="Grupo 1206766">
                        <path id="Trazado_1048669" data-name="Trazado 1048669" d="M16.747,86.024c16.991,2.661,32.139-13.1,29.887-31.934A30.906,30.906,0,0,0,33.942,32.8c-2.456,16.991-5.118,34.186-7.574,51.381,0-1.024-.2-2.047-.2-2.866a80.8,80.8,0,0,0-9.416,4.708c0-.2-.2,0,0,0Z" transform="translate(-16.656 -32.8)"/>
                      </g>
                    </g>
                    <g id="Grupo_1206769" data-name="Grupo 1206769" transform="translate(0)">
                      <g id="Grupo_1206768" data-name="Grupo 1206768">
                        <ellipse id="Elipse_14311" data-name="Elipse 14311" cx="29.478" cy="27.226" rx="29.478" ry="27.226" transform="translate(0 58.955) rotate(-88.854)" fill="#fce67a"/>
                      </g>
                    </g>
                    <g id="Grupo_1206771" data-name="Grupo 1206771" transform="translate(8.172 9.576)">
                      <g id="Grupo_1206770" data-name="Grupo 1206770" transform="translate(0 0)">
                        <ellipse id="Elipse_14312" data-name="Elipse 14312" cx="20.061" cy="19.242" rx="20.061" ry="19.242" transform="translate(0 40.122) rotate(-88.854)" fill="#ffdc00"/>
                      </g>
                    </g>
                    <g id="Grupo_1206779" data-name="Grupo 1206779" transform="translate(20.02 14.027)">
                      <g id="Grupo_1206774" data-name="Grupo 1206774" transform="translate(0 3.01)">
                        <g id="Grupo_1206773" data-name="Grupo 1206773">
                          <g id="Grupo_1206772" data-name="Grupo 1206772">
                            <path id="Trazado_1048670" data-name="Trazado 1048670" d="M20.583,59.385c3.071-.2,4.3-1.842,4.094-3.889s-1.433-3.071-4.708-3.889c-4.094-1.024-6.141-3.071-6.346-5.732-.614-5.527,5.118-8.6,10.849-7.574.819.2,2.252.2,2.456,1.228a2.273,2.273,0,0,1-.819,2.252c-.614.409-1.638-.2-2.252-.2-3.275-.614-6.551.409-6.346,3.48.2,1.842,1.638,2.661,4.708,3.48,4.094,1.024,6.551,3.071,6.755,6.551.614,6.346-6.141,8.8-12.282,7.369-1.228-.2-2.456-.614-2.456-2.047a1.564,1.564,0,0,1,.409-1.024c1.024-1.433,2.866.2,5.936,0Z" transform="translate(-13.578 -38.105)" fill="#fff"/>
                          </g>
                        </g>
                      </g>
                      <g id="Grupo_1206776" data-name="Grupo 1206776" transform="translate(6.186)">
                        <g id="Grupo_1206775" data-name="Grupo 1206775">
                          <path id="Trazado_1048671" data-name="Trazado 1048671" d="M16.6,40.658V38c0-.614,0-1.024.819-1.228a1.6,1.6,0,0,1,1.638.2c.2.2.2.409.2,3.48" transform="translate(-16.6 -36.634)" fill="#fff"/>
                        </g>
                      </g>
                      <g id="Grupo_1206778" data-name="Grupo 1206778" transform="translate(5.163 26.132)">
                        <g id="Grupo_1206777" data-name="Grupo 1206777">
                          <path id="Trazado_1048672" data-name="Trazado 1048672" d="M16.1,49.4v2.661c0,.614,0,1.024.614,1.228a1.6,1.6,0,0,0,1.638-.2c.2-.2.2-.409.2-3.48" transform="translate(-16.1 -49.4)" fill="#fff"/>
                        </g>
                      </g>
                    </g>
                  </g>
                  <g id="Grupo_1206782" data-name="Grupo 1206782" transform="translate(0 4.578)">
                    <g id="Grupo_1206781" data-name="Grupo 1206781">
                      <path id="Trazado_1048673" data-name="Trazado 1048673" d="M29.158,87.661A30.727,30.727,0,0,1,16.466,32.186c.819-.614,1.638.614.819,1.228A29.161,29.161,0,0,0,29.363,86.023c1.024.2.819,1.842-.2,1.638Z" transform="translate(-3.433 -32.018)"/>
                    </g>
                  </g>
                  <g id="Grupo_1206784" data-name="Grupo 1206784" transform="translate(8.383 18.326)">
                    <g id="Grupo_1206783" data-name="Grupo 1206783">
                      <path id="Trazado_1048674" data-name="Trazado 1048674" d="M11.974,62.615A19.673,19.673,0,0,1,10.95,39.073c.614-.819,1.842,0,1.228.819A18.127,18.127,0,0,0,13,61.591C13.816,62.41,12.588,63.434,11.974,62.615Z" transform="translate(-7.528 -38.734)"/>
                    </g>
                  </g>
                  <g id="Grupo_1206786" data-name="Grupo 1206786" transform="translate(38.116 30.129)">
                    <g id="Grupo_1206785" data-name="Grupo 1206785">
                      <path id="Trazado_1048675" data-name="Trazado 1048675" d="M22.354,60.876a18.567,18.567,0,0,0,7.779-15.558.819.819,0,1,1,1.638,0A20.291,20.291,0,0,1,23.378,62.1c-.819.614-1.842-.614-1.024-1.228Z" transform="translate(-22.053 -44.5)"/>
                    </g>
                  </g>
                </g>
                <g id="Grupo_1206789" data-name="Grupo 1206789" transform="translate(38.826 5.359)">
                  <g id="Grupo_1206788" data-name="Grupo 1206788">
                    <path id="Trazado_1048676" data-name="Trazado 1048676" d="M29.974,36.289a3.849,3.849,0,0,0-3.889,3.685A3.849,3.849,0,0,0,22.4,36.085,3.849,3.849,0,0,0,26.289,32.4a3.892,3.892,0,0,0,1.024,2.661,3.3,3.3,0,0,0,2.661,1.228Z" transform="translate(-22.4 -32.4)" fill="#fff"/>
                  </g>
                </g>
                <g id="Grupo_1206791" data-name="Grupo 1206791" transform="translate(44.149 13.138)">
                  <g id="Grupo_1206790" data-name="Grupo 1206790">
                    <path id="Trazado_1048677" data-name="Trazado 1048677" d="M29.708,38.656a2.617,2.617,0,0,0-2.456,2.252A2.617,2.617,0,0,0,25,38.452,2.617,2.617,0,0,0,27.456,36.2a2.324,2.324,0,0,0,.614,1.638,1.862,1.862,0,0,0,1.638.819Z" transform="translate(-25 -36.2)" fill="#fff"/>
                  </g>
                </g>
              </g>
            </g>
          </g>
        </g>
        <g id="Grupo_1206857" data-name="Grupo 1206857" transform="translate(54.387 28.537)">
          <g id="Grupo_1206856" data-name="Grupo 1206856" transform="translate(0 0)">
            <g id="Grupo_1206855" data-name="Grupo 1206855">
              <g id="Grupo_1206854" data-name="Grupo 1206854">
                <g id="Grupo_1206849" data-name="Grupo 1206849">
                  <g id="Grupo_1206842" data-name="Grupo 1206842" transform="translate(0.68)">
                    <g id="Grupo_1206797" data-name="Grupo 1206797" transform="translate(4.387 0.58)">
                      <g id="Grupo_1206796" data-name="Grupo 1206796">
                        <path id="Trazado_1048678" data-name="Trazado 1048678" d="M65.894,45.421a8.666,8.666,0,0,1-1.433,1.024C52.384,54.224,36.212,45.217,35.8,29.659,35.393,9.8,59.549,1,69.989,17.376,76.334,26.588,74.083,39.28,65.894,45.421Z" transform="translate(-35.797 -8.82)" fill="#ffdc00"/>
                      </g>
                    </g>
                    <g id="Grupo_1206800" data-name="Grupo 1206800" transform="translate(28.547 4.428)">
                      <g id="Grupo_1206799" data-name="Grupo 1206799">
                        <g id="Grupo_1206798" data-name="Grupo 1206798">
                          <path id="Trazado_1048679" data-name="Trazado 1048679" d="M54.765,11.724l-7.165.2V10.9l6.141-.2A2.467,2.467,0,0,0,54.765,11.724Z" transform="translate(-47.6 -10.7)" fill="#f4cb00"/>
                        </g>
                      </g>
                    </g>
                    <g id="Grupo_1206803" data-name="Grupo 1206803" transform="translate(25.067 1.767)">
                      <g id="Grupo_1206802" data-name="Grupo 1206802">
                        <g id="Grupo_1206801" data-name="Grupo 1206801">
                          <path id="Trazado_1048680" data-name="Trazado 1048680" d="M52.655,10.424l-6.755.2V9.6l4.708-.2C51.222,9.809,52.041,10.014,52.655,10.424Z" transform="translate(-45.9 -9.4)" fill="#f4cb00"/>
                        </g>
                      </g>
                    </g>
                    <g id="Grupo_1206806" data-name="Grupo 1206806" transform="translate(30.185 8.113)">
                      <g id="Grupo_1206805" data-name="Grupo 1206805">
                        <g id="Grupo_1206804" data-name="Grupo 1206804">
                          <path id="Trazado_1048681" data-name="Trazado 1048681" d="M56.793,13.524l-8.393.2V12.7l7.779-.2C56.384,12.909,56.588,13.114,56.793,13.524Z" transform="translate(-48.4 -12.5)" fill="#f4cb00"/>
                        </g>
                      </g>
                    </g>
                    <g id="Grupo_1206809" data-name="Grupo 1206809" transform="translate(31.413 13.026)">
                      <g id="Grupo_1206808" data-name="Grupo 1206808">
                        <g id="Grupo_1206807" data-name="Grupo 1206807">
                          <path id="Trazado_1048682" data-name="Trazado 1048682" d="M58.621,15.924l-9.621.2V15.1l9.416-.2a8.866,8.866,0,0,1,.2,1.024Z" transform="translate(-49 -14.9)" fill="#f4cb00"/>
                        </g>
                      </g>
                    </g>
                    <g id="Grupo_1206812" data-name="Grupo 1206812" transform="translate(32.027 17.734)">
                      <g id="Grupo_1206811" data-name="Grupo 1206811">
                        <g id="Grupo_1206810" data-name="Grupo 1206810">
                          <path id="Trazado_1048683" data-name="Trazado 1048683" d="M59.331,18.224l-10.031.2V17.4l10.031-.2Z" transform="translate(-49.3 -17.2)" fill="#f4cb00"/>
                        </g>
                      </g>
                    </g>
                    <g id="Grupo_1206815" data-name="Grupo 1206815" transform="translate(31.004 22.033)">
                      <g id="Grupo_1206814" data-name="Grupo 1206814">
                        <g id="Grupo_1206813" data-name="Grupo 1206813">
                          <path id="Trazado_1048684" data-name="Trazado 1048684" d="M60.059,19.3v1.024L48.8,20.733V19.709Z" transform="translate(-48.8 -19.3)" fill="#f4cb00"/>
                        </g>
                      </g>
                    </g>
                    <g id="Grupo_1206818" data-name="Grupo 1206818" transform="translate(31.413 26.127)">
                      <g id="Grupo_1206817" data-name="Grupo 1206817">
                        <g id="Grupo_1206816" data-name="Grupo 1206816">
                          <path id="Trazado_1048685" data-name="Trazado 1048685" d="M59.235,21.3c0,.409-.2.614-.2,1.024L49,22.528V21.5Z" transform="translate(-49 -21.3)" fill="#f4cb00"/>
                        </g>
                      </g>
                    </g>
                    <g id="Grupo_1206821" data-name="Grupo 1206821" transform="translate(28.547 30.426)">
                      <g id="Grupo_1206820" data-name="Grupo 1206820" transform="translate(0 0)">
                        <g id="Grupo_1206819" data-name="Grupo 1206819">
                          <path id="Trazado_1048686" data-name="Trazado 1048686" d="M59.064,23.4c-.2.409-.409.614-.614,1.024l-10.849.2V23.6Z" transform="translate(-47.6 -23.4)" fill="#f4cb00"/>
                        </g>
                      </g>
                    </g>
                    <g id="Grupo_1206824" data-name="Grupo 1206824" transform="translate(27.319 33.906)">
                      <g id="Grupo_1206823" data-name="Grupo 1206823">
                        <g id="Grupo_1206822" data-name="Grupo 1206822">
                          <path id="Trazado_1048687" data-name="Trazado 1048687" d="M57.44,25.1c-.2.409-.614.614-.819,1.024l-9.621.2V25.3Z" transform="translate(-47 -25.1)" fill="#f4cb00"/>
                        </g>
                      </g>
                    </g>
                    <g id="Grupo_1206827" data-name="Grupo 1206827" transform="translate(23.839 37.181)">
                      <g id="Grupo_1206826" data-name="Grupo 1206826">
                        <g id="Grupo_1206825" data-name="Grupo 1206825">
                          <path id="Trazado_1048688" data-name="Trazado 1048688" d="M55.945,26.7a8.666,8.666,0,0,1-1.433,1.024l-9.212.2V26.9Z" transform="translate(-45.3 -26.7)" fill="#f4cb00"/>
                        </g>
                      </g>
                    </g>
                    <g id="Grupo_1206829" data-name="Grupo 1206829" transform="translate(19.244 4.019)">
                      <g id="Grupo_1206828" data-name="Grupo 1206828">
                        <path id="Trazado_1048689" data-name="Trazado 1048689" d="M43.147,47.756a17.794,17.794,0,0,0,15.148-6.346c7.984-9.416,5.732-24.565-4.913-30.911-1.228,11.873-2.456,23.746-3.48,35.619,0-.614-.2-1.433-.2-2.047-2.456,1.228-4.5,2.456-6.551,3.685,0-.2-.2,0,0,0Z" transform="translate(-43.056 -10.5)"/>
                      </g>
                    </g>
                    <g id="Grupo_1206831" data-name="Grupo 1206831" transform="translate(0)">
                      <g id="Grupo_1206830" data-name="Grupo 1206830">
                        <ellipse id="Elipse_14313" data-name="Elipse 14313" cx="18.833" cy="20.471" rx="18.833" ry="20.471" transform="translate(0 1.017) rotate(-1.547)" fill="#fce67a"/>
                      </g>
                    </g>
                    <g id="Grupo_1206833" data-name="Grupo 1206833" transform="translate(5.704 6.7)">
                      <g id="Grupo_1206832" data-name="Grupo 1206832" transform="translate(0 0)">
                        <ellipse id="Elipse_14314" data-name="Elipse 14314" cx="13.306" cy="13.92" rx="13.306" ry="13.92" transform="translate(0 0.719) rotate(-1.547)" fill="#ffdc00"/>
                      </g>
                    </g>
                    <g id="Grupo_1206841" data-name="Grupo 1206841" transform="translate(13.539 10.006)">
                      <g id="Grupo_1206836" data-name="Grupo 1206836" transform="translate(0 2.107)">
                        <g id="Grupo_1206835" data-name="Grupo 1206835">
                          <g id="Grupo_1206834" data-name="Grupo 1206834">
                            <path id="Trazado_1048690" data-name="Trazado 1048690" d="M43.813,29.082c2.456.409,4.913-.409,4.5-2.661-.2-1.433-1.228-2.047-3.275-2.456-2.866-.614-4.3-2.047-4.708-3.889-.614-3.685,3.275-6.141,7.165-5.527.614,0,1.433,0,1.638.819A1.592,1.592,0,0,1,48.726,17a2.31,2.31,0,0,1-1.638-.2c-2.252-.409-4.5.614-4.3,2.661.2,1.228,1.228,1.638,3.275,2.252,2.866.614,4.5,1.842,4.913,4.3.614,4.3-4.094,6.346-8.188,5.527-.819-.2-1.842-.2-1.842-1.228a1.231,1.231,0,0,1,.2-.819A2.246,2.246,0,0,1,43.813,29.082Z" transform="translate(-40.269 -14.454)" fill="#fff"/>
                          </g>
                        </g>
                      </g>
                      <g id="Grupo_1206838" data-name="Grupo 1206838" transform="translate(4.158)">
                        <g id="Grupo_1206837" data-name="Grupo 1206837">
                          <path id="Trazado_1048691" data-name="Trazado 1048691" d="M42.3,16.24V14.4c0-.409,0-.614.409-.819a1.305,1.305,0,0,1,1.228,0c.2.2.2.2.2,2.456" transform="translate(-42.3 -13.425)" fill="#fff"/>
                        </g>
                      </g>
                      <g id="Grupo_1206840" data-name="Grupo 1206840" transform="translate(4.158 18.168)">
                        <g id="Grupo_1206839" data-name="Grupo 1206839">
                          <path id="Trazado_1048692" data-name="Trazado 1048692" d="M42.3,22.3c0,2.456,0,2.456.614,2.661a2.6,2.6,0,0,0,1.228-.2c.2-.2,0-.614,0-.819V22.3" transform="translate(-42.3 -22.3)" fill="#fff"/>
                        </g>
                      </g>
                    </g>
                  </g>
                  <g id="Grupo_1206844" data-name="Grupo 1206844" transform="translate(0 3.647)">
                    <g id="Grupo_1206843" data-name="Grupo 1206843">
                      <path id="Trazado_1048693" data-name="Trazado 1048693" d="M52.314,48.766A21.467,21.467,0,0,1,33.481,24.815,21.045,21.045,0,0,1,41.67,10.486c.819-.614,1.842.614,1.024,1.228A20.112,20.112,0,0,0,35.119,25.02a19.836,19.836,0,0,0,17.4,22.108.827.827,0,0,1-.2,1.638Z" transform="translate(-33.322 -10.318)"/>
                    </g>
                  </g>
                  <g id="Grupo_1206846" data-name="Grupo 1206846" transform="translate(5.633 13.096)">
                    <g id="Grupo_1206845" data-name="Grupo 1206845">
                      <path id="Trazado_1048694" data-name="Trazado 1048694" d="M39.607,31.855a13.845,13.845,0,0,1-1.433-16.581c.614-.819,1.842,0,1.228.819a12.316,12.316,0,0,0,1.228,14.739c.819.819-.2,1.842-1.024,1.024Z" transform="translate(-36.074 -14.934)"/>
                    </g>
                  </g>
                  <g id="Grupo_1206848" data-name="Grupo 1206848" transform="translate(26.879 20.395)">
                    <g id="Grupo_1206847" data-name="Grupo 1206847">
                      <path id="Trazado_1048695" data-name="Trazado 1048695" d="M46.754,29.964a12.174,12.174,0,0,0,4.708-10.645.819.819,0,0,1,1.638,0A15.156,15.156,0,0,1,47.778,31.4c-.819.409-1.842-.819-1.024-1.433Z" transform="translate(-46.453 -18.5)"/>
                    </g>
                  </g>
                </g>
                <g id="Grupo_1206851" data-name="Grupo 1206851" transform="translate(26.157 3.404)">
                  <g id="Grupo_1206850" data-name="Grupo 1206850">
                    <path id="Trazado_1048696" data-name="Trazado 1048696" d="M51.422,12.861a2.71,2.71,0,0,0-2.661,2.661A2.71,2.71,0,0,0,46.1,12.861,2.71,2.71,0,0,0,48.761,10.2a2.6,2.6,0,0,0,.819,1.842,2.223,2.223,0,0,0,1.842.819Z" transform="translate(-46.1 -10.2)" fill="#fff"/>
                  </g>
                </g>
                <g id="Grupo_1206853" data-name="Grupo 1206853" transform="translate(30.251 8.727)">
                  <g id="Grupo_1206852" data-name="Grupo 1206852">
                    <path id="Trazado_1048697" data-name="Trazado 1048697" d="M51.375,14.438a1.761,1.761,0,0,0-1.638,1.638A1.761,1.761,0,0,0,48.1,14.438,1.761,1.761,0,0,0,49.738,12.8a2.909,2.909,0,0,0,.409,1.228A1.73,1.73,0,0,0,51.375,14.438Z" transform="translate(-48.1 -12.8)" fill="#fff"/>
                  </g>
                </g>
              </g>
            </g>
          </g>
        </g>
      </g>
    </g>
  </g>
</svg>
