<svg xmlns="http://www.w3.org/2000/svg" xmlns:xlink="http://www.w3.org/1999/xlink" width="113" height="113" viewBox="0 0 113 113">
  <defs>
    <filter id="Trazado_982547" x="0" y="0" width="113" height="113" filterUnits="userSpaceOnUse">
      <feOffset dy="3" input="SourceAlpha"/>
      <feGaussianBlur stdDeviation="3" result="blur"/>
      <feFlood flood-opacity="0.161"/>
      <feComposite operator="in" in2="blur"/>
      <feComposite in="SourceGraphic"/>
    </filter>
  </defs>
  <g id="Grupo_1206867" data-name="Grupo 1206867" transform="translate(-146.239 -3891)">
    <g id="Grupo_1205894" data-name="Grupo 1205894" transform="translate(0 1706.995)">
      <g id="Grupo_1201799" data-name="Grupo 1201799" transform="translate(0 -2055.283)">
        <g id="Grupo_1184832" data-name="Grupo 1184832" transform="translate(155.239 4245.288)">
          <g id="Grupo_1183751" data-name="Grupo 1183751">
            <g id="Grupo_1173793" data-name="Grupo 1173793">
              <g id="Grupo_1167519" data-name="Grupo 1167519">
                <g id="Grupo_1166845" data-name="Grupo 1166845">
                  <g id="Grupo_1166720" data-name="Grupo 1166720">
                    <g id="Grupo_1164305" data-name="Grupo 1164305">
                      <g id="Grupo_1163948" data-name="Grupo 1163948">
                        <g id="Grupo_1158168" data-name="Grupo 1158168">
                          <g id="Grupo_1152576" data-name="Grupo 1152576">
                            <g id="Grupo_1148633" data-name="Grupo 1148633">
                              <g id="Grupo_1148525" data-name="Grupo 1148525">
                                <g transform="matrix(1, 0, 0, 1, -9, -6)" filter="url(#Trazado_982547)">
                                  <g id="Trazado_982547-2" data-name="Trazado 982547" transform="translate(9 6)" fill="#e4f2f4">
                                    <path d="M 47.5 93.5 C 41.28937149047852 93.5 35.26533508300781 92.28397369384766 29.59518623352051 89.88570404052734 C 24.11771965026855 87.56893157958984 19.19813346862793 84.25196075439453 14.97309303283691 80.02691650390625 C 10.74804019927979 75.80186462402344 7.431066513061523 70.88229370117188 5.114293098449707 65.40481567382812 C 2.716026782989502 59.73468017578125 1.5 53.71062850952148 1.5 47.5 C 1.5 41.28937149047852 2.716026782989502 35.26533508300781 5.114293098449707 29.59518623352051 C 7.431066513061523 24.11771965026855 10.74804019927979 19.19813346862793 14.97309303283691 14.97309303283691 C 19.19813346862793 10.74804019927979 24.11771965026855 7.431066513061523 29.59518623352051 5.114293098449707 C 35.26533508300781 2.716026782989502 41.28937149047852 1.5 47.5 1.5 C 53.71062850952148 1.5 59.73468017578125 2.716026782989502 65.40481567382812 5.114293098449707 C 70.88229370117188 7.431066513061523 75.80186462402344 10.74804019927979 80.02691650390625 14.97309303283691 C 84.25196075439453 19.19813346862793 87.56893157958984 24.11771965026855 89.88570404052734 29.59518623352051 C 92.28397369384766 35.26533508300781 93.5 41.28937149047852 93.5 47.5 C 93.5 53.71062850952148 92.28397369384766 59.73468017578125 89.88570404052734 65.40481567382812 C 87.56893157958984 70.88229370117188 84.25196075439453 75.80186462402344 80.02691650390625 80.02691650390625 C 75.80186462402344 84.25196075439453 70.88229370117188 87.56893157958984 65.40481567382812 89.88570404052734 C 59.73468017578125 92.28397369384766 53.71062850952148 93.5 47.5 93.5 Z" stroke="none"/>
                                    <path d="M 47.5 3 C 41.49121475219727 3 35.66376876831055 4.176155090332031 30.17950439453125 6.495796203613281 C 24.88084411621094 8.736953735351562 20.12152099609375 11.94598388671875 16.03375244140625 16.03375244140625 C 11.94598388671875 20.12152099609375 8.736953735351562 24.88084411621094 6.495796203613281 30.17950439453125 C 4.176155090332031 35.66376876831055 3 41.49121475219727 3 47.5 C 3 53.50878524780273 4.176155090332031 59.33623123168945 6.495796203613281 64.82049560546875 C 8.736953735351562 70.11915588378906 11.94598388671875 74.87847900390625 16.03375244140625 78.96624755859375 C 20.12152099609375 83.05401611328125 24.88084411621094 86.26304626464844 30.17950439453125 88.50419616699219 C 35.66376876831055 90.82384490966797 41.49121475219727 92 47.5 92 C 53.50878524780273 92 59.33623123168945 90.82384490966797 64.82049560546875 88.50419616699219 C 70.11915588378906 86.26304626464844 74.87847900390625 83.05401611328125 78.96624755859375 78.96624755859375 C 83.05401611328125 74.87847900390625 86.26304626464844 70.11915588378906 88.50419616699219 64.82049560546875 C 90.82384490966797 59.33623123168945 92 53.50878524780273 92 47.5 C 92 41.49121475219727 90.82384490966797 35.66376876831055 88.50419616699219 30.17950439453125 C 86.26304626464844 24.88084411621094 83.05401611328125 20.12152099609375 78.96624755859375 16.03375244140625 C 74.87847900390625 11.94598388671875 70.11915588378906 8.736953735351562 64.82049560546875 6.495796203613281 C 59.33623123168945 4.176155090332031 53.50878524780273 3 47.5 3 M 47.5 0 C 73.7335205078125 0 95 21.2664794921875 95 47.5 C 95 73.7335205078125 73.7335205078125 95 47.5 95 C 21.2664794921875 95 0 73.7335205078125 0 47.5 C 0 21.2664794921875 21.2664794921875 0 47.5 0 Z" stroke="none" fill="#01899b"/>
                                  </g>
                                </g>
                              </g>
                            </g>
                          </g>
                        </g>
                      </g>
                    </g>
                  </g>
                </g>
              </g>
            </g>
          </g>
        </g>
      </g>
    </g>
    <g id="dolar_2_" data-name="dolar (2)" transform="translate(171.337 3913.098)">
      <g id="Grupo_1206865" data-name="Grupo 1206865" transform="translate(0.92 0.911)">
        <g id="Grupo_1206862" data-name="Grupo 1206862" transform="translate(0 17.171)">
          <g id="Grupo_1206861" data-name="Grupo 1206861">
            <g id="Grupo_1206859" data-name="Grupo 1206859">
              <path id="Trazado_1048698" data-name="Trazado 1048698" d="M35.285,191.215h-11.2a34.064,34.064,0,0,1,0-6.108A108.65,108.65,0,0,1,7.5,170.433c.715-11.86.723-11.972.021-22.7-.007-.1-.013-.21-.021-.316,6.636,0,6.64,4.172,6.64,18l3.4,3.1h0c3.951-2.951,7.176.643,17.675,9.781A81.767,81.767,0,0,1,35.285,191.215Z" transform="translate(-7.5 -147.412)" fill="#ffe6c7"/>
              <path id="Trazado_1048699" data-name="Trazado 1048699" d="M95.549,334.918H92.155a96.094,96.094,0,0,0-.313-11.479c-6.65-7.5-10.712-10.186-15.652-9.715l1.614-1.506h0c3.951-2.951,7.176.643,17.675,9.781a81.769,81.769,0,0,1,.069,12.919Z" transform="translate(-67.764 -291.115)" fill="#ffd5b0"/>
              <path id="Trazado_1048700" data-name="Trazado 1048700" d="M43.548,196.314c.388-7.162,1.589-16.516-5.188-16.516H36v16.488Z" transform="translate(-32.506 -175.825)" fill="#ffe6c7"/>
              <path id="Trazado_1048701" data-name="Trazado 1048701" d="M17.54,168.514c-7.683.574-6.56-5.132-6.56-8.9,0-7.193-.794-10.733-3.459-11.887-.007-.1-.013-.21-.021-.316,6.636,0,6.64,4.172,6.64,18Z" transform="translate(-7.5 -147.412)" fill="#ffd5b0"/>
            </g>
            <g id="Grupo_1206860" data-name="Grupo 1206860" transform="translate(32.96)">
              <path id="Trazado_1048702" data-name="Trazado 1048702" d="M276.413,191.215h11.2a34.064,34.064,0,0,0,0-6.108A108.658,108.658,0,0,0,304.2,170.433c-.715-11.86-.723-11.972-.021-22.7.007-.1.014-.21.021-.316-6.636,0-6.64,4.172-6.64,18l-3.4,3.1h0c-3.951-2.951-7.176.643-17.675,9.781A81.768,81.768,0,0,0,276.413,191.215Z" transform="translate(-276.193 -147.412)" fill="#ffe6c7"/>
              <path id="Trazado_1048703" data-name="Trazado 1048703" d="M276.413,334.918h3.394a96.1,96.1,0,0,1,.313-11.479c6.65-7.5,10.712-10.186,15.652-9.715l-1.614-1.506h0c-3.951-2.951-7.176.643-17.675,9.781a81.77,81.77,0,0,0-.069,12.919Z" transform="translate(-276.193 -291.115)" fill="#ffd5b0"/>
              <path id="Trazado_1048704" data-name="Trazado 1048704" d="M412.089,196.314c-.388-7.162-1.589-16.516,5.188-16.516h2.358v16.488Z" transform="translate(-395.126 -175.825)" fill="#ffe6c7"/>
              <path id="Trazado_1048705" data-name="Trazado 1048705" d="M422.647,168.514c7.683.574,6.56-5.132,6.56-8.9,0-7.193.794-10.733,3.459-11.887.007-.1.013-.21.021-.316-6.636,0-6.64,4.172-6.64,18Z" transform="translate(-404.682 -147.412)" fill="#ffd5b0"/>
            </g>
          </g>
        </g>
        <g id="Grupo_1206864" data-name="Grupo 1206864" transform="translate(13.635)">
          <g id="Grupo_1206863" data-name="Grupo 1206863">
            <path id="Trazado_1048706" data-name="Trazado 1048706" d="M152.471,24.33a16.9,16.9,0,0,1-16.906,16.9q-.775,0-1.533-.069a16.9,16.9,0,0,1,0-33.668q.758-.068,1.533-.069A16.9,16.9,0,0,1,152.471,24.33Z" transform="translate(-118.659 -7.427)" fill="#fff18d"/>
            <path id="Trazado_1048707" data-name="Trazado 1048707" d="M262.418,24.33a16.9,16.9,0,0,1-16.906,16.9q-.775,0-1.533-.069a16.9,16.9,0,0,0,0-33.668q.758-.068,1.533-.069A16.9,16.9,0,0,1,262.418,24.33Z" transform="translate(-228.606 -7.427)" fill="#ffd366"/>
          </g>
          <path id="Trazado_1048708" data-name="Trazado 1048708" d="M183.767,60.713A11.824,11.824,0,1,1,171.948,48.9a11.818,11.818,0,0,1,11.819,11.816Z" transform="translate(-155.042 -43.81)" fill="#ffd366"/>
          <path id="Trazado_1048709" data-name="Trazado 1048709" d="M255.577,60.713a11.824,11.824,0,0,1-13.6,11.683,11.817,11.817,0,0,0,0-23.365,11.824,11.824,0,0,1,13.6,11.683Z" transform="translate(-226.852 -43.81)" fill="#ffaf5f"/>
        </g>
      </g>
      <g id="Grupo_1206866" data-name="Grupo 1206866" transform="translate(0 0)">
        <path id="Trazado_1048710" data-name="Trazado 1048710" d="M365.571,426.682c-1.14.887-2.285,1.736-3.4,2.523a.92.92,0,0,0-.386.843,33.158,33.158,0,0,1,0,5.907.92.92,0,0,0,.812,1.016.95.95,0,0,0,.1.006.92.92,0,0,0,.913-.818,33.6,33.6,0,0,0,.046-5.755c1-.717,2.026-1.479,3.043-2.27a.92.92,0,0,0-1.13-1.452Z" transform="translate(-317.398 -374.172)"/>
        <path id="Trazado_1048711" data-name="Trazado 1048711" d="M298.528,164.219a207.79,207.79,0,0,1,0-22.876.92.92,0,0,0-.918-.98c-3.557,0-5.541,1.2-6.537,4a5.38,5.38,0,0,0-3.565,1.656c-2.682,2.853-2.318,8.769-2,13.989q.014.233.028.465a5.543,5.543,0,0,0-2.97.461c-2.479,1.029-5.379,3.575-10.183,7.793-.976.857-1.986,1.744-3.1,2.709a.921.921,0,0,0-.312.6,81.7,81.7,0,0,0-.071,13.066.92.92,0,0,0,.916.85l.071,0a.92.92,0,0,0,.848-.987,82.616,82.616,0,0,1,.035-12.382c1-.874,1.927-1.685,2.823-2.471,8.964-7.87,10.994-9.471,14.259-6.294-1.276,1.134-4.134,3.641-7.374,6.267a.92.92,0,0,0,1.159,1.429c4.411-3.576,8.121-6.932,8.158-6.965a.92.92,0,0,0,.062-1.3q-.456-.5-.9-.908l2.623-2.394a.92.92,0,0,0,.3-.679c0-6.781,0-11.261.793-13.9.616-2.053,1.692-2.938,3.952-3.119a211.83,211.83,0,0,0,.034,21.7,110.094,110.094,0,0,1-9.4,8.969.92.92,0,1,0,1.191,1.4,109.248,109.248,0,0,0,9.836-9.428.919.919,0,0,0,.231-.667Zm-8.479-5.364-2.565,2.341-.061-.036q-.036-.625-.076-1.267c-.3-4.848-.636-10.342,1.5-12.616a3.365,3.365,0,0,1,1.727-.979c-.514,2.84-.526,6.9-.526,12.557Z" transform="translate(-235.725 -123.145)"/>
        <path id="Trazado_1048712" data-name="Trazado 1048712" d="M181.148,351.586c-1.11-.965-2.119-1.851-3.1-2.708-1.215-1.067-2.363-2.074-3.386-2.952a.92.92,0,0,0-1.2,1.4c1.015.87,2.106,1.828,3.37,2.938.9.786,1.819,1.6,2.823,2.471a82.613,82.613,0,0,1,.035,12.382.92.92,0,0,0,.848.987l.071,0a.92.92,0,0,0,.916-.85,81.674,81.674,0,0,0-.071-13.066A.92.92,0,0,0,181.148,351.586Z" transform="translate(-151.908 -303.298)"/>
        <path id="Trazado_1048713" data-name="Trazado 1048713" d="M19.135,162.834c-2.484-1.831-4.4-2.622-6.177-2.358l.032-.515c.324-5.206.69-11.107-1.982-13.951a5.36,5.36,0,0,0-3.551-1.651c-1-2.8-2.979-4-6.537-4a.92.92,0,0,0-.92.92c0,.021,0,.041,0,.062.719,10.972.719,10.972,0,22.874a.92.92,0,0,0,.231.667,110.906,110.906,0,0,0,16.314,14.491,33.6,33.6,0,0,0,.046,5.755.92.92,0,0,0,.913.818.942.942,0,0,0,.1-.006.92.92,0,0,0,.812-1.016,33.233,33.233,0,0,1,0-5.907.921.921,0,0,0-.386-.843A109.179,109.179,0,0,1,1.862,163.942c.68-11.261.695-11.73.043-21.7a3.858,3.858,0,0,1,3.943,3.118c.793,2.642.793,7.122.793,13.9a.92.92,0,0,0,.3.679l2.622,2.394q-.441.41-.9.908a.92.92,0,0,0,.062,1.3c.037.033,3.747,3.39,8.158,6.965a.92.92,0,1,0,1.159-1.429c-3.239-2.626-6.1-5.131-7.373-6.266a4.427,4.427,0,0,1,2.923-1.545c1.121-.027,2.492.605,4.448,2.047a.92.92,0,0,0,1.091-1.481Zm-7.981-2.987c-.028.448-.055.891-.081,1.328l-.03.018-2.562-2.339c0-5.657-.012-9.717-.526-12.556a3.345,3.345,0,0,1,1.713.973C11.794,149.535,11.454,155.014,11.154,159.847Z" transform="translate(0 -123.144)"/>
        <path id="Trazado_1048714" data-name="Trazado 1048714" d="M155.208,58.115a.92.92,0,1,0-1.715.666,12.737,12.737,0,1,0-.859-4.605.92.92,0,1,0,1.84,0,10.865,10.865,0,1,1,.735,3.939Z" transform="translate(-133.91 -36.361)"/>
        <path id="Trazado_1048715" data-name="Trazado 1048715" d="M146.811,17.814A17.678,17.678,0,0,0,143.442,7.39a.92.92,0,1,0-1.491,1.078A15.989,15.989,0,1,1,128.985,1.84a16.013,16.013,0,0,1,10.2,3.675A.92.92,0,0,0,140.362,4.1a17.812,17.812,0,1,0,6.449,13.715Z" transform="translate(-97.524 0)"/>
        <path id="Trazado_1048716" data-name="Trazado 1048716" d="M230.243,89.2a1.83,1.83,0,0,1-1.828-1.826.92.92,0,0,0-1.84,0,3.674,3.674,0,0,0,2.748,3.55v1.257a.92.92,0,1,0,1.84,0V90.921a3.667,3.667,0,0,0-.92-7.216,1.827,1.827,0,1,1,1.828-1.827.92.92,0,1,0,1.84,0,3.674,3.674,0,0,0-2.748-3.55V77.072a.92.92,0,0,0-1.84,0v1.257a3.667,3.667,0,0,0,.92,7.216,1.826,1.826,0,1,1,0,3.653Z" transform="translate(-198.782 -66.811)"/>
      </g>
    </g>
  </g>
</svg>
