<svg xmlns="http://www.w3.org/2000/svg" xmlns:xlink="http://www.w3.org/1999/xlink" width="400" height="302" viewBox="0 0 400 302">
  <defs>
    <clipPath id="clip-path">
      <rect id="Rectángulo_417695" data-name="Rectángulo 417695" width="400" height="302" fill="#fff" stroke="#707070" stroke-width="1" opacity="0.84"/>
    </clipPath>
    <clipPath id="clip-path-2">
      <rect id="Rectángulo_417689" data-name="Rectángulo 417689" width="587" height="391"/>
    </clipPath>
    <clipPath id="clip-path-3">
      <path id="Trazado_1048797" data-name="Trazado 1048797" d="M191.767,184.282l20.66-8.464,47.16,115.109-20.661,8.464c-24.175,9.9-54.33-7.834-67.354-39.62S167.591,194.187,191.767,184.282Z" transform="translate(-165.616 -175.818)"/>
    </clipPath>
    <clipPath id="clip-path-6">
      <path id="Trazado_1048843" data-name="Trazado 1048843" d="M91.958,409.029l-6.63-6.927L32.381,445.529l6.63,6.927c7.758,8.106,25.9,4.955,40.52-7.037S99.716,417.134,91.958,409.029Z" transform="translate(-32.381 -402.102)"/>
    </clipPath>
    <clipPath id="clip-path-7">
      <path id="Trazado_1048851" data-name="Trazado 1048851" d="M210.038,35.678l4.253-6.988L255.707,53.9l-4.253,6.988c-4.976,8.177-18.281,9.163-29.719,2.2S205.062,43.855,210.038,35.678Z" transform="translate(-208.157 -28.69)"/>
    </clipPath>
  </defs>
  <g id="Enmascarar_grupo_1098914" data-name="Enmascarar grupo 1098914" clip-path="url(#clip-path)">
    <g id="Grupo_1206968" data-name="Grupo 1206968" transform="translate(-210 -8)">
      <path id="Trazado_1048857" data-name="Trazado 1048857" d="M194.5,0C301.919,0,389,87.081,389,194.5S301.919,389,194.5,389,0,301.919,0,194.5,87.081,0,194.5,0Z" transform="translate(216 86)" fill="#cbe7ea"/>
      <g id="Grupo_1206967" data-name="Grupo 1206967">
        <g id="Grupo_1206915" data-name="Grupo 1206915" transform="translate(329.478 48.345)">
          <circle id="Elipse_14316" data-name="Elipse 14316" cx="120.135" cy="120.135" r="120.135" transform="translate(0 0)" fill="#bfd7b3"/>
          <path id="Trazado_1048755" data-name="Trazado 1048755" d="M55.431,63.4c46.2,4.317,70.181,34.93,81.977,60.027s13.7,54.079,9.014,81.413c-4.135,24.114-13.5,47.755-29.7,66.095s-39.672,30.9-64.138,31" transform="translate(67.495 -62.701)" fill="none" stroke="#94af85" stroke-miterlimit="10" stroke-width="1.2"/>
          <path id="Trazado_1048756" data-name="Trazado 1048756" d="M106.381,63.4c20.277,11.585,40.706,39.717,47.556,62.043s7.495,46.073,6.6,69.408c-.861,22.479-3.178,45.248-11.412,66.182s-26.387,34-46.892,41.939" transform="translate(16.544 -62.701)" fill="none" stroke="#94af85" stroke-miterlimit="10" stroke-width="1.2"/>
          <path id="Trazado_1048757" data-name="Trazado 1048757" d="M168.8,301.935c7.6-76.437,7.873-161.813,4.146-238.537" transform="translate(-50.019 -62.701)" fill="none" stroke="#94af85" stroke-miterlimit="10" stroke-width="1.2"/>
          <path id="Trazado_1048758" data-name="Trazado 1048758" d="M234.856,302.97c-36.4-28.509-61.783-70.1-61.786-116.329C173.067,130.113,193.928,81.73,238,63.4" transform="translate(-116.077 -62.701)" fill="none" stroke="#94af85" stroke-miterlimit="10" stroke-width="1.2"/>
          <path id="Trazado_1048759" data-name="Trazado 1048759" d="M271.317,63.4c-28.274-.124-69.261,25.354-83.272,49.912s-17.039,54.166-13.777,82.252c2.869,24.7,10.6,49.275,25.474,69.2s43.683,35.822,68.436,38.207" transform="translate(-149.399 -62.701)" fill="none" stroke="#94af85" stroke-miterlimit="10" stroke-width="1.2"/>
          <path id="Trazado_1048760" data-name="Trazado 1048760" d="M262.28,222.118H22.179" transform="translate(-22.179 -97.107)" fill="none" stroke="#94af85" stroke-miterlimit="10" stroke-width="1.2"/>
          <line id="Línea_3610" data-name="Línea 3610" x1="202.075" transform="translate(20.419 57.223)" fill="none" stroke="#94af85" stroke-miterlimit="10" stroke-width="1.2"/>
          <path id="Trazado_1048761" data-name="Trazado 1048761" d="M242.115,308.667H57.482" transform="translate(-29.664 -115.869)" fill="none" stroke="#94af85" stroke-miterlimit="10" stroke-width="1.2"/>
        </g>
        <g id="Grupo_1206919" data-name="Grupo 1206919" transform="translate(321.19 18.042)">
          <g id="Grupo_1206916" data-name="Grupo 1206916" transform="translate(0 220.709)">
            <line id="Línea_3611" data-name="Línea 3611" x1="6.898" y1="6.898" fill="none" stroke="#2d2b58" stroke-miterlimit="10" stroke-width="1.2"/>
            <line id="Línea_3612" data-name="Línea 3612" x1="6.898" y2="6.898" fill="none" stroke="#2d2b58" stroke-miterlimit="10" stroke-width="1.2"/>
          </g>
          <g id="Grupo_1206917" data-name="Grupo 1206917" transform="translate(113.665 0)">
            <line id="Línea_3613" data-name="Línea 3613" x1="6.898" y1="6.897" fill="none" stroke="#2d2b58" stroke-miterlimit="10" stroke-width="1.2"/>
            <line id="Línea_3614" data-name="Línea 3614" x1="6.898" y2="6.897" fill="none" stroke="#2d2b58" stroke-miterlimit="10" stroke-width="1.2"/>
          </g>
          <g id="Grupo_1206918" data-name="Grupo 1206918" transform="translate(217.289 266.087)">
            <line id="Línea_3615" data-name="Línea 3615" x1="6.898" y1="6.897" fill="none" stroke="#2d2b58" stroke-miterlimit="10" stroke-width="1.2"/>
            <line id="Línea_3616" data-name="Línea 3616" x1="6.898" y2="6.897" fill="none" stroke="#2d2b58" stroke-miterlimit="10" stroke-width="1.2"/>
          </g>
        </g>
        <g id="Grupo_1206920" data-name="Grupo 1206920" transform="translate(309.72 19.645)">
          <path id="Trazado_1048762" data-name="Trazado 1048762" d="M275.157,309.564a14.9,14.9,0,0,1-13.325-8.227l-24.354-48.6H155.964a14.9,14.9,0,0,1-11.922-5.96L19.344,80.588l-8.5,5.653a6.024,6.024,0,0,1-9.358-4.834L0,32.079a6.024,6.024,0,0,1,8.515-5.665l44.92,20.432a6.025,6.025,0,0,1,.843,10.5L44.2,64.05,163.415,222.932H246.68a14.9,14.9,0,0,1,13.325,8.227l17.224,34.369" transform="translate(0 -25.866)" fill="#01899b"/>
          <path id="Trazado_1048763" data-name="Trazado 1048763" d="M21.991,124.864l89.683,119.528h83.266a14.9,14.9,0,0,1,13.325,8.227" transform="translate(51.741 -47.326)" fill="none" stroke="#2d2b58" stroke-miterlimit="10" stroke-width="1.2"/>
        </g>
        <g id="Grupo_1206921" data-name="Grupo 1206921" transform="translate(338.84 90.126)">
          <path id="Trazado_1048764" data-name="Trazado 1048764" d="M288.543,131.3c9.029,1.564,9.937,2.832,11.058,15.441,1.12-12.609,2.029-13.877,11.058-15.441-9.029-1.564-9.937-2.832-11.058-15.441C298.48,128.462,297.572,129.731,288.543,131.3Z" transform="translate(-288.543 -115.854)" fill="#f9ebeb"/>
          <path id="Trazado_1048765" data-name="Trazado 1048765" d="M38.363,215.844c9.029,1.564,9.937,2.832,11.058,15.441,1.12-12.609,2.029-13.877,11.058-15.441-9.029-1.564-9.937-2.832-11.058-15.441C48.3,213.012,47.392,214.28,38.363,215.844Z" transform="translate(157.585 -134.182)" fill="#f9ebeb"/>
        </g>
        <g id="Grupo_1206944" data-name="Grupo 1206944" transform="translate(0 0)">
          <g id="Grupo_1206943" data-name="Grupo 1206943" transform="translate(0 0)" clip-path="url(#clip-path-2)">
            <g id="Grupo_1206923" data-name="Grupo 1206923" transform="translate(409.474 75.022)">
              <path id="Trazado_1048766" data-name="Trazado 1048766" d="M187.849,102.978c.656-1.808,2.455-2.972,4.1-3.974a17.234,17.234,0,0,1,25.543,19.47,35,35,0,0,1-28.633.1l-.41-10.054A6.436,6.436,0,0,1,187.849,102.978Z" transform="translate(-187.479 -96.57)" fill="#2d2b58"/>
              <g id="Grupo_1206922" data-name="Grupo 1206922" transform="translate(1.479 7.593)">
                <path id="Trazado_1048767" data-name="Trazado 1048767" d="M196.179,106.264a20.756,20.756,0,0,1,7.352,11.257c.735,2.931.82,6,1.635,8.912,1.476,5.269,5.2,9.567,8.814,13.674-2.578,1.756-5.714,2.44-8.764,3.088-4.856,1.032-9.765,2.069-14.729,1.957s-10.061-1.483-13.8-4.752a4.079,4.079,0,0,1-1.368-1.852,4.6,4.6,0,0,1,.2-2.412,146.292,146.292,0,0,1,5.581-16.707Z" transform="translate(-175.227 -106.264)" fill="#2d2b58"/>
              </g>
            </g>
            <g id="Grupo_1206942" data-name="Grupo 1206942" transform="translate(344.609 71.193)">
              <path id="Trazado_1048768" data-name="Trazado 1048768" d="M281.074,163.361s-34.569,33.98-25.911,86.132l14.979,11.214,27.209-88.739Z" transform="translate(-253.771 -107.219)" fill="#4b56dd"/>
              <g id="Grupo_1206937" data-name="Grupo 1206937" transform="translate(7.362)">
                <g id="Grupo_1206932" data-name="Grupo 1206932">
                  <g id="Grupo_1206924" data-name="Grupo 1206924" transform="translate(17.446 246.652)">
                    <path id="Trazado_1048769" data-name="Trazado 1048769" d="M127.353,407.826,245.11,406.6q-3.486,30.228-6.972,60.455c-2.774,24.063-24.661,40.267-41.581,57.6-1.165,12.581-3.008,24.509-4.173,37.09-16.725,1.019-33.627,1.893-50.351,2.913-3.82-35.26-7.806-70.031-11.625-105.292C128.552,442.24,126.693,425.039,127.353,407.826Z" transform="translate(-127.217 -406.599)" fill="#f9b1a0"/>
                    <path id="Trazado_1048770" data-name="Trazado 1048770" d="M182.324,531.439q2.5-48.033,5-96.066" transform="translate(-112.595 -412.836)" fill="none" stroke="#2d2b58" stroke-linecap="round" stroke-linejoin="round" stroke-miterlimit="10" stroke-width="1.2"/>
                  </g>
                  <g id="Grupo_1206926" data-name="Grupo 1206926" transform="translate(0 42.286)">
                    <path id="Trazado_1048771" data-name="Trazado 1048771" d="M110.278,217.123A1477.85,1477.85,0,0,0,90.457,380.06l148.774-1.91c-3.412-39.031-7.412-74.1-10.824-113.129,25.456-3.042,29.527-29.676,24.046-43.689-9.643-24.655-36.223-60.118-55.713-65.97l-18.26-5.483a32.807,32.807,0,0,1-19.961,7.875,30.551,30.551,0,0,1-19.653-6.455c-3.273.769-6.906,1.5-10.18,2.271a86.167,86.167,0,0,0-18.288,6.868" transform="translate(-90.457 -146.582)" fill="#4b56dd"/>
                    <path id="Trazado_1048772" data-name="Trazado 1048772" d="M265.364,220.675l7.2-61.189" transform="translate(-245.422 -148.665)" fill="none" stroke="#2d2b58" stroke-linecap="round" stroke-linejoin="round" stroke-miterlimit="10" stroke-width="1.2"/>
                    <path id="Trazado_1048773" data-name="Trazado 1048773" d="M258.246,427.029l-145.824-6.981" transform="translate(-111.319 -205.148)" fill="none" stroke="#2d2b58" stroke-linecap="round" stroke-linejoin="round" stroke-miterlimit="10" stroke-width="1.2"/>
                    <path id="Trazado_1048774" data-name="Trazado 1048774" d="M141.227,318.985l-24.85-8.31c1.276,16.2,2.637,32.1,3.913,48.3,8.091,1.5,17.431,1.94,25.522,3.438" transform="translate(-1.983 -181.439)" fill="none" stroke="#2d2b58" stroke-linecap="round" stroke-linejoin="round" stroke-miterlimit="10" stroke-width="1.2"/>
                    <path id="Trazado_1048775" data-name="Trazado 1048775" d="M247.5,313.313c11.409-2.15,23.325-4.773,34.734-6.923q-2.556,26.442-5.114,52.884c-11.427.522-22.592-.232-34.019.289" transform="translate(-237.649 -180.51)" fill="none" stroke="#2d2b58" stroke-linecap="round" stroke-linejoin="round" stroke-miterlimit="10" stroke-width="1.2"/>
                    <g id="Grupo_1206925" data-name="Grupo 1206925" transform="translate(47.493)">
                      <path id="Trazado_1048776" data-name="Trazado 1048776" d="M179.111,149.121c5.335-.7,10.73-1.49,16.065-2.191a10.149,10.149,0,0,0,8.67,3.9,10.732,10.732,0,0,0,8.323-5.165l13.793,3.467c.367,11.4.486,22.656.155,33.991a3.529,3.529,0,0,1-6.29,2.082,144.881,144.881,0,0,1-16.382-25.194c-2.254,9.428-5.028,18.914-8.184,28.178a3.515,3.515,0,0,1-6.667.01A253.269,253.269,0,0,1,179.111,149.121Z" transform="translate(-179.111 -145.67)" fill="#f9ebeb"/>
                      <path id="Trazado_1048777" data-name="Trazado 1048777" d="M200.907,150.225l-.343,33.877a170.791,170.791,0,0,1-17.873-23.9" transform="translate(-156.51 -146.657)" fill="none" stroke="#2d2b58" stroke-linecap="round" stroke-linejoin="round" stroke-miterlimit="10" stroke-width="1.2"/>
                      <path id="Trazado_1048778" data-name="Trazado 1048778" d="M230.2,159.567a178.805,178.805,0,0,1-9.423,29.073,193.221,193.221,0,0,1-9.488-37.812" transform="translate(-208.205 -146.788)" fill="none" stroke="#2d2b58" stroke-linecap="round" stroke-linejoin="round" stroke-miterlimit="10" stroke-width="1.2"/>
                    </g>
                  </g>
                  <g id="Grupo_1206930" data-name="Grupo 1206930" transform="translate(53.871)">
                    <g id="Grupo_1206929" data-name="Grupo 1206929" transform="translate(0)">
                      <path id="Trazado_1048779" data-name="Trazado 1048779" d="M193.962,140.6c-.046-2.921-.094-5.931-.14-8.851a13.486,13.486,0,0,1-6.242-7.457,14.39,14.39,0,0,1,.372-9.669,51.428,51.428,0,0,1,4.948-9.083c2.1-.146,3.932-.089,6.036-.235a3.48,3.48,0,0,0,4.941,2.338,4.2,4.2,0,0,0,2.445,2.936,4.736,4.736,0,0,0,4.066-.148c.687,1.719,1.687,3.931,2.374,5.65a7.4,7.4,0,1,1,.335,14.553c.489,2.605,1.331,5.483,1.819,8.088C211.826,148.081,199.557,149.832,193.962,140.6Z" transform="translate(-186.913 -94.635)" fill="#f9b1a0"/>
                      <g id="Grupo_1206927" data-name="Grupo 1206927" transform="translate(3.879 14.169)">
                        <path id="Trazado_1048780" data-name="Trazado 1048780" d="M208.526,120.228a1.059,1.059,0,1,1,1.059,1.059A1.059,1.059,0,0,1,208.526,120.228Z" transform="translate(-196.738 -111.808)" fill="#2d2b58"/>
                        <path id="Trazado_1048781" data-name="Trazado 1048781" d="M223.577,116.2a1.059,1.059,0,1,1,1.059,1.059A1.059,1.059,0,0,1,223.577,116.2Z" transform="translate(-223.577 -110.935)" fill="#2d2b58"/>
                        <path id="Trazado_1048782" data-name="Trazado 1048782" d="M210.418,116.452a3.743,3.743,0,0,0-5.815-2.831" transform="translate(-193.44 -110.471)" fill="none" stroke="#2d2b58" stroke-linecap="round" stroke-linejoin="round" stroke-miterlimit="10" stroke-width="1.2"/>
                        <path id="Trazado_1048783" data-name="Trazado 1048783" d="M224.191,111.17l-3.156-1.4" transform="translate(-220.082 -109.771)" fill="none" stroke="#2d2b58" stroke-linecap="round" stroke-linejoin="round" stroke-miterlimit="10" stroke-width="1.2"/>
                        <path id="Trazado_1048784" data-name="Trazado 1048784" d="M220.321,118l-2.1,3.858c.623.272,1.365.539,1.989.811" transform="translate(-214.011 -111.556)" fill="none" stroke="#2d2b58" stroke-linecap="round" stroke-linejoin="round" stroke-miterlimit="10" stroke-width="1.2"/>
                        <path id="Trazado_1048785" data-name="Trazado 1048785" d="M216.427,126.211a1.69,1.69,0,0,1-3.284.587" transform="translate(-206.137 -113.335)" fill="none" stroke="#2d2b58" stroke-linecap="round" stroke-linejoin="round" stroke-miterlimit="10" stroke-width="1.2"/>
                      </g>
                      <g id="Grupo_1206928" data-name="Grupo 1206928" transform="translate(6.431 26.169)">
                        <path id="Trazado_1048786" data-name="Trazado 1048786" d="M196.916,125.093l-5.23,1.169" transform="translate(-172.372 -125.093)" fill="none" stroke="#2d2b58" stroke-linecap="round" stroke-linejoin="round" stroke-miterlimit="10" stroke-width="1.2"/>
                        <path id="Trazado_1048787" data-name="Trazado 1048787" d="M208.07,139.1a14.091,14.091,0,0,0,11.712.427" transform="translate(-208.07 -128.13)" fill="none" stroke="#2d2b58" stroke-linecap="round" stroke-linejoin="round" stroke-miterlimit="10" stroke-width="1.2"/>
                      </g>
                      <path id="Trazado_1048788" data-name="Trazado 1048788" d="M214.8,104.172a4.684,4.684,0,0,0,.941,5.163" transform="translate(-202.561 -94.389)" fill="none" stroke="#2d2b58" stroke-linecap="round" stroke-linejoin="round" stroke-miterlimit="10" stroke-width="1.2"/>
                      <path id="Trazado_1048789" data-name="Trazado 1048789" d="M201.039,96.9a4.684,4.684,0,0,0,.541-5.219" transform="translate(-178.485 -91.681)" fill="none" stroke="#2d2b58" stroke-linecap="round" stroke-linejoin="round" stroke-miterlimit="10" stroke-width="1.2"/>
                    </g>
                    <ellipse id="Elipse_14317" data-name="Elipse 14317" cx="6.295" cy="6.295" rx="6.295" ry="6.295" transform="translate(23.565 14.774) rotate(-99.242)" fill="#2d2b58"/>
                  </g>
                  <g id="Grupo_1206931" data-name="Grupo 1206931" transform="translate(28.823 387.043)">
                    <path id="Trazado_1048790" data-name="Trazado 1048790" d="M194.342,593.707a12.376,12.376,0,0,1,23.07,0c1.454.008,2.889,0,4.352.016-.146,14,2.871,21.248,11.682,26.6,2.963,1.8,8.731,3.749,8.731,7.421l-72.933-.4c-1.1-11.426-1.975-22.224-3.078-33.65C175.692,593.782,185.016,593.743,194.342,593.707Z" transform="translate(-166.166 -585.846)" fill="#f9ebeb"/>
                    <path id="Trazado_1048791" data-name="Trazado 1048791" d="M218.076,604.888l-16.118-.352" transform="translate(-170.099 -589.897)" fill="none" stroke="#2d2b58" stroke-linecap="round" stroke-linejoin="round" stroke-miterlimit="10" stroke-width="1.2"/>
                    <path id="Trazado_1048792" data-name="Trazado 1048792" d="M218.492,610.991l-18.924-.45" transform="translate(-168.643 -591.199)" fill="none" stroke="#2d2b58" stroke-linecap="round" stroke-linejoin="round" stroke-miterlimit="10" stroke-width="1.2"/>
                    <path id="Trazado_1048793" data-name="Trazado 1048793" d="M214.817,617.457l-18.229.516" transform="translate(-162.634 -592.698)" fill="none" stroke="#2d2b58" stroke-linecap="round" stroke-linejoin="round" stroke-miterlimit="10" stroke-width="1.2"/>
                    <path id="Trazado_1048794" data-name="Trazado 1048794" d="M240.862,632.964l-58.567-.569a14.989,14.989,0,0,0-10.563-8.154" transform="translate(-169.211 -594.169)" fill="none" stroke="#2d2b58" stroke-linecap="round" stroke-linejoin="round" stroke-miterlimit="10" stroke-width="1.2"/>
                  </g>
                </g>
                <g id="Grupo_1206936" data-name="Grupo 1206936" transform="translate(10.075 46.578)">
                  <path id="Trazado_1048795" data-name="Trazado 1048795" d="M191.767,184.282l20.66-8.464,47.16,115.109-20.661,8.464c-24.175,9.9-54.33-7.834-67.354-39.62S167.591,194.187,191.767,184.282Z" transform="translate(-164.397 -156.497)" fill="#e9b14c"/>
                  <g id="Grupo_1206934" data-name="Grupo 1206934" transform="translate(1.219 19.321)">
                    <g id="Grupo_1206933" data-name="Grupo 1206933" clip-path="url(#clip-path-3)">
                      <path id="Trazado_1048796" data-name="Trazado 1048796" d="M196.282,215.644l50.725-20.782-2.379-5.808L193.9,209.836ZM189.3,232.71l50.725-20.782,2.379,5.808-50.725,20.782Zm-4.6,22.874L235.422,234.8l2.379,5.808-50.725,20.782Zm47.446,47.59,50.725-20.782,2.379,5.808-50.725,20.781ZM212.814,290.1l50.725-20.781,2.379,5.808-50.725,20.782Zm-19.329-13.069,50.725-20.781,2.379,5.808-50.725,20.782Z" transform="translate(-206.222 -178.687)" fill="#d8892b"/>
                    </g>
                  </g>
                  <ellipse id="Elipse_14318" data-name="Elipse 14318" cx="62.2" cy="51.416" rx="62.2" ry="51.416" transform="translate(47.158 154.097) rotate(-112.277)" fill="#ffd652"/>
                  <path id="Trazado_1048798" data-name="Trazado 1048798" d="M195.714,176.051c-26.275,10.765-37.018,45.26-24,77.046s44.88,48.828,71.155,38.063" transform="translate(-148.129 -156.548)" fill="none" stroke="#2d2b58" stroke-miterlimit="10" stroke-width="1.2"/>
                  <ellipse id="Elipse_14319" data-name="Elipse 14319" cx="48.252" cy="37.728" rx="48.252" ry="37.728" transform="translate(56.532 135.183) rotate(-112.277)" fill="#e9b14c"/>
                  <path id="Trazado_1048799" data-name="Trazado 1048799" d="M201.334,234.352a60.84,60.84,0,0,0-3.748-13.144c-10.1-24.658-33.922-38.244-53.2-30.345" transform="translate(-89.516 -159.272)" fill="none" stroke="#2d2b58" stroke-miterlimit="10" stroke-width="1.2"/>
                  <path id="Trazado_1048800" data-name="Trazado 1048800" d="M242.331,204.069c-7.188,7.912-9.42,19.162-8.9,28.867" transform="translate(-200.198 -162.621)" fill="none" stroke="#2d2b58" stroke-miterlimit="10" stroke-width="1.2"/>
                  <path id="Trazado_1048801" data-name="Trazado 1048801" d="M276.8,298.846c-10.66-7.377-19.957-18.815-25.8-33.084-9.415-22.981-7.3-47.012,3.734-62.307" transform="translate(-243.825 -162.488)" fill="none" stroke="#2d2b58" stroke-miterlimit="10" stroke-width="1.2"/>
                  <g id="Grupo_1206935" data-name="Grupo 1206935" transform="translate(51.877 54.636)">
                    <path id="Trazado_1048802" data-name="Trazado 1048802" d="M181.932,266.035a22.688,22.688,0,0,0,10.705-1.617c6.114-2.5,10.707-7.3,12.309-13.35a18.956,18.956,0,0,0,.171-9.542l4.056-1.661-1.815-4.43-3.432,1.406-.435-1.06c-.256-.624-.573-1.223-.829-1.847l3.494-1.432-1.815-4.43-4.18,1.712A21.793,21.793,0,0,0,192.354,223a20.419,20.419,0,0,0-17.019-.46,25.527,25.527,0,0,0-8.593,5.706l4.66,6.4a19.911,19.911,0,0,1,6.312-4.335,10.273,10.273,0,0,1,9.056.224,11.15,11.15,0,0,1,3.658,3.237l-15.537,6.365,1.815,4.43,16.472-6.748c.32.6.6,1.285.856,1.908l.409,1L177.908,247.5l1.815,4.43,15.661-6.416a10.632,10.632,0,0,1-.269,5.211,11.291,11.291,0,0,1-6.744,6.48,18.733,18.733,0,0,1-7.778,1.292Z" transform="translate(-166.742 -220.907)" fill="#d8892b"/>
                  </g>
                </g>
              </g>
              <g id="Grupo_1206938" data-name="Grupo 1206938" transform="translate(0.659 117.735)">
                <path id="Trazado_1048803" data-name="Trazado 1048803" d="M247.059,277.755c2.044-.413,3.983-1.451,6.047-1.152,7.054,1.02,13.908,2.087,20.962,3.105a1.719,1.719,0,0,0-.846-2.19c-3.927-1.658-8.018-3.033-11.946-4.691,8.156,1.086,16.244,2.178,24.4,3.265a3.226,3.226,0,0,0-1.681-3.013c-3.925-1.664-8.483-3.517-12.408-5.181,6.711,1.161,13.441,1.7,20.152,2.857a2.461,2.461,0,0,0-1.339-2.885l-12.752-4.627c4.7.938,9.252,2,13.948,2.936a2.444,2.444,0,0,0-1.008-3.038c-7.16-3.745-14.417-7.8-21.577-11.546l8.876-2.807a7.314,7.314,0,0,0,2.446-1.122,2.6,2.6,0,0,0,.817-2.507l-20.622-2.908c-7.915-1.116-16.188,1.572-22.541,6.422-5.375,4.1-8.031,11.446-5.907,17.866S240.431,279.095,247.059,277.755Z" transform="translate(-231.347 -242.001)" fill="#f9b1a0"/>
                <path id="Trazado_1048804" data-name="Trazado 1048804" d="M263.624,253.917,259,251.269" transform="translate(-224.796 -244.01)" fill="none" stroke="#2d2b58" stroke-linecap="round" stroke-linejoin="round" stroke-miterlimit="10" stroke-width="1.179"/>
                <path id="Trazado_1048805" data-name="Trazado 1048805" d="M259.762,269.424l-16.536-5.281" transform="translate(-208.581 -246.801)" fill="none" stroke="#2d2b58" stroke-linecap="round" stroke-linejoin="round" stroke-miterlimit="10" stroke-width="1.179"/>
                <path id="Trazado_1048806" data-name="Trazado 1048806" d="M264.573,275.289l-10.8-2.2" transform="translate(-221.651 -248.74)" fill="none" stroke="#2d2b58" stroke-linecap="round" stroke-linejoin="round" stroke-miterlimit="10" stroke-width="1.179"/>
              </g>
              <g id="Grupo_1206941" data-name="Grupo 1206941" transform="translate(68.84 93.244)">
                <g id="Grupo_1206939" data-name="Grupo 1206939" transform="translate(6.416)">
                  <path id="Trazado_1048807" data-name="Trazado 1048807" d="M182.47,237.378c-3.668-8.719-11.4-26.646-11.4-26.646L141.685,225.61c3.226,8.634,6.7,17.232,9.923,25.866-9.678,6.846-19.317,13.327-28.994,20.172a28.483,28.483,0,0,0-9.92,2.1c-4.2,1.506-15.263,9.956-21.178,13.2a2.032,2.032,0,0,0-.152,3.473c4.063,2.583,12.008,1.306,13.823,6.122,11.133-4.468,24.091-3.9,35.095.876a362.184,362.184,0,0,0,37.828-25.828c4.558-3.523,8.51-11.107,8.583-16.868C186.767,248.729,184.794,242.9,182.47,237.378Z" transform="translate(-90.457 -210.732)" fill="#f9b1a0"/>
                  <path id="Trazado_1048808" data-name="Trazado 1048808" d="M168.006,288.319h3.856" transform="translate(-136.364 -227.551)" fill="none" stroke="#2d2b58" stroke-miterlimit="10" stroke-width="1.312"/>
                  <path id="Trazado_1048809" data-name="Trazado 1048809" d="M127.659,261.185l6.057-4.735" transform="translate(-66.618 -220.642)" fill="none" stroke="#2d2b58" stroke-miterlimit="10" stroke-width="1.312"/>
                </g>
                <g id="Grupo_1206940" data-name="Grupo 1206940" transform="translate(0 62.899)">
                  <path id="Trazado_1048810" data-name="Trazado 1048810" d="M199.171,291.04l-31.809,8.317c-5.36,4.226-10.181,9.5-16.279,12.57l-5.369,2.7a8.644,8.644,0,0,0-2.368,1.536,2.931,2.931,0,0,0-.9,2.568c1.8-.236,3.405-.1,5.2-.341a2.282,2.282,0,0,0-1.845,1.815c3.629.378,7.18.768,10.809,1.147,1.713.179,3.113.543,4.815.806.925.143,1.634,1.012,2.555,1.177l9.491,1.7c6.474,1.162,13.136-2.076,18.866-5.307,6.072-3.424,10.1-6.665,11.547-12.408A17.14,17.14,0,0,0,199.171,291.04Z" transform="translate(-142.392 -291.04)" fill="#f9b1a0"/>
                  <path id="Trazado_1048811" data-name="Trazado 1048811" d="M189.646,307.616l6.867-5.979" transform="translate(-171.548 -293.337)" fill="none" stroke="#2d2b58" stroke-miterlimit="10" stroke-width="1.312"/>
                  <path id="Trazado_1048812" data-name="Trazado 1048812" d="M187.045,323.809,198,320.962c4.081-1.061,7.619-3.549,11.4-5.407" transform="translate(-182.401 -296.354)" fill="none" stroke="#2d2b58" stroke-miterlimit="10" stroke-width="1.312"/>
                  <path id="Trazado_1048813" data-name="Trazado 1048813" d="M179.687,327.725l12.992-.88c4.475-.3,8.552-2.6,12.818-3.989" transform="translate(-172.732 -297.937)" fill="none" stroke="#2d2b58" stroke-miterlimit="10" stroke-width="1.312"/>
                  <path id="Trazado_1048814" data-name="Trazado 1048814" d="M175.872,330.55a69.055,69.055,0,0,0,16.189-.642" transform="translate(-156.308 -299.466)" fill="none" stroke="#2d2b58" stroke-miterlimit="10" stroke-width="1.312"/>
                </g>
              </g>
            </g>
            <path id="Trazado_1048815" data-name="Trazado 1048815" d="M129.583,195.722s15.3,16.606,20.266,38.679c0,0,12.556,26.136-16.654,41.626l-27.451,18.492L87.733,260.013,110.458,243,97.762,183.5Z" transform="translate(365.702 -40.391)" fill="#4b56dd"/>
            <path id="Trazado_1048816" data-name="Trazado 1048816" d="M156.9,219.561q-4.713-28.282-9.426-56.564" transform="translate(314.549 -35.947)" fill="none" stroke="#2d2b58" stroke-linecap="round" stroke-linejoin="round" stroke-miterlimit="10" stroke-width="1.2"/>
          </g>
        </g>
        <g id="Grupo_1206948" data-name="Grupo 1206948" transform="translate(0 0)">
          <g id="Grupo_1206945" data-name="Grupo 1206945" transform="translate(0 0)" clip-path="url(#clip-path-2)">
            <path id="Trazado_1048817" data-name="Trazado 1048817" d="M-36.715,161.57c-4.587,4.386-5.172,11.315-1.3,15.476s10.722,3.979,15.309-.408,5.172-11.315,1.3-15.476S-32.128,157.184-36.715,161.57Z" transform="translate(637.579 -34.898)" fill="#b8d1aa"/>
            <path id="Trazado_1048818" data-name="Trazado 1048818" d="M-33.82,164.626c-3.261,3.117-3.676,8.042-.927,11s7.621,2.827,10.881-.29,3.676-8.042.927-11S-30.559,161.508-33.82,164.626Z" transform="translate(636.709 -35.774)" fill="#94af85"/>
          </g>
          <g id="Grupo_1206947" data-name="Grupo 1206947" transform="translate(0 0)" clip-path="url(#clip-path-2)">
            <path id="Trazado_1048819" data-name="Trazado 1048819" d="M383.68,345.917l80.8,37.14a410.429,410.429,0,0,1-74.247,136.451l-80.8-37.14A410.43,410.43,0,0,0,383.68,345.917Z" transform="translate(-119.884 -75.599)" fill="#b8d1aa"/>
            <path id="Trazado_1048820" data-name="Trazado 1048820" d="M390.231,519.508l-80.8-37.14A410.429,410.429,0,0,0,383.68,345.917l80.8,37.14" transform="translate(-119.884 -75.599)" fill="none" stroke="#94af85" stroke-miterlimit="10" stroke-width="1.2"/>
            <path id="Trazado_1048821" data-name="Trazado 1048821" d="M459.269,483.379q11.028-15.933,21.2-32.354" transform="translate(-253.233 -98.383)" fill="none" stroke="#2d2b58" stroke-miterlimit="10" stroke-width="1.2"/>
            <path id="Trazado_1048822" data-name="Trazado 1048822" d="M390.638,510.768a409.86,409.86,0,0,0,63.672-116.634l.934-2.685a2.882,2.882,0,0,0-1.531-3.571L389.5,358.363a2.98,2.98,0,0,0-4.045,1.693l-1.178,3.318a423.3,423.3,0,0,1-61.433,113.4l-2.377,3.12a2.883,2.883,0,0,0,1.1,4.381l63.907,29.375a2.988,2.988,0,0,0,3.591-.869Z" transform="translate(-118.988 -78.238)" fill="none" stroke="#94af85" stroke-miterlimit="10" stroke-width="1.2"/>
            <path id="Trazado_1048823" data-name="Trazado 1048823" d="M386.718,509.081A401.763,401.763,0,0,0,449.432,394.2l-58.4-26.843A426.743,426.743,0,0,1,328.7,482.415Z" transform="translate(-119.933 -80.247)" fill="#94af85"/>
            <path id="Trazado_1048824" data-name="Trazado 1048824" d="M384.392,469.526c12.828,5.711,27.5,1.093,32.773-10.315s-.852-25.286-13.68-31-27.5-1.093-32.773,10.315S371.564,463.815,384.392,469.526Z" transform="translate(-120.978 -92.908)" fill="#b8d1aa"/>
            <path id="Trazado_1048825" data-name="Trazado 1048825" d="M368.089,412.919c6.248,2.781,13.394.532,15.962-5.024s-.415-12.315-6.663-15.1-13.394-.532-15.962,5.024S361.841,410.138,368.089,412.919Z" transform="translate(-80.38 -85.503)" fill="#b8d1aa"/>
            <path id="Trazado_1048826" data-name="Trazado 1048826" d="M370.413,410.91c4.44,1.977,9.52.378,11.346-3.571s-.3-8.753-4.736-10.73-9.52-.378-11.346,3.571S365.972,408.933,370.413,410.91Z" transform="translate(-81.359 -86.404)" fill="#94af85"/>
            <path id="Trazado_1048827" data-name="Trazado 1048827" d="M421.038,514.657c6.248,2.781,13.394.532,15.962-5.024s-.415-12.315-6.663-15.1-13.394-.532-15.962,5.024S414.79,511.876,421.038,514.657Z" transform="translate(-174.8 -107.557)" fill="#b8d1aa"/>
            <path id="Trazado_1048828" data-name="Trazado 1048828" d="M423.362,512.648c4.441,1.977,9.52.378,11.346-3.571s-.3-8.753-4.736-10.73-9.52-.378-11.346,3.571S418.922,510.671,423.362,512.648Z" transform="translate(-175.779 -108.458)" fill="#94af85"/>
            <g id="Grupo_1206946" data-name="Grupo 1206946" transform="translate(257.221 343.674)">
              <path id="Trazado_1048829" data-name="Trazado 1048829" d="M408.208,456.4a21.939,21.939,0,0,0,1.764-5.694,13.893,13.893,0,0,0,.043-4.977l-4.75.093a14.023,14.023,0,0,1,.05,4.274,15.019,15.019,0,0,1-1.266,4.452,9.522,9.522,0,0,1-1.513,2.438,3.619,3.619,0,0,1-1.516,1.069,1.991,1.991,0,0,1-1.447-.082,1.8,1.8,0,0,1-1.086-1.365,6.659,6.659,0,0,1,.037-2.332q.226-1.364.583-2.932t.6-3.207a12.909,12.909,0,0,0,.078-3.175,5.6,5.6,0,0,0-3.593-4.79,6.754,6.754,0,0,0-4-.493,8.114,8.114,0,0,0-4.027,2.119,15.423,15.423,0,0,0-3.474,5.053,20.6,20.6,0,0,0-1.5,4.572,14.313,14.313,0,0,0-.257,4.4l4.688.04a15.075,15.075,0,0,1,.2-3.8,13.952,13.952,0,0,1,1.043-3.386,8.889,8.889,0,0,1,1.52-2.412,3.356,3.356,0,0,1,1.566-1.011,2.254,2.254,0,0,1,1.488.121,1.84,1.84,0,0,1,1.1,1.375,5.941,5.941,0,0,1-.045,2.308q-.248,1.33-.623,2.933t-.585,3.23a14.441,14.441,0,0,0-.079,3.133,6.012,6.012,0,0,0,.956,2.774,5.657,5.657,0,0,0,2.549,2.04,6.569,6.569,0,0,0,3.957.455,8.4,8.4,0,0,0,4.043-2.152A15.4,15.4,0,0,0,408.208,456.4Zm4.024.309-30.079-13.391-1.554,3.361,30.08,13.391Z" transform="translate(-380.599 -439.576)" fill="#94af85"/>
            </g>
          </g>
        </g>
        <g id="Grupo_1206955" data-name="Grupo 1206955" transform="translate(292.652 54.107)">
          <g id="Grupo_1206951" data-name="Grupo 1206951" transform="translate(0 95.399)">
            <path id="Trazado_1048830" data-name="Trazado 1048830" d="M355.366,209.282l-12.98,12.185c0,.182.013.361.013.544a30.344,30.344,0,1,1-2.8-12.73h15.766Z" transform="translate(-281.715 -191.669)" fill="#f9ebeb"/>
            <path id="Trazado_1048831" data-name="Trazado 1048831" d="M337.009,222.011a30.343,30.343,0,0,1,30.342-30.342" transform="translate(-337.008 -191.669)" fill="none" stroke="#2d2b58" stroke-miterlimit="10" stroke-width="1.2"/>
            <g id="Grupo_1206950" data-name="Grupo 1206950" transform="translate(17.165 10.635)">
              <g id="Grupo_1206949" data-name="Grupo 1206949">
                <path id="Trazado_1048832" data-name="Trazado 1048832" d="M333.715,255.785h2.568a2.442,2.442,0,0,0,2.442-2.442v-3.68h-7.453v3.68A2.443,2.443,0,0,0,333.715,255.785Z" transform="translate(-321.054 -214.876)" fill="#2d2b58"/>
                <path id="Trazado_1048833" data-name="Trazado 1048833" d="M330.971,205.248h2.986a12.263,12.263,0,0,1,12.263,12.263h0a12.236,12.236,0,0,1-5.093,9.941,4.112,4.112,0,0,0-1.725,2.831l-.233,1.96h-13.41l-.233-1.96a4.11,4.11,0,0,0-1.725-2.831,12.233,12.233,0,0,1-5.093-9.941h0A12.263,12.263,0,0,1,330.971,205.248Z" transform="translate(-318.707 -205.248)" fill="#ffd652"/>
                <path id="Trazado_1048834" data-name="Trazado 1048834" d="M321.7,225.536a12.2,12.2,0,0,1-3-8.024h0a12.263,12.263,0,0,1,12.263-12.263h2.986a12.263,12.263,0,0,1,12.263,12.263" transform="translate(-318.708 -205.248)" fill="none" stroke="#2d2b58" stroke-linecap="round" stroke-linejoin="round" stroke-miterlimit="10" stroke-width="1.264"/>
                <path id="Trazado_1048835" data-name="Trazado 1048835" d="M328.13,249.4h12.047a1.009,1.009,0,0,0,1.007-.947l.616-9.936a1.009,1.009,0,0,0-1.007-1.071H327.515a1.009,1.009,0,0,0-1.007,1.071l.616,9.936A1.009,1.009,0,0,0,328.13,249.4Z" transform="translate(-320.397 -212.228)" fill="#4b56dd"/>
                <path id="Trazado_1048836" data-name="Trazado 1048836" d="M329.688,233.118l-.824-5.652h.008c-.037-.219-.073-.443-.106-.674-.612-4.194-.334-8.33.751-8.33.674,0,1.4,1.685,1.9,4.031.179-2.347.67-4.031,1.344-4.031s1.281,1.685,1.623,4.031c.341-2.347.949-4.031,1.623-4.031s1.165,1.685,1.343,4.031c.5-2.347,1.228-4.031,1.9-4.031,1.086,0,1.364,4.135.752,8.33-.034.23-.069.454-.107.674h0l-.816,5.652" transform="translate(-320.44 -208.113)" fill="none" stroke="#2d2b58" stroke-linecap="round" stroke-linejoin="round" stroke-miterlimit="10" stroke-width="1.264"/>
              </g>
            </g>
          </g>
          <g id="Grupo_1206954" data-name="Grupo 1206954" transform="translate(194.892 0)">
            <g id="Grupo_1206952" data-name="Grupo 1206952">
              <path id="Trazado_1048837" data-name="Trazado 1048837" d="M42.112,128.677l17.614-3.552c.147.109.289.222.439.329a30.625,30.625,0,1,0-8.835-9.746Z" transform="translate(-42.112 -69.866)" fill="#f9ebeb"/>
              <path id="Trazado_1048838" data-name="Trazado 1048838" d="M106.927,75.532a30.624,30.624,0,0,0-44.319,40.176" transform="translate(-53.389 -69.866)" fill="none" stroke="#2d2b58" stroke-miterlimit="10" stroke-width="1.2"/>
            </g>
            <g id="Grupo_1206953" data-name="Grupo 1206953" transform="translate(16.127 17.038)">
              <rect id="Rectángulo_417692" data-name="Rectángulo 417692" width="7.951" height="11.222" transform="translate(28.748 12.112)" fill="#d75a59"/>
              <rect id="Rectángulo_417693" data-name="Rectángulo 417693" width="7.951" height="18.185" transform="translate(17.036 5.149)" fill="#60928b"/>
              <rect id="Rectángulo_417694" data-name="Rectángulo 417694" width="7.951" height="23.334" transform="translate(4.916)" fill="#4b56dd"/>
              <line id="Línea_3617" data-name="Línea 3617" x1="41.98" transform="translate(0 23.205)" fill="none" stroke="#2d2b58" stroke-miterlimit="10" stroke-width="1.2"/>
            </g>
          </g>
        </g>
        <g id="Grupo_1206966" data-name="Grupo 1206966" transform="translate(238.761 8.152)">
          <g id="Grupo_1206956" data-name="Grupo 1206956" transform="translate(210.667 10.726)">
            <path id="Trazado_1048839" data-name="Trazado 1048839" d="M150.465,25c7.971.918,14.454,7.656,15.346,15.953a18.781,18.781,0,0,1-2.177,11.1,15.02,15.02,0,0,1-1.527,2.188L151.456,67.414a4.121,4.121,0,0,1-6.469-.078l-7.372-9.577c-.7-.9-1.991-2.672-3.119-4.274a18.27,18.27,0,0,1-3.47-10.35V43.05C131.026,32.336,139.938,23.788,150.465,25Zm-3.683,25.211c5.4,1.247,10.113-3.655,8.915-9.281a7.506,7.506,0,0,0-5.525-5.751c-5.405-1.247-10.114,3.655-8.915,9.281A7.506,7.506,0,0,0,146.782,50.211ZM150.465,25c7.971.918,14.454,7.656,15.346,15.953a18.781,18.781,0,0,1-2.177,11.1" transform="translate(-131.025 -24.885)" fill="#d75a59"/>
            <path id="Trazado_1048840" data-name="Trazado 1048840" d="M131.025,25.032c7.971.918,14.454,7.656,15.346,15.953a18.781,18.781,0,0,1-2.177,11.1" transform="translate(-111.586 -24.917)" fill="none" stroke="#2d2b58" stroke-miterlimit="10" stroke-width="1.2"/>
          </g>
          <g id="Grupo_1206965" data-name="Grupo 1206965" transform="translate(0 0)">
            <g id="Grupo_1206960" data-name="Grupo 1206960" transform="translate(0 186.032)">
              <path id="Trazado_1048841" data-name="Trazado 1048841" d="M91.958,409.029l-6.63-6.927L32.381,445.529l6.63,6.927c7.758,8.106,25.9,4.955,40.52-7.037S99.716,417.134,91.958,409.029Z" transform="translate(-18.633 -385.962)" fill="#e9b14c"/>
              <g id="Grupo_1206958" data-name="Grupo 1206958" transform="translate(13.748 16.14)">
                <g id="Grupo_1206957" data-name="Grupo 1206957" clip-path="url(#clip-path-6)">
                  <path id="Trazado_1048842" data-name="Trazado 1048842" d="M85.458,426.6,69.181,409.594l-2.672,2.191,16.277,17.007Zm-7.1,12.984L62.083,422.578l2.672-2.191,16.277,17.008Zm-4.427,10.792L57.656,433.37l2.672-2.192L76.6,448.186ZM39.854,464.006,23.577,447l2.672-2.192,16.277,17.008Zm12.106-2.768L35.683,444.231l2.672-2.191,16.277,17.007Zm12.106-2.769L47.79,441.462l2.672-2.191,16.277,17.009Z" transform="translate(-15.484 -403.726)" fill="#d8892b"/>
                </g>
              </g>
              <ellipse id="Elipse_14320" data-name="Elipse 14320" cx="20.224" cy="34.294" rx="20.224" ry="34.294" transform="matrix(-0.602, -0.799, 0.799, -0.602, 24.345, 73.583)" fill="#ffd652"/>
              <path id="Trazado_1048844" data-name="Trazado 1048844" d="M94.63,400.743c7.758,8.106,2.194,24.4-12.427,36.39s-32.762,15.142-40.52,7.037" transform="translate(-28.591 -385.667)" fill="none" stroke="#2d2b58" stroke-miterlimit="10" stroke-width="1.2"/>
              <path id="Trazado_1048845" data-name="Trazado 1048845" d="M84.653,432.915c-11.342,9.3-25.152,12.023-30.844,6.075s-1.113-18.311,10.23-27.613S89.19,399.354,94.883,405.3,96,423.613,84.653,432.915Z" transform="translate(-35.369 -385.973)" fill="#e9b14c"/>
              <path id="Trazado_1048846" data-name="Trazado 1048846" d="M54.486,432.374c.005-6.292,4.645-14.411,12.676-21,11.342-9.3,25.151-12.023,30.844-6.075" transform="translate(-38.492 -385.972)" fill="none" stroke="#2d2b58" stroke-miterlimit="10" stroke-width="1.2"/>
              <g id="Grupo_1206959" data-name="Grupo 1206959" transform="translate(24.094 22.595)">
                <path id="Trazado_1048847" data-name="Trazado 1048847" d="M69.508,432.011a10.489,10.489,0,0,0,3.6,1.962,9.855,9.855,0,0,0,3.868.491l2.216-3.89a10.21,10.21,0,0,1-3.363-.351,7.393,7.393,0,0,1-2.868-1.443,3.913,3.913,0,0,1-1.176-1.46,2.044,2.044,0,0,1-.1-1.337,2.581,2.581,0,0,1,.761-1.175,2.618,2.618,0,0,1,1.59-.763,4.682,4.682,0,0,1,1.8.244q.957.309,2.009.744a22.463,22.463,0,0,0,2.218.78,8.872,8.872,0,0,0,2.443.355,6.689,6.689,0,0,0,2.643-.561,9.676,9.676,0,0,0,2.831-1.937,9.315,9.315,0,0,0,2.311-3.221,5.438,5.438,0,0,0,.284-3.485,6.416,6.416,0,0,0-2.274-3.3,9.682,9.682,0,0,0-2.851-1.641,9.4,9.4,0,0,0-3.312-.613l-2.29,3.828a9.985,9.985,0,0,1,2.878.509,6.656,6.656,0,0,1,2.142,1.163,3.665,3.665,0,0,1,1.152,1.463,2,2,0,0,1,.035,1.372,3,3,0,0,1-.811,1.2,2.691,2.691,0,0,1-1.6.774,4.137,4.137,0,0,1-1.782-.248q-.92-.324-1.992-.777a18.626,18.626,0,0,0-2.242-.774,9.941,9.941,0,0,0-2.409-.352,6.669,6.669,0,0,0-2.628.528,9.228,9.228,0,0,0-2.821,1.9,9,9,0,0,0-2.262,3.191,5.6,5.6,0,0,0-.267,3.5A6.405,6.405,0,0,0,69.508,432.011Zm-2.181,3.26,24.955-23.35-1.877-1.577-24.954,23.35Z" transform="translate(-65.451 -410.343)" fill="#d8892b"/>
              </g>
              <path id="Trazado_1048848" data-name="Trazado 1048848" d="M55.945,413.744c.681,4.359-1.66,9.505-4.692,13.623" transform="translate(5.983 -388.486)" fill="none" stroke="#2d2b58" stroke-miterlimit="10" stroke-width="1.2"/>
            </g>
            <g id="Grupo_1206964" data-name="Grupo 1206964" transform="translate(133.714)">
              <path id="Trazado_1048849" data-name="Trazado 1048849" d="M210.038,35.678l4.253-6.988L255.707,53.9l-4.253,6.988c-4.976,8.177-18.281,9.163-29.719,2.2S205.062,43.855,210.038,35.678Z" transform="translate(-204.267 -14.984)" fill="#e9b14c"/>
              <g id="Grupo_1206962" data-name="Grupo 1206962" transform="translate(3.89 13.706)">
                <g id="Grupo_1206961" data-name="Grupo 1206961" clip-path="url(#clip-path-7)">
                  <path id="Trazado_1048850" data-name="Trazado 1048850" d="M217.7,53.454,228.146,36.3l-2.09-1.272L215.615,52.183Zm1.913,6.711,10.441-17.156,2.09,1.272L221.708,61.437Zm4,7.983,10.442-17.156,2.09,1.272L225.712,69.42ZM249.2,72.621l10.441-17.157,2.09,1.272L251.288,73.893Zm-8.93.112L250.71,55.576l2.09,1.272L242.358,74Zm-8.929.112,10.441-17.157,2.09,1.272L233.43,74.117Z" transform="translate(-220.02 -30.063)" fill="#d8892b"/>
                </g>
              </g>
              <ellipse id="Elipse_14321" data-name="Elipse 14321" cx="24.461" cy="17.553" rx="24.461" ry="17.553" transform="translate(41.79 55.424) rotate(-148.674)" fill="#ffd652"/>
              <path id="Trazado_1048852" data-name="Trazado 1048852" d="M210.744,30.342c-5.04,8.282.23,20.689,11.77,27.713s24.982,6,30.023-2.278" transform="translate(-201.625 -15.343)" fill="none" stroke="#2d2b58" stroke-miterlimit="10" stroke-width="0.82"/>
              <path id="Trazado_1048853" data-name="Trazado 1048853" d="M223.471,52.688c8.953,5.449,19.209,4.939,22.907-1.137s-.562-15.42-9.514-20.869-19.209-4.939-22.907,1.137S214.518,47.24,223.471,52.688Z" transform="translate(-199.77 -14.598)" fill="#e9b14c"/>
              <path id="Trazado_1048854" data-name="Trazado 1048854" d="M246.391,45.57c-.475-5.221-4.461-11.03-10.8-14.888-8.953-5.449-19.209-4.939-22.907,1.137" transform="translate(-198.497 -14.598)" fill="none" stroke="#2d2b58" stroke-miterlimit="10" stroke-width="0.82"/>
              <g id="Grupo_1206963" data-name="Grupo 1206963" transform="translate(19.411 19.066)">
                <path id="Trazado_1048855" data-name="Trazado 1048855" d="M240.128,48.148a9.66,9.66,0,0,0,1.239-3.168,7.25,7.25,0,0,0,.037-3l-3.318-.683a7.428,7.428,0,0,1,.029,2.592,6.7,6.7,0,0,1-.891,2.495,4.147,4.147,0,0,1-1.06,1.239,1.991,1.991,0,0,1-1.061.41,1.755,1.755,0,0,1-1.01-.275,1.527,1.527,0,0,1-.757-.995,3.461,3.461,0,0,1,.029-1.4q.16-.789.41-1.682a18.689,18.689,0,0,0,.42-1.846,6.608,6.608,0,0,0,.059-1.908,4.117,4.117,0,0,0-.692-1.829,5.623,5.623,0,0,0-1.811-1.626,6.16,6.16,0,0,0-2.791-.92,4.943,4.943,0,0,0-2.816.655,6.841,6.841,0,0,0-2.434,2.515,9.039,9.039,0,0,0-1.051,2.531,7.2,7.2,0,0,0-.186,2.619l3.275.753a7.621,7.621,0,0,1,.143-2.27,6.141,6.141,0,0,1,.734-1.884,3.9,3.9,0,0,1,1.065-1.222,1.905,1.905,0,0,1,1.095-.367,2.014,2.014,0,0,1,1.039.3,1.564,1.564,0,0,1,.767,1,3.074,3.074,0,0,1-.034,1.389q-.175.766-.439,1.676a15.61,15.61,0,0,0-.414,1.862,7.416,7.416,0,0,0-.06,1.882,4.119,4.119,0,0,0,.665,1.826,5.338,5.338,0,0,0,1.778,1.63,5.963,5.963,0,0,0,2.763.891,5.1,5.1,0,0,0,2.827-.672A6.827,6.827,0,0,0,240.128,48.148Zm2.811.813L221.946,36.185l-1.089,1.79L241.85,50.751Z" transform="translate(-220.857 -35.533)" fill="#d8892b"/>
              </g>
              <path id="Trazado_1048856" data-name="Trazado 1048856" d="M251.743,40.08c-.169,3.755,1.921,7.557,4.436,10.367" transform="translate(-238.869 -17.453)" fill="none" stroke="#2d2b58" stroke-miterlimit="10" stroke-width="0.82"/>
            </g>
          </g>
        </g>
      </g>
    </g>
  </g>
</svg>
