<svg xmlns="http://www.w3.org/2000/svg" xmlns:xlink="http://www.w3.org/1999/xlink" width="108" height="108" viewBox="0 0 108 108">
  <defs>
    <filter id="Trazado_904820" x="0" y="0" width="108" height="108" filterUnits="userSpaceOnUse">
      <feOffset dy="3" input="SourceAlpha"/>
      <feGaussianBlur stdDeviation="3" result="blur"/>
      <feFlood flood-opacity="0.161"/>
      <feComposite operator="in" in2="blur"/>
      <feComposite in="SourceGraphic"/>
    </filter>
  </defs>
  <g id="Grupo_1206234" data-name="Grupo 1206234" transform="translate(-210 -1079.959)">
    <g id="Grupo_1200796" data-name="Grupo 1200796" transform="translate(219 1085.959)">
      <g id="Grupo_1184786" data-name="Grupo 1184786" transform="translate(0 0)">
        <g id="Grupo_1173585" data-name="Grupo 1173585">
          <g id="Grupo_1173428" data-name="Grupo 1173428">
            <g id="Grupo_1171958" data-name="Grupo 1171958">
              <g id="Grupo_1167341" data-name="Grupo 1167341">
                <g id="Grupo_1166792" data-name="Grupo 1166792">
                  <g transform="matrix(1, 0, 0, 1, -9, -6)" filter="url(#Trazado_904820)">
                    <g id="Trazado_904820-2" data-name="Trazado 904820" transform="translate(9 6)" fill="#e8edf7">
                      <path d="M 44.99999618530273 88.49997711181641 C 39.12687301635742 88.49997711181641 33.43022155761719 87.35005187988281 28.06829643249512 85.0821533203125 C 22.88852119445801 82.89128875732422 18.23629570007324 79.75457763671875 14.24084663391113 75.75912475585938 C 10.24540901184082 71.76367950439453 7.108683586120605 67.1114501953125 4.917821407318115 61.93169021606445 C 2.649921178817749 56.56975173950195 1.499996185302734 50.87311172485352 1.499996185302734 44.9999885559082 C 1.499996185302734 39.12686538696289 2.649921178817749 33.43021392822266 4.917821407318115 28.06828880310059 C 7.108683586120605 22.88851356506348 10.24540901184082 18.23630142211914 14.24084663391113 14.24085140228271 C 18.23629570007324 10.24540138244629 22.88852119445801 7.108688354492188 28.06829643249512 4.917826175689697 C 33.43022155761719 2.649925947189331 39.12687301635742 1.500001072883606 44.99999618530273 1.500001072883606 C 50.87311935424805 1.500001072883606 56.56977081298828 2.649925947189331 61.93169784545898 4.917826175689697 C 67.11147308349609 7.108688354492188 71.76369476318359 10.24540138244629 75.75914764404297 14.24085140228271 C 79.75458526611328 18.23630142211914 82.89131164550781 22.88851356506348 85.08216857910156 28.06828880310059 C 87.35007476806641 33.43021392822266 88.5 39.12686538696289 88.5 44.9999885559082 C 88.5 50.87311172485352 87.35007476806641 56.56975173950195 85.08216857910156 61.93169021606445 C 82.89131164550781 67.1114501953125 79.75458526611328 71.76367950439453 75.75914764404297 75.75912475585938 C 71.76369476318359 79.75457763671875 67.11147308349609 82.89128875732422 61.93169784545898 85.0821533203125 C 56.56977081298828 87.35005187988281 50.87311935424805 88.49997711181641 44.99999618530273 88.49997711181641 Z" stroke="none"/>
                      <path d="M 44.99999618530273 3 C 39.32870864868164 3 33.82865142822266 4.110061645507812 28.65262603759766 6.299331665039062 C 23.65165710449219 8.414573669433594 19.15968322753906 11.44332885742188 15.301513671875 15.301513671875 C 11.44333648681641 19.15969085693359 8.414566040039062 23.65164947509766 6.299339294433594 28.65261840820312 C 4.110054016113281 33.82864379882812 2.999992370605469 39.32870101928711 2.999992370605469 44.9999885559082 C 2.999992370605469 50.6712760925293 4.110054016113281 56.17131805419922 6.299339294433594 61.34735870361328 C 8.414566040039062 66.34832763671875 11.44333648681641 70.84028625488281 15.301513671875 74.69845581054688 C 19.15968322753906 78.55663299560547 23.65165710449219 81.58540344238281 28.65262603759766 83.70063018798828 C 33.82865142822266 85.88991546630859 39.32870864868164 86.99997711181641 44.99999618530273 86.99997711181641 C 50.67128372192383 86.99997711181641 56.17134094238281 85.88991546630859 61.34736633300781 83.70063018798828 C 66.34834289550781 81.58540344238281 70.84030914306641 78.55663299560547 74.69847869873047 74.69845581054688 C 78.55665588378906 70.84028625488281 81.58542633056641 66.34832763671875 83.70065307617188 61.34735870361328 C 85.88993835449219 56.17131805419922 87 50.6712760925293 87 44.9999885559082 C 87 39.32870101928711 85.88993835449219 33.82864379882812 83.70065307617188 28.65261840820312 C 81.58542633056641 23.65164947509766 78.55665588378906 19.15969085693359 74.69847869873047 15.301513671875 C 70.84030914306641 11.44332885742188 66.34834289550781 8.414573669433594 61.34736633300781 6.299331665039062 C 56.17134094238281 4.110061645507812 50.67128372192383 3 44.99999618530273 3 M 44.99999618530273 0 C 69.85281372070312 0 90 20.14717102050781 90 44.9999885559082 C 90 69.85279083251953 69.85281372070312 89.99997711181641 44.99999618530273 89.99997711181641 C 20.14717864990234 89.99997711181641 -7.62939453125e-06 69.85279083251953 -7.62939453125e-06 44.9999885559082 C -7.62939453125e-06 20.14717102050781 20.14717864990234 0 44.99999618530273 0 Z" stroke="none" fill="#2e5bb6"/>
                    </g>
                  </g>
                </g>
              </g>
            </g>
          </g>
        </g>
      </g>
    </g>
    <g id="Grupo_1206233" data-name="Grupo 1206233" transform="translate(174.641 -83.716)">
      <g id="Page-1" transform="translate(62 1185)">
        <g id="_079---Classical-Studies" data-name="079---Classical-Studies" transform="translate(0 0)">
          <path id="Shape" d="M2.824,55H52.069a1.824,1.824,0,0,1,1.824,1.824v.912a.912.912,0,0,1-.912.912H1.912A.912.912,0,0,1,1,57.736v-.912A1.824,1.824,0,0,1,2.824,55Z" transform="translate(-0.088 -4.844)" fill="#ffdc00"/>
          <g id="Grupo_1206231" data-name="Grupo 1206231" transform="translate(2.736 13.679)">
            <path id="Shape-2" data-name="Shape" d="M56.736,55H54a1.824,1.824,0,0,1,1.824,1.824v.912a.912.912,0,0,1-.912.912h2.736a.912.912,0,0,0,.912-.912v-.912A1.824,1.824,0,0,0,56.736,55Z" transform="translate(-7.491 -18.522)" fill="#fec108"/>
            <path id="Shape-3" data-name="Shape" d="M4.824,51h45.6a1.824,1.824,0,0,1,1.824,1.824v1.824H3V52.824A1.824,1.824,0,0,1,4.824,51Z" transform="translate(-3 -18.17)" fill="#fec108"/>
            <path id="Shape-4" data-name="Shape" d="M51.421,15v2.736a.912.912,0,0,1-.912.912H4.912A.912.912,0,0,1,4,17.736V15" transform="translate(-3.088 -15)" fill="#fec108"/>
            <path id="Shape-5" data-name="Shape" d="M5.912,47h5.472a.912.912,0,0,1,.912.912v2.736H5V47.912A.912.912,0,0,1,5.912,47Z" transform="translate(-3.176 -17.818)" fill="#fec108"/>
            <path id="Shape-6" data-name="Shape" d="M5,19h7.3v2.736a.912.912,0,0,1-.912.912H5.912A.912.912,0,0,1,5,21.736Z" transform="translate(-3.176 -15.352)" fill="#fec108"/>
          </g>
          <path id="Rectangle-path" d="M6,23h5.472V44.887H6Z" transform="translate(-0.528 -2.026)" fill="#ff9801"/>
          <path id="Rectangle-path-2" data-name="Rectangle-path" d="M9,23h2.736V44.887H9Z" transform="translate(-0.793 -2.026)" fill="#f57c00"/>
          <path id="Shape-7" data-name="Shape" d="M47.912,47h5.472a.912.912,0,0,1,.912.912v2.736H47V47.912A.912.912,0,0,1,47.912,47Z" transform="translate(-4.139 -4.139)" fill="#fec108"/>
          <path id="Shape-8" data-name="Shape" d="M47,19h7.3v2.736a.912.912,0,0,1-.912.912H47.912A.912.912,0,0,1,47,21.736Z" transform="translate(-4.139 -1.674)" fill="#fec108"/>
          <path id="Rectangle-path-3" data-name="Rectangle-path" d="M48,23h5.472V44.887H48Z" transform="translate(-4.227 -2.026)" fill="#ff9801"/>
          <path id="Rectangle-path-4" data-name="Rectangle-path" d="M51,23h2.736V44.887H51Z" transform="translate(-4.491 -2.026)" fill="#f57c00"/>
          <path id="Shape-9" data-name="Shape" d="M53.3,10.685,28.093,1.119a1.824,1.824,0,0,0-1.293,0L1.588,10.685A.912.912,0,0,0,1,11.537v1.318a.912.912,0,0,0,.912.912H52.98a.912.912,0,0,0,.912-.912V11.537A.912.912,0,0,0,53.3,10.685Z" transform="translate(-0.088 -0.089)" fill="#ffdc00"/>
          <path id="Shape-10" data-name="Shape" d="M55.726,10.685,30.514,1.119a1.824,1.824,0,0,0-1.293,0l-.721.274,24.49,9.293a.912.912,0,0,1,.588.853v1.318a.912.912,0,0,1-.912.912H55.4a.912.912,0,0,0,.912-.912V11.537A.912.912,0,0,0,55.726,10.685Z" transform="translate(-2.51 -0.089)" fill="#fec108"/>
          <circle id="Oval" cx="1.5" cy="1.5" r="1.5" transform="translate(26 5.716)" fill="#f57c00"/>
          <path id="Shape-11" data-name="Shape" d="M53.539,9.744,28.327.177a2.749,2.749,0,0,0-1.938,0L1.177,9.744A1.834,1.834,0,0,0,0,11.449v1.318a1.824,1.824,0,0,0,1.824,1.824h.912v1.824a1.817,1.817,0,0,0,.912,1.57v2.077a1.817,1.817,0,0,0,.912,1.57V42.2a1.817,1.817,0,0,0-.912,1.57v1.992a2.736,2.736,0,0,0-1.824,2.568v1.08A2.736,2.736,0,0,0,0,51.981v.912a1.824,1.824,0,0,0,1.824,1.824H52.892a1.824,1.824,0,0,0,1.824-1.824v-.912a2.736,2.736,0,0,0-1.824-2.568v-1.08a2.736,2.736,0,0,0-1.824-2.568V43.773a1.817,1.817,0,0,0-.912-1.57V21.633a1.817,1.817,0,0,0,.912-1.57V17.985a1.817,1.817,0,0,0,.912-1.57V14.591h.912a1.824,1.824,0,0,0,1.824-1.824V11.449A1.834,1.834,0,0,0,53.539,9.744Zm-11.59,8.495v1.824a1.817,1.817,0,0,0,.912,1.57V42.2a1.817,1.817,0,0,0-.912,1.57V45.6H12.767V43.773a1.817,1.817,0,0,0-.912-1.57V21.633a1.817,1.817,0,0,0,.912-1.57V18.239Zm7.3,1.824H43.773V18.239h5.472Zm0,25.534H43.773V43.773h5.472Zm-.912-3.648H44.685V21.887h3.648ZM5.472,43.773h5.472V45.6H5.472Zm.912-21.887h3.648V41.949H6.384Zm4.56-1.824H5.472V18.239h5.472Zm-7.3,28.27a.912.912,0,0,1,.912-.912h45.6a.912.912,0,0,1,.912.912v.912H3.648Zm49.245,4.56H1.824v-.912a.912.912,0,0,1,.912-.912H51.98a.912.912,0,0,1,.912.912ZM50.157,16.415H4.56V14.591h45.6Zm2.736-4.966v1.318H1.824V11.449L27.034,1.883a.918.918,0,0,1,.647,0l25.211,9.566Z" transform="translate(0 -0.001)"/>
          <path id="Shape-12" data-name="Shape" d="M27,7.736A2.736,2.736,0,1,0,29.736,5,2.736,2.736,0,0,0,27,7.736Zm3.648,0a.912.912,0,1,1-.912-.912A.912.912,0,0,1,30.648,7.736Z" transform="translate(-2.378 -0.441)"/>
        </g>
      </g>
      <g id="Icon" transform="translate(83.122 1205.975)">
        <g id="_03" transform="translate(0 0)">
          <g id="Grupo_1206232" data-name="Grupo 1206232" transform="translate(0)">
            <path id="Trazado_1048042" data-name="Trazado 1048042" d="M129.936,43.7a1.639,1.639,0,0,1-1.636-1.636v-.6a9.285,9.285,0,0,1-2.658-.679c-1.607-.7-1.942-1.654-1.942-2.338a5.758,5.758,0,0,1,.872-2.951,2.506,2.506,0,0,1,.231-.372.786.786,0,0,1,1.046-.217,7.918,7.918,0,0,0,2.451.985V35c-3.017-.5-4.6-2.437-4.6-5.637a5.4,5.4,0,0,1,1.522-3.922,6.192,6.192,0,0,1,3.078-1.659v-.547a1.636,1.636,0,0,1,3.271,0v.4a10.923,10.923,0,0,1,2.192.438c1.466.476,1.772,1.32,1.772,1.947a5.991,5.991,0,0,1-.523,2.159c-.467,1.164-.707,1.522-1.1,1.673a.807.807,0,0,1-.278.052.735.735,0,0,1-.3-.061,15.418,15.418,0,0,0-1.758-.627v.872c3.017.405,4.6,2.225,4.6,5.3a6.288,6.288,0,0,1-1.357,4.039,5.437,5.437,0,0,1-3.248,1.881v.749A1.632,1.632,0,0,1,129.936,43.7Z" transform="translate(-123.7 -21.6)"/>
            <path id="Trazado_1048043" data-name="Trazado 1048043" d="M146.692,46.813V44.254a11.592,11.592,0,0,1,2.852.867c.123-.047.339-.452.65-1.23a5.354,5.354,0,0,0,.467-1.867c0-.533-.41-.929-1.23-1.192a10.867,10.867,0,0,0-2.738-.457V39.244a.844.844,0,0,0-1.687,0v1.2a5.63,5.63,0,0,0-3.3,1.56,4.614,4.614,0,0,0-1.3,3.365q0,4.546,4.6,4.94v2.5a8.568,8.568,0,0,1-3.648-1.23,2.445,2.445,0,0,0-.184.3,5,5,0,0,0-.773,2.569c0,.65.49,1.193,1.466,1.617a8.823,8.823,0,0,0,3.134.674v1.334a.844.844,0,0,0,1.687,0V56.65a4.949,4.949,0,0,0,3.417-1.706,5.511,5.511,0,0,0,1.183-3.549q.007-4.327-4.6-4.581Zm-2.833-1.193a1.289,1.289,0,0,1,1.145-1.315V46.7C144.241,46.559,143.86,46.2,143.86,45.621Zm2.833,7.131V50.339a2.967,2.967,0,0,1,1.089.226.741.741,0,0,1,.354.716Q148.135,52.441,146.692,52.752Z" transform="translate(-139.613 -37.608)" fill="#ffce00"/>
          </g>
        </g>
      </g>
    </g>
  </g>
</svg>
