<svg xmlns="http://www.w3.org/2000/svg" xmlns:xlink="http://www.w3.org/1999/xlink" width="208" height="168.075" viewBox="0 0 208 168.075">
  <defs>
    <filter id="Rectángulo_416616" x="0" y="43.075" width="208" height="88" filterUnits="userSpaceOnUse">
      <feOffset dy="3" input="SourceAlpha"/>
      <feGaussianBlur stdDeviation="3" result="blur"/>
      <feFlood flood-opacity="0.161"/>
      <feComposite operator="in" in2="blur"/>
      <feComposite in="SourceGraphic"/>
    </filter>
    <filter id="Rectángulo_416616-2" x="38" y="5.075" width="133" height="163" filterUnits="userSpaceOnUse">
      <feOffset dy="3" input="SourceAlpha"/>
      <feGaussianBlur stdDeviation="3" result="blur-2"/>
      <feFlood flood-opacity="0.161"/>
      <feComposite operator="in" in2="blur-2"/>
      <feComposite in="SourceGraphic"/>
    </filter>
  </defs>
  <g id="Grupo_1206558" data-name="Grupo 1206558" transform="translate(-171 -3101.925)">
    <g id="Grupo_1206556" data-name="Grupo 1206556">
      <g id="Grupo_1205893" data-name="Grupo 1205893" transform="translate(-1050 1024)">
        <g id="Grupo_1205888" data-name="Grupo 1205888" transform="translate(-6 1318.164)">
          <g transform="matrix(1, 0, 0, 1, 1227, 759.76)" filter="url(#Rectángulo_416616)">
            <rect id="Rectángulo_416616-3" data-name="Rectángulo 416616" width="190" height="70" rx="20" transform="translate(9 49.08)" fill="#004a54"/>
          </g>
        </g>
        <g id="Grupo_1205889" data-name="Grupo 1205889" transform="translate(31.698 1279.415)">
          <g transform="matrix(1, 0, 0, 1, 1189.3, 798.51)" filter="url(#Rectángulo_416616-2)">
            <rect id="Rectángulo_416616-4" data-name="Rectángulo 416616" width="115" height="145" rx="20" transform="translate(47 11.08)" fill="#7bddba"/>
          </g>
        </g>
      </g>
    </g>
    <g id="layer1" transform="translate(204.393 3111.727)">
      <g id="g4582" transform="translate(6.607 6.604)">
        <g id="g56312">
          <path id="path56278" d="M40.551,6.6A33.946,33.946,0,0,0,15.892,63.881c.244,3.523,1.013,8.487,3.341,11.83,3.94,5.658,10.1,4.748,10.608,3.435s-5.253-1.617-5.859-8.487c-.015-.165-.021-.328-.022-.492A33.947,33.947,0,1,0,40.551,6.6Z" transform="translate(-10.604 -23.011)" fill="#ffc517"/>
          <path id="path56284" d="M10.048,52.674a33.947,33.947,0,0,0,5.6,7.945c.244,3.522,1.013,8.487,3.341,11.829,3.94,5.658,10.1,4.748,10.608,3.435s-5.253-1.617-5.859-8.487c-.015-.165-.021-.328-.022-.492A33.946,33.946,0,0,0,62.93,62.6c-20.867,6.327-40.195-1.745-52.883-9.924Z" transform="translate(-10.36 -19.749)" fill="#ffac17"/>
          <path id="path56005" d="M126.723,26.131,88.8,85.028,69.344,68.392c-3.853-3.58-8.536-3.026-11.364.991L18.583,136.7c-2.489,3.751,1.673,7.338,4.8,3.948L63.234,90.568,84.54,105.756c5.774,4.3,10.822,2.823,14.513-3.115L155.659,25.6Z" transform="translate(-21.823 -10.946)" fill="#7738c7"/>
          <g id="g56129" transform="translate(27.973 99.735)">
            <path id="ellipse10382-1" d="M103.354,129.592c0,3.776-9.325,6.837-20.828,6.837S61.7,133.368,61.7,129.592c0-.117.027-17.813.027-17.813.553-3.614,9.655,2,20.8,2s20.225-5.51,20.8-1.9c.019.12.029,17.714.029,17.714Z" transform="translate(-61.698 -105.103)" fill="#cf1531"/>
            <path id="path10380-0" d="M103.354,112.3c0,3.776-9.325,6.837-20.828,6.837S61.7,116.077,61.7,112.3s9.325-6.837,20.828-6.837S103.354,108.525,103.354,112.3Z" transform="translate(-61.698 -105.464)" fill="#ff4b3d"/>
            <path id="path10370-6" d="M70.134,111.983c.059.363.687.633,1.4.6l1.247-.052a4.141,4.141,0,0,0,.993.668,7.89,7.89,0,0,0,6.049.42A6.51,6.51,0,0,0,82,112.456a.748.748,0,0,0,.071-.064,12.916,12.916,0,0,1,2.436-1.849,6.183,6.183,0,0,1,1.9-.73,1.44,1.44,0,0,1,1.267.294c1.39.874,1.091,1.339.62,1.77a4.336,4.336,0,0,1-1.29.71.9.9,0,0,0-.574.413.409.409,0,0,0,.171.5,2.164,2.164,0,0,0,1.793.2,6.652,6.652,0,0,0,2.176-1.186,1.936,1.936,0,0,0,.521-.749l1.2-.05c.717-.03,1.25-.349,1.19-.712s-.688-.633-1.4-.6l-1.134.048a3.643,3.643,0,0,0-1.244-1.172,6.379,6.379,0,0,0-4-.736,8.609,8.609,0,0,0-3.135,1.123,13.466,13.466,0,0,0-2.787,2.1,5.037,5.037,0,0,1-1.394.753,3.305,3.305,0,0,1-1.173.191,3.681,3.681,0,0,1-1.6-.45c-.623-.313-.739-.528-.745-.726s.156-.422.45-.647a7.021,7.021,0,0,1,1.593-.8c.6-.2.772-.607.38-.912a2.178,2.178,0,0,0-1.8-.192,8.959,8.959,0,0,0-2.339,1.174,2.206,2.206,0,0,0-.842,1.069l-.981.041c-.716.03-1.249.348-1.19.711Z" transform="translate(-61.101 -105.25)" fill="#fff"/>
            <path id="path10407-7" d="M61.7,119.99s7.255,5.236,19.3,5.684,16.155-1.72,15.407-.9-6.881,3.141-18.7,2.393S61.7,122.982,61.7,122.982Z" transform="translate(-61.698 -104.435)" fill="#ff4b3d"/>
          </g>
          <g id="g56123" transform="translate(84.841 70.411)">
            <path id="path10389-3" d="M115.414,145.07c0,4.177-10.315,7.563-23.04,7.563s-23.04-3.386-23.04-7.563c0-.129.029-45.6.029-45.6.612-4,10.68,2.213,23.011,2.213,12.315,0,22.374-6.095,23.009-2.1.021.133.032,45.493.032,45.493Z" transform="translate(-69.334 -92.083)" fill="#ffac17"/>
            <path id="path10391-5" d="M115.414,100.046c0,4.177-10.315,7.563-23.04,7.563s-23.04-3.386-23.04-7.563,10.315-7.563,23.04-7.563S115.414,95.869,115.414,100.046Z" transform="translate(-69.334 -92.483)" fill="#ffc517"/>
            <path id="path10393-8" d="M78.665,99.693c.065.4.76.7,1.553.667L81.6,100.3a4.582,4.582,0,0,0,1.1.739,8.728,8.728,0,0,0,6.692.465,7.2,7.2,0,0,0,2.4-1.289.819.819,0,0,0,.079-.07A14.287,14.287,0,0,1,94.561,98.1a6.84,6.84,0,0,1,2.1-.808,1.593,1.593,0,0,1,1.4.325c1.538.966,1.207,1.481.685,1.958a4.8,4.8,0,0,1-1.427.785c-.673.215-.873.667-.446,1.007a2.394,2.394,0,0,0,1.984.226,7.357,7.357,0,0,0,2.407-1.312,2.142,2.142,0,0,0,.576-.828l1.329-.056c.793-.033,1.382-.386,1.316-.787s-.761-.7-1.553-.667L101.68,98a4.03,4.03,0,0,0-1.376-1.3,7.056,7.056,0,0,0-4.423-.814,9.523,9.523,0,0,0-3.468,1.243,14.9,14.9,0,0,0-3.083,2.328,5.573,5.573,0,0,1-1.542.833,3.656,3.656,0,0,1-1.3.212,4.072,4.072,0,0,1-1.771-.5c-.689-.346-.818-.584-.824-.8s.172-.467.5-.716a7.766,7.766,0,0,1,1.762-.885c.666-.22.854-.672.421-1.009a2.41,2.41,0,0,0-1.992-.213A9.911,9.911,0,0,0,82,97.678a2.44,2.44,0,0,0-.931,1.183l-1.085.045c-.792.033-1.381.385-1.316.787Z" transform="translate(-68.673 -92.246)" fill="#fff"/>
            <g id="Grupo_1206557" data-name="Grupo 1206557" transform="translate(0 17.128)">
              <path id="path10403-4" d="M69.334,108.478s8.026,5.792,21.347,6.288,17.871-1.9,17.044-.993-7.612,3.475-20.684,2.648-17.706-4.633-17.706-4.633Z" transform="translate(-69.334 -108.478)" fill="#ffc517"/>
              <path id="path10405-4" d="M69.334,120.21S77.36,126,90.68,126.5s17.871-1.9,17.044-.993-7.612,3.475-20.684,2.648-17.706-4.633-17.706-4.633Z" transform="translate(-69.334 -107.647)" fill="#ffc517"/>
              <path id="path10409-06" d="M69.334,133.61S77.36,139.4,90.68,139.9s17.871-1.9,17.044-.993-7.612,3.475-20.684,2.648-17.706-4.633-17.706-4.633Z" transform="translate(-69.334 -106.698)" fill="#ffc517"/>
            </g>
          </g>
          <path id="path56131" d="M127.939,25.638l-24.654.454L101.026,29.6c4.9,2.609,12.258,9.05,9.153,23.539-.246,1.149-.413,2.159-.517,3.053L127.71,31.63c.141-2.149.239-4.164.23-5.992Z" transform="translate(1.403 -10.961)" fill="#171d8f"/>
          <path id="path56000" d="M140.918,7.673c-4.53-2.663-9.881.471-9.881.471L101.881,24.435s-4.262,2.851-2.073,6.355,6.637,3.163,6.637,3.163l20.11-1.846,8.167,18.469s1.866,4.052,5.991,4.261,4.544-4.9,4.544-4.9l.056-33.4s.136-6.2-4.394-8.863Z" transform="translate(-11.477 -13.362)" fill="#7738c7"/>
          <path id="path17330-6" d="M30.325,48.281s-.736-10.471-.184-11.74,8.367-1.534,9.47-.264c.6.689.919,11.264.736,11.74s-10.022.264-10.022.264Z" transform="translate(-20.965 -20.95)" fill="#ff4b3d"/>
          <path id="path17332-8" d="M45.959,48.848s-.736-19.039-.184-20.308,8.367-1.534,9.47-.264c.6.689.919,19.832.736,20.308s-10.022.264-10.022.264Z" transform="translate(-19.858 -21.517)" fill="#7738c7"/>
          <path id="path17334-0" d="M61.593,49.226s-.736-24.75-.184-26.019,8.367-1.534,9.47-.264c.6.689.919,25.543.736,26.019s-10.022.264-10.022.264Z" transform="translate(-18.751 -21.895)" fill="#fff"/>
          <path id="path17622-63" d="M40.31,42.885c-3.4.18-6.83.319-10.249.424.113,2.387.254,4.446.254,4.446s9.838.212,10.022-.264a40.387,40.387,0,0,0-.028-4.605Z" transform="translate(-20.956 -20.423)" fill="#cf1531"/>
          <path id="path17620-7" d="M55.981,41.691c-3.332.344-6.747.634-10.214.876.091,2.98.178,5.272.178,5.272s9.838.212,10.022-.264c.065-.168.064-2.7.014-5.883Z" transform="translate(-19.844 -20.508)" fill="#171d8f"/>
          <path id="rect6811-9" d="M26.808,47.337s16.467-.9,24.562-.9,23.975.9,23.975.9a2.092,2.092,0,0,1,2.069,2.069,2.064,2.064,0,0,1-2.069,2.069H26.808a2.069,2.069,0,0,1,0-4.137Z" transform="translate(-21.333 -20.172)" fill="#7738c7"/>
        </g>
      </g>
    </g>
  </g>
</svg>
