<svg xmlns="http://www.w3.org/2000/svg" xmlns:xlink="http://www.w3.org/1999/xlink" width="295" height="237" viewBox="0 0 295 237">
  <defs>
    <clipPath id="clip-path">
      <rect id="Rectángulo_417685" data-name="Rectángulo 417685" width="295" height="237" transform="translate(285 3386)" fill="#fff" stroke="#707070" stroke-width="1"/>
    </clipPath>
  </defs>
  <g id="Enmascarar_grupo_1098911" data-name="Enmascarar grupo 1098911" transform="translate(-285 -3386)" clip-path="url(#clip-path)">
    <g id="Grupo_1206705" data-name="Grupo 1206705" transform="translate(-21)">
      <g id="Grupo_1206586" data-name="Grupo 1206586" transform="translate(1452.448 -6)">
        <g id="Grupo_1206565" data-name="Grupo 1206565" transform="translate(-1136 3365)">
          <circle id="Elipse_14304" data-name="Elipse 14304" cx="93.181" cy="93.181" r="93.181" transform="translate(0 131.776) rotate(-45)" fill="#e9f7ff"/>
          <path id="Trazado_1048374" data-name="Trazado 1048374" d="M165.014,252.052V127.08c0-12.27-9.281-22.218-20.731-22.218H83.127c-11.45,0-20.731,9.947-20.731,22.218V252.052Z" transform="translate(-2.837 12.402)" fill="#0e3651"/>
          <g id="Grupo_1206564" data-name="Grupo 1206564" transform="translate(56.087 41.518)">
            <g id="Grupo_1206559" data-name="Grupo 1206559" transform="translate(25.107)">
              <path id="Trazado_1048375" data-name="Trazado 1048375" d="M144.122,92.961c.209-1.356,3.128-9.073,7.925-6.57s2.607,17.832-3.128,19.083-6.569-4.589-6.569-4.589Z" transform="translate(-74.476 -31.384)" fill="#ec694e"/>
              <path id="Trazado_1048376" data-name="Trazado 1048376" d="M150.144,88.224c-1.267,2.176-3.041,4.868-4.489,7.207,2.6,1.666.4,6.044-2.284,3.9" transform="translate(-74.354 -31.105)" fill="none" stroke="#000" stroke-linecap="round" stroke-linejoin="round" stroke-miterlimit="10" stroke-width="0.463"/>
              <path id="Trazado_1048377" data-name="Trazado 1048377" d="M106.4,121.617c-3.6-1.095-14.7-1.252-19.708-13.139s-.938-15.954-1.407-18.77-7.977-17.832.312-30.97,14.7-11.106,16.268-12.67,14.077-14.547,25.339-5.943-.156,21.9-.312,23.306S106.4,121.617,106.4,121.617Z" transform="translate(-81.722 -37.203)" fill="#600200"/>
              <path id="Trazado_1048378" data-name="Trazado 1048378" d="M104.167,60.085c11.548,1.824,20.6-2.416,26.947-9.575A11.423,11.423,0,0,0,126.2,40.125c-11.262-8.6-23.775,4.38-25.339,5.943-1.19,1.191-5.193.3-10.694,5.607C93.2,56.013,98.487,58.823,104.167,60.085Z" transform="translate(-80.713 -37.203)" fill="#7f0206"/>
              <path id="Trazado_1048379" data-name="Trazado 1048379" d="M98.729,92.961c-.209-1.356-3.128-9.073-7.925-6.57s-2.606,17.832,3.128,19.083,6.569-4.589,6.569-4.589Z" transform="translate(-80.951 -31.384)" fill="#ec694e"/>
              <path id="Trazado_1048380" data-name="Trazado 1048380" d="M114.08,114.854s.884,11.059.884,12.091-7.666,6.488-7.666,6.488,12.512,12.339,16.935,12.045,6.213-18.827,6.213-18.827-4.571-.59-4.719-1.328-1.031-8.256-1.031-8.256Z" transform="translate(-78.665 -27.923)" fill="#ec694e"/>
              <path id="Trazado_1048381" data-name="Trazado 1048381" d="M119.327,79.767c10.64-3.286,14.706-13.029,16.073-17.689a39.7,39.7,0,0,0-12.8-1.9h-.031c-11.177,0-20.683,7.665-24.218,18.366A28.853,28.853,0,0,0,119.327,79.767Z" transform="translate(-79.735 -34.457)" fill="#7f0206"/>
              <path id="Trazado_1048382" data-name="Trazado 1048382" d="M98.5,76.582a29.361,29.361,0,0,0-1.477,9.226v6.736l7.164-14.03A27.68,27.68,0,0,1,98.5,76.582Z" transform="translate(-79.892 -32.497)" fill="#7f0206"/>
              <path id="Trazado_1048383" data-name="Trazado 1048383" d="M147.316,77.6c-2.488-6.877-7.239-12.824-15.8-15.726-.172.591-.39,1.262-.657,1.992a37.891,37.891,0,0,1,10.863,7.147A40.891,40.891,0,0,1,147.316,77.6Z" transform="translate(-75.849 -34.255)" fill="#600200"/>
              <path id="Trazado_1048384" data-name="Trazado 1048384" d="M145.763,70.8A37.876,37.876,0,0,0,134.9,63.655c-1.845,5.033-6.123,12.827-15.416,15.7a29.437,29.437,0,0,1-15.294.708L97.027,94.089V99.31c0,15.24,11.5,27.238,25.7,27.238h.031c25.6,0,31.017-17.473,31.017-32.712V92.83a45.834,45.834,0,0,0-2.411-15.44A40.793,40.793,0,0,0,145.763,70.8Z" transform="translate(-79.892 -34.042)" fill="#fe8a5f"/>
              <path id="Trazado_1048385" data-name="Trazado 1048385" d="M117.861,96.254a8.984,8.984,0,1,1-8.983-8.984A8.983,8.983,0,0,1,117.861,96.254Z" transform="translate(-79.55 -31.219)" fill="#f73737" opacity="0.3"/>
              <path id="Trazado_1048386" data-name="Trazado 1048386" d="M149.052,96.254c0,4.962-3.387,8.983-7.565,8.983s-7.566-4.022-7.566-8.983,3.387-8.984,7.566-8.984S149.052,91.292,149.052,96.254Z" transform="translate(-75.483 -31.219)" fill="#f73737" opacity="0.3"/>
              <path id="Trazado_1048387" data-name="Trazado 1048387" d="M119.052,87.907c1.246.113,1.876,4.9.209,5.005S117.9,87.8,119.052,87.907Z" transform="translate(-77.374 -31.143)"/>
              <line id="Línea_3583" data-name="Línea 3583" x2="2.921" y2="1.669" transform="translate(46.89 67.294)" fill="none" stroke="#000" stroke-linecap="round" stroke-linejoin="round" stroke-miterlimit="10" stroke-width="0.463"/>
              <line id="Línea_3584" data-name="Línea 3584" x2="12.41" y2="6.8" transform="translate(36.255 68.327)" fill="none" stroke="#000" stroke-linecap="round" stroke-linejoin="round" stroke-miterlimit="10" stroke-width="0.463"/>
              <line id="Línea_3585" data-name="Línea 3585" y1="8.144" x2="12.93" transform="translate(50.958 66.732)" fill="none" stroke="#000" stroke-linecap="round" stroke-linejoin="round" stroke-miterlimit="10" stroke-width="0.463"/>
              <line id="Línea_3586" data-name="Línea 3586" y1="1.877" x2="2.711" transform="translate(51.375 67.086)" fill="none" stroke="#000" stroke-linecap="round" stroke-linejoin="round" stroke-miterlimit="10" stroke-width="0.463"/>
              <path id="Trazado_1048388" data-name="Trazado 1048388" d="M117.553,86.134a1.826,1.826,0,0,1,2.92-.208" transform="translate(-77.439 -31.456)" fill="none" stroke="#000" stroke-linecap="round" stroke-linejoin="round" stroke-miterlimit="10" stroke-width="0.463"/>
              <path id="Trazado_1048389" data-name="Trazado 1048389" d="M113.681,84.44c.62.076,4.393-2.048,6.463-1.793s3.673.031,3.737-.487-1.61-3.139-3.744-2.876S113.681,84.44,113.681,84.44Z" transform="translate(-77.902 -32.176)" fill="#600200"/>
              <path id="Trazado_1048390" data-name="Trazado 1048390" d="M131.28,87.907c-1.247.113-1.876,4.9-.208,5.005S132.427,87.8,131.28,87.907Z" transform="translate(-75.944 -31.143)"/>
              <path id="Trazado_1048391" data-name="Trazado 1048391" d="M132.859,86.134a1.827,1.827,0,0,0-2.921-.208" transform="translate(-75.959 -31.456)" fill="none" stroke="#000" stroke-linecap="round" stroke-linejoin="round" stroke-miterlimit="10" stroke-width="0.463"/>
              <path id="Trazado_1048392" data-name="Trazado 1048392" d="M137.507,84.44c-.621.076-4.393-2.048-6.463-1.793s-3.673.031-3.736-.487,1.61-3.139,3.744-2.876S137.507,84.44,137.507,84.44Z" transform="translate(-76.274 -32.176)" fill="#600200"/>
              <path id="Trazado_1048393" data-name="Trazado 1048393" d="M123.327,106.394a4.229,4.229,0,0,0,5.631-.418" transform="translate(-76.749 -28.984)" fill="none" stroke="#000" stroke-linecap="round" stroke-linejoin="round" stroke-miterlimit="10" stroke-width="0.463"/>
              <path id="Trazado_1048394" data-name="Trazado 1048394" d="M92.113,88.224c1.267,2.176,3.041,4.868,4.489,7.207-2.6,1.666-.4,6.044,2.283,3.9" transform="translate(-80.48 -31.105)" fill="none" stroke="#000" stroke-linecap="round" stroke-linejoin="round" stroke-miterlimit="10" stroke-width="0.463"/>
              <path id="Trazado_1048395" data-name="Trazado 1048395" d="M100.973,47.917c1.745,6.537,7.027,11.808,14.077,11.731" transform="translate(-79.421 -35.923)" fill="none" stroke="#000" stroke-linecap="round" stroke-linejoin="round" stroke-miterlimit="10" stroke-width="0.463"/>
              <path id="Trazado_1048396" data-name="Trazado 1048396" d="M94.686,49.873C94.71,58.588,97.167,63.3,105.948,65.2" transform="translate(-80.172 -35.689)" fill="none" stroke="#000" stroke-linecap="round" stroke-linejoin="round" stroke-miterlimit="10" stroke-width="0.463"/>
              <path id="Trazado_1048397" data-name="Trazado 1048397" d="M97.479,63.844a31.436,31.436,0,0,0,3.91,1.877" transform="translate(-79.838 -34.019)" fill="none" stroke="#000" stroke-linecap="round" stroke-linejoin="round" stroke-miterlimit="10" stroke-width="0.463"/>
              <path id="Trazado_1048398" data-name="Trazado 1048398" d="M86.722,83.472c2.658,2.021,7.351,2.03,9.7-.626" transform="translate(-81.124 -31.748)" fill="none" stroke="#000" stroke-linecap="round" stroke-linejoin="round" stroke-miterlimit="10" stroke-width="0.463"/>
              <path id="Trazado_1048399" data-name="Trazado 1048399" d="M103.627,73.45a21.2,21.2,0,0,0,19.24-3.6" transform="translate(-79.104 -33.301)" fill="none" stroke="#000" stroke-linecap="round" stroke-linejoin="round" stroke-miterlimit="10" stroke-width="0.463"/>
              <path id="Trazado_1048400" data-name="Trazado 1048400" d="M125.2,95.813c1.59,1.481,3.017,1.357,3.973-.518" transform="translate(-76.525 -30.26)" fill="none" stroke="#fff" stroke-linecap="round" stroke-linejoin="round" stroke-miterlimit="10" stroke-width="0.926"/>
              <path id="Trazado_1048401" data-name="Trazado 1048401" d="M113.32,38.508a11.061,11.061,0,0,1,7.6,2.419" transform="translate(-77.945 -37.048)" fill="none" stroke="#fff" stroke-linecap="round" stroke-linejoin="round" stroke-miterlimit="10" stroke-width="0.926"/>
              <path id="Trazado_1048402" data-name="Trazado 1048402" d="M126.283,61.346a29.824,29.824,0,0,1,4.664,1.381" transform="translate(-76.396 -34.318)" fill="none" stroke="#fff" stroke-linecap="round" stroke-linejoin="round" stroke-miterlimit="10" stroke-width="0.926"/>
            </g>
            <g id="Grupo_1206560" data-name="Grupo 1206560" transform="translate(22.184 97.252)">
              <path id="Trazado_1048403" data-name="Trazado 1048403" d="M156.121,130s11.205,40.89,15.333,53.864,18.087,63.579,18.087,63.579H170.82s-19.694-57.5-19.694-63.006S154.942,130,156.121,130Z" transform="translate(-70.504 -123.365)" fill="#ec694e"/>
              <path id="Trazado_1048404" data-name="Trazado 1048404" d="M110.667,129.086c1.272.381,7.282,11.9,17.281,8.723,7.6-2.419,3.656-13.736,4.393-13.736s33.175,3.687,33.175,4.571,2.064,27.129-.294,47.771-4.719,32.731-3.834,34.206,12.975,38.319,12.975,38.319H98.873s11.205-35.37,11.205-37.139-11.205-22.706-15.628-32.142-15.628-34.8-15.333-35.681S109.192,128.643,110.667,129.086Z" transform="translate(-79.111 -124.073)" fill="#636363"/>
              <path id="Trazado_1048405" data-name="Trazado 1048405" d="M100.023,188.1c4.083,8.044,7.944,15.686,7.944,16.724,0,1.769-11.205,37.139-11.205,37.139h75.489s-12.09-36.844-12.975-38.319c-.677-1.13.551-8.5,2.222-21.178C142.295,192.639,120.429,195.946,100.023,188.1Z" transform="translate(-77.001 -117.094)" fill="#515151"/>
              <path id="Trazado_1048406" data-name="Trazado 1048406" d="M106.244,156.691c10.366,6.656,24.273,12.681,35.78,18.873" transform="translate(-75.868 -120.175)" fill="none" stroke="#000" stroke-linecap="round" stroke-linejoin="round" stroke-miterlimit="10" stroke-width="0.463"/>
              <line id="Línea_3587" data-name="Línea 3587" y1="11.919" x2="9.329" transform="translate(57.474 31.358)" fill="none" stroke="#000" stroke-linecap="round" stroke-linejoin="round" stroke-miterlimit="10" stroke-width="0.463"/>
            </g>
            <g id="Grupo_1206561" data-name="Grupo 1206561" transform="translate(0 119.281)">
              <path id="Trazado_1048407" data-name="Trazado 1048407" d="M125.42,237.068s-41.48-20.838-42.266-22.606S96.8,176.574,96.8,176.574L82.29,143.75S57.795,223.5,59.368,227.633s63.695,17.5,65.858,17.693S125.42,237.068,125.42,237.068Z" transform="translate(-59.295 -143.75)" fill="#fe8a5f"/>
              <path id="Trazado_1048408" data-name="Trazado 1048408" d="M121.932,228.182s-9.673-4.859-19.766-10.083l-13.68,10.944c16.029,3.893,32.166,7.3,33.251,7.4C123.9,236.636,121.932,228.182,121.932,228.182Z" transform="translate(-55.806 -134.864)" fill="#ec694e"/>
              <path id="Trazado_1048409" data-name="Trazado 1048409" d="M116.719,228.3c1.348-1.646,16.71-16.121,18.086-16.121s6.979,4.718,9.731,5.9,8.059,3.047,8.256,5.012-4.03,6.194-7.962,5.8-11.009-4.915-11.8-4.325.294,12.581-14.35,12.581C110.719,237.147,114.95,230.464,116.719,228.3Z" transform="translate(-52.757 -135.572)" fill="#fe8a5f"/>
              <path id="Trazado_1048410" data-name="Trazado 1048410" d="M133.638,215.166c4.293,3.129,9.965,6.188,13.761,8.845" transform="translate(-50.41 -135.215)" fill="none" stroke="#000" stroke-linecap="round" stroke-linejoin="round" stroke-miterlimit="10" stroke-width="0.463"/>
              <path id="Trazado_1048411" data-name="Trazado 1048411" d="M131.355,218.678a110.485,110.485,0,0,0,14.154,7.863" transform="translate(-50.683 -134.795)" fill="none" stroke="#000" stroke-linecap="round" stroke-linejoin="round" stroke-miterlimit="10" stroke-width="0.463"/>
            </g>
            <g id="Grupo_1206562" data-name="Grupo 1206562" transform="translate(75.847 152.932)">
              <path id="Trazado_1048412" data-name="Trazado 1048412" d="M221.406,235.518c-.382-4.442.722-7.832-1.61-7.832H131.681c-2.331,0-4.254,3.389-4.636,7.832Z" transform="translate(-127.045 -167.37)" fill="#78bbf9"/>
              <rect id="Rectángulo_417679" data-name="Rectángulo 417679" width="66.729" height="61.003" transform="translate(26.469 0)" fill="#a9d6ff"/>
              <path id="Trazado_1048413" data-name="Trazado 1048413" d="M181.93,218.2c-11.158-1.86-21.569-6.326-31.243-12.268v25.036h66.729V206.565C206.966,214.552,195.259,219.943,181.93,218.2Z" transform="translate(-124.219 -169.969)" fill="#8fc6ff"/>
              <path id="Trazado_1048414" data-name="Trazado 1048414" d="M146.665,234.812h4.5v-61l-4.5,2.752Z" transform="translate(-124.7 -173.809)" fill="#78bbf9"/>
              <path id="Trazado_1048415" data-name="Trazado 1048415" d="M191.659,201.883a7.721,7.721,0,1,1-7.721-7.724A7.72,7.72,0,0,1,191.659,201.883Z" transform="translate(-121.168 -171.377)" fill="#fff"/>
              <line id="Línea_3588" data-name="Línea 3588" x2="31.614" transform="translate(60.079 1.488)" fill="none" stroke="#fff" stroke-linecap="round" stroke-linejoin="round" stroke-miterlimit="10" stroke-width="0.926"/>
            </g>
            <g id="Grupo_1206563" data-name="Grupo 1206563" transform="translate(40.461 95.433)">
              <path id="Trazado_1048416" data-name="Trazado 1048416" d="M96.587,130.706s6.466,21.313,27.915,20.052c16.71-.983,17.5-28.309,17.5-28.309" transform="translate(-95.3 -122.448)" fill="none" stroke="#000" stroke-linecap="round" stroke-linejoin="round" stroke-miterlimit="10" stroke-width="0.463"/>
              <path id="Trazado_1048417" data-name="Trazado 1048417" d="M104.858,136.29a4.718,4.718,0,1,1-4.32-5.085A4.717,4.717,0,0,1,104.858,136.29Z" transform="translate(-95.437 -121.403)" fill="#fef8d4"/>
              <path id="Trazado_1048418" data-name="Trazado 1048418" d="M111.946,144.442a4.718,4.718,0,1,1-4.319-5.085A4.719,4.719,0,0,1,111.946,144.442Z" transform="translate(-94.59 -120.429)" fill="#fef8d4"/>
              <path id="Trazado_1048419" data-name="Trazado 1048419" d="M122.06,147.907a4.717,4.717,0,1,1-4.319-5.085A4.72,4.72,0,0,1,122.06,147.907Z" transform="translate(-93.381 -120.015)" fill="#fef8d4"/>
              <path id="Trazado_1048420" data-name="Trazado 1048420" d="M132.6,146.122a4.718,4.718,0,1,1-4.32-5.085A4.72,4.72,0,0,1,132.6,146.122Z" transform="translate(-92.121 -120.228)" fill="#fef8d4"/>
              <path id="Trazado_1048421" data-name="Trazado 1048421" d="M138.316,138.659a4.718,4.718,0,1,1-4.32-5.086A4.718,4.718,0,0,1,138.316,138.659Z" transform="translate(-91.438 -121.12)" fill="#fef8d4"/>
              <path id="Trazado_1048422" data-name="Trazado 1048422" d="M141.171,129.554a4.718,4.718,0,1,1-4.32-5.086A4.718,4.718,0,0,1,141.171,129.554Z" transform="translate(-91.097 -122.208)" fill="#fef8d4"/>
            </g>
          </g>
        </g>
      </g>
      <g id="normas" transform="translate(479.957 3423.539)">
        <g id="Grupo_1206588" data-name="Grupo 1206588" transform="translate(35.889 68.869)">
          <g id="Grupo_1206587" data-name="Grupo 1206587">
            <path id="Trazado_1048555" data-name="Trazado 1048555" d="M76.565,52.2v7.5c0,1.783-5.822,3.35-14.237,4.066-3.188.27-6.74.419-10.5.419-13.656,0-24.732-2.026-24.732-4.5V52.2Z" transform="translate(-27.1 -52.2)" fill="#a6412e"/>
          </g>
        </g>
        <g id="Grupo_1206590" data-name="Grupo 1206590" transform="translate(69.167 68.869)">
          <g id="Grupo_1206589" data-name="Grupo 1206589">
            <path id="Trazado_1048556" data-name="Trazado 1048556" d="M67.923,52.2v4.9a4.547,4.547,0,0,1-4.755.608,14.325,14.325,0,0,0-1.688-.878,5.487,5.487,0,0,0-3.7.527,6.377,6.377,0,0,1-3.688.729,3.136,3.136,0,0,1-2.31-3.5L54.7,52.2Z" transform="translate(-51.737 -52.2)" fill="#973424"/>
          </g>
        </g>
        <g id="Grupo_1206592" data-name="Grupo 1206592" transform="translate(66.291 71.26)">
          <g id="Grupo_1206591" data-name="Grupo 1206591">
            <path id="Trazado_1048557" data-name="Trazado 1048557" d="M64.334,60.427A4.129,4.129,0,0,1,62,59.4a4.761,4.761,0,0,0-1.634-.892A3.64,3.64,0,0,0,58,58.914c-.243.108-.473.216-.7.338a9.1,9.1,0,0,1-1.8.729,4.75,4.75,0,0,1-5.754-5.768.321.321,0,0,1,.621.162,4.116,4.116,0,0,0,4.971,4.984,9.249,9.249,0,0,0,1.675-.675c.243-.122.473-.23.716-.351a4.379,4.379,0,0,1,2.783-.446,5.414,5.414,0,0,1,1.864,1,3.4,3.4,0,0,0,2.013.905,3.612,3.612,0,0,0,1.932-.973c.243-.189.473-.365.716-.527a5.688,5.688,0,0,1,1.54-.7.325.325,0,1,1,.189.621,4.992,4.992,0,0,0-1.364.621c-.23.149-.446.324-.675.5a4.1,4.1,0,0,1-2.31,1.121.1.1,0,0,0-.081-.027Z" transform="translate(-49.607 -53.97)" fill="#973424"/>
          </g>
        </g>
        <g id="Grupo_1206594" data-name="Grupo 1206594" transform="translate(35.903 71.855)">
          <g id="Grupo_1206593" data-name="Grupo 1206593">
            <path id="Trazado_1048558" data-name="Trazado 1048558" d="M62.338,63c-3.188.27-6.74.419-10.5.419-13.656,0-24.732-2.026-24.732-4.5v-4.5a.013.013,0,0,1,.014-.014A4.052,4.052,0,0,0,30.8,58.246c1-.027,1.972-.486,2.985-.419,2.418.162,3.89,3.2,6.295,3.35,1.715.108,3.35-1.337,5-.878,1.189.324,1.972,1.567,3.161,1.878,1.526.405,2.985-.81,4.552-1.054s3.134.473,4.593,1.094A13.646,13.646,0,0,0,62.338,63Z" transform="translate(-27.11 -54.41)" fill="#973424"/>
          </g>
        </g>
        <g id="Grupo_1206596" data-name="Grupo 1206596" transform="translate(35.578 68.545)">
          <g id="Grupo_1206595" data-name="Grupo 1206595">
            <path id="Trazado_1048559" data-name="Trazado 1048559" d="M51.927,64.6a.324.324,0,1,1,0-.648c3.607,0,7.132-.135,10.468-.419,9.577-.824,13.94-2.526,13.94-3.742V52.622H27.518V56.8a.324.324,0,0,1-.648,0V52.284a.329.329,0,0,1,.324-.324H76.646a.329.329,0,0,1,.324.324v7.5c0,2.918-11.117,4.106-14.534,4.39-3.35.3-6.889.432-10.509.432Z" transform="translate(-26.87 -51.96)" fill="#010101"/>
          </g>
        </g>
        <g id="Grupo_1206598" data-name="Grupo 1206598" transform="translate(35.903 64.371)">
          <g id="Grupo_1206597" data-name="Grupo 1206597">
            <ellipse id="Elipse_14306" data-name="Elipse 14306" cx="24.719" cy="4.498" rx="24.719" ry="4.498" fill="#bd5a3c"/>
          </g>
        </g>
        <g id="Grupo_1206600" data-name="Grupo 1206600" transform="translate(35.578 66.051)">
          <g id="Grupo_1206599" data-name="Grupo 1206599">
            <path id="Trazado_1048560" data-name="Trazado 1048560" d="M51.913,57.754c-12.143,0-25.043-1.688-25.043-4.809,0-1.094,1.459-2.013,4.444-2.823a.321.321,0,1,1,.162.621c-3.674.986-3.958,1.932-3.958,2.188,0,1.972,10.023,4.174,24.395,4.174s24.395-2.2,24.395-4.174c0-.527-.864-1.148-2.377-1.7a.325.325,0,0,1,.23-.608c1.891.689,2.8,1.445,2.8,2.31.014,3.134-12.9,4.822-25.043,4.822Z" transform="translate(-26.87 -50.113)" fill="#010101"/>
          </g>
        </g>
        <g id="Grupo_1206602" data-name="Grupo 1206602" transform="translate(42.359 61.238)">
          <g id="Grupo_1206601" data-name="Grupo 1206601">
            <path id="Trazado_1048561" data-name="Trazado 1048561" d="M68.428,46.55v6.227c0,1.337-3.4,2.5-8.523,3.161a77.388,77.388,0,0,1-9.739.581c-10.09,0-18.276-1.675-18.276-3.728V46.564H68.428Z" transform="translate(-31.89 -46.55)" fill="#fab815"/>
          </g>
        </g>
        <g id="Grupo_1206604" data-name="Grupo 1206604" transform="translate(42.359 64.371)">
          <g id="Grupo_1206603" data-name="Grupo 1206603">
            <path id="Trazado_1048562" data-name="Trazado 1048562" d="M59.9,55.124a77.388,77.388,0,0,1-9.739.581c-10.09,0-18.276-1.675-18.276-3.728V48.87a3.167,3.167,0,0,0,2.458,1.81,13.416,13.416,0,0,1,1.959.081,4.769,4.769,0,0,1,2.188,1.8,3.346,3.346,0,0,0,2.337,1.5c1.067.014,1.945-.919,3.012-1.027,1.7-.176,3.107,1.742,4.809,1.54.986-.108,1.742-.905,2.647-1.31a5.451,5.451,0,0,1,3.944.081c1.27.446,2.458,1.121,3.728,1.54a9.385,9.385,0,0,0,.932.243Z" transform="translate(-31.89 -48.87)" fill="#eea820"/>
          </g>
        </g>
        <g id="Grupo_1206606" data-name="Grupo 1206606" transform="translate(42.022 60.927)">
          <g id="Grupo_1206605" data-name="Grupo 1206605">
            <path id="Trazado_1048563" data-name="Trazado 1048563" d="M37.556,55.87h-.068c-3.877-.77-5.849-1.769-5.849-3V46.644a.329.329,0,0,1,.324-.324H68.516a.329.329,0,0,1,.324.324v6.227c0,.878-1.04,1.661-3.107,2.323a.325.325,0,0,1-.405-.216.319.319,0,0,1,.216-.405c1.661-.527,2.647-1.162,2.647-1.7v-5.9H32.3v5.9c0,.635,1.4,1.594,5.322,2.364a.332.332,0,0,1,.257.378A.322.322,0,0,1,37.556,55.87Z" transform="translate(-31.64 -46.32)" fill="#010101"/>
          </g>
        </g>
        <g id="Grupo_1206608" data-name="Grupo 1206608" transform="translate(42.359 57.523)">
          <g id="Grupo_1206607" data-name="Grupo 1206607">
            <ellipse id="Elipse_14307" data-name="Elipse 14307" cx="18.262" cy="3.728" rx="18.262" ry="3.728" fill="#ffce3b"/>
          </g>
        </g>
        <g id="Grupo_1206610" data-name="Grupo 1206610" transform="translate(42.035 57.884)">
          <g id="Grupo_1206609" data-name="Grupo 1206609">
            <path id="Trazado_1048564" data-name="Trazado 1048564" d="M50.236,51.473c-9.01,0-18.586-1.418-18.586-4.052,0-1.9,4.957-2.918,7.929-3.35a.321.321,0,1,1,.095.635c-5.092.743-7.362,1.891-7.362,2.715,0,1.607,7.375,3.4,17.938,3.4s17.938-1.8,17.938-3.4c0-.689-1.675-1.769-6.4-2.553a.329.329,0,1,1,.108-.648c3.174.527,6.943,1.513,6.943,3.2,0,2.634-9.577,4.052-18.6,4.052Z" transform="translate(-31.65 -44.067)" fill="#010101"/>
          </g>
        </g>
        <g id="Grupo_1206612" data-name="Grupo 1206612" transform="translate(25.043 33.02)">
          <g id="Grupo_1206611" data-name="Grupo 1206611">
            <path id="Trazado_1048565" data-name="Trazado 1048565" d="M38.561,30.158,27.175,36.4l-5.633,3.093L19.07,34.98l2.323-1.27L36.1,25.66Z" transform="translate(-19.07 -25.66)" fill="#bd5a3c"/>
          </g>
        </g>
        <g id="Grupo_1206614" data-name="Grupo 1206614" transform="translate(25.056 41.084)">
          <g id="Grupo_1206613" data-name="Grupo 1206613">
            <path id="Trazado_1048566" data-name="Trazado 1048566" d="M27.171,34.3,21.538,37.4,19.08,32.9l2.31-1.27a.868.868,0,0,0,.162.675.932.932,0,0,0,.905.351c.338-.054.675-.324,1-.2.27.095.378.392.5.662s.311.554.594.54c.378-.014.567-.527.932-.594a.625.625,0,0,1,.54.23c.135.149.243.324.378.486a1.552,1.552,0,0,0,.77.527Z" transform="translate(-19.08 -31.63)" fill="#a6412e"/>
          </g>
        </g>
        <g id="Grupo_1206616" data-name="Grupo 1206616" transform="translate(24.735 32.696)">
          <g id="Grupo_1206615" data-name="Grupo 1206615">
            <path id="Trazado_1048567" data-name="Trazado 1048567" d="M21.622,39.9a.264.264,0,0,1-.095-.014.319.319,0,0,1-.189-.162l-2.458-4.5A.342.342,0,0,1,19,34.781l17.02-9.32a.31.31,0,0,1,.243-.027.319.319,0,0,1,.189.162l2.458,4.5a.334.334,0,0,1-.135.446L34.643,32.8a.338.338,0,0,1-.446-.135.334.334,0,0,1,.135-.446l3.85-2.107-2.148-3.931L19.6,35.2l2.148,3.931,3.228-1.769a.327.327,0,0,1,.324.567L21.784,39.86a.36.36,0,0,1-.162.041Z" transform="translate(-18.842 -25.42)" fill="#010101"/>
          </g>
        </g>
        <g id="Grupo_1206618" data-name="Grupo 1206618" transform="translate(2.364 40.41)">
          <g id="Grupo_1206617" data-name="Grupo 1206617">
            <path id="Trazado_1048568" data-name="Trazado 1048568" d="M27.553,40.45l-5.822,3.188L8.358,50.959a2.161,2.161,0,0,1-2.945-.864L2.55,44.867A2.168,2.168,0,0,1,3.4,41.922l1.472-.81L15.909,35.06,22.6,31.4a2.18,2.18,0,0,1,2.958.864l2.62,4.782.243.446a2.192,2.192,0,0,1-.864,2.958Z" transform="translate(-2.28 -31.131)" fill="#ffce3b"/>
          </g>
        </g>
        <g id="Grupo_1206620" data-name="Grupo 1206620" transform="translate(15.979 40.424)">
          <g id="Grupo_1206619" data-name="Grupo 1206619">
            <path id="Trazado_1048569" data-name="Trazado 1048569" d="M24.638,37.056a1.045,1.045,0,0,1-.635.135c-.824-.149-1.229-1.337-2.08-1.31-.743.027-1.175,1.04-1.918,1.04a1.4,1.4,0,0,1-.986-.608,2.793,2.793,0,0,0-.851-.837,1.747,1.747,0,0,0-1.648.27,7.253,7.253,0,0,1-1.472.919A2.035,2.035,0,0,1,12.36,35.07l6.686-3.661A2.18,2.18,0,0,1,22,32.274Z" transform="translate(-12.36 -31.141)" fill="#fab815"/>
          </g>
        </g>
        <g id="Grupo_1206622" data-name="Grupo 1206622" transform="translate(13.952 44.961)">
          <g id="Grupo_1206621" data-name="Grupo 1206621">
            <path id="Trazado_1048570" data-name="Trazado 1048570" d="M19.937,38.471a1.844,1.844,0,0,1-1.391-.824l-.162-.2a2.128,2.128,0,0,0-.81-.783,1.775,1.775,0,0,0-1.5.392c-.108.068-.2.149-.311.216a3.9,3.9,0,0,1-1.486.77,2.684,2.684,0,0,1-2.539-1.175,5.964,5.964,0,0,1-.864-1.959.321.321,0,0,1,.621-.162,5.344,5.344,0,0,0,.756,1.742,2.051,2.051,0,0,0,1.891.919,3.387,3.387,0,0,0,1.229-.648c.108-.081.216-.149.324-.23a2.289,2.289,0,0,1,2.094-.459,2.618,2.618,0,0,1,1.094,1l.149.2c.122.149.567.648.986.567a1.474,1.474,0,0,0,.621-.5,1.9,1.9,0,0,1,.986-.7,1.664,1.664,0,0,1,1.4.527l.149.122a2.06,2.06,0,0,0,.743.5c.392.095.837-.108,1.391-.608l.054-.054.284.176.23.23a.593.593,0,0,1-.149.135,2.18,2.18,0,0,1-1.972.743,2.5,2.5,0,0,1-1.013-.635l-.135-.122a1.106,1.106,0,0,0-.851-.378c-.23.041-.419.27-.635.5a1.9,1.9,0,0,1-.959.7,1.3,1.3,0,0,0-.23,0Z" transform="translate(-10.86 -34.5)" fill="#fab815"/>
          </g>
        </g>
        <g id="Grupo_1206624" data-name="Grupo 1206624" transform="translate(2.364 50.391)">
          <g id="Grupo_1206623" data-name="Grupo 1206623">
            <path id="Trazado_1048571" data-name="Trazado 1048571" d="M21.744,41.046,8.372,48.367A2.173,2.173,0,0,1,5.414,47.5L2.55,42.275A2.168,2.168,0,0,1,3.4,39.33l1.472-.81a3.158,3.158,0,0,0,.756,2.391,3.149,3.149,0,0,0,3.4.8c1.189-.486,2.2-1.715,3.471-1.472,1.162.23,1.9,1.648,3.08,1.607,1.445-.054,2.026-2.269,3.485-2.391C20.123,39.344,20.839,40.452,21.744,41.046Z" transform="translate(-2.28 -38.52)" fill="#fab815"/>
          </g>
        </g>
        <g id="Grupo_1206626" data-name="Grupo 1206626" transform="translate(2.043 40.088)">
          <g id="Grupo_1206625" data-name="Grupo 1206625">
            <path id="Trazado_1048572" data-name="Trazado 1048572" d="M18.653,45.788a.318.318,0,0,1-.284-.162.334.334,0,0,1,.135-.446l8.983-4.93a1.858,1.858,0,0,0,.729-2.512L25.353,32.51a1.857,1.857,0,0,0-2.512-.743L3.646,42.289a1.781,1.781,0,0,0-.878,1.094,1.882,1.882,0,0,0,.149,1.4.342.342,0,0,1-.122.446.342.342,0,0,1-.446-.122,2.46,2.46,0,0,1-.2-1.9,2.508,2.508,0,0,1,1.189-1.486L22.53,31.2a2.46,2.46,0,0,1,1.9-.2,2.507,2.507,0,0,1,1.5,1.2L28.8,37.427a2.526,2.526,0,0,1-.986,3.39l-8.983,4.93a.466.466,0,0,1-.176.041Z" transform="translate(-2.043 -30.893)" fill="#010101"/>
          </g>
        </g>
        <g id="Grupo_1206628" data-name="Grupo 1206628" transform="translate(42.913 34.331)">
          <g id="Grupo_1206627" data-name="Grupo 1206627">
            <path id="Trazado_1048573" data-name="Trazado 1048573" d="M55.182,38.625l-.2.243c-.081.081-.162.176-.23.257a.013.013,0,0,0-.014.014,22.719,22.719,0,0,1-5.822,4.43C43.12,46.743,37.271,47.216,35.839,44.6l-1.108-2.026L32.3,38.125,53.291,26.63,56.83,33.1c.77,1.418.081,3.458-1.648,5.525Z" transform="translate(-32.3 -26.63)" fill="#a6412e"/>
          </g>
        </g>
        <g id="Grupo_1206630" data-name="Grupo 1206630" transform="translate(45.331 46.839)">
          <g id="Grupo_1206629" data-name="Grupo 1206629">
            <path id="Trazado_1048574" data-name="Trazado 1048574" d="M52.879,36.349a2.075,2.075,0,0,0,1.216-.459,22.718,22.718,0,0,1-5.822,4.43c-5.795,3.174-11.644,3.647-13.075,1.027L34.09,39.321a3.184,3.184,0,0,0,1.959.338c1.027-.176,1.9-.973,2.945-.986a5.077,5.077,0,0,1,2.134.756A2.4,2.4,0,0,0,43.3,39.6c.8-.446,1.094-1.648,1.986-1.81.554-.108,1.108.257,1.661.162.81-.149,1.135-1.135,1.81-1.621a2.673,2.673,0,0,1,2.04-.284,10.877,10.877,0,0,0,2.08.3Z" transform="translate(-34.09 -35.89)" fill="#973424"/>
          </g>
        </g>
        <g id="Grupo_1206632" data-name="Grupo 1206632" transform="translate(42.575 34.019)">
          <g id="Grupo_1206631" data-name="Grupo 1206631">
            <path id="Trazado_1048575" data-name="Trazado 1048575" d="M34.806,42.987a.318.318,0,0,1-.284-.162l-2.431-4.458a.31.31,0,0,1-.027-.243.319.319,0,0,1,.162-.189L53.217,26.441a.31.31,0,0,1,.243-.027.319.319,0,0,1,.189.162l3.539,6.47c.81,1.486.2,3.634-1.675,5.889-.068.081-.135.149-.2.23s-.162.176-.23.257c-.014.027-.041.041-.068.068a19.63,19.63,0,0,1-2.85,2.526.328.328,0,0,1-.392-.527A20.4,20.4,0,0,0,54.567,39l.041-.041c.068-.081.135-.149.2-.23s.135-.162.2-.243c1.688-2.026,2.283-3.917,1.594-5.146l-3.39-6.186L32.793,38.341l2.283,4.174a.334.334,0,0,1-.135.446.339.339,0,0,1-.135.027Z" transform="translate(-32.05 -26.4)" fill="#010101"/>
          </g>
        </g>
        <g id="Grupo_1206634" data-name="Grupo 1206634" transform="translate(40.419 29.859)">
          <g id="Grupo_1206633" data-name="Grupo 1206633">
            <ellipse id="Elipse_14308" data-name="Elipse 14308" cx="11.968" cy="5.376" rx="11.968" ry="5.376" transform="translate(0 11.489) rotate(-28.693)" fill="#bd5a3c"/>
          </g>
        </g>
        <g id="Grupo_1206636" data-name="Grupo 1206636" transform="translate(42.385 32.83)">
          <g id="Grupo_1206635" data-name="Grupo 1206635">
            <path id="Trazado_1048576" data-name="Trazado 1048576" d="M36.557,40.757c-2.121,0-3.634-.648-4.3-1.851a3.821,3.821,0,0,1,.108-3.417.326.326,0,1,1,.594.27,3.232,3.232,0,0,0-.122,2.85c.621,1.148,2.256,1.675,4.593,1.486a20.911,20.911,0,0,0,8.051-2.647,20.866,20.866,0,0,0,6.565-5.363c1.418-1.864,1.851-3.525,1.216-4.674a2.759,2.759,0,0,0-1.715-1.256.325.325,0,1,1,.189-.621,3.436,3.436,0,0,1,2.094,1.553c.756,1.378.3,3.282-1.27,5.376A21.834,21.834,0,0,1,45.8,38a21.7,21.7,0,0,1-8.307,2.729c-.338.014-.635.027-.932.027Z" transform="translate(-31.909 -25.519)" fill="#010101"/>
          </g>
        </g>
        <g id="Grupo_1206638" data-name="Grupo 1206638" transform="translate(35.646 17.527)">
          <g id="Grupo_1206637" data-name="Grupo 1206637">
            <path id="Trazado_1048577" data-name="Trazado 1048577" d="M52.341,33.276c-.783,1.648-3.174,3.782-6.349,5.525s-6.268,2.607-8.064,2.377a1.726,1.726,0,0,1-1.445-.77L31.04,30.467c-.014-.014-.014-.027-.027-.041L26.92,22.943,42.9,14.19l1.189,2.175,4.187,7.645,4.106,7.483.095.176A1.743,1.743,0,0,1,52.341,33.276Z" transform="translate(-26.92 -14.19)" fill="#ffce3b"/>
          </g>
        </g>
        <g id="Grupo_1206640" data-name="Grupo 1206640" transform="translate(47.141 19.688)">
          <g id="Grupo_1206639" data-name="Grupo 1206639">
            <path id="Trazado_1048578" data-name="Trazado 1048578" d="M45.291,23.435a1.92,1.92,0,0,1-1.77.176c-.513-.23-1-.7-1.526-.527-.486.162-.783.878-1.283.77-.567-.108-.5-1.027-1-1.324a.9.9,0,0,0-1.013.2,5.008,5.008,0,0,1-.851.689,1.613,1.613,0,0,1-1.945-.77,4.8,4.8,0,0,1-.473-2.229L41.1,15.79Z" transform="translate(-35.43 -15.79)" fill="#fab815"/>
          </g>
        </g>
        <g id="Grupo_1206642" data-name="Grupo 1206642" transform="translate(44.52 25.717)">
          <g id="Grupo_1206641" data-name="Grupo 1206641">
            <path id="Trazado_1048579" data-name="Trazado 1048579" d="M42.324,26.314h-.041c-.756-.027-1.229-.675-1.594-1.3-.284-.473-.635-.946-1.067-.946a1.553,1.553,0,0,0-.81.365,4.4,4.4,0,0,1-.459.3,2.954,2.954,0,0,1-3.417-.892A7.857,7.857,0,0,1,33.5,20.668a.327.327,0,0,1,.23-.405.338.338,0,0,1,.405.23,7.414,7.414,0,0,0,1.3,2.918,2.319,2.319,0,0,0,2.62.743,2.443,2.443,0,0,0,.392-.257,2.191,2.191,0,0,1,1.189-.486c.743,0,1.229.635,1.607,1.256.284.473.621.973,1.067.986h.027a1.259,1.259,0,0,0,.891-.594c.081-.108.162-.216.243-.338a3.593,3.593,0,0,1,.729-.851,3.643,3.643,0,0,1,2.418-.5h.351a.321.321,0,0,1,.351.3.33.33,0,0,1-.3.351,1.3,1.3,0,0,1-.23,0h-.2a3.282,3.282,0,0,0-2.013.365,3.08,3.08,0,0,0-.594.7,3.344,3.344,0,0,1-.257.351A1.772,1.772,0,0,1,42.324,26.314Z" transform="translate(-33.49 -20.253)" fill="#fab815"/>
          </g>
        </g>
        <g id="Grupo_1206644" data-name="Grupo 1206644" transform="translate(39.766 33.804)">
          <g id="Grupo_1206643" data-name="Grupo 1206643">
            <path id="Trazado_1048580" data-name="Trazado 1048580" d="M51.271,29.05c-.783,1.648-3.174,3.782-6.349,5.525s-6.268,2.607-8.064,2.377a1.726,1.726,0,0,1-1.445-.77L29.97,26.24c.189.3.378.608.554.919a3.1,3.1,0,0,0,2.269,1.715c1.108.041,2.094-.959,3.188-.756a2.466,2.466,0,0,1,1.472,1.162,10.159,10.159,0,0,0,1.108,1.594,1.66,1.66,0,0,0,1.756.486c.851-.378,1.013-1.634,1.878-2.026.7-.324,1.526.122,2.188.54a2.283,2.283,0,0,0,2.2.446c.689-.392.837-1.391,1.526-1.742.513-.257,1.121-.068,1.675-.135a1.974,1.974,0,0,0,1.526-1.189l.095.176a1.769,1.769,0,0,1-.135,1.621Z" transform="translate(-29.97 -26.24)" fill="#fab815"/>
          </g>
        </g>
        <g id="Grupo_1206646" data-name="Grupo 1206646" transform="translate(35.338 17.192)">
          <g id="Grupo_1206645" data-name="Grupo 1206645">
            <path id="Trazado_1048581" data-name="Trazado 1048581" d="M48.95,37.375a.293.293,0,0,1-.257-.135.325.325,0,0,1,.068-.459,11.026,11.026,0,0,0,3.377-3.566,1.49,1.49,0,0,0,.149-1.337L42.871,14.7,27.459,23.138l5.471,10a.327.327,0,0,1-.567.324L26.73,23.178a.342.342,0,0,1,.122-.446L42.831,13.98a.346.346,0,0,1,.446.122L52.84,31.58a2.041,2.041,0,0,1-.135,1.932,11.618,11.618,0,0,1-3.566,3.809.31.31,0,0,1-.189.054Z" transform="translate(-26.692 -13.942)" fill="#010101"/>
          </g>
        </g>
        <g id="Grupo_1206648" data-name="Grupo 1206648" transform="translate(29.46 9.787)">
          <g id="Grupo_1206647" data-name="Grupo 1206647" transform="translate(0 0)">
            <path id="Trazado_1048582" data-name="Trazado 1048582" d="M45.938,19.509A20.524,20.524,0,0,1,38.954,25.4c-5.795,3.174-11.644,3.647-13.075,1.027l-1.972-3.593L22.34,19.955l17.722-9.7,3.269-1.8,3.309,6.051.23.419c.648,1.2.257,2.85-.932,4.579Z" transform="translate(-22.34 -8.46)" fill="#a6412e"/>
          </g>
        </g>
        <g id="Grupo_1206650" data-name="Grupo 1206650" transform="translate(46.763 9.787)">
          <g id="Grupo_1206649" data-name="Grupo 1206649">
            <path id="Trazado_1048583" data-name="Trazado 1048583" d="M42.147,14.5a1.247,1.247,0,0,1-.919.23c-.473-.081-.892-.446-1.378-.419a1.6,1.6,0,0,0-1.121.824A2.968,2.968,0,0,1,37.8,16.2a1.612,1.612,0,0,1-1.837-.459,3.908,3.908,0,0,1-.81-1.837l.392-3.647,3.269-1.8Z" transform="translate(-35.15 -8.46)" fill="#973424"/>
          </g>
        </g>
        <g id="Grupo_1206652" data-name="Grupo 1206652" transform="translate(45.459 16.704)">
          <g id="Grupo_1206651" data-name="Grupo 1206651">
            <path id="Trazado_1048584" data-name="Trazado 1048584" d="M37.447,17.146a2.65,2.65,0,0,1-1.3-.338,5.939,5.939,0,0,1-1.918-2.175.324.324,0,0,1,.554-.338,5.361,5.361,0,0,0,1.688,1.945A1.624,1.624,0,0,0,38.541,16a2.607,2.607,0,0,0,.284-.648,1.915,1.915,0,0,1,.851-1.2A2.024,2.024,0,0,1,40.9,14.08c.108.014.216.041.324.054a2.13,2.13,0,0,0,1.54-.486.327.327,0,1,1,.405.513,2.843,2.843,0,0,1-2.013.621c-.122-.014-.243-.041-.365-.054a1.414,1.414,0,0,0-.824,0c-.27.135-.392.459-.527.837a3.832,3.832,0,0,1-.365.8,1.925,1.925,0,0,1-1.634.783Z" transform="translate(-34.185 -13.581)" fill="#973424"/>
          </g>
        </g>
        <g id="Grupo_1206654" data-name="Grupo 1206654" transform="translate(31.026 20.732)">
          <g id="Grupo_1206653" data-name="Grupo 1206653">
            <path id="Trazado_1048585" data-name="Trazado 1048585" d="M45.531,16.667a20.524,20.524,0,0,1-6.983,5.889C32.753,25.731,26.9,26.2,25.472,23.583L23.5,19.99c.662.473,1.2,1.283,2,1.445.919.189,1.769-.513,2.675-.783A7.15,7.15,0,0,1,31.726,21a3.661,3.661,0,0,0,3.417-.513c.689-.689.959-1.878,1.9-2.094.81-.176,1.621.54,2.445.378.973-.189,1.337-1.432,2.2-1.945a2.908,2.908,0,0,1,1.769-.23,6.851,6.851,0,0,0,1.81.122,1.093,1.093,0,0,0,.257-.054Z" transform="translate(-23.5 -16.563)" fill="#973424"/>
          </g>
        </g>
        <g id="Grupo_1206656" data-name="Grupo 1206656" transform="translate(29.139 9.449)">
          <g id="Grupo_1206655" data-name="Grupo 1206655">
            <path id="Trazado_1048586" data-name="Trazado 1048586" d="M30,28.526c-2.107,0-3.647-.635-4.322-1.864l-3.539-6.47a.334.334,0,0,1,.135-.446L43.266,8.251a.31.31,0,0,1,.243-.027.319.319,0,0,1,.189.162l3.539,6.47c.7,1.27.365,3.026-.946,4.917A14.918,14.918,0,0,1,44.171,22.2a.325.325,0,0,1-.446-.473,14.955,14.955,0,0,0,2.04-2.323c1.162-1.688,1.486-3.188.919-4.241L43.293,8.98,22.869,20.164l3.39,6.186c.878,1.621,3.755,1.986,7.5.959a.308.308,0,0,1,.392.23.318.318,0,0,1-.23.392A14.7,14.7,0,0,1,30,28.526Z" transform="translate(-22.102 -8.21)" fill="#010101"/>
          </g>
        </g>
        <g id="Grupo_1206658" data-name="Grupo 1206658" transform="translate(26.992 5.309)">
          <g id="Grupo_1206657" data-name="Grupo 1206657">
            <ellipse id="Elipse_14309" data-name="Elipse 14309" cx="11.968" cy="5.376" rx="11.968" ry="5.376" transform="translate(0 11.489) rotate(-28.693)" fill="#bd5a3c"/>
          </g>
        </g>
        <g id="Grupo_1206660" data-name="Grupo 1206660" transform="translate(28.925 8.005)">
          <g id="Grupo_1206659" data-name="Grupo 1206659" transform="translate(0 0)">
            <path id="Trazado_1048587" data-name="Trazado 1048587" d="M26.6,22.647c-2.121,0-3.634-.648-4.3-1.851-.8-1.445-.257-3.458,1.513-5.673a.327.327,0,0,1,.513.405c-1.567,1.959-2.094,3.769-1.445,4.957.621,1.148,2.256,1.661,4.593,1.486a20.911,20.911,0,0,0,8.051-2.647c5.538-3.026,9.1-7.618,7.78-10.023-.7-1.3-2.715-1.8-5.511-1.378a.313.313,0,0,1-.365-.27.32.32,0,0,1,.27-.365c3.08-.459,5.322.162,6.173,1.7,1.54,2.81-2,7.591-8.037,10.9a21.429,21.429,0,0,1-8.307,2.715Q27.044,22.647,26.6,22.647Z" transform="translate(-21.944 -7.14)" fill="#010101"/>
          </g>
        </g>
        <g id="Grupo_1206684" data-name="Grupo 1206684" transform="translate(65.592 46.19)">
          <g id="Grupo_1206683" data-name="Grupo 1206683">
            <path id="Trazado_1048598" data-name="Trazado 1048598" d="M49.293,35.545l-.2.243a1.242,1.242,0,0,0,.189-.378C49.279,35.451,49.293,35.5,49.293,35.545Z" transform="translate(-49.09 -35.41)" fill="#973424"/>
          </g>
        </g>
        <g id="Grupo_1206686" data-name="Grupo 1206686" transform="translate(16.83 47.933)">
          <g id="Grupo_1206685" data-name="Grupo 1206685">
            <path id="Trazado_1048599" data-name="Trazado 1048599" d="M17.272,39.226a1.961,1.961,0,0,0-1.513.743,2.758,2.758,0,0,0-.635,1.783,2.36,2.36,0,0,0-2.134-2.526,1.982,1.982,0,0,0,1.513-.743,2.824,2.824,0,0,0,.621-1.783,2.731,2.731,0,0,0,.635,1.783A1.961,1.961,0,0,0,17.272,39.226Z" transform="translate(-12.99 -36.7)" fill="#fff"/>
          </g>
        </g>
        <g id="Grupo_1206688" data-name="Grupo 1206688" transform="translate(45.007 33.804)">
          <g id="Grupo_1206687" data-name="Grupo 1206687">
            <path id="Trazado_1048600" data-name="Trazado 1048600" d="M38.132,28.766a1.961,1.961,0,0,0-1.513.743,2.758,2.758,0,0,0-.635,1.783,2.36,2.36,0,0,0-2.134-2.526,1.982,1.982,0,0,0,1.513-.743,2.824,2.824,0,0,0,.621-1.783,2.731,2.731,0,0,0,.635,1.783,1.961,1.961,0,0,0,1.513.743Z" transform="translate(-33.85 -26.24)" fill="#fff"/>
          </g>
        </g>
        <g id="Grupo_1206690" data-name="Grupo 1206690" transform="translate(44.629 15.474)">
          <g id="Grupo_1206689" data-name="Grupo 1206689">
            <path id="Trazado_1048601" data-name="Trazado 1048601" d="M37.852,15.2a1.961,1.961,0,0,0-1.513.743,2.758,2.758,0,0,0-.635,1.783A2.36,2.36,0,0,0,33.57,15.2a1.982,1.982,0,0,0,1.513-.743A2.824,2.824,0,0,0,35.7,12.67a2.731,2.731,0,0,0,.635,1.783,1.961,1.961,0,0,0,1.513.743Z" transform="translate(-33.57 -12.67)" fill="#fff"/>
          </g>
        </g>
        <g id="Grupo_1206692" data-name="Grupo 1206692" transform="translate(64.471 70.153)">
          <g id="Grupo_1206691" data-name="Grupo 1206691">
            <path id="Trazado_1048602" data-name="Trazado 1048602" d="M52.542,55.676a1.961,1.961,0,0,0-1.513.743,2.758,2.758,0,0,0-.635,1.783,2.36,2.36,0,0,0-2.134-2.526,1.982,1.982,0,0,0,1.513-.743,2.824,2.824,0,0,0,.621-1.783,2.731,2.731,0,0,0,.635,1.783,1.961,1.961,0,0,0,1.513.743Z" transform="translate(-48.26 -53.15)" fill="#fff"/>
          </g>
        </g>
        <g id="Grupo_1206694" data-name="Grupo 1206694" transform="translate(15.304 51.485)">
          <g id="Grupo_1206693" data-name="Grupo 1206693">
            <path id="Trazado_1048603" data-name="Trazado 1048603" d="M14.129,40.681a1.038,1.038,0,0,0-.8.392,1.492,1.492,0,0,0-.338.946,1.253,1.253,0,0,0-1.135-1.351,1.038,1.038,0,0,0,.8-.392,1.483,1.483,0,0,0,.324-.946,1.419,1.419,0,0,0,.338.946A1.017,1.017,0,0,0,14.129,40.681Z" transform="translate(-11.86 -39.33)" fill="#fff"/>
          </g>
        </g>
        <g id="Grupo_1206699" data-name="Grupo 1206699" transform="translate(31.296 13.404)">
          <g id="Grupo_1206696" data-name="Grupo 1206696" transform="translate(1.535 0)">
            <g id="Grupo_1206695" data-name="Grupo 1206695">
              <path id="Trazado_1048604" data-name="Trazado 1048604" d="M25.017,15.585c-.5-.351.041-1.972,1.594-3.242s3.269-1.472,3.5-.905c.257.581-.8,1.58-2.08,2.647S25.53,15.949,25.017,15.585Z" transform="translate(-24.836 -11.138)" fill="#fff"/>
            </g>
          </g>
          <g id="Grupo_1206698" data-name="Grupo 1206698" transform="translate(0 5.136)">
            <g id="Grupo_1206697" data-name="Grupo 1206697">
              <path id="Trazado_1048605" data-name="Trazado 1048605" d="M23.876,16.764c-.243-.108-.243-.635.054-1.148s.743-.783.973-.635.149.648-.108,1.121C24.511,16.561,24.132,16.872,23.876,16.764Z" transform="translate(-23.7 -14.94)" fill="#fff"/>
            </g>
          </g>
        </g>
        <g id="Grupo_1206704" data-name="Grupo 1206704" transform="translate(49.947 58.89)">
          <g id="Grupo_1206701" data-name="Grupo 1206701">
            <g id="Grupo_1206700" data-name="Grupo 1206700">
              <path id="Trazado_1048606" data-name="Trazado 1048606" d="M47.533,45.728c.014.621-2.229,1.148-4.971,1.391-1.3.095-2.472.176-3.4.243-.864.054-1.472.068-1.621-.216s.257-.824,1.148-1.31a9.356,9.356,0,0,1,3.674-.959C45.21,44.634,47.52,45.107,47.533,45.728Z" transform="translate(-37.508 -44.812)" fill="#fff"/>
            </g>
          </g>
          <g id="Grupo_1206703" data-name="Grupo 1206703" transform="translate(11.39 0.428)">
            <g id="Grupo_1206702" data-name="Grupo 1206702">
              <path id="Trazado_1048607" data-name="Trazado 1048607" d="M49.087,45.657c-.014.27-.716.459-1.58.446s-1.567-.23-1.567-.5.7-.5,1.58-.473c.864,0,1.567.257,1.567.527Z" transform="translate(-45.94 -45.128)" fill="#fff"/>
            </g>
          </g>
        </g>
      </g>
    </g>
  </g>
</svg>
