<svg xmlns="http://www.w3.org/2000/svg" xmlns:xlink="http://www.w3.org/1999/xlink" width="1328" height="711.451" viewBox="0 0 1328 711.451">
  <defs>
    <clipPath id="clip-path">
      <path id="Trazado_1041140" data-name="Trazado 1041140" d="M0,0H1328V711.451H0Z" fill="#cbe7ea" opacity="0.53"/>
    </clipPath>
  </defs>
  <g id="Enmascarar_grupo_1098844" data-name="Enmascarar grupo 1098844" clip-path="url(#clip-path)">
    <rect id="Fondo_Sección" width="1328" height="711.451" fill="#e3f3f4"/>
    <g id="Elipse_12513" data-name="Elipse 12513" transform="translate(-175 482)" fill="none" stroke="#bfcde9" stroke-linecap="round" stroke-linejoin="round" stroke-width="10" stroke-dasharray="25">
      <circle cx="137" cy="137" r="137" stroke="none"/>
      <circle cx="137" cy="137" r="132" fill="none"/>
    </g>
    <g id="Elipse_12514" data-name="Elipse 12514" transform="translate(1006 -186)" fill="none" stroke="#bfcde9" stroke-linecap="round" stroke-linejoin="round" stroke-width="10" stroke-dasharray="25">
      <circle cx="259.5" cy="259.5" r="259.5" stroke="none"/>
      <circle cx="259.5" cy="259.5" r="254.5" fill="none"/>
    </g>
    <circle id="Elipse_12515" data-name="Elipse 12515" cx="106.5" cy="106.5" r="106.5" transform="matrix(0.848, 0.53, -0.53, 0.848, 674.696, 439.944)" fill="#98cfd6" opacity="0.8"/>
    <circle id="Elipse_12516" data-name="Elipse 12516" cx="82.332" cy="82.332" r="82.332" transform="matrix(0.848, 0.53, -0.53, 0.848, -64.192, 506.549)" fill="#183164" opacity="0.8"/>
    <circle id="Elipse_12517" data-name="Elipse 12517" cx="106.5" cy="106.5" r="106.5" transform="matrix(0.848, 0.53, -0.53, 0.848, 1231.619, -73.253)" fill="#98cfd6" opacity="0.8"/>
    <g id="Polígono_19" data-name="Polígono 19" transform="translate(-41 378)" fill="none">
      <path d="M139.5,0,279,242H0Z" stroke="none"/>
      <path d="M 139.5 20.02352905273438 L 17.30694580078125 232 L 261.6930541992188 232 L 139.5 20.02352905273438 M 139.5 0 L 279 242 L 0 242 L 139.5 0 Z" stroke="none" fill="#bfcde9"/>
    </g>
    <path id="Polígono_20" data-name="Polígono 20" d="M139.5,0,279,242H0Z" transform="matrix(0.848, 0.53, -0.53, 0.848, 525.641, -176.538)" fill="#98cfd6" opacity="0.8"/>
    <path id="Polígono_21" data-name="Polígono 21" d="M108,0,216,187H0Z" transform="matrix(0.848, 0.53, -0.53, 0.848, 858.095, 203.105)" fill="#183164" opacity="0.8"/>
    <g id="Grupo_1184777" data-name="Grupo 1184777" transform="translate(1006 434)">
      <g id="Rectángulo_415914" data-name="Rectángulo 415914" transform="translate(297)" fill="none" stroke="#bfcde9" stroke-width="5">
        <rect width="58" height="342" stroke="none"/>
        <rect x="2.5" y="2.5" width="53" height="337" fill="none"/>
      </g>
      <g id="Rectángulo_415915" data-name="Rectángulo 415915" transform="translate(198 55)" fill="none" stroke="#bfcde9" stroke-width="5">
        <rect width="58" height="287" stroke="none"/>
        <rect x="2.5" y="2.5" width="53" height="282" fill="none"/>
      </g>
      <g id="Rectángulo_415916" data-name="Rectángulo 415916" transform="translate(99 108)" fill="none" stroke="#bfcde9" stroke-width="5">
        <rect width="58" height="234" stroke="none"/>
        <rect x="2.5" y="2.5" width="53" height="229" fill="none"/>
      </g>
      <g id="Rectángulo_415917" data-name="Rectángulo 415917" transform="translate(0 198)" fill="none" stroke="#bfcde9" stroke-width="5">
        <rect width="58" height="144" stroke="none"/>
        <rect x="2.5" y="2.5" width="53" height="139" fill="none"/>
      </g>
    </g>
    <g id="Grupo_1184778" data-name="Grupo 1184778" transform="translate(-9 -56)" opacity="0.59">
      <rect id="Rectángulo_415918" data-name="Rectángulo 415918" width="26" height="152" fill="#98cfd6"/>
      <rect id="Rectángulo_415919" data-name="Rectángulo 415919" width="26" height="128" transform="translate(44 24)" fill="#98cfd6"/>
      <rect id="Rectángulo_415920" data-name="Rectángulo 415920" width="26" height="104" transform="translate(88 48)" fill="#98cfd6"/>
      <rect id="Rectángulo_415921" data-name="Rectángulo 415921" width="26" height="64" transform="translate(132 88)" fill="#98cfd6"/>
    </g>
    <g id="Grupo_1184779" data-name="Grupo 1184779" transform="translate(358.411 489.993) rotate(39)" opacity="0.59">
      <rect id="Rectángulo_415922" data-name="Rectángulo 415922" width="21.917" height="128.128" transform="translate(0 0)" fill="#98cfd6"/>
      <rect id="Rectángulo_415923" data-name="Rectángulo 415923" width="21.917" height="107.897" transform="translate(37.09 20.231)" fill="#98cfd6"/>
      <rect id="Rectángulo_415924" data-name="Rectángulo 415924" width="21.917" height="87.666" transform="translate(74.179 40.461)" fill="#98cfd6"/>
      <rect id="Rectángulo_415925" data-name="Rectángulo 415925" width="21.917" height="53.949" transform="translate(111.269 74.179)" fill="#98cfd6"/>
    </g>
  </g>
</svg>
