<svg xmlns="http://www.w3.org/2000/svg" xmlns:xlink="http://www.w3.org/1999/xlink" width="113" height="113" viewBox="0 0 113 113">
  <defs>
    <filter id="Trazado_982547" x="0" y="0" width="113" height="113" filterUnits="userSpaceOnUse">
      <feOffset dy="3" input="SourceAlpha"/>
      <feGaussianBlur stdDeviation="3" result="blur"/>
      <feFlood flood-opacity="0.161"/>
      <feComposite operator="in" in2="blur"/>
      <feComposite in="SourceGraphic"/>
    </filter>
  </defs>
  <g id="Grupo_1206868" data-name="Grupo 1206868" transform="translate(-192 -4970)">
    <g id="Grupo_1205896" data-name="Grupo 1205896" transform="translate(-422 869)">
      <g id="Grupo_1201805" data-name="Grupo 1201805" transform="translate(3 3558)">
        <g id="Grupo_1184772" data-name="Grupo 1184772" transform="translate(420.762 128)">
          <g id="Grupo_1183774" data-name="Grupo 1183774" transform="translate(-2.762 -669.432)">
            <g id="Grupo_1173793" data-name="Grupo 1173793" transform="translate(202 1090.432)">
              <g id="Grupo_1167519" data-name="Grupo 1167519">
                <g id="Grupo_1166845" data-name="Grupo 1166845">
                  <g id="Grupo_1166720" data-name="Grupo 1166720">
                    <g id="Grupo_1164305" data-name="Grupo 1164305">
                      <g id="Grupo_1163948" data-name="Grupo 1163948">
                        <g id="Grupo_1158168" data-name="Grupo 1158168">
                          <g id="Grupo_1152576" data-name="Grupo 1152576">
                            <g id="Grupo_1148633" data-name="Grupo 1148633">
                              <g id="Grupo_1148525" data-name="Grupo 1148525">
                                <g transform="matrix(1, 0, 0, 1, -9, -6)" filter="url(#Trazado_982547)">
                                  <g id="Trazado_982547-2" data-name="Trazado 982547" transform="translate(9 6)" fill="#fcf2ec">
                                    <path d="M 47.5 93.5 C 41.28937149047852 93.5 35.26533508300781 92.28397369384766 29.59518623352051 89.88570404052734 C 24.11771965026855 87.56893157958984 19.19813346862793 84.25196075439453 14.97309303283691 80.02691650390625 C 10.74804019927979 75.80186462402344 7.431066513061523 70.88229370117188 5.114293098449707 65.40481567382812 C 2.716026782989502 59.73468017578125 1.5 53.71062850952148 1.5 47.5 C 1.5 41.28937149047852 2.716026782989502 35.26533508300781 5.114293098449707 29.59518623352051 C 7.431066513061523 24.11771965026855 10.74804019927979 19.19813346862793 14.97309303283691 14.97309303283691 C 19.19813346862793 10.74804019927979 24.11771965026855 7.431066513061523 29.59518623352051 5.114293098449707 C 35.26533508300781 2.716026782989502 41.28937149047852 1.5 47.5 1.5 C 53.71062850952148 1.5 59.73468017578125 2.716026782989502 65.40481567382812 5.114293098449707 C 70.88229370117188 7.431066513061523 75.80186462402344 10.74804019927979 80.02691650390625 14.97309303283691 C 84.25196075439453 19.19813346862793 87.56893157958984 24.11771965026855 89.88570404052734 29.59518623352051 C 92.28397369384766 35.26533508300781 93.5 41.28937149047852 93.5 47.5 C 93.5 53.71062850952148 92.28397369384766 59.73468017578125 89.88570404052734 65.40481567382812 C 87.56893157958984 70.88229370117188 84.25196075439453 75.80186462402344 80.02691650390625 80.02691650390625 C 75.80186462402344 84.25196075439453 70.88229370117188 87.56893157958984 65.40481567382812 89.88570404052734 C 59.73468017578125 92.28397369384766 53.71062850952148 93.5 47.5 93.5 Z" stroke="none"/>
                                    <path d="M 47.5 3 C 41.49121475219727 3 35.66376876831055 4.176155090332031 30.17950439453125 6.495796203613281 C 24.88084411621094 8.736953735351562 20.12152099609375 11.94598388671875 16.03375244140625 16.03375244140625 C 11.94598388671875 20.12152099609375 8.736953735351562 24.88084411621094 6.495796203613281 30.17950439453125 C 4.176155090332031 35.66376876831055 3 41.49121475219727 3 47.5 C 3 53.50878524780273 4.176155090332031 59.33623123168945 6.495796203613281 64.82049560546875 C 8.736953735351562 70.11915588378906 11.94598388671875 74.87847900390625 16.03375244140625 78.96624755859375 C 20.12152099609375 83.05401611328125 24.88084411621094 86.26304626464844 30.17950439453125 88.50419616699219 C 35.66376876831055 90.82384490966797 41.49121475219727 92 47.5 92 C 53.50878524780273 92 59.33623123168945 90.82384490966797 64.82049560546875 88.50419616699219 C 70.11915588378906 86.26304626464844 74.87847900390625 83.05401611328125 78.96624755859375 78.96624755859375 C 83.05401611328125 74.87847900390625 86.26304626464844 70.11915588378906 88.50419616699219 64.82049560546875 C 90.82384490966797 59.33623123168945 92 53.50878524780273 92 47.5 C 92 41.49121475219727 90.82384490966797 35.66376876831055 88.50419616699219 30.17950439453125 C 86.26304626464844 24.88084411621094 83.05401611328125 20.12152099609375 78.96624755859375 16.03375244140625 C 74.87847900390625 11.94598388671875 70.11915588378906 8.736953735351562 64.82049560546875 6.495796203613281 C 59.33623123168945 4.176155090332031 53.50878524780273 3 47.5 3 M 47.5 0 C 73.7335205078125 0 95 21.2664794921875 95 47.5 C 95 73.7335205078125 73.7335205078125 95 47.5 95 C 21.2664794921875 95 0 73.7335205078125 0 47.5 C 0 21.2664794921875 21.2664794921875 0 47.5 0 Z" stroke="none" fill="#e8864c"/>
                                  </g>
                                </g>
                              </g>
                            </g>
                          </g>
                        </g>
                      </g>
                    </g>
                  </g>
                </g>
              </g>
            </g>
          </g>
        </g>
      </g>
    </g>
    <g id="economia-gig" transform="translate(208.868 4981.007)">
      <path id="Trazado_1048718" data-name="Trazado 1048718" d="M55.411,56.334H52.428a.407.407,0,0,1-.4-.279L51.1,53.212l-.536-1.655a20.127,20.127,0,0,1-2.61-.862,18.806,18.806,0,0,1-2.469-1.235l-1.538.792L41.29,51.6a.468.468,0,0,1-.489-.07l-2.1-2.121-2.121-2.121a.388.388,0,0,1-.07-.489l1.351-2.633.792-1.538a20.3,20.3,0,0,1-1.235-2.47,19.529,19.529,0,0,1-.885-2.633l-1.631-.536-2.843-.908a.4.4,0,0,1-.279-.419V29.724a.407.407,0,0,1,.279-.4l2.843-.932,1.631-.513a19.49,19.49,0,0,1,.885-2.633,20.482,20.482,0,0,1,1.235-2.47l-.792-1.538-1.351-2.656a.386.386,0,0,1,.07-.466L38.7,16l2.1-2.12a.475.475,0,0,1,.489-.07l2.656,1.351,1.538.792a18.807,18.807,0,0,1,2.469-1.235,17.145,17.145,0,0,1,2.61-.862L51.1,12.2l.932-2.843a.407.407,0,0,1,.4-.279h5.965a.427.427,0,0,1,.4.3L59.7,12.2l.536,1.655a16.345,16.345,0,0,1,2.61.862,18.7,18.7,0,0,1,2.469,1.235l1.538-.792,2.68-1.351a.423.423,0,0,1,.466.07L72.118,16l2.1,2.121a.388.388,0,0,1,.07.489l-1.351,2.633-.769,1.538A24.282,24.282,0,0,1,73.4,25.25a19.461,19.461,0,0,1,.862,2.633l1.655.513,2.82.932a.448.448,0,0,1,.3.419v5.942a.42.42,0,0,1-.3.4l-2.82.908-1.655.536a19.423,19.423,0,0,1-.862,2.633,24.629,24.629,0,0,1-1.235,2.47l.769,1.538,1.374,2.656a.391.391,0,0,1-.093.466l-2.1,2.121L70,51.535a.421.421,0,0,1-.489.047l-2.656-1.328-1.538-.792a19.075,19.075,0,0,1-5.079,2.1L59.7,53.212l-.908,2.843a.426.426,0,0,1-.419.279h-2.96Z" transform="translate(-5.479 -1.439)" fill="#24d1af"/>
      <path id="Trazado_1048719" data-name="Trazado 1048719" d="M57.343,19.934a14.718,14.718,0,1,1-10.392,4.311A14.674,14.674,0,0,1,57.343,19.934Z" transform="translate(-7.412 -3.371)" fill="#58ed9b"/>
      <path id="Trazado_1048720" data-name="Trazado 1048720" d="M55.534,74.872,70.844,63.99a6.334,6.334,0,0,1,4.311-1.119,6.265,6.265,0,0,1,3.985,1.957,3.006,3.006,0,0,1,.746,1.212,3.234,3.234,0,0,1,.164,1.421,3.8,3.8,0,0,1-.443,1.374,3.467,3.467,0,0,1-.979,1.048l-20.669,14.7a14.684,14.684,0,0,1-4.917,2.353,14.987,14.987,0,0,1-5.43.4L13.8,85.916h-.023a.418.418,0,0,1-.419-.419V68.627a.414.414,0,0,1,.419-.4h.49a11.943,11.943,0,0,0,2.773-.326,10.92,10.92,0,0,0,2.61-1,19.076,19.076,0,0,1,17.616.117,8.8,8.8,0,0,0,1.771.746,9.887,9.887,0,0,0,1.911.372l8.924.908a6.4,6.4,0,0,1,3.984,1.981A6.243,6.243,0,0,1,55.534,74.872Z" transform="translate(-2.201 -11.005)" fill="#f9ad95"/>
      <path id="Trazado_1048721" data-name="Trazado 1048721" d="M9.967,89.34H3.606a2.078,2.078,0,0,1-1.468-.583l-.023-.023a2.114,2.114,0,0,1-.606-1.491V67.669a2.159,2.159,0,0,1,.606-1.491,2.153,2.153,0,0,1,1.491-.606H9.967a2.114,2.114,0,0,1,1.491.606,2.077,2.077,0,0,1,.629,1.491V87.243a2.153,2.153,0,0,1-.606,1.491h-.023a2.11,2.11,0,0,1-1.491.606Z" transform="translate(-0.092 -11.493)" fill="#7676ff"/>
      <path id="Trazado_1048722" data-name="Trazado 1048722" d="M72.286,4.538a10.407,10.407,0,1,1-3.029,7.34,10.317,10.317,0,0,1,3.029-7.34Z" transform="translate(-12.149 -0.092)" fill="#ffb53b"/>
      <path id="Trazado_1048723" data-name="Trazado 1048723" d="M58.357,25.632a10.024,10.024,0,1,1-7.084,2.936,10,10,0,0,1,7.084-2.936Z" transform="translate(-8.426 -4.385)" fill="#dfe7f4"/>
      <path id="Trazado_1048724" data-name="Trazado 1048724" d="M42.552,38.658a.711.711,0,0,0,.085.055,10.408,10.408,0,0,0,14.59-.016.58.58,0,0,0,.06-.039c.016-.016.021-.036.036-.053a10.4,10.4,0,0,0,0-14.674c-.016-.017-.021-.039-.038-.056a.721.721,0,0,0-.062-.04,10.41,10.41,0,0,0-14.588-.016.737.737,0,0,0-.086.056.851.851,0,0,0-.058.085,10.378,10.378,0,0,0,0,14.617c.021.025.032.057.056.081Zm-.683-8.213h-.7a8.728,8.728,0,0,1,1.987-4.776l.477.487a.823.823,0,1,0,1.176-1.151l-.487-.5A8.775,8.775,0,0,1,49.11,22.53V23.2a.822.822,0,1,0,1.644,0V22.53A8.743,8.743,0,0,1,55.522,24.5l-.492.5a.823.823,0,0,0,1.176,1.151l.479-.49a8.733,8.733,0,0,1,1.984,4.779h-.7a.822.822,0,0,0,0,1.644h.7a8.733,8.733,0,0,1-1.984,4.779l-.48-.49a.822.822,0,1,0-1.175,1.15l.492.5A8.738,8.738,0,0,1,50.754,40v-.7a.822.822,0,0,0-1.644,0V40a8.776,8.776,0,0,1-4.788-1.979l.487-.5a.822.822,0,1,0-1.175-1.15l-.478.487a8.725,8.725,0,0,1-1.987-4.776h.7a.822.822,0,1,0,0-1.644ZM45.537,33.8a.822.822,0,0,1,.3-1.122l3.269-1.881V26.187a.822.822,0,0,1,1.644,0v3.662l.353-.2a.822.822,0,1,1,.82,1.425l-1.172.674v.99a.822.822,0,0,1-1.644,0V32.69L46.659,34.1a.823.823,0,0,1-1.122-.3ZM37.02,39.13a15.162,15.162,0,1,1,2.041,2.632.822.822,0,0,1,1.188-1.137,13.269,13.269,0,0,0,9.682,4.1,13.484,13.484,0,1,0-11.509-6.458.822.822,0,1,1-1.4.859Zm31.4,13.534L53.665,63.141a6.8,6.8,0,0,0-5.957-5.5l-8.926-.91a9.154,9.154,0,0,1-3.516-1.072,19.307,19.307,0,0,0-18.01-.121A10.666,10.666,0,0,1,12.4,56.781v-.605a2.526,2.526,0,0,0-2.523-2.523H3.514A2.526,2.526,0,0,0,.991,56.176V75.75a2.526,2.526,0,0,0,2.523,2.523H9.875A2.526,2.526,0,0,0,12.4,75.75v-.4l32.954,1.4q.877.088,1.723.087A15,15,0,0,0,56,73.926L76.668,59.2a3.705,3.705,0,0,0,1.576-2.7,3.64,3.64,0,0,0-1.009-2.957,6.715,6.715,0,0,0-8.812-.876Zm8.187,3.66a2.052,2.052,0,0,1-.894,1.537L55.047,72.586a13.539,13.539,0,0,1-9.578,2.529L12.4,73.7V71.276a.822.822,0,0,0-1.644,0v4.474a.869.869,0,0,1-.879.879H3.514a.89.89,0,0,1-.879-.879V56.176a.89.89,0,0,1,.879-.879H9.875a.869.869,0,0,1,.879.879V68.108a.822.822,0,0,0,1.644,0V58.435A12.39,12.39,0,0,0,18.013,57a17.673,17.673,0,0,1,16.481.114,10.861,10.861,0,0,0,4.123,1.255l8.924.909a5.148,5.148,0,0,1,4.6,4.889,2.285,2.285,0,0,1-.025.348.844.844,0,0,0-.009.121,2.077,2.077,0,0,1-.671,1.179,1.982,1.982,0,0,1-1.653.566L32.164,64.586A.822.822,0,0,0,32,66.221l17.614,1.795a4.074,4.074,0,0,0,.422.022,3.577,3.577,0,0,0,2.53-1.03,3.713,3.713,0,0,0,1.088-1.843L69.379,54a5.072,5.072,0,0,1,6.663.672,2.005,2.005,0,0,1,.568,1.653ZM26.443,35.03l4.28,1.4A19.977,19.977,0,0,0,32.707,41.2l-2.033,4a.823.823,0,0,0,.151.954l4.218,4.218a.821.821,0,0,0,.954.151l4-2.033a20.55,20.55,0,0,0,4.771,1.981l1.4,4.259a.822.822,0,0,0,.781.566h5.965a.823.823,0,0,0,.783-.571l1.371-4.248a19.893,19.893,0,0,0,4.794-1.984l4.007,2.033a.821.821,0,0,0,.954-.155l4.211-4.211a.822.822,0,0,0,.155-.958l-2.051-4a19.366,19.366,0,0,0,1.979-4.77l4.279-1.4a.822.822,0,0,0,.566-.781V28.286A.823.823,0,0,0,73.4,27.5l-4.275-1.4a18.988,18.988,0,0,0-1.32-3.541,10.789,10.789,0,1,0-11.119-10.78c0,.272.021.538.041.806-.552-.2-1.1-.385-1.652-.534L53.7,7.806a.822.822,0,0,0-.783-.57H46.95a.821.821,0,0,0-.78.564l-1.4,4.257A19.776,19.776,0,0,0,40,14.043L36,12.01a.82.82,0,0,0-.951.148l-4.224,4.224a.821.821,0,0,0-.148.951l2.033,4a19.985,19.985,0,0,0-1.984,4.77l-4.28,1.4a.822.822,0,0,0-.566.781V34.25a.821.821,0,0,0,.566.78ZM67.478,2.635a9.151,9.151,0,1,1-.921,18.255H66.54a9.151,9.151,0,0,1,.937-18.254ZM27.521,28.88l4.139-1.352a.823.823,0,0,0,.545-.587,18.319,18.319,0,0,1,2.141-5.152.824.824,0,0,0,.03-.8l-1.969-3.876,3.372-3.372,3.876,1.969a.82.82,0,0,0,.8-.03A18.169,18.169,0,0,1,45.6,13.541.825.825,0,0,0,46.192,13L47.543,8.88h4.772L53.647,13a.82.82,0,0,0,.586.544,18.861,18.861,0,0,1,2.806.951,10.807,10.807,0,0,0,8.842,7.959,17.5,17.5,0,0,1,1.752,4.483.824.824,0,0,0,.547.6l4.139,1.352v4.774L68.18,35.007a.821.821,0,0,0-.545.587A17.682,17.682,0,0,1,65.5,40.738a.821.821,0,0,0-.03.812l1.984,3.863-3.376,3.376-3.864-1.965a.821.821,0,0,0-.8.028,18.212,18.212,0,0,1-5.172,2.141.823.823,0,0,0-.588.542l-1.334,4.118H47.546l-1.353-4.118A.822.822,0,0,0,45.614,49a18.869,18.869,0,0,1-5.158-2.144.824.824,0,0,0-.8-.03l-3.873,1.967-3.374-3.374,1.967-3.873a.822.822,0,0,0-.03-.8,18.329,18.329,0,0,1-2.141-5.152.821.821,0,0,0-.545-.587l-4.139-1.351V28.88Zm41.674-15c0-.691-.787-1.275-1.718-1.275a3.168,3.168,0,0,1-3.362-2.919,3.036,3.036,0,0,1,2.54-2.831V6.217a.822.822,0,1,1,1.644,0v.641a3.036,3.036,0,0,1,2.54,2.831.822.822,0,1,1-1.644,0c0-.691-.787-1.275-1.718-1.275S65.759,9,65.759,9.689s.787,1.275,1.718,1.275a3.168,3.168,0,0,1,3.362,2.919,3.021,3.021,0,0,1-2.54,2.809v.663a.822.822,0,1,1-1.644,0v-.663a3.021,3.021,0,0,1-2.54-2.809.822.822,0,0,1,1.644,0c0,.679.787,1.252,1.718,1.252S69.2,14.562,69.2,13.883Z" transform="translate(0 0)"/>
    </g>
  </g>
</svg>
