<svg xmlns="http://www.w3.org/2000/svg" xmlns:xlink="http://www.w3.org/1999/xlink" width="108" height="108" viewBox="0 0 108 108">
  <defs>
    <filter id="Trazado_978624" x="0" y="0" width="108" height="108" filterUnits="userSpaceOnUse">
      <feOffset dy="3" input="SourceAlpha"/>
      <feGaussianBlur stdDeviation="3" result="blur"/>
      <feFlood flood-opacity="0.161"/>
      <feComposite operator="in" in2="blur"/>
      <feComposite in="SourceGraphic"/>
    </filter>
  </defs>
  <g id="Grupo_1206913" data-name="Grupo 1206913" transform="translate(-163 -5928)">
    <g id="Grupo_1205897" data-name="Grupo 1205897" transform="translate(0 2051)">
      <g id="Grupo_1201782" data-name="Grupo 1201782" transform="translate(0 -2435.835)">
        <g id="Grupo_1171926" data-name="Grupo 1171926" transform="translate(-11 1511.835)">
          <g id="Grupo_1171925" data-name="Grupo 1171925" transform="translate(-22 -2251)">
            <g id="Grupo_1164524" data-name="Grupo 1164524" transform="translate(205 7058)">
              <g id="Grupo_1144123" data-name="Grupo 1144123">
                <g transform="matrix(1, 0, 0, 1, -9, -6)" filter="url(#Trazado_978624)">
                  <g id="Trazado_978624-2" data-name="Trazado 978624" transform="translate(9 6)" fill="#e8edf7">
                    <path d="M 45 88.5 C 39.12687683105469 88.5 33.43022537231445 87.35007476806641 28.06830024719238 85.08217620849609 C 22.88852500915527 82.89131164550781 18.23629951477051 79.75458526611328 14.2408504486084 75.75914764404297 C 10.24541282653809 71.76370239257812 7.108687400817871 67.11147308349609 4.917825222015381 61.93170166015625 C 2.649924993515015 56.56977462768555 1.5 50.87312316894531 1.5 45 C 1.5 39.12687683105469 2.649924993515015 33.43022537231445 4.917825222015381 28.06830024719238 C 7.108687400817871 22.88852500915527 10.24541282653809 18.23629951477051 14.2408504486084 14.2408504486084 C 18.23629951477051 10.24541282653809 22.88852500915527 7.108687400817871 28.06830024719238 4.917825222015381 C 33.43022537231445 2.649924993515015 39.12687683105469 1.5 45 1.5 C 50.87312316894531 1.5 56.56977462768555 2.649924993515015 61.93170166015625 4.917825222015381 C 67.11147308349609 7.108687400817871 71.76370239257812 10.24541282653809 75.75914764404297 14.2408504486084 C 79.75458526611328 18.23629951477051 82.89131164550781 22.88852500915527 85.08217620849609 28.06830024719238 C 87.35007476806641 33.43022537231445 88.5 39.12687683105469 88.5 45 C 88.5 50.87312316894531 87.35007476806641 56.56977462768555 85.08217620849609 61.93170166015625 C 82.89131164550781 67.11147308349609 79.75458526611328 71.76370239257812 75.75914764404297 75.75914764404297 C 71.76370239257812 79.75458526611328 67.11147308349609 82.89131164550781 61.93170166015625 85.08217620849609 C 56.56977462768555 87.35007476806641 50.87312316894531 88.5 45 88.5 Z" stroke="none"/>
                    <path d="M 45 3 C 39.32871246337891 3 33.82865524291992 4.110054016113281 28.65262985229492 6.299339294433594 C 23.65165710449219 8.414573669433594 19.15968322753906 11.44334411621094 15.301513671875 15.301513671875 C 11.44334411621094 19.15968322753906 8.414573669433594 23.65165710449219 6.299339294433594 28.65262985229492 C 4.110054016113281 33.82865524291992 3 39.32871246337891 3 45 C 3 50.67128753662109 4.110054016113281 56.17134475708008 6.299339294433594 61.34737396240234 C 8.414573669433594 66.34834289550781 11.44334411621094 70.84031677246094 15.301513671875 74.698486328125 C 19.15968322753906 78.55665588378906 23.65165710449219 81.58542633056641 28.65262985229492 83.70066070556641 C 33.82865524291992 85.88994598388672 39.32871246337891 87 45 87 C 50.67128753662109 87 56.17134475708008 85.88994598388672 61.34737396240234 83.70066070556641 C 66.34834289550781 81.58542633056641 70.84031677246094 78.55665588378906 74.698486328125 74.698486328125 C 78.55665588378906 70.84031677246094 81.58542633056641 66.34834289550781 83.70066070556641 61.34737396240234 C 85.88994598388672 56.17134475708008 87 50.67128753662109 87 45 C 87 39.32871246337891 85.88994598388672 33.82865524291992 83.70066070556641 28.65262985229492 C 81.58542633056641 23.65165710449219 78.55665588378906 19.15968322753906 74.698486328125 15.301513671875 C 70.84031677246094 11.44334411621094 66.34834289550781 8.414573669433594 61.34737396240234 6.299339294433594 C 56.17134475708008 4.110054016113281 50.67128753662109 3 45 3 M 45 0 C 69.85281372070312 0 90 20.14718627929688 90 45 C 90 69.85281372070312 69.85281372070312 90 45 90 C 20.14718627929688 90 0 69.85281372070312 0 45 C 0 20.14718627929688 20.14718627929688 0 45 0 Z" stroke="none" fill="#2e5bb6"/>
                  </g>
                </g>
              </g>
            </g>
          </g>
        </g>
      </g>
    </g>
    <g id="Layer_1" transform="translate(180.277 5942.795)">
      <g id="Grupo_1206912" data-name="Grupo 1206912" transform="translate(4.818 4.797)">
        <g id="Grupo_1206877" data-name="Grupo 1206877" transform="translate(13.771 13.824)">
          <g id="Grupo_1206876" data-name="Grupo 1206876">
            <g id="Grupo_1206875" data-name="Grupo 1206875">
              <path id="Trazado_1048727" data-name="Trazado 1048727" d="M92.689,83.528c-7.425,17-32.828,13.052-34.615-5.491a18.107,18.107,0,1,1,34.615,5.491Z" transform="translate(-57.985 -58.17)" fill="#72c1e8"/>
            </g>
          </g>
        </g>
        <g id="Grupo_1206880" data-name="Grupo 1206880" transform="translate(13.771 21.505)">
          <g id="Grupo_1206879" data-name="Grupo 1206879">
            <g id="Grupo_1206878" data-name="Grupo 1206878">
              <path id="Trazado_1048728" data-name="Trazado 1048728" d="M75.764,107.236,74.025,110.9a1.6,1.6,0,0,1-2.82.131l-5.516-9.278a3.016,3.016,0,0,0-2.437-1.47l-5.177-.267a18.036,18.036,0,0,1,3.212-12.176c2.952,0,6.842-.351,11.548,3.179a1.643,1.643,0,0,1,.256,2.392l-3.918,4.513a1.284,1.284,0,0,0,.445,2.015l4.121,1.834A4.074,4.074,0,0,1,75.764,107.236Z" transform="translate(-57.985 -87.825)" fill="#13bf6d"/>
            </g>
          </g>
        </g>
        <g id="Grupo_1206883" data-name="Grupo 1206883" transform="translate(37.515 15.943)">
          <g id="Grupo_1206882" data-name="Grupo 1206882">
            <g id="Grupo_1206881" data-name="Grupo 1206881">
              <path id="Trazado_1048729" data-name="Trazado 1048729" d="M160.62,89.59c-8.566-1.308-13.686-8.6-9.435-11.48.642-.435,2.814-1.6,2.426-4.27l-1.089-7.489A18.116,18.116,0,0,1,160.62,89.59Z" transform="translate(-149.661 -66.351)" fill="#13bf6d"/>
            </g>
          </g>
        </g>
        <g id="Grupo_1206886" data-name="Grupo 1206886" transform="translate(20.805 16.552)">
          <g id="Grupo_1206885" data-name="Grupo 1206885">
            <g id="Grupo_1206884" data-name="Grupo 1206884">
              <path id="Trazado_1048730" data-name="Trazado 1048730" d="M85.334,74.354a.648.648,0,0,1-.006-.916,15.9,15.9,0,0,1,7.663-4.312.647.647,0,0,1,.3,1.26,14.6,14.6,0,0,0-7.039,3.961A.648.648,0,0,1,85.334,74.354ZM95.7,70.027a.647.647,0,0,1-.039-1.294c.495-.03.995-.037,1.494-.021a.648.648,0,0,1-.042,1.295c-.459-.015-.918-.009-1.373.019H95.7Z" transform="translate(-85.142 -68.704)" fill="#c5e5ff"/>
            </g>
          </g>
        </g>
        <g id="Grupo_1206889" data-name="Grupo 1206889" transform="translate(16.884 21.1)">
          <g id="Grupo_1206888" data-name="Grupo 1206888">
            <g id="Grupo_1206887" data-name="Grupo 1206887">
              <path id="Trazado_1048731" data-name="Trazado 1048731" d="M70.492,94.484a.646.646,0,0,1-.469-.785,15.867,15.867,0,0,1,4.087-7.252.664.664,0,0,1,.917-.005.645.645,0,0,1,.005.914,14.563,14.563,0,0,0-3.753,6.659A.648.648,0,0,1,70.492,94.484Z" transform="translate(-70.003 -86.261)" fill="#76ffba"/>
            </g>
          </g>
        </g>
        <g id="Grupo_1206892" data-name="Grupo 1206892" transform="translate(44.295 27.33)">
          <g id="Grupo_1206891" data-name="Grupo 1206891">
            <g id="Grupo_1206890" data-name="Grupo 1206890">
              <path id="Trazado_1048732" data-name="Trazado 1048732" d="M176.225,122.13a.648.648,0,0,1-.333-.853,14.578,14.578,0,0,0,.592-10.123.647.647,0,1,1,1.238-.379,15.874,15.874,0,0,1-.644,11.022.647.647,0,0,1-.853.333Z" transform="translate(-175.837 -110.317)" fill="#76ffba"/>
            </g>
          </g>
        </g>
        <g id="Grupo_1206895" data-name="Grupo 1206895" transform="translate(35.905 37.903)">
          <g id="Grupo_1206894" data-name="Grupo 1206894">
            <g id="Grupo_1206893" data-name="Grupo 1206893">
              <path id="Trazado_1048733" data-name="Trazado 1048733" d="M143.487,160.091a.647.647,0,0,1,.367-.839c.242-.095.483-.2.717-.3a.648.648,0,0,1,.535,1.18c-.254.115-.517.226-.779.329A.648.648,0,0,1,143.487,160.091Zm3.071-1.453a.648.648,0,0,1,.172-.9,14.579,14.579,0,0,0,5.158-6.215.648.648,0,1,1,1.186.52,15.872,15.872,0,0,1-5.617,6.766A.648.648,0,0,1,146.558,158.639Z" transform="translate(-143.442 -151.137)" fill="#c5e5ff"/>
            </g>
          </g>
        </g>
        <g id="Grupo_1206898" data-name="Grupo 1206898" transform="translate(0.646 0.652)">
          <g id="Grupo_1206897" data-name="Grupo 1206897">
            <g id="Grupo_1206896" data-name="Grupo 1206896">
              <path id="Trazado_1048734" data-name="Trazado 1048734" d="M62.6,58.559a31.253,31.253,0,0,0-1.885-42.041l-.234-3.891-1.919,1.919a31.235,31.235,0,0,0-42.041,1.885l-3.891.234,1.919,1.919a31.235,31.235,0,0,0,1.885,42.041l.234,3.891L18.584,62.6a31.253,31.253,0,0,0,42.041-1.885l3.891-.234Zm-39.351-.627,1.878-1.878L20.887,55.8a24.7,24.7,0,0,1-1.676-32.555l1.878,1.878.254-4.237A24.7,24.7,0,0,1,53.9,19.211l-1.878,1.878,4.237.254A24.69,24.69,0,0,1,57.932,53.9l-1.878-1.878L55.8,56.257a24.69,24.69,0,0,1-32.555,1.676Z" transform="translate(-7.313 -7.313)" fill="#f2bf22"/>
            </g>
          </g>
        </g>
        <g id="Grupo_1206901" data-name="Grupo 1206901" transform="translate(2.249 12.884)">
          <g id="Grupo_1206900" data-name="Grupo 1206900">
            <g id="Grupo_1206899" data-name="Grupo 1206899">
              <path id="Trazado_1048735" data-name="Trazado 1048735" d="M17.8,88.95A29.674,29.674,0,0,1,20.21,54.777a.647.647,0,0,1,1,.821A28.38,28.38,0,0,0,18.9,88.278a.647.647,0,1,1-1.106.672Z" transform="translate(-13.5 -54.539)" fill="#f8e5b0"/>
            </g>
          </g>
        </g>
        <g id="Grupo_1206904" data-name="Grupo 1206904" transform="translate(15.956 2.254)">
          <g id="Grupo_1206903" data-name="Grupo 1206903">
            <g id="Grupo_1206902" data-name="Grupo 1206902">
              <path id="Trazado_1048736" data-name="Trazado 1048736" d="M100.339,21.211a28.378,28.378,0,0,0-32.928-2.155.647.647,0,1,1-.684-1.1A29.673,29.673,0,0,1,101.16,20.21a.647.647,0,1,1-.821,1Z" transform="translate(-66.422 -13.5)" fill="#f8e5b0"/>
            </g>
          </g>
        </g>
        <g id="Grupo_1206907" data-name="Grupo 1206907" transform="translate(53.693 16.025)">
          <g id="Grupo_1206906" data-name="Grupo 1206906">
            <g id="Grupo_1206905" data-name="Grupo 1206905">
              <path id="Trazado_1048737" data-name="Trazado 1048737" d="M212.279,100.523a28.379,28.379,0,0,0,2.194-32.866.648.648,0,0,1,1.1-.681,29.674,29.674,0,0,1-2.294,34.368.648.648,0,0,1-1-.821Z" transform="translate(-212.123 -66.669)" fill="#f8e5b0"/>
            </g>
          </g>
        </g>
        <g id="Grupo_1206910" data-name="Grupo 1206910" transform="translate(12.878 53.708)">
          <g id="Grupo_1206909" data-name="Grupo 1206909">
            <g id="Grupo_1206908" data-name="Grupo 1206908">
              <path id="Trazado_1048738" data-name="Trazado 1048738" d="M54.777,213.308a.647.647,0,0,1,.821-1,28.394,28.394,0,0,0,32.387,2.484.648.648,0,0,1,.659,1.115A29.688,29.688,0,0,1,54.777,213.308Z" transform="translate(-54.54 -212.159)" fill="#f8e5b0"/>
            </g>
          </g>
        </g>
        <g id="Grupo_1206911" data-name="Grupo 1206911">
          <path id="Trazado_1048741" data-name="Trazado 1048741" d="M83.029,57.774c-13.216-7.064-28.952,3.652-27.467,18.381,1.85,19.207,28.141,23.34,35.852,5.688A18.828,18.828,0,0,0,83.029,57.774ZM59.764,64.561c2.891-.019,6.483-.2,10.814,3.052a1,1,0,0,1,.155,1.45l-3.917,4.512a1.93,1.93,0,0,0,.67,3.032l4.121,1.834a3.424,3.424,0,0,1,1.7,4.6L71.571,86.7a.952.952,0,0,1-1.679.077L64.377,77.5a3.655,3.655,0,0,0-2.961-1.786l-4.609-.238a17.345,17.345,0,0,1,2.957-10.914ZM90.419,80.854a14.036,14.036,0,0,1-8.157-4.318.665.665,0,0,0-.914-.052.646.646,0,0,0-.052.914,15.3,15.3,0,0,0,8.583,4.675c-7.428,15.286-30.674,11.65-32.94-5.3l4.409.227a2.363,2.363,0,0,1,1.914,1.154l5.516,9.278a2.248,2.248,0,0,0,3.962-.183l1.74-3.66a4.718,4.718,0,0,0-2.347-6.338l-4.119-1.833a.636.636,0,0,1-.221-1l3.918-4.513a2.292,2.292,0,0,0-.356-3.335,16.057,16.057,0,0,0-10.622-3.317,17.456,17.456,0,0,1,21.4-4.491l1.04,7.16c.289,1.96-.973,2.836-2.147,3.639A4.178,4.178,0,0,0,79.24,72.4a.648.648,0,1,0,1.282.194,2.847,2.847,0,0,1,1.228-1.95c1.9-1.231,3.025-2.6,2.7-4.9l-.894-6.157A17.535,17.535,0,0,1,90.419,80.854Z" transform="translate(-42.346 -42.402)"/>
          <path id="Trazado_1048742" data-name="Trazado 1048742" d="M150.094,127.945a.659.659,0,0,0-.86-.311.648.648,0,1,0,.863.313A0,0,0,0,0,150.094,127.945Z" transform="translate(-111.553 -95.775)"/>
          <path id="Trazado_1048743" data-name="Trazado 1048743" d="M68.617,36.163v0A31.756,31.756,0,0,0,59.5,14.375l-.22-3.651a.65.65,0,0,0-1.106-.42l-1.5,1.5a31.861,31.861,0,0,0-42.273,2.124l-3.654.22a.649.649,0,0,0-.42,1.106l1.5,1.5A31.88,31.88,0,0,0,13.95,59.039l.221,3.652a.648.648,0,0,0,1.1.42l1.5-1.5a31.71,31.71,0,0,0,20.487,7h0a31.757,31.757,0,0,0,21.786-9.12l3.651-.22a.649.649,0,0,0,.42-1.106l-1.5-1.5a31.709,31.709,0,0,0,7-20.487ZM56.3,13.179a.674.674,0,0,0,.873-.039l.9-.9c.045.747.367,6.092.412,6.835l-6.835-.409.86-.86a.653.653,0,0,0-.057-.966,25.327,25.327,0,0,0-32.214.637l.19-3.177a.651.651,0,0,0-.686-.686l-3.322.2A30.573,30.573,0,0,1,56.3,13.179ZM56.02,51.052,54.664,49.7a.65.65,0,0,0-1.106.42L53.32,54.1A24.036,24.036,0,0,1,22.376,56l1.357-1.355a.649.649,0,0,0-.42-1.106L19.333,53.3a24.035,24.035,0,0,1-1.907-30.942l1.356,1.356a.65.65,0,0,0,1.106-.42l.238-3.979a24.038,24.038,0,0,1,30.942-1.91l-1.356,1.356a.647.647,0,0,0,.42,1.1l3.978.238a24.036,24.036,0,0,1,1.91,30.945ZM6.113,36.708a30.573,30.573,0,0,1,7.081-19.574.652.652,0,0,0-.039-.873l-.9-.9,6.835-.412-.409,6.835-.86-.86a.648.648,0,0,0-1,.1l0,0a25.326,25.326,0,0,0,.668,32.172L14.313,53a.65.65,0,0,0-.686.686l.2,3.323A30.436,30.436,0,0,1,6.113,36.708Zm31.125,30.6H37.23A30.514,30.514,0,0,1,17.15,60.235a.666.666,0,0,0-.873.039l-.9.9-.409-6.835,6.833.409-.86.86a.648.648,0,0,0,.057.966,25.325,25.325,0,0,0,32.214-.635l-.19,3.176a.651.651,0,0,0,.686.686l3.322-.2a30.383,30.383,0,0,1-19.789,7.7ZM60.251,56.28a.655.655,0,0,0,.039.873l.9.9-6.835.412.409-6.835.86.86a.653.653,0,0,0,1-.1,25.321,25.321,0,0,0-.671-32.175l3.18.19a.649.649,0,0,0,.686-.684l-.2-3.319a30.379,30.379,0,0,1,7.7,19.787V36.2A30.519,30.519,0,0,1,60.251,56.28Z" transform="translate(-4.818 -4.797)"/>
        </g>
      </g>
    </g>
  </g>
</svg>
