<svg xmlns="http://www.w3.org/2000/svg" xmlns:xlink="http://www.w3.org/1999/xlink" width="113" height="113" viewBox="0 0 113 113">
  <defs>
    <filter id="Trazado_982547" x="0" y="0" width="113" height="113" filterUnits="userSpaceOnUse">
      <feOffset dy="3" input="SourceAlpha"/>
      <feGaussianBlur stdDeviation="3" result="blur"/>
      <feFlood flood-opacity="0.161"/>
      <feComposite operator="in" in2="blur"/>
      <feComposite in="SourceGraphic"/>
    </filter>
  </defs>
  <g id="Grupo_1206914" data-name="Grupo 1206914" transform="translate(-614 -6735.895)">
    <g id="Grupo_1205908" data-name="Grupo 1205908" transform="translate(0 2634.895)">
      <g id="Grupo_1201805" data-name="Grupo 1201805" transform="translate(3 3558)">
        <g id="Grupo_1184772" data-name="Grupo 1184772" transform="translate(420.762 128)">
          <g id="Grupo_1183774" data-name="Grupo 1183774" transform="translate(-2.762 -669.432)">
            <g id="Grupo_1173793" data-name="Grupo 1173793" transform="translate(202 1090.432)">
              <g id="Grupo_1167519" data-name="Grupo 1167519">
                <g id="Grupo_1166845" data-name="Grupo 1166845">
                  <g id="Grupo_1166720" data-name="Grupo 1166720">
                    <g id="Grupo_1164305" data-name="Grupo 1164305">
                      <g id="Grupo_1163948" data-name="Grupo 1163948">
                        <g id="Grupo_1158168" data-name="Grupo 1158168">
                          <g id="Grupo_1152576" data-name="Grupo 1152576">
                            <g id="Grupo_1148633" data-name="Grupo 1148633">
                              <g id="Grupo_1148525" data-name="Grupo 1148525">
                                <g transform="matrix(1, 0, 0, 1, -9, -6)" filter="url(#Trazado_982547)">
                                  <g id="Trazado_982547-2" data-name="Trazado 982547" transform="translate(9 6)" fill="#fcf2ec">
                                    <path d="M 47.5 93.5 C 41.28937149047852 93.5 35.26533508300781 92.28397369384766 29.59518623352051 89.88570404052734 C 24.11771965026855 87.56893157958984 19.19813346862793 84.25196075439453 14.97309303283691 80.02691650390625 C 10.74804019927979 75.80186462402344 7.431066513061523 70.88229370117188 5.114293098449707 65.40481567382812 C 2.716026782989502 59.73468017578125 1.5 53.71062850952148 1.5 47.5 C 1.5 41.28937149047852 2.716026782989502 35.26533508300781 5.114293098449707 29.59518623352051 C 7.431066513061523 24.11771965026855 10.74804019927979 19.19813346862793 14.97309303283691 14.97309303283691 C 19.19813346862793 10.74804019927979 24.11771965026855 7.431066513061523 29.59518623352051 5.114293098449707 C 35.26533508300781 2.716026782989502 41.28937149047852 1.5 47.5 1.5 C 53.71062850952148 1.5 59.73468017578125 2.716026782989502 65.40481567382812 5.114293098449707 C 70.88229370117188 7.431066513061523 75.80186462402344 10.74804019927979 80.02691650390625 14.97309303283691 C 84.25196075439453 19.19813346862793 87.56893157958984 24.11771965026855 89.88570404052734 29.59518623352051 C 92.28397369384766 35.26533508300781 93.5 41.28937149047852 93.5 47.5 C 93.5 53.71062850952148 92.28397369384766 59.73468017578125 89.88570404052734 65.40481567382812 C 87.56893157958984 70.88229370117188 84.25196075439453 75.80186462402344 80.02691650390625 80.02691650390625 C 75.80186462402344 84.25196075439453 70.88229370117188 87.56893157958984 65.40481567382812 89.88570404052734 C 59.73468017578125 92.28397369384766 53.71062850952148 93.5 47.5 93.5 Z" stroke="none"/>
                                    <path d="M 47.5 3 C 41.49121475219727 3 35.66376876831055 4.176155090332031 30.17950439453125 6.495796203613281 C 24.88084411621094 8.736953735351562 20.12152099609375 11.94598388671875 16.03375244140625 16.03375244140625 C 11.94598388671875 20.12152099609375 8.736953735351562 24.88084411621094 6.495796203613281 30.17950439453125 C 4.176155090332031 35.66376876831055 3 41.49121475219727 3 47.5 C 3 53.50878524780273 4.176155090332031 59.33623123168945 6.495796203613281 64.82049560546875 C 8.736953735351562 70.11915588378906 11.94598388671875 74.87847900390625 16.03375244140625 78.96624755859375 C 20.12152099609375 83.05401611328125 24.88084411621094 86.26304626464844 30.17950439453125 88.50419616699219 C 35.66376876831055 90.82384490966797 41.49121475219727 92 47.5 92 C 53.50878524780273 92 59.33623123168945 90.82384490966797 64.82049560546875 88.50419616699219 C 70.11915588378906 86.26304626464844 74.87847900390625 83.05401611328125 78.96624755859375 78.96624755859375 C 83.05401611328125 74.87847900390625 86.26304626464844 70.11915588378906 88.50419616699219 64.82049560546875 C 90.82384490966797 59.33623123168945 92 53.50878524780273 92 47.5 C 92 41.49121475219727 90.82384490966797 35.66376876831055 88.50419616699219 30.17950439453125 C 86.26304626464844 24.88084411621094 83.05401611328125 20.12152099609375 78.96624755859375 16.03375244140625 C 74.87847900390625 11.94598388671875 70.11915588378906 8.736953735351562 64.82049560546875 6.495796203613281 C 59.33623123168945 4.176155090332031 53.50878524780273 3 47.5 3 M 47.5 0 C 73.7335205078125 0 95 21.2664794921875 95 47.5 C 95 73.7335205078125 73.7335205078125 95 47.5 95 C 21.2664794921875 95 0 73.7335205078125 0 47.5 C 0 21.2664794921875 21.2664794921875 0 47.5 0 Z" stroke="none" fill="#e8864c"/>
                                  </g>
                                </g>
                              </g>
                            </g>
                          </g>
                        </g>
                      </g>
                    </g>
                  </g>
                </g>
              </g>
            </g>
          </g>
        </g>
      </g>
    </g>
    <g id="beneficios_1_" data-name="beneficios (1)" transform="translate(635.502 6753.628)">
      <path id="Trazado_1048744" data-name="Trazado 1048744" d="M291.7,23.3,275.965,8.562,260.23,23.3H267.4V72.35h17.124V23.3Z" transform="translate(-226.687 -6.637)" fill="#38c183"/>
      <path id="Trazado_1048745" data-name="Trazado 1048745" d="M48.068,176.266a23.672,23.672,0,0,1-32.122,1.28q-.713-.607-1.385-1.28a23.693,23.693,0,0,1,33.507-33.507q.673.673,1.28,1.385a23.672,23.672,0,0,1-1.28,32.122Z" transform="translate(-6.64 -117.492)" fill="#f4b74a"/>
      <path id="Trazado_1048746" data-name="Trazado 1048746" d="M109.233,206.163,77.964,237.431A23.536,23.536,0,0,1,72.2,233.8l33.4-33.4A23.523,23.523,0,0,1,109.233,206.163Z" transform="translate(-62.893 -173.745)" fill="#f9c662"/>
      <path id="Trazado_1048747" data-name="Trazado 1048747" d="M81.762,190.915a19.047,19.047,0,1,1-6.974-14.731A19.046,19.046,0,0,1,81.762,190.915Z" transform="translate(-38.042 -148.894)" fill="#ffd488"/>
      <path id="Trazado_1048748" data-name="Trazado 1048748" d="M74.787,176.185l-26.8,26.8h0a19.045,19.045,0,0,1,26.805-26.8Z" transform="translate(-38.04 -148.895)" fill="#f9c662"/>
      <path id="Trazado_1048749" data-name="Trazado 1048749" d="M76.141,178.566,50.365,204.341a18.864,18.864,0,0,1-1.583-3.988l23.371-23.371A18.862,18.862,0,0,1,76.141,178.566Z" transform="translate(-42.494 -153.348)" fill="#ffd488"/>
      <path id="Trazado_1048750" data-name="Trazado 1048750" d="M285.735,15.946,270,1.208a.982.982,0,0,0-1.343,0L252.922,15.946a.982.982,0,0,0,.671,1.7h6.191v2.647a.982.982,0,1,0,1.964,0V16.663a.982.982,0,0,0-.982-.982h-4.688l13.25-12.411,13.25,12.41H277.89a.982.982,0,0,0-.982.982V50.278a.982.982,0,1,0,1.964,0V17.645h6.191a.982.982,0,0,0,.671-1.7Z" transform="translate(-220.05)"/>
      <path id="Trazado_1048751" data-name="Trazado 1048751" d="M326.369,406.543a.982.982,0,0,0-.982.982V418.05H310.227v-.835a.982.982,0,1,0-1.964,0v1.817a.982.982,0,0,0,.982.982h17.124a.982.982,0,0,0,.982-.982V407.525A.982.982,0,0,0,326.369,406.543Z" transform="translate(-268.529 -353.319)"/>
      <path id="Trazado_1048752" data-name="Trazado 1048752" d="M49.349,152.875A24.7,24.7,0,0,0,24.675,128.2a.982.982,0,0,0,0,1.964,22.684,22.684,0,1,1-4.453.436.982.982,0,1,0-.383-1.926,24.677,24.677,0,1,0,29.51,24.2Z" transform="translate(0 -110.854)"/>
      <path id="Trazado_1048753" data-name="Trazado 1048753" d="M41.979,198.5a20.028,20.028,0,1,0,0-28.324A19.966,19.966,0,0,0,41.979,198.5ZM56.14,166.284a18.055,18.055,0,1,1-12.773,5.282A18.008,18.008,0,0,1,56.14,166.284Z" transform="translate(-31.466 -142.319)"/>
      <path id="Trazado_1048754" data-name="Trazado 1048754" d="M142.856,242.832a.982.982,0,0,0-1.964,0c0,2.8,2.4,5.121,5.532,5.528v.925a.982.982,0,1,0,1.964,0v-.925c3.128-.408,5.532-2.731,5.532-5.528s-2.4-5.121-5.532-5.528V230.07c2.038.359,3.568,1.81,3.568,3.542a.982.982,0,0,0,1.964,0c0-2.8-2.4-5.121-5.532-5.528v-.925a.982.982,0,1,0-1.964,0v.925c-3.128.408-5.532,2.731-5.532,5.528s2.4,5.121,5.532,5.529v7.233C144.386,246.014,142.856,244.563,142.856,242.832Zm9.1,0c0,1.732-1.53,3.183-3.568,3.542V239.29C150.426,239.649,151.956,241.1,151.956,242.832Zm-9.1-9.22c0-1.732,1.53-3.183,3.568-3.542v7.084C144.386,236.794,142.856,235.343,142.856,233.612Z" transform="translate(-122.731 -196.201)"/>
    </g>
  </g>
</svg>
