<svg xmlns="http://www.w3.org/2000/svg" xmlns:xlink="http://www.w3.org/1999/xlink" width="113" height="113" viewBox="0 0 113 113">
  <defs>
    <filter id="Trazado_982547" x="0" y="0" width="113" height="113" filterUnits="userSpaceOnUse">
      <feOffset dy="3" input="SourceAlpha"/>
      <feGaussianBlur stdDeviation="3" result="blur"/>
      <feFlood flood-opacity="0.161"/>
      <feComposite operator="in" in2="blur"/>
      <feComposite in="SourceGraphic"/>
    </filter>
  </defs>
  <g id="Grupo_1206230" data-name="Grupo 1206230" transform="translate(-614 -566)">
    <g id="Grupo_1205881" data-name="Grupo 1205881" transform="translate(0 -3535)">
      <g id="Grupo_1201805" data-name="Grupo 1201805" transform="translate(3 3558)">
        <g id="Grupo_1184772" data-name="Grupo 1184772" transform="translate(420.762 128)">
          <g id="Grupo_1183774" data-name="Grupo 1183774" transform="translate(-2.762 -669.432)">
            <g id="Grupo_1173793" data-name="Grupo 1173793" transform="translate(202 1090.432)">
              <g id="Grupo_1167519" data-name="Grupo 1167519">
                <g id="Grupo_1166845" data-name="Grupo 1166845">
                  <g id="Grupo_1166720" data-name="Grupo 1166720">
                    <g id="Grupo_1164305" data-name="Grupo 1164305">
                      <g id="Grupo_1163948" data-name="Grupo 1163948">
                        <g id="Grupo_1158168" data-name="Grupo 1158168">
                          <g id="Grupo_1152576" data-name="Grupo 1152576">
                            <g id="Grupo_1148633" data-name="Grupo 1148633">
                              <g id="Grupo_1148525" data-name="Grupo 1148525">
                                <g transform="matrix(1, 0, 0, 1, -9, -6)" filter="url(#Trazado_982547)">
                                  <g id="Trazado_982547-2" data-name="Trazado 982547" transform="translate(9 6)" fill="#fcf2ec">
                                    <path d="M 47.5 93.5 C 41.28937149047852 93.5 35.26533508300781 92.28397369384766 29.59518623352051 89.88570404052734 C 24.11771965026855 87.56893157958984 19.19813346862793 84.25196075439453 14.97309303283691 80.02691650390625 C 10.74804019927979 75.80186462402344 7.431066513061523 70.88229370117188 5.114293098449707 65.40481567382812 C 2.716026782989502 59.73468017578125 1.5 53.71062850952148 1.5 47.5 C 1.5 41.28937149047852 2.716026782989502 35.26533508300781 5.114293098449707 29.59518623352051 C 7.431066513061523 24.11771965026855 10.74804019927979 19.19813346862793 14.97309303283691 14.97309303283691 C 19.19813346862793 10.74804019927979 24.11771965026855 7.431066513061523 29.59518623352051 5.114293098449707 C 35.26533508300781 2.716026782989502 41.28937149047852 1.5 47.5 1.5 C 53.71062850952148 1.5 59.73468017578125 2.716026782989502 65.40481567382812 5.114293098449707 C 70.88229370117188 7.431066513061523 75.80186462402344 10.74804019927979 80.02691650390625 14.97309303283691 C 84.25196075439453 19.19813346862793 87.56893157958984 24.11771965026855 89.88570404052734 29.59518623352051 C 92.28397369384766 35.26533508300781 93.5 41.28937149047852 93.5 47.5 C 93.5 53.71062850952148 92.28397369384766 59.73468017578125 89.88570404052734 65.40481567382812 C 87.56893157958984 70.88229370117188 84.25196075439453 75.80186462402344 80.02691650390625 80.02691650390625 C 75.80186462402344 84.25196075439453 70.88229370117188 87.56893157958984 65.40481567382812 89.88570404052734 C 59.73468017578125 92.28397369384766 53.71062850952148 93.5 47.5 93.5 Z" stroke="none"/>
                                    <path d="M 47.5 3 C 41.49121475219727 3 35.66376876831055 4.176155090332031 30.17950439453125 6.495796203613281 C 24.88084411621094 8.736953735351562 20.12152099609375 11.94598388671875 16.03375244140625 16.03375244140625 C 11.94598388671875 20.12152099609375 8.736953735351562 24.88084411621094 6.495796203613281 30.17950439453125 C 4.176155090332031 35.66376876831055 3 41.49121475219727 3 47.5 C 3 53.50878524780273 4.176155090332031 59.33623123168945 6.495796203613281 64.82049560546875 C 8.736953735351562 70.11915588378906 11.94598388671875 74.87847900390625 16.03375244140625 78.96624755859375 C 20.12152099609375 83.05401611328125 24.88084411621094 86.26304626464844 30.17950439453125 88.50419616699219 C 35.66376876831055 90.82384490966797 41.49121475219727 92 47.5 92 C 53.50878524780273 92 59.33623123168945 90.82384490966797 64.82049560546875 88.50419616699219 C 70.11915588378906 86.26304626464844 74.87847900390625 83.05401611328125 78.96624755859375 78.96624755859375 C 83.05401611328125 74.87847900390625 86.26304626464844 70.11915588378906 88.50419616699219 64.82049560546875 C 90.82384490966797 59.33623123168945 92 53.50878524780273 92 47.5 C 92 41.49121475219727 90.82384490966797 35.66376876831055 88.50419616699219 30.17950439453125 C 86.26304626464844 24.88084411621094 83.05401611328125 20.12152099609375 78.96624755859375 16.03375244140625 C 74.87847900390625 11.94598388671875 70.11915588378906 8.736953735351562 64.82049560546875 6.495796203613281 C 59.33623123168945 4.176155090332031 53.50878524780273 3 47.5 3 M 47.5 0 C 73.7335205078125 0 95 21.2664794921875 95 47.5 C 95 73.7335205078125 73.7335205078125 95 47.5 95 C 21.2664794921875 95 0 73.7335205078125 0 47.5 C 0 21.2664794921875 21.2664794921875 0 47.5 0 Z" stroke="none" fill="#e8864c"/>
                                  </g>
                                </g>
                              </g>
                            </g>
                          </g>
                        </g>
                      </g>
                    </g>
                  </g>
                </g>
              </g>
            </g>
          </g>
        </g>
      </g>
    </g>
    <g id="economia_3_" data-name="economia (3)" transform="translate(637.011 586.013)">
      <g id="Grupo_1206228" data-name="Grupo 1206228" transform="translate(0.981 0.98)">
        <g id="Grupo_1206227" data-name="Grupo 1206227">
          <path id="Trazado_1048029" data-name="Trazado 1048029" d="M50.04,10.13,43.259,7.581a1.234,1.234,0,0,0-1.651,1.356l.284,1.716A31.161,31.161,0,0,0,21.367,35.142a1.925,1.925,0,1,0,3.8.6A27.3,27.3,0,0,1,42.533,14.514l.26,1.571a1.234,1.234,0,0,0,2,.751l5.6-4.6a1.234,1.234,0,0,0-.349-2.108Z" transform="translate(-19.533 -7.501)" fill="#0ed2b3"/>
          <path id="Trazado_1048030" data-name="Trazado 1048030" d="M304.618,41.61l-1.716.284a31.161,31.161,0,0,0-24.488-20.526,1.925,1.925,0,0,0-.6,3.8,27.3,27.3,0,0,1,21.227,17.362l-1.571.26a1.234,1.234,0,0,0-.751,2l4.6,5.6a1.234,1.234,0,0,0,2.108-.349l2.548-6.781A1.234,1.234,0,0,0,304.618,41.61Z" transform="translate(-241.04 -19.534)" fill="#0ed2b3"/>
          <path id="Trazado_1048031" data-name="Trazado 1048031" d="M293.042,276.213a1.925,1.925,0,0,0-2.2,1.6,27.3,27.3,0,0,1-17.362,21.227l-.26-1.571a1.234,1.234,0,0,0-2-.751l-5.6,4.6a1.234,1.234,0,0,0,.349,2.108l6.781,2.548a1.234,1.234,0,0,0,1.651-1.356l-.284-1.716a31.16,31.16,0,0,0,20.526-24.488A1.925,1.925,0,0,0,293.042,276.213Z" transform="translate(-231.464 -241.041)" fill="#0ed2b3"/>
          <path id="Trazado_1048032" data-name="Trazado 1048032" d="M35.74,290.842A27.3,27.3,0,0,1,14.513,273.48l1.571-.26a1.234,1.234,0,0,0,.751-2l-4.6-5.6a1.234,1.234,0,0,0-2.108.349L7.58,272.753A1.234,1.234,0,0,0,8.937,274.4l1.716-.284a31.161,31.161,0,0,0,24.488,20.526,1.925,1.925,0,1,0,.6-3.8Z" transform="translate(-7.5 -231.465)" fill="#0ed2b3"/>
        </g>
        <circle id="Elipse_14267" data-name="Elipse 14267" cx="19.05" cy="19.05" r="19.05" transform="translate(13.457 13.457)" fill="#fef48b"/>
        <path id="Trazado_1048033" data-name="Trazado 1048033" d="M131.1,148.4q-.828.073-1.677.073a19.05,19.05,0,0,1,0-38.1q.848,0,1.677.073a19.051,19.051,0,0,0,0,37.954Z" transform="translate(-96.916 -96.913)" fill="#fee45a"/>
        <circle id="Elipse_14268" data-name="Elipse 14268" cx="14.217" cy="14.217" r="14.217" transform="translate(18.29 18.29)" fill="#fee45a"/>
        <path id="Trazado_1048034" data-name="Trazado 1048034" d="M252.742,161.537a14.221,14.221,0,0,1-16.848,13.972,14.218,14.218,0,0,0,0-27.945,14.221,14.221,0,0,1,16.848,13.972Z" transform="translate(-206.017 -129.03)" fill="#ffd15b"/>
      </g>
      <g id="Grupo_1206229" data-name="Grupo 1206229" transform="translate(0 -0.002)">
        <path id="Trazado_1048035" data-name="Trazado 1048035" d="M16.3,31.792a2.927,2.927,0,0,0,.454.036,2.891,2.891,0,0,0,2.868-2.454A26.24,26.24,0,0,1,35.25,9.357l.061.368A2.215,2.215,0,0,0,38.9,11.074l5.6-4.6a2.215,2.215,0,0,0-.627-3.784L37.091.143a2.215,2.215,0,0,0-2.964,2.435l.151.91A32.146,32.146,0,0,0,13.885,28.469,2.906,2.906,0,0,0,16.3,31.792Zm-.481-3.017A30.179,30.179,0,0,1,35.7,5.061a.981.981,0,0,0,.647-1.088l-.284-1.716a.241.241,0,0,1,.089-.236.246.246,0,0,1,.156-.059.262.262,0,0,1,.093.018l6.78,2.548a.252.252,0,0,1,.071.431l-5.6,4.6a.252.252,0,0,1-.409-.154l-.26-1.571a.981.981,0,0,0-1.311-.759A28.205,28.205,0,0,0,17.688,29.068a.942.942,0,0,1-1.079.786.944.944,0,0,1-.786-1.079Z" transform="translate(-12.037 0.002)"/>
        <path id="Trazado_1048036" data-name="Trazado 1048036" d="M300.012,34.908a2.19,2.19,0,0,0-2.073-.778l-.91.151a32.145,32.145,0,0,0-24.98-20.392,2.906,2.906,0,1,0-.9,5.741,25.826,25.826,0,0,1,3.164.7.981.981,0,1,0,.545-1.885,27.783,27.783,0,0,0-3.4-.758.944.944,0,0,1-.409-1.7.936.936,0,0,1,.7-.169A30.178,30.178,0,0,1,295.456,35.7a.981.981,0,0,0,1.087.647l1.717-.284a.251.251,0,0,1,.276.338l-2.548,6.78a.252.252,0,0,1-.431.071l-4.6-5.6a.252.252,0,0,1,.153-.409l1.571-.26a.981.981,0,0,0,.759-1.311,28.317,28.317,0,0,0-14.175-15.535.981.981,0,0,0-.854,1.766A26.374,26.374,0,0,1,291.16,35.252l-.368.061a2.215,2.215,0,0,0-1.348,3.591l4.6,5.6a2.189,2.189,0,0,0,1.7.81,2.282,2.282,0,0,0,.373-.031,2.191,2.191,0,0,0,1.71-1.406l2.548-6.779A2.191,2.191,0,0,0,300.012,34.908Z" transform="translate(-233.541 -12.039)"/>
        <path id="Trazado_1048037" data-name="Trazado 1048037" d="M286.669,268.723a2.907,2.907,0,0,0-3.323,2.419,26.239,26.239,0,0,1-15.623,20.016l-.061-.369a2.215,2.215,0,0,0-3.591-1.348l-5.6,4.6a2.214,2.214,0,0,0,.627,3.784l6.779,2.548a2.231,2.231,0,0,0,.788.145,2.218,2.218,0,0,0,2.176-2.579l-.151-.911a31.554,31.554,0,0,0,2.959-1.287.981.981,0,1,0-.874-1.756,29.724,29.724,0,0,1-3.507,1.471.981.981,0,0,0-.647,1.087l.284,1.717a.252.252,0,0,1-.338.276l-6.78-2.548a.252.252,0,0,1-.071-.431l5.6-4.6a.252.252,0,0,1,.409.153l.26,1.571a.981.981,0,0,0,1.311.759,28.2,28.2,0,0,0,17.987-21.994.944.944,0,1,1,1.864.294,30.226,30.226,0,0,1-12.64,20.042.981.981,0,1,0,1.116,1.613,32.2,32.2,0,0,0,13.462-21.35,2.905,2.905,0,0,0-2.418-3.324Z" transform="translate(-223.958 -233.539)"/>
        <path id="Trazado_1048038" data-name="Trazado 1048038" d="M29.374,283.349A26.24,26.24,0,0,1,9.358,267.725l.368-.061a2.215,2.215,0,0,0,1.349-3.591l-4.6-5.6a2.215,2.215,0,0,0-3.784.627l-2.548,6.78a2.215,2.215,0,0,0,2.435,2.964l.91-.151A32.146,32.146,0,0,0,28.47,289.09a2.925,2.925,0,0,0,.454.036,2.906,2.906,0,0,0,.45-5.777Zm.48,3.018a.95.95,0,0,1-.93.8.962.962,0,0,1-.149-.012A30.178,30.178,0,0,1,5.062,267.276a.98.98,0,0,0-1.088-.647l-1.716.284a.252.252,0,0,1-.278-.338l2.548-6.78a.252.252,0,0,1,.431-.071l4.6,5.6a.253.253,0,0,1-.154.409l-1.571.26a.981.981,0,0,0-.759,1.311,28.206,28.206,0,0,0,21.993,17.987.944.944,0,0,1,.786,1.079Z" transform="translate(0 -223.961)"/>
        <path id="Trazado_1048039" data-name="Trazado 1048039" d="M142.939,122.909a20.031,20.031,0,1,0-20.031,20.031A20.053,20.053,0,0,0,142.939,122.909Zm-20.031,18.068a18.068,18.068,0,1,1,18.068-18.068A18.089,18.089,0,0,1,122.909,140.977Z" transform="translate(-89.42 -89.42)"/>
        <path id="Trazado_1048040" data-name="Trazado 1048040" d="M155.021,139.824a15.206,15.206,0,0,0-14.685,19.119.981.981,0,0,0,1.9-.507,13.243,13.243,0,1,1,1.738,3.869.981.981,0,0,0-1.637,1.081,15.2,15.2,0,1,0,12.69-23.562Z" transform="translate(-121.533 -121.533)"/>
        <path id="Trazado_1048041" data-name="Trazado 1048041" d="M221.359,195.387a.981.981,0,1,0-1.074,1.642,5.894,5.894,0,0,0,3.217,1.127v1.061a.981.981,0,1,0,1.962,0v-1.139a4.806,4.806,0,0,0,3.772-3.942,4.22,4.22,0,0,0-2.9-4.828c-.285-.1-.576-.206-.867-.316V184.35a3.024,3.024,0,0,1,1.195.572.981.981,0,0,0,1.255-1.509,5.157,5.157,0,0,0-2.449-1.057v-.948a.981.981,0,1,0-1.962,0v1.022c-.146.032-.293.07-.444.115a4,4,0,0,0-2.737,3.134,3.518,3.518,0,0,0,1.152,3.466,9.475,9.475,0,0,0,2.03,1.162v5.882A4.029,4.029,0,0,1,221.359,195.387Zm1.324-7.785a1.582,1.582,0,0,1-.434-1.559,2.076,2.076,0,0,1,1.253-1.577v3.659A5.888,5.888,0,0,1,222.683,187.6Zm2.994,3.556a2.289,2.289,0,0,1,1.624,2.653,2.884,2.884,0,0,1-1.837,2.229v-4.959Z" transform="translate(-191.082 -156.824)"/>
      </g>
    </g>
  </g>
</svg>
