<svg xmlns="http://www.w3.org/2000/svg" xmlns:xlink="http://www.w3.org/1999/xlink" width="456" height="344" viewBox="0 0 456 344">
  <defs>
    <clipPath id="clip-path">
      <rect id="Rectángulo_417733" data-name="Rectángulo 417733" width="456" height="344" transform="translate(1010 4912)" fill="#fff" stroke="#707070" stroke-width="1"/>
    </clipPath>
    <clipPath id="clip-path-2">
      <rect id="Rectángulo_417696" data-name="Rectángulo 417696" width="390.426" height="390.426"/>
    </clipPath>
    <clipPath id="clip-path-3">
      <circle id="Elipse_14325" data-name="Elipse 14325" cx="144.295" cy="144.295" r="144.295" transform="translate(0 204.062) rotate(-45)"/>
    </clipPath>
    <clipPath id="clip-path-4">
      <path id="Trazado_1048904" data-name="Trazado 1048904" d="M267.987,137.174l-5.613-7.119-50.252,39.617,5.613,7.119c6.567,8.33,23.141,6.216,37.017-4.725S274.555,145.5,267.987,137.174Z" transform="translate(-212.123 -130.055)"/>
    </clipPath>
    <clipPath id="clip-path-5">
      <path id="Trazado_1048912" data-name="Trazado 1048912" d="M84.157,86.767l6.61-6.906,52.786,43.3-6.61,6.906c-7.734,8.081-25.82,4.94-40.4-7.015S76.423,94.849,84.157,86.767Z" transform="translate(-80.666 -79.861)"/>
    </clipPath>
    <clipPath id="clip-path-6">
      <path id="Trazado_1048920" data-name="Trazado 1048920" d="M426.873,238.749l-6.2-10.191-60.4,36.759,6.2,10.191c7.257,11.924,26.661,13.362,43.34,3.212S434.13,250.673,426.873,238.749Z" transform="translate(-360.271 -228.558)"/>
    </clipPath>
    <clipPath id="clip-path-7">
      <path id="Trazado_1048933" data-name="Trazado 1048933" d="M209.968,380.228l-11.693-4.791-26.691,65.148,11.693,4.791c13.683,5.606,30.749-4.434,38.12-22.424S223.651,385.833,209.968,380.228Z" transform="translate(-171.584 -375.437)"/>
    </clipPath>
    <clipPath id="clip-path-8">
      <rect id="Rectángulo_417730" data-name="Rectángulo 417730" width="480.596" height="480.596"/>
    </clipPath>
    <clipPath id="clip-path-9">
      <rect id="Rectángulo_417731" data-name="Rectángulo 417731" width="434.082" height="315.271"/>
    </clipPath>
    <clipPath id="clip-path-10">
      <rect id="Rectángulo_417732" data-name="Rectángulo 417732" width="501.596" height="480.596" transform="translate(-21)"/>
    </clipPath>
  </defs>
  <g id="Enmascarar_grupo_1098915" data-name="Enmascarar grupo 1098915" transform="translate(-1010 -4912)" clip-path="url(#clip-path)">
    <g id="Grupo_1207038" data-name="Grupo 1207038" transform="translate(10 14.388)">
      <g id="OBJECTS" transform="translate(1010 4868.358)">
        <g id="Grupo_1206982" data-name="Grupo 1206982" transform="translate(0 10.622)">
          <g id="Grupo_1206980" data-name="Grupo 1206980" transform="translate(0 44.771)">
            <path id="Trazado_1048868" data-name="Trazado 1048868" d="M61.035,68.811C95,47.849,162.169,63.332,222.569,108.678,291.6,160.5,325.642,231.7,298.607,267.715S193.7,290.906,124.668,239.082C65.9,194.96,32.485,136.787,40.539,98.249" transform="translate(0.317 -59.606)" fill="none" stroke="#94af85" stroke-miterlimit="10" stroke-width="1.691" stroke-dasharray="6.813 13.626"/>
            <ellipse id="Elipse_14322" data-name="Elipse 14322" cx="156.291" cy="81.533" rx="156.291" ry="81.533" transform="translate(0 211.694) rotate(-36.899)" fill="none" stroke="#94af85" stroke-miterlimit="10" stroke-width="1.691" stroke-dasharray="6.813 13.626"/>
          </g>
          <g id="Grupo_1206981" data-name="Grupo 1206981" transform="translate(60.433 0)">
            <ellipse id="Elipse_14323" data-name="Elipse 14323" cx="156.291" cy="81.533" rx="156.291" ry="81.533" transform="translate(0 187.675) rotate(-36.899)" fill="none" stroke="#94af85" stroke-miterlimit="10" stroke-width="1.691" stroke-dasharray="6.813 13.626"/>
          </g>
        </g>
        <g id="Grupo_1206985" data-name="Grupo 1206985" transform="translate(329.118 295.758)">
          <g id="Grupo_1206983" data-name="Grupo 1206983">
            <path id="Trazado_1048869" data-name="Trazado 1048869" d="M427.35,435.33a102.747,102.747,0,0,0,8.713-8.86c11.346-12.047,16.861-20.889,24.075-35.675,2.624-5.379,6.991-17.7,5.339-23.365-8.761,3.447-16.047,9.811-22.624,16.522a116.255,116.255,0,0,0-14.878,18.113c-7.417,11.5-17.939,42.492-17.939,42.492" transform="translate(-410.035 -367.43)" fill="#a9c79b"/>
            <path id="Trazado_1048870" data-name="Trazado 1048870" d="M469.362,367.43c-3.219,14.866-19.207,46.611-41.593,69.581" transform="translate(-413.921 -367.43)" fill="none" stroke="#bfd7b3" stroke-miterlimit="10" stroke-width="0.606"/>
            <path id="Trazado_1048871" data-name="Trazado 1048871" d="M468.219,367.43c-9.839,13.762-30.269,48.068-45.663,71.911" transform="translate(-412.779 -367.43)" fill="none" stroke="#bfd7b3" stroke-miterlimit="10" stroke-width="0.606"/>
            <path id="Trazado_1048872" data-name="Trazado 1048872" d="M467.138,367.43c-17.06,12.966-38.935,49.219-49.515,73.808" transform="translate(-411.698 -367.43)" fill="none" stroke="#bfd7b3" stroke-miterlimit="10" stroke-width="0.606"/>
            <path id="Trazado_1048873" data-name="Trazado 1048873" d="M466.414,367.43c-26.045,15.733-46.7,52.309-52.1,75.185" transform="translate(-410.974 -367.43)" fill="none" stroke="#bfd7b3" stroke-miterlimit="10" stroke-width="0.606"/>
          </g>
          <g id="Grupo_1206984" data-name="Grupo 1206984" transform="translate(2.479 47.074)">
            <path id="Trazado_1048874" data-name="Trazado 1048874" d="M427.119,458.392a71.535,71.535,0,0,0,8.406-2.7c11.116-3.84,17.516-7.62,26.962-14.627,3.436-2.549,10.28-8.952,11.137-13.145-6.629-.787-13.31.8-19.664,2.852a81.285,81.285,0,0,0-15.349,6.519c-8.475,4.83-25.4,21.092-25.4,21.092" transform="translate(-413.21 -427.716)" fill="#a9c79b"/>
            <path id="Trazado_1048875" data-name="Trazado 1048875" d="M476.762,427.979c-6.974,8.424-27.567,23.3-49.234,30.363" transform="translate(-416.348 -427.774)" fill="none" stroke="#bfd7b3" stroke-miterlimit="10" stroke-width="0.51"/>
            <path id="Trazado_1048876" data-name="Trazado 1048876" d="M475.829,427.979c-10.746,5.454-34.973,20.45-52.557,30.463" transform="translate(-415.415 -427.774)" fill="none" stroke="#bfd7b3" stroke-miterlimit="10" stroke-width="0.51"/>
            <path id="Trazado_1048877" data-name="Trazado 1048877" d="M474.975,427.979c-15,2.475-40.776,18.224-55.6,30.363" transform="translate(-414.561 -427.774)" fill="none" stroke="#bfd7b3" stroke-miterlimit="10" stroke-width="0.51"/>
            <path id="Trazado_1048878" data-name="Trazado 1048878" d="M474.393,427.979c-21.539,1.176-46.662,17.551-57.673,30.363" transform="translate(-413.979 -427.774)" fill="none" stroke="#bfd7b3" stroke-miterlimit="10" stroke-width="0.51"/>
          </g>
        </g>
        <g id="Grupo_1206986" data-name="Grupo 1206986" transform="translate(0.089 0)">
          <circle id="Elipse_14324" data-name="Elipse 14324" cx="144.295" cy="144.295" r="144.295" transform="translate(0 204.062) rotate(-45)" fill="#a9c79b"/>
          <path id="Trazado_1048879" data-name="Trazado 1048879" d="M214.236,66.28c-55.489,5.186-84.3,41.954-98.465,72.1s-16.456,64.956-10.827,97.786c4.966,28.964,16.221,57.359,35.67,79.388s47.651,37.116,77.037,37.237" transform="translate(-13.523 -5.676)" fill="none" stroke="#94af85" stroke-miterlimit="10" stroke-width="1.2"/>
          <path id="Trazado_1048880" data-name="Trazado 1048880" d="M227.344,66.28c-24.355,13.915-48.892,47.705-57.121,74.521s-9,55.338-7.929,83.368c1.034,27,3.818,54.348,13.707,79.491S207.7,344.5,232.324,354.033" transform="translate(-26.631 -5.676)" fill="none" stroke="#94af85" stroke-miterlimit="10" stroke-width="1.2"/>
          <path id="Trazado_1048881" data-name="Trazado 1048881" d="M249.9,352.791c-9.131-91.81-9.456-194.356-4.98-286.511" transform="translate(-44.206 -5.676)" fill="none" stroke="#94af85" stroke-miterlimit="10" stroke-width="1.2"/>
          <path id="Trazado_1048882" data-name="Trazado 1048882" d="M251.028,354.033c43.718-34.243,74.209-84.193,74.212-139.725,0-67.9-25.054-126.011-77.984-148.028" transform="translate(-45.334 -5.676)" fill="none" stroke="#94af85" stroke-miterlimit="10" stroke-width="1.2"/>
          <path id="Trazado_1048883" data-name="Trazado 1048883" d="M247.256,66.28c33.96-.148,83.19,30.452,100.019,59.95s20.466,65.061,16.548,98.794c-3.446,29.669-12.728,59.185-30.6,83.119s-52.469,43.026-82.2,45.891" transform="translate(-45.334 -5.676)" fill="none" stroke="#94af85" stroke-miterlimit="10" stroke-width="1.2"/>
          <path id="Trazado_1048884" data-name="Trazado 1048884" d="M65.466,257.5H353.855" transform="translate(-5.495 -47.582)" fill="none" stroke="#94af85" stroke-miterlimit="10" stroke-width="1.2"/>
          <line id="Línea_3618" data-name="Línea 3618" x2="242.716" transform="translate(81.119 128.498)" fill="none" stroke="#94af85" stroke-miterlimit="10" stroke-width="1.2"/>
          <path id="Trazado_1048885" data-name="Trazado 1048885" d="M108,361.773H329.763" transform="translate(-14.816 -70.433)" fill="none" stroke="#94af85" stroke-miterlimit="10" stroke-width="1.2"/>
        </g>
        <g id="Grupo_1206988" data-name="Grupo 1206988" transform="translate(8.941 8.849)">
          <g id="Grupo_1206987" data-name="Grupo 1206987" clip-path="url(#clip-path-2)">
            <path id="Trazado_1048886" data-name="Trazado 1048886" d="M297.983,31.965,253.2,52.335a6.006,6.006,0,0,0-.84,10.467l10.047,6.684-118.849,158.4H60.544a14.859,14.859,0,0,0-13.285,8.2l-24.28,48.449H-90.17v29.72H32.153a14.859,14.859,0,0,0,13.285-8.2l24.28-48.449h81.267a14.858,14.858,0,0,0,11.886-5.942L287.19,85.974l8.471,5.635a6.006,6.006,0,0,0,9.33-4.819l1.482-49.177A6.006,6.006,0,0,0,297.983,31.965Z" transform="translate(19.761 -6.885)" fill="#4b56dd"/>
            <path id="Trazado_1048887" data-name="Trazado 1048887" d="M271.537,130.416,182.127,249.581H99.114a14.859,14.859,0,0,0-13.285,8.2" transform="translate(-18.809 -28.58)" fill="none" stroke="#2d2b58" stroke-miterlimit="10" stroke-width="1.269"/>
          </g>
        </g>
        <g id="Grupo_1206995" data-name="Grupo 1206995" transform="translate(0.089 0)">
          <g id="Grupo_1206994" data-name="Grupo 1206994" transform="translate(0 0)" clip-path="url(#clip-path-3)">
            <g id="Grupo_1206989" data-name="Grupo 1206989" transform="translate(194.777 69.529)">
              <path id="Trazado_1048888" data-name="Trazado 1048888" d="M374.866,162.251s-103.5,45.034-109.3,47.946a15.78,15.78,0,0,0-9.74-3.4c-5.732.259-11.989.718-17.721.977,1.049,7.988,2.639,15.841,3.689,23.829l34.532,25.576,107.527-39.916Z" transform="translate(-238.105 -96.237)" fill="#cc8179"/>
              <path id="Trazado_1048889" data-name="Trazado 1048889" d="M273.067,223.569l4.609,5.4" transform="translate(-245.767 -109.675)" fill="none" stroke="#2d2b58" stroke-linecap="round" stroke-linejoin="round" stroke-miterlimit="10" stroke-width="1.679"/>
              <path id="Trazado_1048890" data-name="Trazado 1048890" d="M422.234,198.737,480.988,160.8V77.71l-67.74,66.014" transform="translate(-276.487 -77.71)" fill="#cc8179"/>
            </g>
            <g id="Grupo_1206990" data-name="Grupo 1206990" transform="translate(56.96 104.935)">
              <path id="Trazado_1048891" data-name="Trazado 1048891" d="M243.272,254.028a93.975,93.975,0,0,0-17.961-27.933,97.568,97.568,0,0,0-32.13-23.112c-22.459-9.978-44.637-19.741-67.1-29.718-4.946-8.287-26.532-41.926-31.478-50.213l-33,50.15c8.416,13.709,17.388,27.224,28.7,38.659s24.818,21.518,40.565,24.8c14.84,3.094,43.49,13.549,43.49,13.549s19.361,24.614,33.207,28.794c2.716.82,6.359-.819,6.915-3.6a7.037,7.037,0,0,0,6.751-.513c1.962-1.309,3.7-3.393,3.6-5.749a7.991,7.991,0,0,0,6.638-1.481,7.86,7.86,0,0,0,3.29-5.881,6.171,6.171,0,0,0,6.6-1.237C243.058,258.879,244.152,256.234,243.272,254.028Z" transform="translate(-61.61 -123.053)" fill="#f9b1a0"/>
              <path id="Trazado_1048892" data-name="Trazado 1048892" d="M142.772,188l-5.007.583" transform="translate(-78.299 -137.286)" fill="none" stroke="#2d2b58" stroke-linecap="round" stroke-linejoin="round" stroke-miterlimit="10" stroke-width="1.679"/>
              <path id="Trazado_1048893" data-name="Trazado 1048893" d="M279.207,294.833l2.884,3.985" transform="translate(-109.296 -160.698)" fill="none" stroke="#2d2b58" stroke-linecap="round" stroke-linejoin="round" stroke-miterlimit="10" stroke-width="1.679"/>
              <path id="Trazado_1048894" data-name="Trazado 1048894" d="M266.16,304.678l4.245,4.3" transform="translate(-106.437 -162.856)" fill="none" stroke="#2d2b58" stroke-linecap="round" stroke-linejoin="round" stroke-miterlimit="10" stroke-width="1.679"/>
              <path id="Trazado_1048895" data-name="Trazado 1048895" d="M253.068,314.3l2.914,2.713" transform="translate(-103.568 -164.964)" fill="none" stroke="#2d2b58" stroke-linecap="round" stroke-linejoin="round" stroke-miterlimit="10" stroke-width="1.679"/>
            </g>
            <g id="Grupo_1206993" data-name="Grupo 1206993" transform="translate(161.695 181.067)">
              <g id="Grupo_1206991" data-name="Grupo 1206991" transform="translate(0 31.476)">
                <path id="Trazado_1048896" data-name="Trazado 1048896" d="M226.845,305.418l5.3-13.032a8.12,8.12,0,0,0,.82-3.258A3.028,3.028,0,0,0,231,286.44c-2.421,2.1-4.878,4.16-7.3,6.257l4.057-12.552a7.438,7.438,0,0,0,.533-3.589,2.559,2.559,0,0,0-2.507-2.206c-3.316,3.661-6.893,7.189-10.208,10.85q1.249-5.853,2.5-11.7a9.944,9.944,0,0,0,.245-4.619,3.21,3.21,0,0,0-3.361-2.434l-7.141,9.768q.45-4.9.9-9.795a8.18,8.18,0,0,0-.28-3.925,2.782,2.782,0,0,0-3.278-1.521l-9.426,19.046a6.25,6.25,0,0,0,2.354,4.427,6.628,6.628,0,0,0,4.987,1.363,6.373,6.373,0,0,0,3.258,5.07,6.729,6.729,0,0,0,6.091.476,6.1,6.1,0,0,0,2.126,5.569,6.485,6.485,0,0,0,6.027,1.281,5.294,5.294,0,0,0,.986,5.417A5.412,5.412,0,0,0,226.845,305.418Z" transform="translate(-195.739 -260.861)" fill="#cc8179"/>
                <path id="Trazado_1048897" data-name="Trazado 1048897" d="M204.72,289.836l4.653-9.655" transform="translate(-197.707 -265.095)" fill="none" stroke="#2d2b58" stroke-linecap="round" stroke-linejoin="round" stroke-miterlimit="10" stroke-width="1.679"/>
                <path id="Trazado_1048898" data-name="Trazado 1048898" d="M216.536,297.939l3.752-7.086" transform="translate(-200.297 -267.434)" fill="none" stroke="#2d2b58" stroke-linecap="round" stroke-linejoin="round" stroke-miterlimit="10" stroke-width="1.679"/>
                <path id="Trazado_1048899" data-name="Trazado 1048899" d="M226.372,307.5l4.216-6.22" transform="translate(-202.452 -269.719)" fill="none" stroke="#2d2b58" stroke-linecap="round" stroke-linejoin="round" stroke-miterlimit="10" stroke-width="1.679"/>
              </g>
              <g id="Grupo_1206992" data-name="Grupo 1206992" transform="translate(26.243)">
                <path id="Trazado_1048900" data-name="Trazado 1048900" d="M236.185,220.551l-6.838,23.354c.607.933,2.492.916,3.532.516a7.4,7.4,0,0,0,2.594-2.056L247.5,229.442Z" transform="translate(-229.347 -220.551)" fill="#cc8179"/>
                <path id="Trazado_1048901" data-name="Trazado 1048901" d="M249.049,235.258l1.876-2.084" transform="translate(-233.665 -223.317)" fill="none" stroke="#2d2b58" stroke-linecap="round" stroke-linejoin="round" stroke-miterlimit="10" stroke-width="1.679"/>
              </g>
            </g>
            <line id="Línea_3619" data-name="Línea 3619" x2="17.796" y2="17.107" transform="translate(330.564 137.355)" fill="none" stroke="#2d2b58" stroke-linecap="round" stroke-linejoin="round" stroke-miterlimit="10" stroke-width="1.679"/>
          </g>
        </g>
        <g id="Grupo_1207008" data-name="Grupo 1207008" transform="translate(69.64 55.115)">
          <g id="Grupo_1206999" data-name="Grupo 1206999" transform="translate(93.156 40.346)">
            <path id="Trazado_1048902" data-name="Trazado 1048902" d="M267.987,137.174l-5.613-7.119-50.252,39.617,5.613,7.119c6.567,8.33,23.141,6.216,37.017-4.725S274.555,145.5,267.987,137.174Z" transform="translate(-200.342 -115.113)" fill="#e9b14c"/>
            <g id="Grupo_1206997" data-name="Grupo 1206997" transform="translate(11.781 14.942)">
              <g id="Grupo_1206996" data-name="Grupo 1206996" clip-path="url(#clip-path-4)">
                <path id="Trazado_1048903" data-name="Trazado 1048903" d="M276.03,156.927l-13.78-17.479,2.535-2,13.78,17.479Zm-2.059,8.309-13.78-17.479-2.535,2,13.78,17.479Zm-4.6,10.309L255.6,158.066l-2.535,2,13.78,17.479Zm-31.557,11.507-13.78-17.479-2.535,2,13.78,17.479Zm11.1-2.062-13.78-17.479-2.535,2,13.78,17.479Zm11.1-2.062-13.78-17.479-2.535,2,13.78,17.479Z" transform="translate(-214.179 -131.675)" fill="#d8892b"/>
              </g>
            </g>
            <ellipse id="Elipse_14326" data-name="Elipse 14326" cx="31.995" cy="19.207" rx="31.995" ry="19.207" transform="translate(0 39.616) rotate(-38.251)" fill="#ffd652"/>
            <path id="Trazado_1048905" data-name="Trazado 1048905" d="M262.518,130.236c6.567,8.33.642,23.952-13.235,34.892s-30.449,13.055-37.017,4.725" transform="translate(-200.374 -115.153)" fill="none" stroke="#2d2b58" stroke-miterlimit="10" stroke-width="1.2"/>
            <path id="Trazado_1048906" data-name="Trazado 1048906" d="M246.535,160.545c-10.765,8.486-23.4,10.411-28.217,4.3s0-17.948,10.766-26.434,23.4-10.411,28.217-4.3S257.3,152.058,246.535,160.545Z" transform="translate(-201.29 -115.219)" fill="#e9b14c"/>
            <path id="Trazado_1048907" data-name="Trazado 1048907" d="M216.477,158.251c.351-6.146,4.992-13.833,12.613-19.841,10.765-8.486,23.4-10.411,28.217-4.3" transform="translate(-201.296 -115.219)" fill="none" stroke="#2d2b58" stroke-miterlimit="10" stroke-width="1.2"/>
            <path id="Trazado_1048908" data-name="Trazado 1048908" d="M269.742,142.7c.376,4.3-2.024,9.2-4.991,13.06" transform="translate(-211.876 -117.884)" fill="none" stroke="#2d2b58" stroke-miterlimit="10" stroke-width="1.2"/>
            <g id="Grupo_1206998" data-name="Grupo 1206998" transform="translate(28.59 25.602)">
              <path id="Trazado_1048909" data-name="Trazado 1048909" d="M238.384,161.018a5.216,5.216,0,0,1-3.1-1.309,5.646,5.646,0,0,1-1.356-5.859,10.685,10.685,0,0,1,1.783-3.627l-.974-.893,1.432-1.561.824.756.343-.374c.2-.22.419-.426.62-.646l-.839-.77,1.432-1.561,1,.921a11.819,11.819,0,0,1,3.8-2.064,5.551,5.551,0,0,1,5.517.932,5.679,5.679,0,0,1,1.642,2.72l-2.719,2.122a4.464,4.464,0,0,0-1.179-2.053,2.787,2.787,0,0,0-2.932-.5,6.073,6.073,0,0,0-1.791.989l3.73,3.422-1.432,1.561-3.954-3.628c-.217.206-.439.448-.64.668l-.322.351,3.97,3.642-1.432,1.561-3.76-3.45a5.855,5.855,0,0,0-.918,1.992,2.955,2.955,0,0,0,.9,2.894,4.247,4.247,0,0,0,2.232,1Z" transform="translate(-233.65 -143.708)" fill="#d8892b"/>
            </g>
          </g>
          <g id="Grupo_1207003" data-name="Grupo 1207003" transform="translate(0 0)">
            <path id="Trazado_1048910" data-name="Trazado 1048910" d="M84.157,86.767l6.61-6.906,52.786,43.3-6.61,6.906c-7.734,8.081-25.82,4.94-40.4-7.015S76.423,94.849,84.157,86.767Z" transform="translate(-78.377 -63.767)" fill="#e9b14c"/>
            <g id="Grupo_1207001" data-name="Grupo 1207001" transform="translate(2.289 16.094)">
              <g id="Grupo_1207000" data-name="Grupo 1207000" clip-path="url(#clip-path-5)">
                <path id="Trazado_1048911" data-name="Trazado 1048911" d="M71.862,104.31,88.09,87.354l2.663,2.185L74.525,106.5Zm7.077,12.944L95.167,100.3,92.5,98.113,76.275,115.07Zm4.413,10.759,16.228-16.956-2.663-2.185L80.688,125.829ZM117.328,141.6l16.228-16.956-2.664-2.185-16.228,16.956Zm-12.07-2.76,16.228-16.956-2.663-2.185-16.228,16.956Zm-12.07-2.76,16.228-16.956-2.663-2.185L90.525,133.9Z" transform="translate(-78.737 -81.503)" fill="#d8892b"/>
              </g>
            </g>
            <ellipse id="Elipse_14327" data-name="Elipse 14327" cx="20.162" cy="34.189" rx="20.162" ry="34.189" transform="translate(0 32.203) rotate(-52.995)" fill="#ffd652"/>
            <path id="Trazado_1048913" data-name="Trazado 1048913" d="M93.458,78.5c-7.734,8.081-2.187,24.324,12.389,36.28s32.663,15.1,40.4,7.015" transform="translate(-80.416 -63.469)" fill="none" stroke="#2d2b58" stroke-miterlimit="10" stroke-width="1.2"/>
            <path id="Trazado_1048914" data-name="Trazado 1048914" d="M112.284,110.582c11.308,9.274,25.075,11.986,30.751,6.056s1.109-18.256-10.2-27.53-25.075-11.986-30.751-6.056S100.977,101.308,112.284,110.582Z" transform="translate(-82.537 -63.778)" fill="#e9b14c"/>
            <path id="Trazado_1048915" data-name="Trazado 1048915" d="M146.158,110.042c-.005-6.273-4.631-14.368-12.637-20.935-11.308-9.274-25.075-11.986-30.751-6.056" transform="translate(-83.221 -63.778)" fill="none" stroke="#2d2b58" stroke-miterlimit="10" stroke-width="1.2"/>
            <g id="Grupo_1207002" data-name="Grupo 1207002" transform="translate(28.112 22.53)">
              <path id="Trazado_1048916" data-name="Trazado 1048916" d="M136.442,109.705a10.472,10.472,0,0,1-3.588,1.957,9.81,9.81,0,0,1-3.856.49l-2.209-3.878a10.178,10.178,0,0,0,3.353-.35A7.36,7.36,0,0,0,133,106.486a3.9,3.9,0,0,0,1.172-1.456,2.038,2.038,0,0,0,.1-1.333,2.568,2.568,0,0,0-.76-1.171,2.61,2.61,0,0,0-1.585-.761,4.668,4.668,0,0,0-1.8.243q-.955.308-2,.742a22.375,22.375,0,0,1-2.211.778,8.848,8.848,0,0,1-2.435.354,6.67,6.67,0,0,1-2.635-.559,9.661,9.661,0,0,1-2.822-1.931,9.285,9.285,0,0,1-2.3-3.211,5.421,5.421,0,0,1-.283-3.474,6.4,6.4,0,0,1,2.268-3.291,9.653,9.653,0,0,1,2.842-1.636,9.378,9.378,0,0,1,3.3-.611l2.283,3.816a9.954,9.954,0,0,0-2.87.508,6.635,6.635,0,0,0-2.136,1.16,3.654,3.654,0,0,0-1.149,1.459,2,2,0,0,0-.035,1.368,2.992,2.992,0,0,0,.808,1.2,2.683,2.683,0,0,0,1.6.771,4.126,4.126,0,0,0,1.776-.248q.917-.323,1.986-.775a18.708,18.708,0,0,1,2.235-.772,9.909,9.909,0,0,1,2.4-.351,6.649,6.649,0,0,1,2.62.526,9.2,9.2,0,0,1,2.813,1.89,8.97,8.97,0,0,1,2.255,3.181,5.58,5.58,0,0,1,.266,3.49A6.381,6.381,0,0,1,136.442,109.705Zm2.174,3.25-24.88-23.28,1.872-1.573,24.879,23.28Z" transform="translate(-113.736 -88.103)" fill="#d8892b"/>
            </g>
            <path id="Trazado_1048917" data-name="Trazado 1048917" d="M99.655,91.5c-.679,4.346,1.655,9.476,4.678,13.581" transform="translate(-82.513 -66.318)" fill="none" stroke="#2d2b58" stroke-miterlimit="10" stroke-width="1.2"/>
          </g>
          <g id="Grupo_1207007" data-name="Grupo 1207007" transform="translate(208.074 112.211)">
            <path id="Trazado_1048918" data-name="Trazado 1048918" d="M426.873,238.749l-6.2-10.191-60.4,36.759,6.2,10.191c7.257,11.924,26.661,13.362,43.34,3.212S434.13,250.673,426.873,238.749Z" transform="translate(-347.726 -208.565)" fill="#e9b14c"/>
            <g id="Grupo_1207005" data-name="Grupo 1207005" transform="translate(12.545 19.993)">
              <g id="Grupo_1207004" data-name="Grupo 1207004" clip-path="url(#clip-path-6)">
                <path id="Trazado_1048919" data-name="Trazado 1048919" d="M435.383,264.7l-15.227-25.02,3.048-1.855,15.227,25.02Zm-2.791,9.786-15.227-25.02-3.048,1.855,15.227,25.02Zm-5.838,11.642-15.227-25.02-3.048,1.855,15.227,25.02Zm-37.3,6.524-15.227-25.02-3.048,1.854,15.227,25.02Zm13.022.163L387.25,267.8,384.2,269.65l15.227,25.02Zm13.022.162-15.227-25.02-3.048,1.855,15.227,25.02Z" transform="translate(-362.662 -230.589)" fill="#d8892b"/>
              </g>
            </g>
            <ellipse id="Elipse_14328" data-name="Elipse 14328" cx="35.674" cy="25.599" rx="35.674" ry="25.599" transform="matrix(0.854, -0.52, 0.52, 0.854, 0, 37.094)" fill="#ffd652"/>
            <path id="Trazado_1048921" data-name="Trazado 1048921" d="M422.208,230.975c7.35,12.077-.335,30.171-17.165,40.415s-36.433,8.756-43.783-3.322" transform="translate(-347.943 -209.095)" fill="none" stroke="#2d2b58" stroke-miterlimit="10" stroke-width="1.2"/>
            <ellipse id="Elipse_14329" data-name="Elipse 14329" cx="27.674" cy="18.784" rx="27.674" ry="18.784" transform="matrix(0.854, -0.52, 0.52, 0.854, 9.818, 37.839)" fill="#e9b14c"/>
            <path id="Trazado_1048922" data-name="Trazado 1048922" d="M366.895,253.167c.693-7.613,6.505-16.086,15.749-21.712,13.056-7.946,28.012-7.2,33.406,1.659" transform="translate(-349.178 -207.993)" fill="none" stroke="#2d2b58" stroke-miterlimit="10" stroke-width="1.2"/>
            <g id="Grupo_1207006" data-name="Grupo 1207006" transform="translate(27.051 27.808)">
              <path id="Trazado_1048923" data-name="Trazado 1048923" d="M382.948,256.964a14.107,14.107,0,0,1-1.808-4.62,10.579,10.579,0,0,1-.054-4.379l4.839-1a10.81,10.81,0,0,0-.042,3.78,9.764,9.764,0,0,0,1.3,3.638,6.054,6.054,0,0,0,1.546,1.807,2.908,2.908,0,0,0,1.547.6,2.559,2.559,0,0,0,1.474-.4,2.227,2.227,0,0,0,1.1-1.45,5.042,5.042,0,0,0-.042-2.047q-.232-1.151-.6-2.453a27.275,27.275,0,0,1-.612-2.692,9.642,9.642,0,0,1-.086-2.782,6,6,0,0,1,1.01-2.667,8.2,8.2,0,0,1,2.642-2.371,8.983,8.983,0,0,1,4.071-1.342,7.208,7.208,0,0,1,4.106.955,9.971,9.971,0,0,1,3.549,3.668,13.2,13.2,0,0,1,1.533,3.692,10.5,10.5,0,0,1,.271,3.82l-4.776,1.1a11.1,11.1,0,0,0-.208-3.31,8.969,8.969,0,0,0-1.07-2.749,5.681,5.681,0,0,0-1.553-1.783,2.776,2.776,0,0,0-1.6-.536,2.941,2.941,0,0,0-1.516.443,2.287,2.287,0,0,0-1.119,1.463,4.5,4.5,0,0,0,.05,2.026q.254,1.116.64,2.445a22.8,22.8,0,0,1,.6,2.715,10.806,10.806,0,0,1,.087,2.744,6.012,6.012,0,0,1-.969,2.663,7.792,7.792,0,0,1-2.592,2.377,8.7,8.7,0,0,1-4.029,1.3,7.444,7.444,0,0,1-4.123-.979A9.944,9.944,0,0,1,382.948,256.964Zm-4.1,1.185,30.615-18.632,1.589,2.611L380.438,260.76Z" transform="translate(-378.849 -238.567)" fill="#d8892b"/>
            </g>
            <path id="Trazado_1048924" data-name="Trazado 1048924" d="M430.482,245.219c.247,5.475-2.8,11.02-6.469,15.117" transform="translate(-361.695 -212.216)" fill="none" stroke="#2d2b58" stroke-miterlimit="10" stroke-width="1.2"/>
          </g>
        </g>
        <path id="Trazado_1048925" data-name="Trazado 1048925" d="M457.221,0" transform="translate(-76.359 374.198)" fill="none" stroke="#2d2b58" stroke-width="1.2"/>
        <g id="Grupo_1207011" data-name="Grupo 1207011" transform="translate(38.27 37.269)">
          <g id="Grupo_1207009" data-name="Grupo 1207009" transform="translate(197.899 0)">
            <path id="Trazado_1048926" data-name="Trazado 1048926" d="M306.952,36.515c-8.225.947-14.914,7.9-15.836,16.462a19.382,19.382,0,0,0,2.246,11.454,15.487,15.487,0,0,0,1.575,2.257l10.991,13.594a4.252,4.252,0,0,0,6.676-.08l7.607-9.882c.719-.932,2.054-2.757,3.218-4.411a18.859,18.859,0,0,0,3.581-10.681V55.14C327.011,44.084,317.816,35.264,306.952,36.515Zm3.8,26.015c-5.577,1.287-10.435-3.772-9.2-9.577a7.747,7.747,0,0,1,5.7-5.935c5.577-1.287,10.436,3.772,9.2,9.578A7.748,7.748,0,0,1,310.753,62.53Zm-3.8-26.015c-8.225.947-14.914,7.9-15.836,16.462a19.382,19.382,0,0,0,2.246,11.454" transform="translate(-291 -36.396)" fill="#d75a59"/>
            <path id="Trazado_1048927" data-name="Trazado 1048927" d="M306.952,36.548c-8.225.947-14.914,7.9-15.836,16.462a19.382,19.382,0,0,0,2.246,11.454" transform="translate(-291 -36.43)" fill="none" stroke="#2d2b58" stroke-miterlimit="10" stroke-width="1.2"/>
          </g>
          <g id="Grupo_1207010" data-name="Grupo 1207010" transform="translate(0 132.26)">
            <path id="Trazado_1048928" data-name="Trazado 1048928" d="M57.554,205.923c-10.309,1.187-18.694,9.9-19.848,20.632a24.294,24.294,0,0,0,2.816,14.356,19.387,19.387,0,0,0,1.974,2.829l13.776,17.038a5.329,5.329,0,0,0,8.368-.1l9.534-12.386c.9-1.168,2.574-3.455,4.034-5.528A23.629,23.629,0,0,0,82.7,229.378v-.11C82.695,215.411,71.17,204.355,57.554,205.923Zm4.764,32.607c-6.99,1.612-13.08-4.727-11.53-12a9.71,9.71,0,0,1,7.146-7.439c6.99-1.613,13.081,4.727,11.531,12A9.711,9.711,0,0,1,62.318,238.53Zm-4.764-32.607c-10.309,1.187-18.694,9.9-19.848,20.632a24.294,24.294,0,0,0,2.816,14.356" transform="translate(-37.56 -205.775)" fill="#d75a59"/>
            <path id="Trazado_1048929" data-name="Trazado 1048929" d="M57.554,205.965c-10.309,1.187-18.694,9.9-19.848,20.632a24.294,24.294,0,0,0,2.816,14.356" transform="translate(-37.56 -205.817)" fill="none" stroke="#2d2b58" stroke-miterlimit="10" stroke-width="1.504"/>
          </g>
        </g>
        <g id="Grupo_1207028" data-name="Grupo 1207028" transform="translate(116.262 277.579)">
          <g id="Grupo_1207012" data-name="Grupo 1207012" transform="translate(106.541)">
            <rect id="Rectángulo_417697" data-name="Rectángulo 417697" width="136.455" height="95.923" fill="#60928b"/>
            <rect id="Rectángulo_417698" data-name="Rectángulo 417698" width="15.59" height="95.923" transform="translate(98.468)" fill="#f9ebeb"/>
            <rect id="Rectángulo_417699" data-name="Rectángulo 417699" width="26.243" height="33.007" transform="translate(21.202)" fill="#f9ebeb"/>
            <path id="Trazado_1048930" data-name="Trazado 1048930" d="M369.221,344.15v95.923" transform="translate(-294.776 -344.15)" fill="none" stroke="#2d2b58" stroke-miterlimit="10" stroke-width="1.2"/>
          </g>
          <g id="Grupo_1207027" data-name="Grupo 1207027" transform="translate(0 13.491)">
            <g id="Grupo_1207014" data-name="Grupo 1207014" transform="translate(61.672 67.758)">
              <rect id="Rectángulo_417700" data-name="Rectángulo 417700" width="67.249" height="14.674" fill="#ffd652"/>
              <g id="Grupo_1207013" data-name="Grupo 1207013" transform="translate(7.514)">
                <rect id="Rectángulo_417701" data-name="Rectángulo 417701" width="3.919" height="14.674" fill="#e9b14c"/>
                <rect id="Rectángulo_417702" data-name="Rectángulo 417702" width="3.919" height="14.674" transform="translate(12.561)" fill="#e9b14c"/>
                <rect id="Rectángulo_417703" data-name="Rectángulo 417703" width="3.919" height="14.674" transform="translate(25.122)" fill="#e9b14c"/>
                <rect id="Rectángulo_417704" data-name="Rectángulo 417704" width="3.919" height="14.674" transform="translate(37.684)" fill="#e9b14c"/>
                <rect id="Rectángulo_417705" data-name="Rectángulo 417705" width="3.919" height="14.674" transform="translate(50.245)" fill="#e9b14c"/>
              </g>
            </g>
            <g id="Grupo_1207016" data-name="Grupo 1207016" transform="translate(70.187 23.862)">
              <rect id="Rectángulo_417706" data-name="Rectángulo 417706" width="67.249" height="14.674" fill="#ffd652"/>
              <g id="Grupo_1207015" data-name="Grupo 1207015" transform="translate(7.513)">
                <rect id="Rectángulo_417707" data-name="Rectángulo 417707" width="3.919" height="14.674" fill="#e9b14c"/>
                <rect id="Rectángulo_417708" data-name="Rectángulo 417708" width="3.919" height="14.674" transform="translate(12.562)" fill="#e9b14c"/>
                <rect id="Rectángulo_417709" data-name="Rectángulo 417709" width="3.919" height="14.674" transform="translate(25.123)" fill="#e9b14c"/>
                <rect id="Rectángulo_417710" data-name="Rectángulo 417710" width="3.919" height="14.674" transform="translate(37.685)" fill="#e9b14c"/>
                <rect id="Rectángulo_417711" data-name="Rectángulo 417711" width="3.919" height="14.674" transform="translate(50.245)" fill="#e9b14c"/>
              </g>
            </g>
            <g id="Grupo_1207018" data-name="Grupo 1207018" transform="translate(67.142 8.951)">
              <rect id="Rectángulo_417712" data-name="Rectángulo 417712" width="67.249" height="14.674" fill="#ffd652"/>
              <g id="Grupo_1207017" data-name="Grupo 1207017" transform="translate(7.514)">
                <rect id="Rectángulo_417713" data-name="Rectángulo 417713" width="3.919" height="14.674" fill="#e9b14c"/>
                <rect id="Rectángulo_417714" data-name="Rectángulo 417714" width="3.919" height="14.674" transform="translate(12.562)" fill="#e9b14c"/>
                <rect id="Rectángulo_417715" data-name="Rectángulo 417715" width="3.919" height="14.674" transform="translate(25.122)" fill="#e9b14c"/>
                <rect id="Rectángulo_417716" data-name="Rectángulo 417716" width="3.919" height="14.674" transform="translate(37.684)" fill="#e9b14c"/>
                <rect id="Rectángulo_417717" data-name="Rectángulo 417717" width="3.919" height="14.674" transform="translate(50.245)" fill="#e9b14c"/>
              </g>
            </g>
            <g id="Grupo_1207020" data-name="Grupo 1207020" transform="translate(60.138 38.536)">
              <rect id="Rectángulo_417718" data-name="Rectángulo 417718" width="67.249" height="14.674" fill="#ffd652"/>
              <g id="Grupo_1207019" data-name="Grupo 1207019" transform="translate(7.513)">
                <rect id="Rectángulo_417719" data-name="Rectángulo 417719" width="3.919" height="14.674" fill="#e9b14c"/>
                <rect id="Rectángulo_417720" data-name="Rectángulo 417720" width="3.919" height="14.674" transform="translate(12.562)" fill="#e9b14c"/>
                <rect id="Rectángulo_417721" data-name="Rectángulo 417721" width="3.919" height="14.674" transform="translate(25.123)" fill="#e9b14c"/>
                <rect id="Rectángulo_417722" data-name="Rectángulo 417722" width="3.919" height="14.674" transform="translate(37.685)" fill="#e9b14c"/>
                <rect id="Rectángulo_417723" data-name="Rectángulo 417723" width="3.919" height="14.674" transform="translate(50.246)" fill="#e9b14c"/>
              </g>
            </g>
            <g id="Grupo_1207022" data-name="Grupo 1207022" transform="translate(56.178 53.085)">
              <rect id="Rectángulo_417724" data-name="Rectángulo 417724" width="67.249" height="14.674" fill="#ffd652"/>
              <g id="Grupo_1207021" data-name="Grupo 1207021" transform="translate(7.513)">
                <rect id="Rectángulo_417725" data-name="Rectángulo 417725" width="3.919" height="14.674" fill="#e9b14c"/>
                <rect id="Rectángulo_417726" data-name="Rectángulo 417726" width="3.919" height="14.674" transform="translate(12.562)" fill="#e9b14c"/>
                <rect id="Rectángulo_417727" data-name="Rectángulo 417727" width="3.919" height="14.674" transform="translate(25.123)" fill="#e9b14c"/>
                <rect id="Rectángulo_417728" data-name="Rectángulo 417728" width="3.919" height="14.674" transform="translate(37.685)" fill="#e9b14c"/>
                <rect id="Rectángulo_417729" data-name="Rectángulo 417729" width="3.919" height="14.674" transform="translate(50.245)" fill="#e9b14c"/>
              </g>
            </g>
            <line id="Línea_3620" data-name="Línea 3620" x2="61.755" transform="translate(61.672 67.758)" fill="none" stroke="#2d2b58" stroke-miterlimit="10" stroke-width="1.2"/>
            <line id="Línea_3621" data-name="Línea 3621" x2="63.289" transform="translate(60.138 52.468)" fill="none" stroke="#2d2b58" stroke-miterlimit="10" stroke-width="1.2"/>
            <line id="Línea_3622" data-name="Línea 3622" x2="57.775" transform="translate(69.611 38.536)" fill="none" stroke="#2d2b58" stroke-miterlimit="10" stroke-width="1.2"/>
            <line id="Línea_3623" data-name="Línea 3623" x2="67.249" transform="translate(70.187 23.862)" fill="none" stroke="#2d2b58" stroke-miterlimit="10" stroke-width="1.2"/>
            <g id="Grupo_1207026" data-name="Grupo 1207026" transform="translate(0 0)">
              <path id="Trazado_1048931" data-name="Trazado 1048931" d="M209.968,380.228l-11.693-4.791-26.691,65.148,11.693,4.791c13.683,5.606,30.749-4.434,38.12-22.424S223.651,385.833,209.968,380.228Z" transform="translate(-144.923 -364.497)" fill="#e9b14c"/>
              <g id="Grupo_1207024" data-name="Grupo 1207024" transform="translate(26.661 10.94)">
                <g id="Grupo_1207023" data-name="Grupo 1207023" clip-path="url(#clip-path-7)">
                  <path id="Trazado_1048932" data-name="Trazado 1048932" d="M232.769,398,204.06,386.237l1.347-3.287,28.709,11.762Zm3.952,9.659L208.012,395.9l-1.347,3.287,28.709,11.762Zm2.6,12.946-28.709-11.762-1.347,3.287,28.709,11.762Zm-26.853,26.935-28.709-11.762-1.347,3.287,28.709,11.762Zm10.94-7.4L194.7,428.38l-1.347,3.287,28.709,11.762Zm10.94-7.4-28.709-11.762L204.3,424.27l28.709,11.762Z" transform="translate(-173.958 -377.083)" fill="#d8892b"/>
                </g>
              </g>
              <ellipse id="Elipse_14330" data-name="Elipse 14330" cx="35.202" cy="29.098" rx="35.202" ry="29.098" transform="translate(0 65.151) rotate(-67.723)" fill="#ffd652"/>
              <path id="Trazado_1048934" data-name="Trazado 1048934" d="M198.6,375.569c14.871,6.092,20.951,25.616,13.581,43.606s-25.4,27.635-40.272,21.542" transform="translate(-144.994 -364.526)" fill="none" stroke="#2d2b58" stroke-miterlimit="10" stroke-width="1.2"/>
              <ellipse id="Elipse_14331" data-name="Elipse 14331" cx="27.308" cy="21.352" rx="27.308" ry="21.352" transform="translate(9.031 60.32) rotate(-67.723)" fill="#e9b14c"/>
              <path id="Trazado_1048935" data-name="Trazado 1048935" d="M159.532,408.588a34.442,34.442,0,0,1,2.121-7.439c5.717-13.956,19.2-21.645,30.11-17.175" transform="translate(-142.282 -366.09)" fill="none" stroke="#2d2b58" stroke-miterlimit="10" stroke-width="1.2"/>
              <path id="Trazado_1048936" data-name="Trazado 1048936" d="M210.041,391.475c4.068,4.478,5.332,10.844,5.038,16.338" transform="translate(-153.351 -368.012)" fill="none" stroke="#2d2b58" stroke-miterlimit="10" stroke-width="1.2"/>
              <path id="Trazado_1048937" data-name="Trazado 1048937" d="M216.675,445.115a42.114,42.114,0,0,0,14.6-18.725c5.329-13.007,4.13-26.608-2.113-35.263" transform="translate(-154.805 -367.936)" fill="none" stroke="#2d2b58" stroke-miterlimit="10" stroke-width="1.2"/>
              <g id="Grupo_1207025" data-name="Grupo 1207025" transform="translate(27.16 30.926)">
                <path id="Trazado_1048938" data-name="Trazado 1048938" d="M187.641,426.574a12.843,12.843,0,0,1-6.059-.915,11.482,11.482,0,0,1-6.967-7.556,10.73,10.73,0,0,1-.1-5.4l-2.295-.94,1.027-2.507,1.942.8c.072-.176.159-.389.246-.6.144-.353.325-.692.469-1.046l-1.978-.811,1.028-2.507,2.365.969a12.331,12.331,0,0,1,4.419-3.839,11.557,11.557,0,0,1,9.632-.26,14.433,14.433,0,0,1,4.863,3.23l-2.638,3.621a11.266,11.266,0,0,0-3.572-2.453,5.815,5.815,0,0,0-5.126.127,6.312,6.312,0,0,0-2.07,1.832l8.794,3.6-1.028,2.507-9.323-3.819c-.181.339-.34.727-.485,1.08l-.231.565,9.359,3.834-1.028,2.507-8.864-3.632a6.021,6.021,0,0,0,.152,2.949,6.391,6.391,0,0,0,3.818,3.668,10.6,10.6,0,0,0,4.4.732Z" transform="translate(-172.223 -401.032)" fill="#d8892b"/>
              </g>
            </g>
          </g>
        </g>
        <g id="Grupo_1207032" data-name="Grupo 1207032" transform="translate(77.878 40.95)">
          <g id="Grupo_1207029" data-name="Grupo 1207029" transform="translate(261.667 73.823)">
            <line id="Línea_3624" data-name="Línea 3624" y1="6.877" x2="6.876" fill="none" stroke="#fff" stroke-miterlimit="10" stroke-width="1.2"/>
            <line id="Línea_3625" data-name="Línea 3625" x2="6.876" y2="6.877" fill="none" stroke="#fff" stroke-miterlimit="10" stroke-width="1.2"/>
          </g>
          <g id="Grupo_1207030" data-name="Grupo 1207030" transform="translate(82.324)">
            <line id="Línea_3626" data-name="Línea 3626" y1="6.877" x2="6.877" transform="translate(0 6)" fill="none" stroke="#fff" stroke-miterlimit="10" stroke-width="1.2"/>
            <line id="Línea_3627" data-name="Línea 3627" x2="6.877" y2="6.877" transform="translate(0 6)" fill="none" stroke="#fff" stroke-miterlimit="10" stroke-width="1.2"/>
          </g>
          <g id="Grupo_1207031" data-name="Grupo 1207031" transform="translate(0 281.592)">
            <line id="Línea_3628" data-name="Línea 3628" y1="6.877" x2="6.877" fill="none" stroke="#fff" stroke-miterlimit="10" stroke-width="1.2"/>
            <line id="Línea_3629" data-name="Línea 3629" x2="6.877" y2="6.877" fill="none" stroke="#fff" stroke-miterlimit="10" stroke-width="1.2"/>
          </g>
        </g>
        <g id="Grupo_1207033" data-name="Grupo 1207033" transform="translate(122.488 44.389)">
          <path id="Trazado_1048939" data-name="Trazado 1048939" d="M442.722,287.127c-9,1.559-9.907,2.824-11.024,15.395-1.117-12.571-2.022-13.835-11.024-15.395,9-1.559,9.907-2.824,11.024-15.395C432.815,284.3,433.72,285.568,442.722,287.127Z" transform="translate(-205.737 -95.089)" fill="#f9ebeb"/>
          <path id="Trazado_1048940" data-name="Trazado 1048940" d="M167.462,382.1c-9,1.559-9.907,2.824-11.024,15.395-1.117-12.571-2.022-13.835-11.024-15.395,9-1.559,9.907-2.824,11.024-15.394C157.555,379.276,158.46,380.54,167.462,382.1Z" transform="translate(-145.414 -115.902)" fill="#f9ebeb"/>
          <path id="Trazado_1048941" data-name="Trazado 1048941" d="M257.93,60.908c-9,1.559-9.907,2.824-11.024,15.394-1.117-12.571-2.022-13.835-11.024-15.394,9-1.56,9.907-2.824,11.024-15.394C248.023,58.084,248.928,59.348,257.93,60.908Z" transform="translate(-165.24 -45.514)" fill="#f9ebeb"/>
        </g>
      </g>
      <g id="BACKGROUND" transform="translate(1021.006 4928.889)">
        <g id="Grupo_1207037" data-name="Grupo 1207037" transform="translate(0 0)">
          <g id="Grupo_1207035" data-name="Grupo 1207035" clip-path="url(#clip-path-9)">
            <path id="Trazado_1048942" data-name="Trazado 1048942" d="M442,49.445h70.887a4.614,4.614,0,0,0,4.614-4.614v-11.2c0-17.877-15.324-30.966-30.435-16.122-12.981-12.451-28.3-.479-28.3,11.173-10.425-3.525-19.371,2.682-21.316,15.393A4.633,4.633,0,0,0,442,49.445Z" transform="translate(-89.064 137.982)" fill="#a9c79b"/>
          </g>
          <g id="Grupo_1207036" data-name="Grupo 1207036" clip-path="url(#clip-path-10)">
            <path id="Trazado_1048943" data-name="Trazado 1048943" d="M9.348,77.535H-43.426A3.435,3.435,0,0,1-46.861,74.1V65.762c0-13.309,11.408-23.054,22.658-12C-14.538,44.491-3.13,53.4-3.13,62.078c7.761-2.624,14.422,2,15.87,11.46A3.45,3.45,0,0,1,9.348,77.535Z" transform="translate(31.616 -34.581)" fill="#a9c79b"/>
          </g>
        </g>
      </g>
    </g>
  </g>
</svg>
