<svg xmlns="http://www.w3.org/2000/svg" xmlns:xlink="http://www.w3.org/1999/xlink" width="400" height="374" viewBox="0 0 400 374">
  <defs>
    <clipPath id="clip-path">
      <rect id="Rectángulo_416836" data-name="Rectángulo 416836" width="400" height="374" transform="translate(1020.5 1299)" fill="#fff" stroke="#707070" stroke-width="1"/>
    </clipPath>
    <clipPath id="clip-path-2">
      <rect id="Rectángulo_416835" data-name="Rectángulo 416835" width="486.191" height="389.642" fill="none"/>
    </clipPath>
    <clipPath id="clip-path-3">
      <rect id="Rectángulo_416749" data-name="Rectángulo 416749" width="486.192" height="418.84" fill="none"/>
    </clipPath>
    <clipPath id="clip-path-4">
      <path id="Trazado_1043539" data-name="Trazado 1043539" d="M418.155,424.678a134.188,134.188,0,1,0,142.2-133.949q-3.973-.243-8.016-.239A134.188,134.188,0,0,0,418.155,424.678" transform="translate(-418.155 -290.49)" fill="none"/>
    </clipPath>
    <radialGradient id="radial-gradient" cx="0.209" cy="0.045" r="0.594" gradientTransform="matrix(1, 0, 0, -1, 0, 2.47)" gradientUnits="objectBoundingBox">
      <stop offset="0" stop-color="#9ec0e5"/>
      <stop offset="0.16" stop-color="#9ec0e5"/>
      <stop offset="0.581" stop-color="#71acfb"/>
      <stop offset="1" stop-color="#6f81f0"/>
    </radialGradient>
    <clipPath id="clip-path-6">
      <rect id="Rectángulo_416757" data-name="Rectángulo 416757" width="6.218" height="25.866" fill="none"/>
    </clipPath>
    <radialGradient id="radial-gradient-2" cx="3.245" cy="1.236" r="1.85" gradientTransform="matrix(4.16, 0, 0, -1, 205.659, 16.439)" xlink:href="#radial-gradient"/>
    <clipPath id="clip-path-7">
      <rect id="Rectángulo_416759" data-name="Rectángulo 416759" width="6.217" height="20.61" fill="none"/>
    </clipPath>
    <radialGradient id="radial-gradient-3" cx="0.762" cy="1.296" r="2.321" gradientTransform="matrix(3.315, 0, 0, -1, 156.448, 20.121)" xlink:href="#radial-gradient"/>
    <clipPath id="clip-path-8">
      <rect id="Rectángulo_416761" data-name="Rectángulo 416761" width="6.217" height="24.478" fill="none"/>
    </clipPath>
    <radialGradient id="radial-gradient-4" cx="-1.721" cy="1.249" r="1.954" gradientTransform="matrix(3.937, 0, 0, -1, 205.781, 17.258)" xlink:href="#radial-gradient"/>
    <clipPath id="clip-path-10">
      <path id="Trazado_1043563" data-name="Trazado 1043563" d="M1239.461,287.108c-8.529.872-13.806,4.3-18.463,7.317-4.007,2.6-7.467,4.845-12.155,4.869-9.521.048-11.357-3.978-11.368-4.018v2.3c.048.219,2.966,3.805,11.377,3.486,5.2-.2,9.046-2.517,13.109-5.153,4.489-2.912,9.576-6.213,17.681-7.041,12.693-1.3,22.218,3.44,31.431,8.021,7.463,3.711,14.62,7.271,22.855,7.271a26.913,26.913,0,0,0,9.149-1.442v-1.892c-11.916,4-21.339-.61-31.216-5.521-8.347-4.151-16.945-8.426-27.954-8.426a43.706,43.706,0,0,0-4.446.229" transform="translate(-1197.474 -286.879)" fill="none"/>
    </clipPath>
    <radialGradient id="radial-gradient-5" cx="0.5" cy="0.482" r="2.109" gradientTransform="matrix(0.17, 0, 0, -1, -2.833, 37.061)" xlink:href="#radial-gradient"/>
    <clipPath id="clip-path-12">
      <rect id="Rectángulo_416791" data-name="Rectángulo 416791" width="29.906" height="60.514" fill="none"/>
    </clipPath>
    <clipPath id="clip-path-13">
      <rect id="Rectángulo_416792" data-name="Rectángulo 416792" width="20.135" height="62.809" fill="none"/>
    </clipPath>
    <clipPath id="clip-path-14">
      <rect id="Rectángulo_416796" data-name="Rectángulo 416796" width="61.43" height="7.459" fill="none"/>
    </clipPath>
    <linearGradient id="linear-gradient" x1="-4.946" y1="2.015" x2="-4.941" y2="2.015" gradientUnits="objectBoundingBox">
      <stop offset="0" stop-color="#e59148"/>
      <stop offset="1" stop-color="#f1cc52"/>
    </linearGradient>
    <clipPath id="clip-path-15">
      <rect id="Rectángulo_416798" data-name="Rectángulo 416798" width="61.43" height="7.457" fill="none"/>
    </clipPath>
    <linearGradient id="linear-gradient-2" x1="-4.915" y1="3.016" x2="-4.91" y2="3.016" gradientUnits="objectBoundingBox">
      <stop offset="0" stop-color="#db843a"/>
      <stop offset="1" stop-color="#e4c04c"/>
    </linearGradient>
    <clipPath id="clip-path-16">
      <rect id="Rectángulo_416800" data-name="Rectángulo 416800" width="61.43" height="7.458" fill="none"/>
    </clipPath>
    <linearGradient id="linear-gradient-3" x1="-4.893" y1="4.015" x2="-4.888" y2="4.015" xlink:href="#linear-gradient"/>
    <linearGradient id="linear-gradient-4" x1="-4.933" y1="5.016" x2="-4.929" y2="5.016" xlink:href="#linear-gradient-2"/>
    <linearGradient id="linear-gradient-5" x1="-4.877" y1="6.014" x2="-4.873" y2="6.014" xlink:href="#linear-gradient-2"/>
    <linearGradient id="linear-gradient-6" x1="-4.857" y1="7.013" x2="-4.852" y2="7.013" xlink:href="#linear-gradient"/>
    <linearGradient id="linear-gradient-7" x1="-4.877" y1="8.015" x2="-4.873" y2="8.015" xlink:href="#linear-gradient-2"/>
    <linearGradient id="linear-gradient-8" x1="-4.895" y1="9.013" x2="-4.89" y2="9.013" xlink:href="#linear-gradient"/>
    <clipPath id="clip-path-22">
      <rect id="Rectángulo_416812" data-name="Rectángulo 416812" width="61.429" height="7.458" fill="none"/>
    </clipPath>
    <linearGradient id="linear-gradient-9" x1="-4.863" y1="10.014" x2="-4.858" y2="10.014" xlink:href="#linear-gradient-2"/>
    <linearGradient id="linear-gradient-10" x1="-4.841" y1="11.013" x2="-4.836" y2="11.013" xlink:href="#linear-gradient"/>
    <linearGradient id="linear-gradient-11" x1="-4.882" y1="12.015" x2="-4.877" y2="12.015" xlink:href="#linear-gradient-2"/>
    <clipPath id="clip-path-25">
      <rect id="Rectángulo_416818" data-name="Rectángulo 416818" width="7.458" height="61.43" transform="translate(0 7.456) rotate(-88.629)" fill="none"/>
    </clipPath>
    <linearGradient id="linear-gradient-12" x1="-14.591" y1="1.999" x2="-14.577" y2="1.999" xlink:href="#linear-gradient"/>
    <clipPath id="clip-path-26">
      <rect id="Rectángulo_416820" data-name="Rectángulo 416820" width="62.781" height="7.622" fill="none"/>
    </clipPath>
    <linearGradient id="linear-gradient-13" x1="-3.536" y1="2.891" x2="-3.532" y2="2.891" xlink:href="#linear-gradient"/>
    <linearGradient id="linear-gradient-14" x1="-3.573" y1="3.891" x2="-3.568" y2="3.891" xlink:href="#linear-gradient-2"/>
    <clipPath id="clip-path-28">
      <rect id="Rectángulo_416824" data-name="Rectángulo 416824" width="62.782" height="7.622" fill="none"/>
    </clipPath>
    <linearGradient id="linear-gradient-15" x1="-3.552" y1="4.891" x2="-3.548" y2="4.891" xlink:href="#linear-gradient"/>
    <clipPath id="clip-path-29">
      <rect id="Rectángulo_416826" data-name="Rectángulo 416826" width="62.781" height="7.621" fill="none"/>
    </clipPath>
    <linearGradient id="linear-gradient-16" x1="-3.573" y1="5.891" x2="-3.568" y2="5.891" xlink:href="#linear-gradient-2"/>
    <clipPath id="clip-path-30">
      <rect id="Rectángulo_416828" data-name="Rectángulo 416828" width="62.782" height="7.623" fill="none"/>
    </clipPath>
    <linearGradient id="linear-gradient-17" x1="-3.59" y1="6.89" x2="-3.585" y2="6.89" xlink:href="#linear-gradient"/>
    <linearGradient id="linear-gradient-18" x1="-3.616" y1="1.932" x2="-3.611" y2="1.932" xlink:href="#linear-gradient-2"/>
    <clipPath id="clip-path-33">
      <rect id="Rectángulo_416831" data-name="Rectángulo 416831" width="30.61" height="61.942" fill="none"/>
    </clipPath>
    <clipPath id="clip-path-34">
      <rect id="Rectángulo_416832" data-name="Rectángulo 416832" width="20.613" height="64.293" fill="none"/>
    </clipPath>
  </defs>
  <g id="Enmascarar_grupo_1098889" data-name="Enmascarar grupo 1098889" transform="translate(-1020.5 -1299)" clip-path="url(#clip-path)">
    <g id="Grupo_1202134" data-name="Grupo 1202134">
      <path id="Trazado_1048952" data-name="Trazado 1048952" d="M191,0C296.486,0,382,85.514,382,191S296.486,382,191,382,0,296.486,0,191,85.514,0,191,0Z" transform="translate(1020.5 1335)" fill="#e8864c" opacity="0.29"/>
      <g id="Grupo_1202133" data-name="Grupo 1202133" transform="translate(945.736 1186.129)">
        <g id="Grupo_1202132" data-name="Grupo 1202132" transform="translate(0 97)" clip-path="url(#clip-path-2)">
          <g id="Grupo_1202067" data-name="Grupo 1202067" transform="translate(125.873 58.244)">
            <g id="Grupo_1202066" data-name="Grupo 1202066" clip-path="url(#clip-path-4)">
              <rect id="Rectángulo_416750" data-name="Rectángulo 416750" width="268.376" height="268.377" transform="translate(0)" fill="url(#radial-gradient)"/>
            </g>
          </g>
          <g id="Grupo_1202069" data-name="Grupo 1202069" transform="translate(0 -29.198)">
            <g id="Grupo_1202068" data-name="Grupo 1202068" transform="translate(0 0)" clip-path="url(#clip-path-3)">
              <path id="Trazado_1043540" data-name="Trazado 1043540" d="M1102.57,466.161a134.379,134.379,0,0,1-11.623,36.058l-.007,0s-2.2-17.9-4.563-18.922-7.133-2.645-5.921-12.554-1.818-24.6-10.844-24.775-6.421,13.388-6.421,13.388-14.871,24.55-15.591,22.877-1.445-15.044-1.445-15.044-13.637-26.495-13.093-30.477-1.477-5.288,1.479-8.55a28.987,28.987,0,0,1,7.674-5.535l.031-8.96,4.909-4.95,8.395-4.652s7.689-.568,12.776-3.658,11.582-2.628,9.891-7.467a30.514,30.514,0,0,1-4.322-7.184c-1.4-3.628-9.189-6.864-10.409-8.593s.187-5.471-4.676-9.522-3.625-2.479-7.129-5.612-11.413-10.072-11.891-13.191-3.433-15.266-12.678-17.373-10.967-14.322-10.967-14.322a134.234,134.234,0,0,1,86.427,149.019" transform="translate(-710.264 -221.677)" fill="#fff"/>
              <path id="Trazado_1043541" data-name="Trazado 1043541" d="M988.76,912.834a134.4,134.4,0,0,1-114.593,69.591l14.7-11.63s1.722-7.058,2.644-9.456S902.291,942.9,902.291,942.9s-.669-13.689.545-20.712,7.415-10.711,11.466-19.483,24.065-4.584,28.906-6.244l16.155,3.719,12.116,8.373s9.473,2.418,17.279,4.284" transform="translate(-611.026 -626.608)" fill="#fff"/>
              <path id="Trazado_1043542" data-name="Trazado 1043542" d="M539.644,353.081c-4.6,8.905-16.46,21.339-16.46,21.339a15.154,15.154,0,0,1-8.982,10.537c-7.725,3.273,19.34,27.005,10.315,30.492s-13.118,9.426-13.118,9.426-9.889,9.879-10.666,11.358c-.761,1.486-15.3,8.656-18.169,10.477s-.607,3.538-15.024,7.033c-14.4,3.486-16.082,7.3-20.5,12.152a18.486,18.486,0,0,1-9.675,5.717,35.033,35.033,0,0,1-13.981-9.716A134.292,134.292,0,0,1,552.343,290.491q4.038,0,8.016.239c-5.212,3.7-22.74,16.357-28.252,23.2-6.5,8.076-.616,21.34,3,24.023s9.153,6.213,4.538,15.126" transform="translate(-292.282 -203.049)" fill="#fff"/>
              <path id="Trazado_1043543" data-name="Trazado 1043543" d="M823.805,431.177s10.3,9.711,6.049,15.152-12.576,13.177-10.779,15.719,9.285,8.147,15.909,7.588,14.881-8.32,21.139-13.414,15.911-3.557,17.5-4.681,4.466-7.085-2.445-12.14-10.083-8.048-13.4-10.437-41.647-5.9-33.976,2.213" transform="translate(-572.343 -297.849)" fill="#fff"/>
              <path id="Trazado_1043544" data-name="Trazado 1043544" d="M544.52,988.558a133.936,133.936,0,0,1-90.8-77.572,60.3,60.3,0,0,0,26.94,1.728c15.054-2.44,27.169-2.768,36.884,5.978s-4.923,13.814,1.224,25.411,9.154,6.028,15.219,20.119c2.467,5.734,7.49,15.213,10.535,24.336" transform="translate(-317.14 -636.763)" fill="#fff"/>
              <path id="Trazado_1043545" data-name="Trazado 1043545" d="M524.823,659.259,440.564,575l-62,62L364.4,622.829l76.167-76.167,84.259,84.259,72.2-72.2,14.17,14.169Z" transform="translate(-254.707 -382.107)" fill="#efc55e"/>
              <path id="Trazado_1043546" data-name="Trazado 1043546" d="M1123.167,537.906l18.285-68.239-68.239,18.285Z" transform="translate(-750.155 -328.289)" fill="#efc55e"/>
              <path id="Trazado_1043547" data-name="Trazado 1043547" d="M624.662,462.525l-17.425,4.668,4.624,4.624-18.143,18.141L572.2,468.443l-19.448,19.449,3.618,3.619L572.2,475.68,593.718,497.2l21.761-21.761,4.515,4.515Z" transform="translate(-386.364 -323.297)" fill="#efc55e"/>
              <path id="Trazado_1043548" data-name="Trazado 1043548" d="M1007.332,314.683a5.586,5.586,0,0,0-2.3.5,10.579,10.579,0,0,0-17.5-1.542,7.347,7.347,0,0,0-10.49,6.639h35.889a5.593,5.593,0,0,0-5.593-5.592" transform="translate(-682.929 -216.475)" fill="#e4e4e4"/>
              <path id="Trazado_1043549" data-name="Trazado 1043549" d="M363.133,686.954a5.588,5.588,0,0,0-2.3.5,10.58,10.58,0,0,0-17.5-1.542,7.348,7.348,0,0,0-10.489,6.639h35.889a5.594,5.594,0,0,0-5.592-5.593" transform="translate(-232.646 -476.685)" fill="#e4e4e4"/>
              <path id="Trazado_1043550" data-name="Trazado 1043550" d="M655.192,306.315a5.379,5.379,0,0,0-3.367,1.175,9.538,9.538,0,0,0-16.7-.706,5.137,5.137,0,0,0-4.11.6,8.068,8.068,0,0,0-14.863,4.35h44.452a5.414,5.414,0,0,0-5.415-5.415" transform="translate(-430.681 -211.229)" fill="#e4e4e4"/>
              <path id="Trazado_1043551" data-name="Trazado 1043551" d="M1416.417,433.356a17.491,17.491,0,1,0-14.961,31.622c.354.168.715.324,1.075.466a17.491,17.491,0,0,0,13.886-32.088m4.374,21.419a13.1,13.1,0,0,1-16.656,6.594q-.407-.16-.807-.349a13.114,13.114,0,1,1,17.464-6.245" transform="translate(-972.59 -301.731)" fill="#fff"/>
              <path id="Trazado_1043552" data-name="Trazado 1043552" d="M1397.321,468.024l-3.877,2.032a17.514,17.514,0,0,1,2.757-20.116l3.187,3a13.134,13.134,0,0,0-2.067,15.083" transform="translate(-972.591 -314.501)" fill="#405ba8"/>
              <path id="Trazado_1043553" data-name="Trazado 1043553" d="M1408.785,516.132l-1.6,4.074c-.361-.142-.721-.3-1.075-.466a17.408,17.408,0,0,1-8.013-7.691l3.877-2.032a13.053,13.053,0,0,0,6.007,5.765q.4.189.807.349" transform="translate(-977.241 -356.493)" fill="#7094fb"/>
              <path id="Trazado_1043554" data-name="Trazado 1043554" d="M1433.279,535.568a17.394,17.394,0,0,1-5-1.162l1.6-4.074a13.04,13.04,0,0,0,3.746.872Z" transform="translate(-998.343 -370.693)" fill="#7094fb"/>
              <path id="Trazado_1043555" data-name="Trazado 1043555" d="M1355.866,552.387H1323.2v-.649h32.014V537.9h.648Z" transform="translate(-924.894 -375.984)" fill="#7094fb"/>
              <rect id="Rectángulo_416751" data-name="Rectángulo 416751" width="17.193" height="3.895" transform="translate(398.31 168.998)" fill="#dedede"/>
              <rect id="Rectángulo_416752" data-name="Rectángulo 416752" width="6.218" height="41.229" transform="translate(404.682 190.871)" fill="#fff"/>
              <rect id="Rectángulo_416753" data-name="Rectángulo 416753" width="6.217" height="32.852" transform="translate(420.121 199.248)" fill="#fff"/>
              <rect id="Rectángulo_416754" data-name="Rectángulo 416754" width="6.217" height="39.016" transform="translate(435.558 193.084)" fill="#fff"/>
            </g>
          </g>
          <g id="Grupo_1202071" data-name="Grupo 1202071" transform="translate(404.682 177.036)">
            <g id="Grupo_1202070" data-name="Grupo 1202070" clip-path="url(#clip-path-6)">
              <rect id="Rectángulo_416756" data-name="Rectángulo 416756" width="6.218" height="25.866" transform="translate(0 0)" fill="url(#radial-gradient-2)"/>
            </g>
          </g>
          <g id="Grupo_1202073" data-name="Grupo 1202073" transform="translate(420.121 182.292)">
            <g id="Grupo_1202072" data-name="Grupo 1202072" clip-path="url(#clip-path-7)">
              <rect id="Rectángulo_416758" data-name="Rectángulo 416758" width="6.217" height="20.61" fill="url(#radial-gradient-3)"/>
            </g>
          </g>
          <g id="Grupo_1202075" data-name="Grupo 1202075" transform="translate(435.558 178.425)">
            <g id="Grupo_1202074" data-name="Grupo 1202074" clip-path="url(#clip-path-8)">
              <rect id="Rectángulo_416760" data-name="Rectángulo 416760" width="6.217" height="24.478" transform="translate(0)" fill="url(#radial-gradient-4)"/>
            </g>
          </g>
          <g id="Grupo_1202077" data-name="Grupo 1202077" transform="translate(0 -29.198)">
            <g id="Grupo_1202076" data-name="Grupo 1202076" transform="translate(0 0)" clip-path="url(#clip-path-3)">
              <rect id="Rectángulo_416762" data-name="Rectángulo 416762" width="32.963" height="3.883" transform="translate(74.264 151.662)" fill="#5f7dd1"/>
              <rect id="Rectángulo_416763" data-name="Rectángulo 416763" width="32.963" height="3.883" transform="translate(74.264 162.108)" fill="#fff"/>
              <rect id="Rectángulo_416764" data-name="Rectángulo 416764" width="32.963" height="3.883" transform="translate(74.264 172.555)" fill="#fff"/>
              <rect id="Rectángulo_416765" data-name="Rectángulo 416765" width="6.603" height="3.883" transform="translate(115.301 151.662)" fill="#5f7dd1"/>
              <rect id="Rectángulo_416766" data-name="Rectángulo 416766" width="6.603" height="3.883" transform="translate(115.301 162.108)" fill="#fff"/>
              <rect id="Rectángulo_416767" data-name="Rectángulo 416767" width="6.603" height="3.883" transform="translate(115.301 172.555)" fill="#fff"/>
              <path id="Trazado_1043556" data-name="Trazado 1043556" d="M849.8,122.1a5.155,5.155,0,0,0-.982-.8,11.3,11.3,0,0,0-1.5-.822,12.249,12.249,0,0,0-1.874-.674,10.794,10.794,0,0,0-2.1-.36l-.025,7.685.7.15a32.757,32.757,0,0,1,3.616,1.088,10.306,10.306,0,0,1,2.723,1.457,5.9,5.9,0,0,1,1.719,2.1,6.809,6.809,0,0,1,.6,3.028,7.36,7.36,0,0,1-.717,3.357,6.548,6.548,0,0,1-1.956,2.314,8.748,8.748,0,0,1-2.9,1.383,14.1,14.1,0,0,1-3.546.489l-.014,3.9-1.93-.006.013-3.973a18.666,18.666,0,0,1-5.082-1.075,16.009,16.009,0,0,1-4.41-2.445l1.905-3.558a6.581,6.581,0,0,0,1.184.969,13.627,13.627,0,0,0,1.816,1.008,16.821,16.821,0,0,0,2.28.861,14.653,14.653,0,0,0,2.578.528l.026-7.684q-.222-.075-.463-.132t-.464-.132a31.273,31.273,0,0,1-3.43-1.107,8.567,8.567,0,0,1-2.427-1.4,5.458,5.458,0,0,1-1.46-1.917,6.355,6.355,0,0,1-.493-2.656,7.833,7.833,0,0,1,.641-3.228,7.086,7.086,0,0,1,1.791-2.426,8.479,8.479,0,0,1,2.7-1.588,12.531,12.531,0,0,1,3.4-.713l.012-3.749,1.93.006-.012,3.75a14.288,14.288,0,0,1,4.451.98,16.124,16.124,0,0,1,3.6,1.979Zm-12.254.925a2.68,2.68,0,0,0,1.088,2.343,10.542,10.542,0,0,0,3.318,1.384l.023-7.313a5.378,5.378,0,0,0-3.344,1.047,3.215,3.215,0,0,0-1.085,2.539m10.689,12.36a2.747,2.747,0,0,0-1.291-2.473,13.966,13.966,0,0,0-3.633-1.516l-.024,7.351a6.762,6.762,0,0,0,3.659-.879,2.8,2.8,0,0,0,1.289-2.483" transform="translate(-388.951 182.728)" fill="#eebd5d"/>
              <path id="Trazado_1043557" data-name="Trazado 1043557" d="M1521.124,643.7h-20.987a2.043,2.043,0,0,1,0-3.949h20.987a2.044,2.044,0,0,1,0,3.949" transform="translate(-1047.506 -447.178)" fill="#eebd5d"/>
              <path id="Trazado_1043558" data-name="Trazado 1043558" d="M1535.912,607.931v20.987a2.043,2.043,0,0,1-3.948,0V607.931a2.043,2.043,0,0,1,3.948,0" transform="translate(-1070.814 -423.873)" fill="#eebd5d"/>
              <path id="Trazado_1043559" data-name="Trazado 1043559" d="M627.045,207.676H606.058a2.043,2.043,0,0,1,0-3.949h20.987a2.043,2.043,0,0,1,0,3.949" transform="translate(-416.562 -135.396)" fill="#eebd5d"/>
              <path id="Trazado_1043560" data-name="Trazado 1043560" d="M627.045,240.506H606.058a2.043,2.043,0,0,1,0-3.948h20.987a2.043,2.043,0,0,1,0,3.948" transform="translate(-416.562 -158.344)" fill="#eebd5d"/>
              <path id="Trazado_1043561" data-name="Trazado 1043561" d="M217.262,700.685H196.275a2.043,2.043,0,0,1,0-3.949h20.987a2.044,2.044,0,0,1,0,3.949" transform="translate(242.371 -333.006)" fill="#eebd5d"/>
              <path id="Trazado_1043562" data-name="Trazado 1043562" d="M1044.889,193.146a4.474,4.474,0,0,1-1.674-.309,4.258,4.258,0,0,1-1.338-.837,4.018,4.018,0,0,1-.9-1.235,3.643,3.643,0,0,1,0-3.05,3.839,3.839,0,0,1,.9-1.235,4.41,4.41,0,0,1,1.338-.824,4.657,4.657,0,0,1,3.334,0,4.368,4.368,0,0,1,1.351.824,3.823,3.823,0,0,1,.9,1.235,3.64,3.64,0,0,1,0,3.05,4,4,0,0,1-.9,1.235,4.22,4.22,0,0,1-1.351.837,4.5,4.5,0,0,1-1.66.309m-2.806,9.523,7.258-8.468,6.692-8.8,1.57,1.39-7.026,8.313-6.923,8.957Zm2.806-11.247a1.426,1.426,0,0,0,.707-.18,2.163,2.163,0,0,0,.579-.477,2.122,2.122,0,0,0,.4-.695,2.486,2.486,0,0,0,.142-.836,2.272,2.272,0,0,0-.541-1.531,1.642,1.642,0,0,0-1.286-.631,1.428,1.428,0,0,0-.708.18,2.193,2.193,0,0,0-.978,1.158,2.375,2.375,0,0,0-.141.823,2.322,2.322,0,0,0,.541,1.544,1.63,1.63,0,0,0,1.287.643m9.934,12.714a4.464,4.464,0,0,1-1.673-.309,4.374,4.374,0,0,1-1.338-.824,3.871,3.871,0,0,1-.9-1.222,3.68,3.68,0,0,1,0-3.063,4.034,4.034,0,0,1,.9-1.235,4.265,4.265,0,0,1,1.338-.836,4.534,4.534,0,0,1,4.7.836,3.778,3.778,0,0,1,.9,1.235,3.692,3.692,0,0,1-.9,4.285,4.557,4.557,0,0,1-1.351.824,4.469,4.469,0,0,1-1.673.309m0-1.725a1.422,1.422,0,0,0,.708-.18,2.191,2.191,0,0,0,.978-1.158,2.48,2.48,0,0,0-.013-1.686,2.492,2.492,0,0,0-.4-.695,1.776,1.776,0,0,0-.579-.463,1.527,1.527,0,0,0-.7-.168,1.425,1.425,0,0,0-.708.18,2.173,2.173,0,0,0-.579.476,2.142,2.142,0,0,0-.4.7,2.475,2.475,0,0,0-.142.837,2.27,2.27,0,0,0,.541,1.531,1.643,1.643,0,0,0,1.286.63" transform="translate(-714.389 -111.001)" fill="#eebd5d"/>
              <rect id="Rectángulo_416768" data-name="Rectángulo 416768" width="0.371" height="38.955" transform="translate(360.277 76.256)" fill="#f2f2f2"/>
              <rect id="Rectángulo_416769" data-name="Rectángulo 416769" width="0.371" height="38.955" transform="translate(386.678 76.256)" fill="#f2f2f2"/>
              <rect id="Rectángulo_416770" data-name="Rectángulo 416770" width="0.371" height="38.955" transform="translate(413.079 76.256)" fill="#f2f2f2"/>
              <rect id="Rectángulo_416771" data-name="Rectángulo 416771" width="0.371" height="38.955" transform="translate(439.479 76.256)" fill="#f2f2f2"/>
              <rect id="Rectángulo_416772" data-name="Rectángulo 416772" width="0.371" height="38.955" transform="translate(465.879 76.256)" fill="#f2f2f2"/>
              <rect id="Rectángulo_416773" data-name="Rectángulo 416773" width="4.2" height="1.354" transform="translate(360.463 117.518)" fill="#fff"/>
              <rect id="Rectángulo_416774" data-name="Rectángulo 416774" width="6.324" height="1.015" transform="translate(360.463 71.455)" fill="#fff"/>
              <rect id="Rectángulo_416775" data-name="Rectángulo 416775" width="8.97" height="1.015" transform="translate(360.463 73.332)" fill="#fff"/>
              <rect id="Rectángulo_416776" data-name="Rectángulo 416776" width="7.425" height="1.015" transform="translate(386.579 71.455)" fill="#fff"/>
              <rect id="Rectángulo_416777" data-name="Rectángulo 416777" width="4.747" height="1.015" transform="translate(386.579 73.332)" fill="#fff"/>
              <rect id="Rectángulo_416778" data-name="Rectángulo 416778" width="4.6" height="1.015" transform="translate(413.45 71.455)" fill="#fff"/>
              <rect id="Rectángulo_416779" data-name="Rectángulo 416779" width="5.362" height="1.015" transform="translate(413.45 73.332)" fill="#fff"/>
              <rect id="Rectángulo_416780" data-name="Rectángulo 416780" width="6.702" height="1.015" transform="translate(439.849 71.455)" fill="#fff"/>
              <rect id="Rectángulo_416781" data-name="Rectángulo 416781" width="5.363" height="1.015" transform="translate(439.85 73.332)" fill="#fff"/>
              <rect id="Rectángulo_416782" data-name="Rectángulo 416782" width="4.003" height="1.015" transform="translate(466.065 71.455)" fill="#fff"/>
              <rect id="Rectángulo_416783" data-name="Rectángulo 416783" width="3.203" height="1.015" transform="translate(466.065 73.332)" fill="#fff"/>
              <rect id="Rectángulo_416784" data-name="Rectángulo 416784" width="4.2" height="1.354" transform="translate(386.864 117.518)" fill="#fff"/>
              <rect id="Rectángulo_416785" data-name="Rectángulo 416785" width="4.2" height="1.354" transform="translate(413.45 117.518)" fill="#fff"/>
              <rect id="Rectángulo_416786" data-name="Rectángulo 416786" width="4.2" height="1.354" transform="translate(439.849 117.518)" fill="#fff"/>
              <rect id="Rectángulo_416787" data-name="Rectángulo 416787" width="4.201" height="1.354" transform="translate(466.25 117.518)" fill="#fff"/>
            </g>
          </g>
          <g id="Grupo_1202079" data-name="Grupo 1202079" transform="translate(360.463 57.157)">
            <g id="Grupo_1202078" data-name="Grupo 1202078" transform="translate(0 0)" clip-path="url(#clip-path-10)">
              <rect id="Rectángulo_416789" data-name="Rectángulo 416789" width="105.602" height="17.943" transform="translate(0 0)" fill="url(#radial-gradient-5)"/>
            </g>
          </g>
          <g id="Grupo_1202087" data-name="Grupo 1202087" transform="translate(0 -29.198)">
            <g id="Grupo_1202086" data-name="Grupo 1202086" transform="translate(0 0)" clip-path="url(#clip-path-3)">
              <path id="Trazado_1043564" data-name="Trazado 1043564" d="M1244.5,291.473c-6.078,0-10.9-4.088-15.618-8.089-3.578-3.034-7.291-6.136-11.577-7.666-13.079-4.67-19.77,3.857-19.83,3.932v-2.594c.071-.089,1.265-1.639,4.718-3.118,3.144-1.347,8.418-2.422,15.694.108,4.61,1.6,8.438,4.849,12.14,7.988,7.51,6.367,14,11.866,25.26,3.253,8.53-6.523,16.574-12.74,24.485-15.011,7.74-2.222,15.808-.6,23.36,6.957l-.056,2.356c-16.043-16.114-29.7-5.905-46.716,7.1-4.505,3.445-8.389,4.78-11.86,4.78" transform="translate(-837.011 -188.278)" fill="#fff"/>
              <path id="Trazado_1043565" data-name="Trazado 1043565" d="M377.353,217.581A29.483,29.483,0,0,0,342.1,198.035q-.953.239-1.9.546a29.506,29.506,0,1,0,37.152,19m-21.274,30.125a22.122,22.122,0,1,1-13.607-42.1q.71-.229,1.426-.409a22.122,22.122,0,0,1,12.182,42.508" transform="translate(-223.508 -137.801)" fill="#fff"/>
              <path id="Trazado_1043566" data-name="Trazado 1043566" d="M331.169,243.11l-6.045-4.243a29.548,29.548,0,0,0,.237,34.251l5.984-4.329a22.158,22.158,0,0,1-.177-25.68" transform="translate(-223.508 -166.965)" fill="#405ba8"/>
              <path id="Trazado_1043567" data-name="Trazado 1043567" d="M356.35,207.269l-1.8-7.163q-.953.239-1.9.546a29.376,29.376,0,0,0-15.077,11.122l6.045,4.243a22.02,22.02,0,0,1,11.3-8.338q.71-.229,1.426-.409" transform="translate(-235.959 -139.871)" fill="#5f7dd1"/>
              <path id="Trazado_1043568" data-name="Trazado 1043568" d="M402.586,197.179a29.343,29.343,0,0,0-8.61.856l1.8,7.164a22,22,0,0,1,6.455-.643Z" transform="translate(-275.382 -137.801)" fill="#7094fb"/>
              <path id="Trazado_1043569" data-name="Trazado 1043569" d="M417.81,414.3h42.481v-.649H418.459v-20.2h-.649Z" transform="translate(-292.041 -275.015)" fill="#eebd5d"/>
              <rect id="Rectángulo_416790" data-name="Rectángulo 416790" width="29.23" height="3.895" transform="translate(139.02 131.876)" fill="#dedede"/>
              <path id="Trazado_1043570" data-name="Trazado 1043570" d="M1388.489,897.18s.8,14.5-1.862,16.63c-1.231.982-4.131,1.291-7.264,1.3-1.032,0-2.089-.03-3.121-.082h0c-4.118-.206-7.813-.729-7.813-.729s-10.677.541-10.154-6.083a6.276,6.276,0,0,1,2.838-2.461c1.472-.423,8.2.738,9.363.788,1.285.057,10.4,2.082,10.788,1.937s1.439-3.716,1.5-6.112c.093-3.459.078-6.644.078-6.644Z" transform="translate(-949.392 -626.091)" fill="#363957"/>
              <path id="Trazado_1043571" data-name="Trazado 1043571" d="M1442.976,882.623s-.556,2.466-.021,3.151.784-.194.784-.194-.262.864.412,1.153.914-.754.914-.754a.731.731,0,0,0,.74.75c.762.038.76-.875.76-.875s.531,1.025,1.149.314a3.789,3.789,0,0,0,.629-3.015s-.143-.428-.877-.415a1.012,1.012,0,0,0-1.458-.638s-.95-.863-1.532.007a.882.882,0,0,0-1.5.515" transform="translate(-1008.436 -616.306)" fill="#dca787"/>
              <path id="Trazado_1043572" data-name="Trazado 1043572" d="M1302.867,759.4a31.5,31.5,0,1,1,36.475,25.586,31.5,31.5,0,0,1-36.475-25.586" transform="translate(-910.344 -504.979)" fill="#e7b96b"/>
              <path id="Trazado_1043573" data-name="Trazado 1043573" d="M1406.022,784.609l-10.87-61.949a31.5,31.5,0,0,1,10.87,61.949" transform="translate(-975.185 -504.98)" fill="#e7b96b"/>
              <path id="Trazado_1043574" data-name="Trazado 1043574" d="M1302.868,765.76a31.518,31.518,0,0,1,18.178-34.215l10.563,60.2a31.517,31.517,0,0,1-28.741-25.983" transform="translate(-910.345 -511.337)" fill="#e7b96b"/>
              <path id="Trazado_1043575" data-name="Trazado 1043575" d="M1327.527,770.9a23.944,23.944,0,1,1,23.313,24.56,23.944,23.944,0,0,1-23.313-24.56" transform="translate(-927.91 -522.545)" fill="#e09637"/>
              <path id="Trazado_1043576" data-name="Trazado 1043576" d="M1377.556,786.682a4.878,4.878,0,0,0-1.183.16,10.712,10.712,0,0,0-1.531.5,11.746,11.746,0,0,0-1.669.854,10.222,10.222,0,0,0-1.6,1.212l5.271,4.961.557-.388a30.589,30.589,0,0,1,3.075-1.788,9.723,9.723,0,0,1,2.755-.938,5.559,5.559,0,0,1,2.553.17,6.415,6.415,0,0,1,2.471,1.534,6.923,6.923,0,0,1,1.849,2.652,6.163,6.163,0,0,1,.334,2.836,8.24,8.24,0,0,1-.915,2.886,13.279,13.279,0,0,1-1.944,2.755l2.674,2.517-1.246,1.324-2.726-2.564a17.606,17.606,0,0,1-4.009,2.806,15.072,15.072,0,0,1-4.519,1.46l-1.223-3.6a6.254,6.254,0,0,0,1.43-.191,12.843,12.843,0,0,0,1.862-.6,15.826,15.826,0,0,0,2.06-1.015,13.8,13.8,0,0,0,2.023-1.435l-5.273-4.961c-.129.071-.259.148-.389.235a4.417,4.417,0,0,1-.388.235,29.628,29.628,0,0,1-2.969,1.65,8.069,8.069,0,0,1-2.524.769,5.137,5.137,0,0,1-2.258-.229,5.964,5.964,0,0,1-2.144-1.369,7.366,7.366,0,0,1-1.808-2.518,6.665,6.665,0,0,1-.518-2.792,7.982,7.982,0,0,1,.643-2.878,11.8,11.8,0,0,1,1.7-2.8l-2.572-2.421,1.246-1.324,2.573,2.42a13.465,13.465,0,0,1,3.538-2.432,15.138,15.138,0,0,1,3.674-1.2Zm-7.247,9.027a2.526,2.526,0,0,0,2.311.759,9.958,9.958,0,0,0,3.087-1.393l-5.016-4.721a5.075,5.075,0,0,0-1.432,2.975,3.031,3.031,0,0,0,1.05,2.381m15.381.6a2.591,2.591,0,0,0-2.532-.7,13.175,13.175,0,0,0-3.381,1.526l5.042,4.746a6.364,6.364,0,0,0,1.75-3.084,2.64,2.64,0,0,0-.879-2.484" transform="translate(-954.391 -547.428)" fill="#eac483"/>
              <g id="Grupo_1202082" data-name="Grupo 1202082" transform="translate(425.156 217.509)" style="mix-blend-mode: soft-light;isolation: isolate">
                <g id="Grupo_1202081" data-name="Grupo 1202081">
                  <g id="Grupo_1202080" data-name="Grupo 1202080" clip-path="url(#clip-path-12)">
                    <path id="Trazado_1043577" data-name="Trazado 1043577" d="M1423.011,783.094a31.512,31.512,0,0,0-10.618-60.513Z" transform="translate(-1412.392 -722.581)" fill="#f7f7f7"/>
                  </g>
                </g>
              </g>
              <g id="Grupo_1202085" data-name="Grupo 1202085" transform="translate(410.701 217.679)" style="mix-blend-mode: soft-light;isolation: isolate">
                <g id="Grupo_1202084" data-name="Grupo 1202084">
                  <g id="Grupo_1202083" data-name="Grupo 1202083" clip-path="url(#clip-path-13)">
                    <path id="Trazado_1043578" data-name="Trazado 1043578" d="M1374.93,785.872l-10.563-60.2a31.512,31.512,0,0,1,7.408-2.259q.932-.164,1.858-.27l10.87,61.949q-.909.216-1.84.38a31.6,31.6,0,0,1-7.734.4" transform="translate(-1364.368 -723.145)" fill="#f7f7f7"/>
                  </g>
                </g>
              </g>
              <path id="Trazado_1043579" data-name="Trazado 1043579" d="M1258.392,1358.144a14.8,14.8,0,0,1-1.653,3.017c-.756.857-3.649,2.388-3.665,4.932-.017,2.758,4.879,1.992,6.793,1.892s2.059-1.575,2.865-3.137,1.618-1.3,1.769-2.557a16.035,16.035,0,0,0-.617-4.079Z" transform="translate(-875.875 -949.318)" fill="#2a2c41"/>
              <path id="Trazado_1043580" data-name="Trazado 1043580" d="M1382.651,1358.639s2.666,2.8,5.374,3.387,4.6,1.335,4.621,2.942-7.791,2.666-10.889,1.047c-4.623-2.418-5.094-1.689-5.606-2.9s.616-4.44.582-4.825c-.041-.474,5.918.348,5.918.348" transform="translate(-961.809 -949.318)" fill="#2a2c41"/>
              <path id="Trazado_1043581" data-name="Trazado 1043581" d="M1305.583,1077.645s2.8,20.347,3.945,27.223c1.337,8.042,1.791,14.687,2.164,18.851.468,5.235-4.439,33.4-4.111,34.929s-8.839-.636-8.839-.636,2.88-33.511,1.482-39.086c-1.3-5.193-5.995-28.012-7.183-26.594s-8.642,26.459-9.521,30.554-9.358,36.151-9.358,36.151-6.337,1.361-7.949.078c0,0,5.531-29.45,6.09-37.126.214-2.926,1.947-34.878,6.894-47.822,2.614-6.842,26.385,3.479,26.385,3.479" transform="translate(-885.059 -749.185)" fill="#2e3048"/>
              <path id="Trazado_1043582" data-name="Trazado 1043582" d="M1272.961,967.159s3.477,1.055,4.933.789.72-18.137.777-21.855c.044-3.015,1.695-10.977,1.695-10.977a.066.066,0,0,0,0,.013.01.01,0,0,1,0,.008s0,.009,0,.014c.163.6,2.39,8.86,2.468,12.829.082,4.121-.538,19.882-.538,19.882l6.139.6,17.642.433,3.679-.435s-.439-6.74-.6-9.941c-.1-2.035-.5-5.677-.4-9.225a32.687,32.687,0,0,1,.307-5.35c.04-7.109.47-14.151.47-14.151q.358-4.835.5-9.049c-.777-.411-1.713-.893-2.462-1.248-2.315-1.1-5.541-2.588-7.61-3.537-1.212-.557-2.4-.964-2.4-.964s-8.274-.793-8.946-.752a21.119,21.119,0,0,0-2.6.892,95.309,95.309,0,0,0-9.492,4.026c-1.32.947-4.114,23.419-4.24,24.992-.228,2.834.67,23.009.67,23.009" transform="translate(-889.281 -639.036)" fill="#6a98f2"/>
              <path id="Trazado_1043583" data-name="Trazado 1043583" d="M1342.356,1085a146.586,146.586,0,0,1-22.713,0v3.481s15.925,2.3,23.243-.665Z" transform="translate(-922.405 -758.396)" fill="#232536"/>
              <path id="Trazado_1043584" data-name="Trazado 1043584" d="M1360.786,918.418s1.969,4.628,3.448,14.97c.567,3.972,1.62,10.659,2.384,17.483v0c.6,5.38,1.98,10.9,2.417,15.019.453,4.266,1.818,16.835,1.818,16.835l3.312-2.088c.473-.438,1.136-1.005.943-1.62-.91-2.94-2.654-12.661-3.683-21.134,0-.006,0-.011,0-.018-.048-.409-.1-.813-.144-1.215,0-.021,0-.042-.007-.064-.193-1.7-.355-3.319-.47-4.805a15.132,15.132,0,0,1,.149-3.343c.461-7.605.69-15.622.69-15.622.243-3.283.846-7.531.938-10.39a17.835,17.835,0,0,1-2.934-.587s-6.528-2.439-8.86-3.424" transform="translate(-951.164 -641.958)" fill="#363957"/>
              <path id="Trazado_1043585" data-name="Trazado 1043585" d="M1341.858,925.494s.22,3.168-2.458,3.24-4.806-2.5-4.806-2.5l4.447,1.147,2.706-2.294Z" transform="translate(-932.856 -646.621)" fill="#c7c5ce"/>
              <path id="Trazado_1043586" data-name="Trazado 1043586" d="M1329.413,845.7s6.144,1.038,5.1,10.655-6.464,8.77-6.828,8.756-5.454.116-5.722-11.643c0,0-.078-8.694,7.448-7.767" transform="translate(-924.028 -591.078)" fill="#dba686"/>
              <path id="Trazado_1043587" data-name="Trazado 1043587" d="M1336.916,898.495s0,3.962.162,4.82c.175.922-4.933,3.588-8.231.482a34.139,34.139,0,0,0,.461-5.855c-.208-1.528,7.608.553,7.608.553" transform="translate(-928.839 -627.254)" fill="#dba686"/>
              <path id="Trazado_1043588" data-name="Trazado 1043588" d="M1362.8,873.088s.682-.713.921.019-.863,3.824-1.005,4.121c0,0-.126.281-.287.122a35.386,35.386,0,0,1,.371-4.262" transform="translate(-952.293 -610.056)" fill="#dba686"/>
              <path id="Trazado_1043589" data-name="Trazado 1043589" d="M1319.95,870.584s-.651-.74-.921-.02.714,3.958.837,4.158c0,0,.211.332.378.181a35.66,35.66,0,0,0-.294-4.32" transform="translate(-921.944 -608.289)" fill="#dba686"/>
              <path id="Trazado_1043590" data-name="Trazado 1043590" d="M1334.034,849.1c-.212,1.317-.413,2.294-.413,2.294l-.894,1.167a23.528,23.528,0,0,0-.083-2.988c-.052-.153-.113-.426-.176-.721-.1-.487-.209-1.036-.28-1.219-.115-.293-5.266-1.8-9.853.315,0,0,.039.4.036.841,0,.516-.058,1.093-.295,1.179-.44.161-.256,3.022-.256,3.022l-.715-.825s-.207-1.495-.411-3.212l0-.012c-.046-.4-.093-.813-.137-1.222-.1-1.727.069-4.864,2.318-6.707,1.517-.65,3.942-1.2,7.982.034a2.786,2.786,0,0,1,1.186.312c2.516,2.769,1.99,7.74,1.99,7.74" transform="translate(-923.029 -587.359)" fill="#2e3048"/>
              <path id="Trazado_1043591" data-name="Trazado 1043591" d="M1331.777,906.07a3.913,3.913,0,0,0,3.259,1.31,4.434,4.434,0,0,0,3.266-1.239s-1.078,2.255-3.277,2.232-3.248-2.3-3.248-2.3" transform="translate(-930.886 -633.327)" fill="#b68b72"/>
              <path id="Trazado_1043592" data-name="Trazado 1043592" d="M1351.659,917.74l-2.292,1.7s1.916-4.083,1.956-5.717Z" transform="translate(-943.182 -638.673)" fill="#9d9ca3"/>
              <path id="Trazado_1043593" data-name="Trazado 1043593" d="M1355.865,913.719l1.568,1.45,1.64,4.892-2.872-2.32Z" transform="translate(-947.723 -638.673)" fill="#e7e4f0"/>
              <path id="Trazado_1043594" data-name="Trazado 1043594" d="M1343.529,918.566a26.962,26.962,0,0,1-1.67,4.258s-2.406-2.108-3.163-2.859,4.833-1.4,4.833-1.4" transform="translate(-935.674 -642.061)" fill="#dba686"/>
              <path id="Trazado_1043595" data-name="Trazado 1043595" d="M1338.649,924.886l2.516,2.355s-2.976-.2-3.531-.694Z" transform="translate(-934.981 -646.479)" fill="#9d9ca3"/>
              <path id="Trazado_1043596" data-name="Trazado 1043596" d="M1324.166,910.466a23.82,23.82,0,0,0,3.339,4.341l-2.234,3.706-3.581-6.5Z" transform="translate(-923.837 -636.399)" fill="#e7e4f0"/>
              <path id="Trazado_1043597" data-name="Trazado 1043597" d="M1276.854,947.21c-.256,3.451,1.2,22.544-.253,22.813s-6.81-.909-6.81-.909-.67-20.59-.456-22.748c.157-1.572,2.658-25.136,3.978-26.082.762-.547,6.413-2.551,9.187-3.643.507-.2,2.112-.875,2.566-1.047.589.655,5.713,12.68,6.2,22.059.148,2.854-.521,8.882-1.03,13.807-.543,5.254-1.145,9.354-1.585,13.748-.869,8.657-1.476,15.545-1.476,15.545l-8.616-3.835c-1.394-.7-3.324-3.56-2.8-5.028,1.991-5.578,4.5-15.11,4.5-20,0,0-.961-11.986-1.723-14.621a73.843,73.843,0,0,0-1.685,9.946" transform="translate(-887.211 -639.984)" fill="#363957"/>
              <path id="Trazado_1043598" data-name="Trazado 1043598" d="M1270.254,1105.94a3.526,3.526,0,0,1-.268-1.086s.1-.677.137-1.162a3.153,3.153,0,0,0,.013-.376,6.422,6.422,0,0,1,.033-2.048c.2-.888,1.225-3.951,1.225-3.951l2.766.41,2.4-.326s1.792,5.23,1.7,6.079a2.236,2.236,0,0,1-.038.241,8.136,8.136,0,0,1-.676,1.542c-.044.133-.578,1.432-.979,1.556a1.367,1.367,0,0,1-1.319-.186,3.268,3.268,0,0,1-1.8-.027,2.038,2.038,0,0,1-1.765-.343s-1.059.191-1.432-.325" transform="translate(-887.695 -767.006)" fill="#dca787"/>
              <path id="Trazado_1043599" data-name="Trazado 1043599" d="M1277.566,1034.35l-.088,15.173a26.4,26.4,0,0,1-7.2-1.676l-.29-21.4Z" transform="translate(-887.696 -717.471)" fill="#363957"/>
              <rect id="Rectángulo_416793" data-name="Rectángulo 416793" width="5.706" height="4.244" transform="translate(405.626 326.819)" fill="#3e4265"/>
            </g>
          </g>
          <g id="Grupo_1202089" data-name="Grupo 1202089" transform="translate(303.846 381.078)">
            <g id="Grupo_1202088" data-name="Grupo 1202088" clip-path="url(#clip-path-14)">
              <rect id="Rectángulo_416795" data-name="Rectángulo 416795" width="61.43" height="7.459" transform="translate(0)" fill="url(#linear-gradient)"/>
            </g>
          </g>
          <g id="Grupo_1202091" data-name="Grupo 1202091" transform="translate(301.921 373.62)">
            <g id="Grupo_1202090" data-name="Grupo 1202090" clip-path="url(#clip-path-15)">
              <rect id="Rectángulo_416797" data-name="Rectángulo 416797" width="61.43" height="7.457" transform="translate(0 0)" fill="url(#linear-gradient-2)"/>
            </g>
          </g>
          <g id="Grupo_1202093" data-name="Grupo 1202093" transform="translate(300.556 366.162)">
            <g id="Grupo_1202092" data-name="Grupo 1202092" clip-path="url(#clip-path-16)">
              <rect id="Rectángulo_416799" data-name="Rectángulo 416799" width="61.43" height="7.458" transform="translate(0)" fill="url(#linear-gradient-3)"/>
            </g>
          </g>
          <g id="Grupo_1202095" data-name="Grupo 1202095" transform="translate(303.063 358.706)">
            <g id="Grupo_1202094" data-name="Grupo 1202094" clip-path="url(#clip-path-15)">
              <rect id="Rectángulo_416801" data-name="Rectángulo 416801" width="61.43" height="7.457" fill="url(#linear-gradient-4)"/>
            </g>
          </g>
          <g id="Grupo_1202097" data-name="Grupo 1202097" transform="translate(299.623 351.259)">
            <g id="Grupo_1202096" data-name="Grupo 1202096" clip-path="url(#clip-path-16)">
              <rect id="Rectángulo_416803" data-name="Rectángulo 416803" width="61.43" height="7.458" fill="url(#linear-gradient-5)"/>
            </g>
          </g>
          <g id="Grupo_1202099" data-name="Grupo 1202099" transform="translate(298.37 343.801)">
            <g id="Grupo_1202098" data-name="Grupo 1202098" clip-path="url(#clip-path-16)">
              <rect id="Rectángulo_416805" data-name="Rectángulo 416805" width="61.43" height="7.458" fill="url(#linear-gradient-6)"/>
            </g>
          </g>
          <g id="Grupo_1202101" data-name="Grupo 1202101" transform="translate(299.623 336.344)">
            <g id="Grupo_1202100" data-name="Grupo 1202100" clip-path="url(#clip-path-15)">
              <rect id="Rectángulo_416807" data-name="Rectángulo 416807" width="61.43" height="7.457" fill="url(#linear-gradient-7)"/>
            </g>
          </g>
          <g id="Grupo_1202103" data-name="Grupo 1202103" transform="translate(300.673 328.886)">
            <g id="Grupo_1202102" data-name="Grupo 1202102" clip-path="url(#clip-path-16)">
              <rect id="Rectángulo_416809" data-name="Rectángulo 416809" width="61.43" height="7.458" transform="translate(0)" fill="url(#linear-gradient-8)"/>
            </g>
          </g>
          <g id="Grupo_1202105" data-name="Grupo 1202105" transform="translate(298.748 321.428)">
            <g id="Grupo_1202104" data-name="Grupo 1202104" clip-path="url(#clip-path-22)">
              <rect id="Rectángulo_416811" data-name="Rectángulo 416811" width="61.429" height="7.458" transform="translate(0 0)" fill="url(#linear-gradient-9)"/>
            </g>
          </g>
          <g id="Grupo_1202107" data-name="Grupo 1202107" transform="translate(297.383 313.97)">
            <g id="Grupo_1202106" data-name="Grupo 1202106" clip-path="url(#clip-path-16)">
              <rect id="Rectángulo_416813" data-name="Rectángulo 416813" width="61.43" height="7.458" transform="translate(0)" fill="url(#linear-gradient-10)"/>
            </g>
          </g>
          <g id="Grupo_1202109" data-name="Grupo 1202109" transform="translate(299.89 306.513)">
            <g id="Grupo_1202108" data-name="Grupo 1202108" clip-path="url(#clip-path-15)">
              <rect id="Rectángulo_416815" data-name="Rectángulo 416815" width="61.43" height="7.457" fill="url(#linear-gradient-11)"/>
            </g>
          </g>
          <g id="Grupo_1202111" data-name="Grupo 1202111" transform="translate(305.433 298.635)">
            <g id="Grupo_1202110" data-name="Grupo 1202110" transform="translate(0 0)" clip-path="url(#clip-path-25)">
              <rect id="Rectángulo_416817" data-name="Rectángulo 416817" width="22.28" height="62.043" transform="translate(-1.918 8.492) rotate(-77.267)" fill="url(#linear-gradient-12)"/>
            </g>
          </g>
          <g id="Grupo_1202113" data-name="Grupo 1202113" transform="translate(222.015 373.608)">
            <g id="Grupo_1202112" data-name="Grupo 1202112" clip-path="url(#clip-path-26)">
              <rect id="Rectángulo_416819" data-name="Rectángulo 416819" width="62.781" height="7.622" fill="url(#linear-gradient-13)"/>
            </g>
          </g>
          <g id="Grupo_1202115" data-name="Grupo 1202115" transform="translate(224.304 365.987)">
            <g id="Grupo_1202114" data-name="Grupo 1202114" clip-path="url(#clip-path-26)">
              <rect id="Rectángulo_416821" data-name="Rectángulo 416821" width="62.781" height="7.622" transform="translate(0)" fill="url(#linear-gradient-14)"/>
            </g>
          </g>
          <g id="Grupo_1202117" data-name="Grupo 1202117" transform="translate(223.024 358.365)">
            <g id="Grupo_1202116" data-name="Grupo 1202116" clip-path="url(#clip-path-28)">
              <rect id="Rectángulo_416823" data-name="Rectángulo 416823" width="62.782" height="7.622" fill="url(#linear-gradient-15)"/>
            </g>
          </g>
          <g id="Grupo_1202119" data-name="Grupo 1202119" transform="translate(224.304 350.744)">
            <g id="Grupo_1202118" data-name="Grupo 1202118" clip-path="url(#clip-path-29)">
              <rect id="Rectángulo_416825" data-name="Rectángulo 416825" width="62.781" height="7.621" transform="translate(0)" fill="url(#linear-gradient-16)"/>
            </g>
          </g>
          <g id="Grupo_1202121" data-name="Grupo 1202121" transform="translate(225.376 343.121)">
            <g id="Grupo_1202120" data-name="Grupo 1202120" clip-path="url(#clip-path-30)">
              <rect id="Rectángulo_416827" data-name="Rectángulo 416827" width="62.782" height="7.623" transform="translate(0)" fill="url(#linear-gradient-17)"/>
            </g>
          </g>
          <g id="Grupo_1202123" data-name="Grupo 1202123" transform="translate(226.986 380.916)">
            <g id="Grupo_1202122" data-name="Grupo 1202122" clip-path="url(#clip-path-29)">
              <rect id="Rectángulo_416829" data-name="Rectángulo 416829" width="62.781" height="7.621" transform="translate(0)" fill="url(#linear-gradient-18)"/>
            </g>
          </g>
          <g id="Grupo_1202131" data-name="Grupo 1202131" transform="translate(0 -29.198)">
            <g id="Grupo_1202130" data-name="Grupo 1202130" transform="translate(0 0)" clip-path="url(#clip-path-3)">
              <path id="Trazado_1043600" data-name="Trazado 1043600" d="M706.259,1070.8s2.287.79,3.25-.2a7.756,7.756,0,0,1,3-1.49c.685-.205,2.555-1.62,2.822-.758s-2.969,2.48-3.58,2.955,2.77,1.212,3.281,1.834-1.025,6.151-3.287,5.378-4.168-3.1-4.592-3.152a14.684,14.684,0,0,1-1.668-.5Z" transform="translate(-493.118 -746.566)" fill="#dca787"/>
              <path id="Trazado_1043601" data-name="Trazado 1043601" d="M729.333,1083.886s6.768,2.83,7.062,3.395.118.924-.526.687-6.617-2.545-6.617-2.545,7.446,4.7,7.788,5.106c.2.24-.1.953-.454.857s-8-4.328-8-4.328,6.945,4.4,7.128,4.827a.566.566,0,0,1-.815.67c-.537-.29-7.214-4.006-7.214-4.006s4.853,3.518,4.794,3.972c-.036.277-.265.9-1.489-.042s-4.346-2.878-4.346-2.878Z" transform="translate(-507.907 -757.617)" fill="#dca787"/>
              <path id="Trazado_1043602" data-name="Trazado 1043602" d="M587.535,963.077s9.215,13.8,14.478,18.894c1.65,1.6,18.14,12.788,18.763,13.425s-1.614,6.146-1.614,6.146-21.088-12.19-22.314-12.954-16.521-18.29-17.27-20.72-.475-5.3,2-6.434c3.468-1.6,5.962,1.643,5.962,1.643" transform="translate(-404.858 -671.716)" fill="#2e3048"/>
              <path id="Trazado_1043603" data-name="Trazado 1043603" d="M677.354,996.264a32.248,32.248,0,1,1,37.336,26.19,32.248,32.248,0,0,1-37.336-26.19" transform="translate(-473.114 -669.931)" fill="#e7b96b"/>
              <path id="Trazado_1043604" data-name="Trazado 1043604" d="M782.946,1022.065,771.82,958.651a32.249,32.249,0,0,1,11.126,63.414" transform="translate(-539.487 -669.931)" fill="#e7b96b"/>
              <path id="Trazado_1043605" data-name="Trazado 1043605" d="M677.354,1002.772a32.262,32.262,0,0,1,18.607-35.023l10.812,61.621a32.261,32.261,0,0,1-29.419-26.6" transform="translate(-473.114 -676.439)" fill="#e7b96b"/>
              <path id="Trazado_1043606" data-name="Trazado 1043606" d="M702.6,1008.033a24.51,24.51,0,1,1,23.863,25.139,24.51,24.51,0,0,1-23.863-25.139" transform="translate(-491.096 -687.91)" fill="#e09637"/>
              <path id="Trazado_1043607" data-name="Trazado 1043607" d="M765.524,1028.014a4.929,4.929,0,0,0-.687-1.011,10.9,10.9,0,0,0-1.161-1.172,11.976,11.976,0,0,0-1.545-1.137,10.374,10.374,0,0,0-1.839-.909l-2.135,7.1.61.333a31.608,31.608,0,0,1,3.043,2,9.931,9.931,0,0,1,2.118,2.1,5.668,5.668,0,0,1,1.011,2.417,6.531,6.531,0,0,1-.275,2.964,7.094,7.094,0,0,1-1.584,2.905,6.324,6.324,0,0,1-2.445,1.6,8.452,8.452,0,0,1-3.06.481,13.633,13.633,0,0,1-3.412-.522l-1.083,3.6-1.783-.536,1.1-3.667a18.024,18.024,0,0,1-4.4-2.391,15.424,15.424,0,0,1-3.4-3.472l2.737-2.765a6.38,6.38,0,0,0,.83,1.222,13.145,13.145,0,0,0,1.4,1.43,16.125,16.125,0,0,0,1.871,1.423,14.058,14.058,0,0,0,2.238,1.2l2.134-7.1c-.123-.087-.254-.171-.392-.25s-.269-.161-.393-.248a30.431,30.431,0,0,1-2.867-1.966,8.263,8.263,0,0,1-1.859-1.961,5.258,5.258,0,0,1-.823-2.173,6.121,6.121,0,0,1,.275-2.59,7.547,7.547,0,0,1,1.48-2.807,6.832,6.832,0,0,1,2.321-1.751,8.222,8.222,0,0,1,2.929-.726,12.141,12.141,0,0,1,3.337.276l1.042-3.462,1.783.536-1.042,3.462a13.8,13.8,0,0,1,3.845,2.129,15.531,15.531,0,0,1,2.779,2.818Zm-11.58-2.513a2.587,2.587,0,0,0,.361,2.464,10.183,10.183,0,0,0,2.687,2.191l2.031-6.753a5.2,5.2,0,0,0-3.38.048,3.1,3.1,0,0,0-1.7,2.049m6.483,14.361a2.647,2.647,0,0,0-.514-2.64,13.4,13.4,0,0,0-2.942-2.4l-2.042,6.787a6.528,6.528,0,0,0,3.624.193,2.7,2.7,0,0,0,1.874-1.941" transform="translate(-520.457 -710.475)" fill="#eac483"/>
              <g id="Grupo_1202126" data-name="Grupo 1202126" transform="translate(237.646 288.548)" style="mix-blend-mode: soft-light;isolation: isolate">
                <g id="Grupo_1202125" data-name="Grupo 1202125">
                  <g id="Grupo_1202124" data-name="Grupo 1202124" clip-path="url(#clip-path-33)">
                    <path id="Trazado_1043608" data-name="Trazado 1043608" d="M800.338,1020.516a32.257,32.257,0,0,0-10.868-61.942Z" transform="translate(-789.47 -958.574)" fill="#f7f7f7"/>
                  </g>
                </g>
              </g>
              <g id="Grupo_1202129" data-name="Grupo 1202129" transform="translate(222.846 288.721)" style="mix-blend-mode: soft-light;isolation: isolate">
                <g id="Grupo_1202128" data-name="Grupo 1202128">
                  <g id="Grupo_1202127" data-name="Grupo 1202127" clip-path="url(#clip-path-34)">
                    <path id="Trazado_1043609" data-name="Trazado 1043609" d="M751.118,1023.357l-10.812-61.621a32.27,32.27,0,0,1,7.583-2.312q.953-.168,1.9-.277l11.126,63.414q-.929.221-1.883.389a32.31,32.31,0,0,1-7.918.408" transform="translate(-740.306 -959.147)" fill="#f7f7f7"/>
                  </g>
                </g>
              </g>
              <path id="Trazado_1043610" data-name="Trazado 1043610" d="M482.725,1345.46s1.022.449,2.559,1.26a13.416,13.416,0,0,0,5.455,1.857c2.175.148,4.448.93,4.291,3.01s-7.128,2.718-13.652,1.574-6.634-1.291-6.681-1.8.447-5.666.722-5.867,7.307-.038,7.307-.038" transform="translate(-331.802 -940.409)" fill="#212231"/>
              <path id="Trazado_1043611" data-name="Trazado 1043611" d="M484.714,1332.046s-.476,2.335-.5,2.609-7.857,1.6-7.436-.017c.443-1.708,2.862-5.048,2.862-5.048Z" transform="translate(-333.249 -929.36)" fill="#252638"/>
              <path id="Trazado_1043612" data-name="Trazado 1043612" d="M513.279,1122.148c-.62-6.4-21.944-20.286-22.977-14.223s7.767,19.988,8.317,24.536.093,5.74-3.353,9.667-17.939,32.919-17.939,32.919c.413,2.2,8.028,2.9,8.234,2.412s20.73-27.613,21.835-28.648,5.166-5.65,5.788-7.923a49.743,49.743,0,0,0,.657-12.191s-.475-6.03-.562-6.55" transform="translate(-333.642 -773.373)" fill="#2d2f46"/>
              <path id="Trazado_1043613" data-name="Trazado 1043613" d="M621.394,1344.654a11.347,11.347,0,0,1,2.962,1.075c1.567.828,3.705,2.218,5.922,2.369s4.738,1.023,4.578,3.144-7.473,2.7-14.127,1.532-6.765-1.319-6.813-1.832a26.565,26.565,0,0,1,.579-5.5c.125-.323,6.9-.788,6.9-.788" transform="translate(-429.112 -939.889)" fill="#212231"/>
              <path id="Trazado_1043614" data-name="Trazado 1043614" d="M624.926,1333.49s-.636,1.932-.438,2.216-8.857.987-8.641.267c.125-.418,1.4-3.153,2.065-4.587.583-1.251,7.014,2.1,7.014,2.1" transform="translate(-430.463 -930.419)" fill="#252638"/>
              <path id="Trazado_1043615" data-name="Trazado 1043615" d="M555.049,1092.395s24.687,18.7,27.451,22.528-.337,9.51-.75,11.37-17.7,35.067-17.9,38.271c0,0-7.544,1.058-9.507-1.423,0,0,10.977-31.989,12.734-37.985s-6.1-6.926-10.957-9.1-26.181-14.683-27.423-19.39a14.047,14.047,0,0,1-.012-7.539s5.973-3.862,26.368,3.264" transform="translate(-369.192 -760.552)" fill="#2d2f46"/>
              <path id="Trazado_1043616" data-name="Trazado 1043616" d="M555.008,939.58s1.859,8.153,1.4,12.645-5.073,15.931-5.415,18.433,1.992,14.8,1.992,14.8l-27.75,4.2a155.765,155.765,0,0,1,1.062-15.72c1.019-8.531,4.234-15.281,5.359-20.1,3.839-16.45,17.885-18.737,17.885-18.737Z" transform="translate(-367.132 -653.613)" fill="#c8bcb4"/>
              <path id="Trazado_1043617" data-name="Trazado 1043617" d="M630.469,875.27s1.8,4.379.624,4.908c-.972.436.588,4.712.778,5.4s-1.779.972-2.232,1.358-2.213,5.52-3.81,5.512-8.454-3.232-10.181-5.45-2.36-11.49-.663-15.194,12.3-4.191,15.482,3.463" transform="translate(-429.167 -607.558)" fill="#dba585"/>
              <path id="Trazado_1043618" data-name="Trazado 1043618" d="M617.763,904.584s-.234.4-.585,1.028c-.147.261-.314.564-.493.889-.136.25-.281.516-.426.787a26.246,26.246,0,0,0-2.2,4.891c-.436,2-4.994-9.23-4.994-9.23a98.833,98.833,0,0,0,5.919-12.664c2.62-6.925,2.775,14.3,2.775,14.3" transform="translate(-425.728 -621.322)" fill="#dba585"/>
              <path id="Trazado_1043619" data-name="Trazado 1043619" d="M626.945,870.706a6.4,6.4,0,0,0-1.043-7.991c-3.8-3.755-12.051,1.268-12.936,1.4s-5.723-.062-4.241,8.793c1.288,7.695,1.69,7.447,1.69,7.447s1.948-3.616,2.913-4.173c1.505-.869,4.549-.3,4.549-.3s-1.054-4.035,1.288-4.344,5.559-1.929,7.78-.829" transform="translate(-425.291 -602.05)" fill="#2d2f46"/>
              <path id="Trazado_1043620" data-name="Trazado 1043620" d="M624.453,896.615c-.146-.554-.557-2.91-2.662-1.772s.628,5.785.966,5.876,2.92.555,1.7-4.1" transform="translate(-434.068 -625.265)" fill="#dba585"/>
              <path id="Trazado_1043621" data-name="Trazado 1043621" d="M607.421,932.548s2.871,6.693,5.324,8.962l-1.157,3.982-5.6-12.179Z" transform="translate(-423.573 -651.834)" fill="#e6d8d1"/>
              <path id="Trazado_1043622" data-name="Trazado 1043622" d="M552.989,1096.389l-.471-2.588-27.209,3.984-.07,2.8Z" transform="translate(-367.132 -764.547)" fill="#404367"/>
              <path id="Trazado_1043623" data-name="Trazado 1043623" d="M545.705,955.283q-1.051,2.155-2.005,4.363h0c-1.4,3.232-2.641,6.516-3.738,9.728q-.588,1.719-1.119,3.406a67.7,67.7,0,0,1-12.607,22.648s-10.885-2.03-13.246-4.115a197.228,197.228,0,0,1,7.469-30.474c.395-1.143.805-2.281,1.232-3.4h0c3.8-14.543,10.877-22.339,19.291-22.339.139.21,8.407,12.644,4.721,20.188" transform="translate(-358.57 -653.615)" fill="#363957"/>
              <path id="Trazado_1043624" data-name="Trazado 1043624" d="M507.147,1024.138s-3.57,15.507-12.607,27.714c-1.225,1.653,11.847,4.217,11.847,4.217Z" transform="translate(-345.617 -715.854)" fill="#363957"/>
              <path id="Trazado_1043625" data-name="Trazado 1043625" d="M549.806,984.113c-3.684,3.228-12,10.99-12,10.99.395-1.143.805-2.281,1.232-3.405h0c2.883-2.339,10.649-7.5,10.771-7.583" transform="translate(-375.913 -687.877)" fill="#242636"/>
              <path id="Trazado_1043626" data-name="Trazado 1043626" d="M625.675,932.862s-.234.4-.585,1.028c-.148.261-.314.564-.493.889-3.5-3.222-4.188-5.361-4.208-5.427a39.448,39.448,0,0,0,5.286,3.51" transform="translate(-433.64 -649.601)" fill="#997761"/>
              <path id="Trazado_1043627" data-name="Trazado 1043627" d="M538.525,972.578s-2.492,9.7-11.04,9.475c-7.655-.2-19.074,2.453-22.954,5l-4.826,3.389,1.6-5s4.041-7.761,26.2-4.411c0,0,6.689,1.994,10.163-9.628,0,0,1.057.7.863,1.17" transform="translate(-349.284 -678.997)" fill="#6d57b3"/>
              <path id="Trazado_1043628" data-name="Trazado 1043628" d="M625.836,963.1a13.6,13.6,0,0,1,.119,3.748c-.114.378-1.143-.224-1.143-.224Z" transform="translate(-436.732 -673.19)" fill="#6d57b3"/>
              <path id="Trazado_1043629" data-name="Trazado 1043629" d="M728.18,1060.511a2.176,2.176,0,0,0,1.215.457c1.069-.034,2.259-1.223,3.4-.193s-1.11,5.572-1.945,6.117-2.781-.356-4.9-2.8,2.229-3.581,2.229-3.581" transform="translate(-507.02 -741.17)" fill="#dba585"/>
              <path id="Trazado_1043630" data-name="Trazado 1043630" d="M739.233,1060.783a44.253,44.253,0,0,1,4.51,1.765c2.043.942,4.45,2.395,4.22,2.911-.35.786-2.187-.631-4.276-1.426-1.923-.732-1.667-.262-1.667-.262s-.066-.139,1.874,1.072c2.087,1.3,4.272,2.785,4.092,3.212-.224.53-.3.577-1.131.23.437.3.415.468.306.665-.567,1.016-3.932-.412-5.267-.98,1.023.442,1.727.878.978,1.275-.857.455-5.522-1.782-7.269-2.421-1.908-.7,3.632-6.042,3.632-6.042" transform="translate(-513.892 -741.468)" fill="#dba585"/>
              <path id="Trazado_1043631" data-name="Trazado 1043631" d="M589.146,946.367s10.77,14.6,16.776,19.889c1.884,1.659,20.765,11.949,21.478,12.613s-1.75,7.88-1.75,7.88-23.652-12.23-25.029-13-20.169-21.973-21.107-24.587.4-2.912,3.039-4.281c3.7-1.921,6.594,1.489,6.594,1.489" transform="translate(-404.859 -660.043)" fill="#363957"/>
              <path id="Trazado_1043632" data-name="Trazado 1043632" d="M314.516,843.661s5.426,2.655,4.085,9.875-1.935,8.193-.434,11.014,3.271,14.856,1.921,17.138-16.717-10.024-18.847-20.349,1.35-14.916,2.58-16.627,5.907-3.482,10.7-1.051" transform="translate(-210.088 -588.872)" fill="#c38855"/>
              <path id="Trazado_1043633" data-name="Trazado 1043633" d="M351.907,933.015a7.558,7.558,0,0,1,4.313,2.844c1.078,1.589,1.165,5.116,1.322,5.781s2.215,8.184,2.215,8.184L354,953.68Z" transform="translate(-245.976 -652.161)" fill="#363957"/>
              <path id="Trazado_1043634" data-name="Trazado 1043634" d="M405.595,1341.536s3.755,5.054,3.239,5.856-4.464.915-6.866,0-2.461-6.84-3.547-9.385c-.456-1.065.518-4.21,1.888-4.439a5.769,5.769,0,0,1,2.859.443s-1.421,3.584,2.427,7.525" transform="translate(-278.409 -932.107)" fill="#2c3d54"/>
              <path id="Trazado_1043635" data-name="Trazado 1043635" d="M405.819,1333.8a23.83,23.83,0,0,1,1.079,4.207c.24,1.7,2.675,5.323,2.56,5.781s-3.2.872-4.463-.308-2.069-4.612-2.346-6.665a16.459,16.459,0,0,0-.584-2.856s2.553-1.419,3.754-.16" transform="translate(-281.036 -931.939)" fill="#dba585"/>
              <path id="Trazado_1043636" data-name="Trazado 1043636" d="M296.724,1341.625s3.619,4.97,3.1,5.772-4.463.915-6.865,0-2.462-6.84-3.548-9.385c-.455-1.065.518-4.21,1.889-4.439a6.153,6.153,0,0,1,2.975.491s-1.4,3.62,2.446,7.56" transform="translate(-202.216 -932.113)" fill="#2c3d54"/>
              <path id="Trazado_1043637" data-name="Trazado 1043637" d="M298.214,1333.63a33.855,33.855,0,0,0,.744,4.005c.458,1.659,2.919,5.436,2.8,5.894s-3.2.872-4.463-.308-2.232-4.6-2.346-6.665a11.016,11.016,0,0,1,.287-3.418,2.8,2.8,0,0,1,2.975.491" transform="translate(-206.151 -931.678)" fill="#dba585"/>
              <path id="Trazado_1043638" data-name="Trazado 1043638" d="M303.576,1036.593s3.222,14.986,3.962,18.76,2.811,22.048,3.033,25.156,3.362,14.816,3.215,15.925,4.655,23.4,4.655,23.4a2.889,2.889,0,0,1-3.37.119c-.89-.617-10.538-20.872-10.538-26.42,0-7.671-5.672-17.683-6.4-19.4-6.8-15.942-5.46-20.816-6.348-21.851s-.965.64-1.483,2.933-1.627,22.123-2.293,24.638-.149,11.024-.518,15.315-1.994,23.7-1.994,23.7-1.259,1.972-3.023.052c-.38-.413-3.047-21.624-3.121-26.729s-.152-12.145-.3-14.354c-1.371-21.155-4.739-24.177.567-39.149,9.935-28.034,23.957-2.1,23.957-2.1" transform="translate(-193.43 -716.923)" fill="#dba585"/>
              <path id="Trazado_1043639" data-name="Trazado 1043639" d="M279.609,1048.046s-9.178,12.844-5.227,40.169c0,0,21.769,2.96,33.431-3.425,0,0-4.823-28.173-6.57-32.555s-21.634-4.189-21.634-4.189" transform="translate(-191.097 -732.564)" fill="#2b2d43"/>
              <path id="Trazado_1043640" data-name="Trazado 1043640" d="M398.351,1346.947v5.292h.686v-4.091Z" transform="translate(-278.439 -941.491)" fill="#2c3d54"/>
              <path id="Trazado_1043641" data-name="Trazado 1043641" d="M289.344,1346.947v5.292h.686v-4.091Z" transform="translate(-202.246 -941.491)" fill="#2c3d54"/>
              <path id="Trazado_1043642" data-name="Trazado 1043642" d="M295.957,926.38a35.332,35.332,0,0,0,4.556,1.831c1.174.236,5.73,6.153,6.528,8.313s0,5.4-1.644,9.2-.094,5.072-.845,8.876a88.475,88.475,0,0,0-1.268,13.972c.141,2.114-18.995,2.513-23.362-1.338,0,0,4.389-6.575,4.953-7.514s.094-6.058-.422-7.374-3.955-12.5-3.955-12.5-2.813-8.588-.272-10.561c2.207-1.714,8.223-2.325,9.3-2.7a18.424,18.424,0,0,1,6.429-.211" transform="translate(-195.129 -647.399)" fill="#e6d8d1"/>
              <path id="Trazado_1043643" data-name="Trazado 1043643" d="M338.316,931.536l2.055-2.405-1.784-6.335a41.847,41.847,0,0,0-.271,8.74" transform="translate(-236.408 -645.018)" fill="#cfc3bc"/>
              <path id="Trazado_1043644" data-name="Trazado 1043644" d="M321.641,903.083s-.093.848-.2,2.02c-.047.519-.1,1.1-.148,1.7a38.659,38.659,0,0,0-.184,4.5s-3.514,3.522-7.51-4.109a10.477,10.477,0,0,0,.417-7.432c-1.267-4.285,7.628,3.318,7.628,3.318" transform="translate(-219.198 -628.004)" fill="#dba585"/>
              <path id="Trazado_1043645" data-name="Trazado 1043645" d="M329.155,941.146v3.216l-4.044-3.022Z" transform="translate(-227.246 -657.844)" fill="#dba585"/>
              <path id="Trazado_1043646" data-name="Trazado 1043646" d="M317.268,933.919l-1.678-2.077-5.656-5.637-1.829,1.762Z" transform="translate(-215.36 -647.4)" fill="#cfc3bc"/>
              <path id="Trazado_1043647" data-name="Trazado 1043647" d="M284.878,927.994s4.745,7.2,4.972,10.372-1.765,26.882-3.358,34.5-13.111-.86-13.111-.86,7.74-12.527,4.768-22.557-4.05-14.042-4.05-14.042,1.022-5.585,4.644-6.371c3.176-.69,6.135-1.047,6.135-1.047" transform="translate(-191.088 -648.651)" fill="#363957"/>
              <path id="Trazado_1043648" data-name="Trazado 1043648" d="M352.216,940.46s.82,3.047-2.516,9.742c0,0,.053,8.568.148,11.245s1.986,12.3,1.986,12.3l-4.556,2.426a.93.93,0,0,1-1.394-.914c.934-7.7,3.972-36.923-2.59-44.778l2.633.777s4.716,3.811,6.29,9.2" transform="translate(-239.955 -650.391)" fill="#363957"/>
              <path id="Trazado_1043649" data-name="Trazado 1043649" d="M341.227,929.131l2.589.715-4.373-7.05Z" transform="translate(-237.264 -645.018)" fill="#f3e4dc"/>
              <path id="Trazado_1043650" data-name="Trazado 1043650" d="M316.2,931.125l-2.365,3.1-4.855-8.093,1.684-.952Z" transform="translate(-215.973 -646.684)" fill="#f3e4dc"/>
              <rect id="Rectángulo_416833" data-name="Rectángulo 416833" width="0.856" height="10.125" transform="translate(103.655 296.974) rotate(-38.332)" fill="#cb4949"/>
              <path id="Trazado_1043651" data-name="Trazado 1043651" d="M340.748,1005.367a1.839,1.839,0,0,0,.995-.286c.681-.512.926-1.778,2.129-1.686s1.761,3.862,1.459,4.576-1.971,1.071-4.439.579-.144-3.183-.144-3.183" transform="translate(-237.483 -701.352)" fill="#dba585"/>
              <path id="Trazado_1043652" data-name="Trazado 1043652" d="M350.991,1000.264a37.532,37.532,0,0,1,3.724-1.021c1.75-.378,3.842-.5,4.045-.2.228.338-1.7.63-3.42,1.117-1.58.448-1.2.613-1.2.613s-.1-.053,1.7-.222c1.938-.181,3.935-.177,4.131.21.1.188.03.317-.669.494.42-.02.479.088.5.257.083.874-2.745,1.569-3.867,1.845.863-.207,1.516-.27,1.205.315-.356.67-4.391,1.479-5.814,1.9-1.552.461-.327-5.312-.327-5.312" transform="translate(-245.015 -698.195)" fill="#dba585"/>
              <path id="Trazado_1043653" data-name="Trazado 1043653" d="M275.125,931.744c-1.189-.384-4.679.852-5.269,4.432s-.826,7.551-1.377,9.479-1.954,10.467-.775,11.175a13.378,13.378,0,0,0,6.549,1.354c3.237,0,15.787.564,15.787.564l.786-4.458s-4.766-.246-7.235-.621c-2.2-.333-5.246-1.269-8.834-1.662a60.391,60.391,0,0,1,1.312-6.785c.551-1.494,4.4-11.747-.945-13.478" transform="translate(-186.8 -651.225)" fill="#363957"/>
              <path id="Trazado_1043654" data-name="Trazado 1043654" d="M346.708,980.369l12.641-2.507,9.376-20.062-13.493,1.419Z" transform="translate(-242.342 -669.485)" fill="#ecb65c"/>
              <path id="Trazado_1043655" data-name="Trazado 1043655" d="M391.222,998.585a10.229,10.229,0,0,0,1.31-1.544c.617-.9,2.637-4.341,2.452-4.557s-3.184-.289-3.727.2.534.682.534.682-1.64.169-1.522.632,1.1.335,1.1.335-1.321.253-1.12.659.835.4.835.4-1.169.147-1.025.591,2,.863,1.748,1.231a8.71,8.71,0,0,0-.589,1.368" transform="translate(-272.638 -693.613)" fill="#dba585"/>
              <path id="Trazado_1043656" data-name="Trazado 1043656" d="M320.172,848.553s7.878,2.476,3.6,16.072-15.036-1.576-13.911-9.86,10.309-6.212,10.309-6.212" transform="translate(-216.531 -592.963)" fill="#dba686"/>
              <path id="Trazado_1043657" data-name="Trazado 1043657" d="M323.136,853.952a17.779,17.779,0,0,1-10.466,4.322s-2.517,2.952-2.712,4.11c0,0-5.845-9.963,1.34-15.935s14.478,5.042,11.837,7.5" transform="translate(-215.088 -590.428)" fill="#c38855"/>
              <path id="Trazado_1043658" data-name="Trazado 1043658" d="M318.086,884.381c-.051-.99-.66-3.242-2.131-2.611s.089,5.216,1.065,4.933c0,0,1.185.018,1.065-2.322" transform="translate(-220.425 -616.265)" fill="#dba686"/>
              <path id="Trazado_1043659" data-name="Trazado 1043659" d="M327.06,911.51c-.047.519-.1,1.1-.148,1.7h0c-4.555-2.249-5.253-5.491-5.273-5.593,3.245,4.194,5.422,3.888,5.422,3.888" transform="translate(-224.819 -634.411)" fill="#997761"/>
            </g>
          </g>
        </g>
      </g>
    </g>
  </g>
</svg>
